<svg width="64" height="35" viewBox="0 0 64 35" fill="none" xmlns="http://www.w3.org/2000/svg">
<g clip-path="url(#clip0_123_462)">
<path d="M49.6179 30.4627C48.5476 30.4627 47.494 30.4627 46.4405 30.4627C41.6911 30.4627 36.9249 30.4627 32.1755 30.4458C31.7073 30.4458 31.4899 30.5301 31.3561 31.0193C30.6704 33.3807 28.5466 34.9494 26.1384 34.9831C23.7637 35 21.5897 33.3976 20.904 31.053C20.7535 30.5301 20.5194 30.4458 20.0344 30.4458C17.4925 30.4627 14.9505 30.4627 12.3919 30.4627C11.3718 30.4627 11.0373 30.1422 11.0373 29.1133C11.0373 27.2241 11.0373 25.3181 11.0373 23.4289C11.0373 23.2096 11.0373 22.9735 11.0373 22.6867C10.753 22.6867 10.5189 22.6867 10.3015 22.6867C8.04382 22.6867 5.78618 22.6867 3.54526 22.6867C2.74254 22.6867 2.29102 22.3157 2.29102 21.6916C2.29102 21.0675 2.75927 20.6627 3.52854 20.6627C7.5923 20.6627 11.6728 20.6627 15.7365 20.6627C15.8536 20.6627 15.9874 20.6627 16.1044 20.6795C16.673 20.7807 17.0075 21.2024 16.9741 21.7253C16.9406 22.2651 16.5727 22.653 15.9874 22.653C15.0342 22.6699 14.0809 22.653 13.0775 22.653C13.0775 24.5928 13.0775 26.4651 13.0775 28.4217C13.6796 28.4217 14.2816 28.4217 14.8836 28.4217C16.6396 28.4217 18.3955 28.4217 20.1348 28.4217C20.5194 28.4217 20.7033 28.3711 20.8371 27.9325C21.5228 25.4867 23.6466 23.8843 26.1217 23.8843C28.58 23.8843 30.6704 25.4867 31.4062 27.9325C31.5066 28.253 31.5902 28.4217 31.9748 28.4217C36.6072 28.4048 41.2395 28.4048 45.8719 28.4048C45.9388 28.4048 45.9889 28.388 46.1395 28.3711C46.1395 19.6169 46.1395 10.8627 46.1395 2.04096C35.1523 2.04096 24.1316 2.04096 13.0775 2.04096C13.0775 3.05301 13.0775 4.04819 13.0775 5.12771C13.3284 5.12771 13.5458 5.12771 13.7632 5.12771C15.4355 5.12771 17.1078 5.12771 18.7634 5.12771C19.4825 5.12771 19.9006 5.4988 19.9174 6.08916C19.9341 6.69639 19.4993 7.13494 18.7634 7.13494C14.8 7.15181 10.8366 7.15181 6.87319 7.13494C6.13737 7.13494 5.68584 6.73012 5.70256 6.12289C5.70256 5.51566 6.15409 5.14458 6.90664 5.12771C8.0271 5.11084 9.16428 5.12771 10.2847 5.12771C10.5021 5.12771 10.7363 5.12771 11.0206 5.12771C11.0206 4.04819 11.0206 3.05301 11.0206 2.04096C11.0206 0.725301 11.7062 0 13.0441 0C24.0815 0 35.1188 0 46.1562 0C47.4606 0 48.163 0.708434 48.1797 2.04096C48.1964 4.08193 48.1797 6.12289 48.1797 8.16386C48.1797 8.38313 48.1797 8.61928 48.1797 8.90602C48.8821 8.90602 49.5343 8.90602 50.1698 8.90602C51.8755 8.90602 53.598 8.92289 55.3038 8.90602C56.4744 8.88916 57.3273 9.39518 57.8959 10.441C59.6184 13.5952 61.3576 16.7157 63.0969 19.853C63.6989 20.9157 63.9832 22.0627 63.9832 23.294C63.9665 25.0145 63.9832 26.7518 63.9832 28.4723C63.9832 29.7711 63.2975 30.5301 62.0266 30.4458C60.9563 30.3783 60.3877 30.5976 59.9696 31.7446C59.2003 33.853 56.9427 35.1349 54.7854 34.9831C52.4274 34.8313 50.521 33.347 49.8019 31.1036C49.7517 30.9181 49.6848 30.7157 49.6179 30.4627ZM48.2299 28.388C49.5008 28.5566 49.5008 28.5566 49.9022 27.4771C50.7049 25.3518 52.7284 23.9349 54.9694 23.9012C57.2604 23.8843 59.3007 25.2675 60.1368 27.4096C60.5382 28.4554 60.5382 28.4554 61.6921 28.4217C61.7757 28.4217 61.8426 28.388 61.9764 28.3711C61.9764 26.7012 61.9597 25.0313 61.9764 23.3783C61.9931 22.4169 61.759 21.5566 61.2907 20.7301C59.6017 17.694 57.9126 14.641 56.2403 11.588C55.9727 11.0988 55.6717 10.8964 55.1031 10.8964C53.0127 10.9301 50.9223 10.9133 48.8486 10.9133C48.6479 10.9133 48.4473 10.9301 48.2131 10.947C48.2299 16.7831 48.2299 22.5687 48.2299 28.388ZM22.6432 29.4C22.6432 31.441 24.1651 33.0096 26.1217 32.9759C28.0281 32.959 29.55 31.3904 29.55 29.4506C29.55 27.4771 27.9947 25.9253 26.0548 25.9422C24.1651 25.9422 22.6432 27.494 22.6432 29.4ZM58.498 29.4506C58.498 27.4602 56.9594 25.9253 55.0028 25.9422C53.0963 25.959 51.5745 27.5108 51.5912 29.4675C51.5912 31.441 53.1465 33.0096 55.0864 32.9928C56.9929 32.959 58.498 31.3904 58.498 29.4506Z" fill="black"/>
<path d="M11.0205 16.0747C11.0205 14.1012 11.0205 12.2289 11.0205 10.3566C11.0205 9.71561 11.4553 9.27706 12.0072 9.29393C12.5591 9.29393 12.9771 9.73248 13.0106 10.3734C13.0273 10.559 13.0106 10.7445 13.0106 10.9469C13.0106 12.6337 13.0106 14.3036 13.0106 16.0915C13.2614 16.0915 13.4788 16.0915 13.6962 16.0915C17.6764 16.0915 21.6732 16.0915 25.6534 16.0915C25.8373 16.0915 26.038 16.0747 26.222 16.1084C26.7404 16.1927 27.0581 16.4963 27.0916 17.0361C27.125 17.6096 26.824 17.9469 26.3056 18.0819C26.1551 18.1156 25.9711 18.1156 25.8039 18.1156C20.0845 18.1156 14.3652 18.1156 8.66253 18.1156C8.54547 18.1156 8.41168 18.1156 8.29462 18.0987C7.74275 18.0144 7.39156 17.6096 7.40829 17.0698C7.42501 16.5301 7.79292 16.1253 8.36151 16.1084C9.19768 16.0578 10.0673 16.0747 11.0205 16.0747Z" fill="black"/>
<path d="M4.31449 10.7614C5.41822 10.7614 6.52196 10.7614 7.6257 10.7614C8.37824 10.7614 8.79632 11.1325 8.79632 11.7735C8.79632 12.3975 8.36152 12.7855 7.6257 12.7855C5.43495 12.8024 3.26092 12.8024 1.07017 12.7855C0.284174 12.7855 0.0166016 12.4819 0.0166016 11.7228C0.0166016 11.0144 0.284174 10.7783 1.08689 10.7614C2.15718 10.7445 3.22747 10.7614 4.31449 10.7614Z" fill="black"/>
<path d="M33 2L35.6942 10.2918H44.4127L37.3593 15.4164L40.0534 23.7082L33 18.5836L25.9466 23.7082L28.6407 15.4164L21.5873 10.2918H30.3058L33 2Z" fill="#E52034"/>
</g>
<defs>
<clipPath id="clip0_123_462">
<rect width="64" height="35" fill="white"/>
</clipPath>
</defs>
</svg>
