<svg width="21" height="22" viewBox="0 0 21 22" fill="none" xmlns="http://www.w3.org/2000/svg">
<path fill-rule="evenodd" clip-rule="evenodd" d="M11.6667 0.970945C11.6667 0.713434 11.5437 0.466471 11.325 0.284383C11.1062 0.102296 10.8094 0 10.5 0C10.1906 0 9.89383 0.102296 9.67504 0.284383C9.45625 0.466471 9.33333 0.713434 9.33333 0.970945V1.94189H3.5C2.57174 1.94189 1.6815 2.24878 1.02513 2.79504C0.368749 3.3413 0 4.08219 0 4.85472V16.5061C0 17.2786 0.368749 18.0195 1.02513 18.5657C1.6815 19.112 2.57174 19.4189 3.5 19.4189H9.33333V20.3898C9.33333 20.6474 9.45625 20.8943 9.67504 21.0764C9.89383 21.2585 10.1906 21.3608 10.5 21.3608C10.8094 21.3608 11.1062 21.2585 11.325 21.0764C11.5437 20.8943 11.6667 20.6474 11.6667 20.3898V19.4189C11.9761 19.4189 12.2728 19.3166 12.4916 19.1345C12.7104 18.9524 12.8333 18.7055 12.8333 18.448C12.8333 18.1904 12.7104 17.9435 12.4916 17.7614C12.2728 17.5793 11.9761 17.477 11.6667 17.477V3.88378C11.9761 3.88378 12.2728 3.78148 12.4916 3.5994C12.7104 3.41731 12.8333 3.17034 12.8333 2.91283C12.8333 2.65532 12.7104 2.40836 12.4916 2.22627C12.2728 2.04419 11.9761 1.94189 11.6667 1.94189V0.970945ZM16.3333 1.94189C16.0239 1.94189 15.7272 2.04419 15.5084 2.22627C15.2896 2.40836 15.1667 2.65532 15.1667 2.91283C15.1667 3.17034 15.2896 3.41731 15.5084 3.5994C15.7272 3.78148 16.0239 3.88378 16.3333 3.88378H17.5C17.8094 3.88378 18.1062 3.98607 18.325 4.16816C18.5438 4.35025 18.6667 4.59721 18.6667 4.85472V5.82567C18.6667 6.08318 18.7896 6.33014 19.0084 6.51223C19.2272 6.69432 19.5239 6.79661 19.8333 6.79661C20.1428 6.79661 20.4395 6.69432 20.6583 6.51223C20.8771 6.33014 21 6.08318 21 5.82567V4.85472C21 4.08219 20.6313 3.3413 19.9749 2.79504C19.3185 2.24878 18.4283 1.94189 17.5 1.94189H16.3333ZM21 9.70945C21 9.45194 20.8771 9.20497 20.6583 9.02289C20.4395 8.8408 20.1428 8.7385 19.8333 8.7385C19.5239 8.7385 19.2272 8.8408 19.0084 9.02289C18.7896 9.20497 18.6667 9.45194 18.6667 9.70945V11.6513C18.6667 11.9088 18.7896 12.1558 19.0084 12.3379C19.2272 12.52 19.5239 12.6223 19.8333 12.6223C20.1428 12.6223 20.4395 12.52 20.6583 12.3379C20.8771 12.1558 21 11.9088 21 11.6513V9.70945ZM21 15.5351C21 15.2776 20.8771 15.0306 20.6583 14.8486C20.4395 14.6665 20.1428 14.5642 19.8333 14.5642C19.5239 14.5642 19.2272 14.6665 19.0084 14.8486C18.7896 15.0306 18.6667 15.2776 18.6667 15.5351V16.5061C18.6667 16.7636 18.5438 17.0105 18.325 17.1926C18.1062 17.3747 17.8094 17.477 17.5 17.477H16.3333C16.0239 17.477 15.7272 17.5793 15.5084 17.7614C15.2896 17.9435 15.1667 18.1904 15.1667 18.448C15.1667 18.7055 15.2896 18.9524 15.5084 19.1345C15.7272 19.3166 16.0239 19.4189 16.3333 19.4189H17.5C18.4283 19.4189 19.3185 19.112 19.9749 18.5657C20.6313 18.0195 21 17.2786 21 16.5061V15.5351Z" fill="#484848"/>
</svg>
