<svg width="20" height="22" viewBox="0 0 20 22" fill="none" xmlns="http://www.w3.org/2000/svg">
<g clip-path="url(#clip0_105_1165)">
<path d="M15.0446 22C14.9353 21.9082 14.8201 21.8221 14.7281 21.7188C14.4806 21.449 14.2388 21.1735 14.0144 20.8865C13.9108 20.7545 13.8014 20.7086 13.6345 20.7086C10.4115 20.7143 7.18273 20.7086 3.95971 20.7143C3.74101 20.7143 3.57986 20.6512 3.42446 20.4962C2.36547 19.4344 1.30072 18.3783 0.235971 17.3279C0.0690647 17.1615 0 16.9893 0 16.754C0.0057554 14.8082 0.0057554 12.8568 0.0057554 10.911C0.0057554 10.5667 0.172662 10.383 0.466187 10.3945C0.679137 10.4059 0.840288 10.5494 0.863309 10.7675C0.87482 10.8536 0.869065 10.9397 0.869065 11.0258C0.869065 12.742 0.869065 14.4639 0.869065 16.18C0.869065 16.2661 0.869065 16.3522 0.869065 16.4555C0.966907 16.4613 1.04748 16.4727 1.13381 16.4727C1.9741 16.4727 2.81439 16.4727 3.65468 16.4727C4.13237 16.4727 4.26475 16.6105 4.26475 17.0869C4.26475 17.9937 4.26475 18.9063 4.26475 19.8304C7.20576 19.8304 10.1353 19.8304 13.0993 19.8304C12.7482 19.4229 12.4144 19.0326 12.0806 18.6423C11.5511 18.0282 11.0273 17.414 10.4978 16.7999C10.3597 16.6392 10.2964 16.4727 10.3885 16.2719C10.4806 16.0652 10.6532 16.0193 10.8662 16.0193C11.413 16.025 11.9597 16.0193 12.5065 16.0193C12.5813 16.0193 12.6619 16.0193 12.7597 16.0193C12.7597 15.9217 12.7597 15.8414 12.7597 15.7668C12.7597 14.7336 12.7597 13.7062 12.7597 12.6731C12.7597 12.2828 12.8978 12.1451 13.2892 12.1393C13.7612 12.1393 14.2331 12.1393 14.7223 12.1393C14.7223 8.36838 14.7223 4.6204 14.7223 0.860944C10.1122 0.860944 5.50216 0.860944 0.869065 0.860944C0.869065 0.952779 0.869065 1.03313 0.869065 1.11923C0.869065 3.03052 0.869065 4.94182 0.869065 6.85312C0.869065 7.24915 0.72518 7.45004 0.448921 7.45578C0.166906 7.46152 0.0057554 7.24341 0.0057554 6.84738C0.0057554 4.74667 0.0057554 2.65171 0.0057554 0.551004C0.0057554 0.137751 0.143885 0 0.569784 0C5.39856 0 10.2216 0 15.0504 0C15.4647 0 15.6029 0.143491 15.6029 0.556744C15.6029 4.3162 15.6029 8.07566 15.6029 11.8351C15.6029 11.927 15.6029 12.0188 15.6029 12.1451C15.6892 12.1451 15.764 12.1451 15.8389 12.1451C16.2705 12.1451 16.7022 12.1451 17.1338 12.1451C17.5194 12.1451 17.6691 12.3 17.6691 12.6788C17.6691 13.712 17.6691 14.7394 17.6691 15.7725C17.6691 15.8471 17.6691 15.9275 17.6691 16.025C18.187 16.025 18.6763 16.025 19.1712 16.025C19.2863 16.025 19.4014 16.0308 19.5165 16.025C19.718 16.0193 19.8676 16.0939 19.954 16.2776C20.046 16.4613 19.9885 16.6277 19.8619 16.7712C19.6086 17.0697 19.3496 17.3681 19.0906 17.6666C17.9281 19.0211 16.7655 20.3757 15.5971 21.7245C15.5108 21.8278 15.4014 21.9082 15.2978 21.9943C15.2173 22 15.1309 22 15.0446 22ZM13.6173 13.0232C13.6173 13.1208 13.6173 13.2011 13.6173 13.2815C13.6173 14.2974 13.6173 15.3133 13.6173 16.335C13.6173 16.7482 13.4734 16.8917 13.0647 16.8917C12.6331 16.8917 12.1957 16.8917 11.7122 16.8917C12.8806 18.252 14.0144 19.5721 15.1655 20.9095C16.3165 19.5664 17.4504 18.2463 18.6187 16.8917C18.164 16.8917 17.7669 16.8917 17.3755 16.8917C16.9439 16.8917 16.8058 16.7597 16.8058 16.335C16.8058 15.3133 16.8058 14.2859 16.8058 13.2643C16.8058 13.1897 16.8058 13.1151 16.8058 13.0347C15.7295 13.0232 14.6878 13.0232 13.6173 13.0232ZM1.60576 17.3681C2.18705 17.9536 2.79137 18.5562 3.38417 19.1589C3.38417 18.5792 3.38417 17.9765 3.38417 17.3681C2.76259 17.3681 2.15827 17.3681 1.60576 17.3681Z" fill="#484848"/>
<path d="M7.96536 10.1305C6.66464 10.1305 5.36967 10.1305 4.06895 10.1305C3.98838 10.1305 3.9078 10.1305 3.83298 10.119C3.60852 10.0788 3.45312 9.90663 3.45312 9.69427C3.45312 9.4819 3.60277 9.30971 3.83298 9.26954C3.9078 9.25806 3.98838 9.25806 4.06895 9.25806C6.67615 9.25806 9.27759 9.25806 11.8848 9.25806C12.2877 9.25806 12.5006 9.40729 12.5006 9.69427C12.5006 9.98125 12.2877 10.1362 11.8848 10.1362C10.5783 10.1305 9.27183 10.1305 7.96536 10.1305Z" fill="#484848"/>
<path d="M7.70642 3.54712C7.92513 3.56434 8.15534 3.54712 8.36829 3.59304C9.05318 3.74227 9.42153 4.21292 9.58268 4.86723C9.7093 5.37232 9.68052 5.87741 9.47908 6.35954C9.20858 7.01386 8.66182 7.38119 7.95966 7.38119C7.7352 7.38119 7.51649 7.38119 7.29203 7.38119C6.91218 7.38119 6.73951 7.21474 6.73376 6.83593C6.728 6.18735 6.73376 5.53303 6.73376 4.88445C6.73376 4.60321 6.728 4.32771 6.73376 4.04647C6.73951 3.72505 6.90642 3.56434 7.22872 3.5586C7.38412 3.5586 7.54527 3.5586 7.70067 3.5586C7.70642 3.55286 7.70642 3.54712 7.70642 3.54712ZM7.6316 4.43102C7.6316 5.13126 7.6316 5.81427 7.6316 6.50877C8.01146 6.53747 8.3798 6.54895 8.59851 6.18161C8.86901 5.72244 8.86326 5.23457 8.62728 4.76966C8.41433 4.37363 8.02297 4.40232 7.6316 4.43102Z" fill="#484848"/>
<path d="M4.31655 6.09549C4.31655 6.39395 4.32231 6.66371 4.31655 6.93347C4.3108 7.22619 4.13238 7.4156 3.87914 7.40986C3.63166 7.40412 3.45324 7.21471 3.45324 6.93921C3.45324 5.94626 3.44749 4.9533 3.45324 3.96034C3.45324 3.66762 3.63166 3.48969 3.91943 3.48969C4.29353 3.48969 4.66763 3.47247 5.03022 3.53561C5.6518 3.63892 6.09497 4.23585 6.05468 4.83277C6.01439 5.48708 5.53669 5.99791 4.89209 6.06679C4.71367 6.08401 4.5295 6.08401 4.31655 6.09549ZM4.33957 4.35064C4.33957 4.6491 4.33957 4.91886 4.33957 5.21158C4.62734 5.18862 4.93813 5.30916 5.1108 5.00496C5.17411 4.8959 5.17986 4.70076 5.12231 4.5917C4.9554 4.26454 4.6331 4.36212 4.33957 4.35064Z" fill="#484848"/>
<path d="M11.2576 5.90617C11.2576 6.29646 11.2634 6.65232 11.2576 7.00818C11.2519 7.26646 11.0907 7.43865 10.8547 7.45013C10.6073 7.46161 10.4001 7.28942 10.4001 7.03687C10.3943 6.01522 10.3943 4.98783 10.4001 3.96617C10.4001 3.71937 10.5785 3.5644 10.8375 3.55866C11.2461 3.54718 11.6547 3.54718 12.0634 3.55866C12.3281 3.5644 12.5008 3.75381 12.5008 3.99487C12.495 4.23019 12.3109 4.41386 12.0519 4.42534C11.8044 4.43682 11.5511 4.42534 11.2806 4.42534C11.2806 4.62623 11.2806 4.81564 11.2806 5.03948C11.5051 5.03948 11.7296 5.03374 11.954 5.03948C12.1497 5.04522 12.2936 5.13706 12.3684 5.32646C12.4317 5.49291 12.4087 5.65362 12.2821 5.75694C12.1842 5.83729 12.0461 5.88895 11.9195 5.90043C11.7123 5.92339 11.5051 5.90617 11.2576 5.90617Z" fill="#484848"/>
<path d="M7.97696 12.5984C7.29782 12.5984 6.61293 12.5984 5.93379 12.5984C5.60574 12.5984 5.4043 12.4319 5.4043 12.1679C5.4043 11.9039 5.61149 11.7317 5.93379 11.7317C7.29782 11.7317 8.66185 11.7317 10.0259 11.7317C10.4115 11.7317 10.636 12.0129 10.5093 12.3229C10.423 12.5295 10.2619 12.5984 10.0431 12.5984C9.35825 12.5984 8.66761 12.5984 7.97696 12.5984Z" fill="#484848"/>
<path d="M0.863289 8.87921C0.857534 9.11453 0.667606 9.30394 0.443146 9.30394C0.201419 9.30394 -1.9806e-05 9.09731 0.00573559 8.86199C0.011491 8.6324 0.201419 8.443 0.431635 8.43726C0.679117 8.443 0.869045 8.6324 0.863289 8.87921Z" fill="#484848"/>
</g>
<defs>
<clipPath id="clip0_105_1165">
<rect width="20" height="22" fill="white"/>
</clipPath>
</defs>
</svg>
