<svg width="65" height="66" viewBox="0 0 65 66" fill="none" xmlns="http://www.w3.org/2000/svg">
<g clip-path="url(#clip0_163_1086)">
<path d="M20.5101 66C19.1681 65.2054 18.9149 64.6159 19.2187 63.0268C19.6998 60.3355 21.9787 58.285 24.6881 58.285C29.879 58.2594 35.0699 58.2594 40.2861 58.285C43.1727 58.3107 45.553 60.6175 45.8568 63.5394C45.9834 64.7184 45.477 65.513 44.4641 66C36.4879 66 28.5117 66 20.5101 66Z" fill="#E52034"/>
<path d="M30.5882 3.87029C30.5882 3.20388 30.5882 2.58873 30.5882 1.94796C30.6135 0.768928 31.3985 -0.0256348 32.5126 -0.0256348C33.6015 -0.0256348 34.3864 0.794559 34.4117 1.97359C34.4371 2.58873 34.4117 3.20388 34.4117 3.81903C35.7031 4.02407 36.9692 4.17786 38.2099 4.40854C41.1979 4.99806 44.0339 6.10019 46.6673 7.63806C52.0354 10.765 57.6061 13.4819 63.506 15.4555C64.5948 15.8144 65.1012 16.6602 64.9493 17.6598C64.7721 18.685 64.0124 19.2746 62.8223 19.2746C57.4542 19.2489 52.238 18.4287 47.0471 17.019C39.9571 15.0711 32.7658 14.6097 25.4733 15.5068C21.8523 15.9682 18.358 16.9421 14.8383 17.788C10.635 18.7876 6.35564 19.2489 2.02568 19.2746C0.936864 19.2746 0.177223 18.685 -2.70046e-05 17.7111C-0.177277 16.7371 0.30383 15.8656 1.31668 15.5068C7.44446 13.4563 13.1924 10.5856 18.7884 7.35611C22.2575 5.35689 26.0304 4.25475 30.0311 3.92155C30.2084 3.94718 30.3603 3.92155 30.5882 3.87029Z" fill="#125EA9"/>
<path d="M58.2139 36.0373C56.2135 31.4237 54.2131 26.887 52.1874 22.2478C52.7698 22.3247 53.2763 22.4016 53.7574 22.4528C54.5423 22.5553 55.302 22.7091 56.0869 22.786C56.5174 22.8116 56.6946 22.9911 56.8719 23.3755C58.6191 27.4252 60.4169 31.4493 62.1641 35.499C62.3413 35.9348 62.5439 36.1142 63.0503 36.1142C64.2404 36.1142 65.0254 36.9344 65.0001 38.1647C64.9494 40.9584 63.7846 43.2652 61.8096 45.1619C59.6066 47.2893 56.9479 48.4171 53.9599 48.8015C50.2124 49.2885 46.6167 48.7503 43.3756 46.6742C40.5902 44.88 38.7165 42.445 38.286 39.0361C38.2354 38.7029 38.2354 38.3441 38.2354 38.0109C38.2607 36.96 39.0456 36.0885 40.0838 36.1142C40.6915 36.1398 40.9194 35.8579 41.1473 35.3709C43.0971 30.8598 45.0721 26.3487 47.0472 21.8377C47.1485 21.6326 47.2498 21.4019 47.3511 21.1456C48.5918 21.4276 49.8325 21.7095 51.1239 22.0171C49.0729 26.7076 47.0472 31.3468 44.9962 36.0373C49.4274 36.0373 53.7574 36.0373 58.2139 36.0373Z" fill="#E52034"/>
<path d="M12.8123 22.2478C10.7865 26.9126 8.78616 31.4493 6.78577 36.0373C11.1917 36.0373 15.5216 36.0373 19.9782 36.0373C17.9525 31.3724 15.9268 26.7332 13.8504 22.0427C15.1165 21.7351 16.3319 21.4532 17.6233 21.1456C17.7246 21.3763 17.8512 21.6326 17.9525 21.8889C19.9529 26.4256 21.9533 30.988 23.9283 35.5503C24.1056 35.9604 24.3082 36.1142 24.764 36.1142C25.9794 36.1142 26.7643 36.96 26.739 38.2159C26.6631 41.2917 25.2704 43.701 22.9915 45.6489C17.4461 50.3651 8.38102 50.1087 3.11417 45.0594C1.18974 43.214 0.0502799 40.9584 -0.000362882 38.2416C-0.0256843 36.9344 0.733957 36.1142 2.02535 36.1142C2.45581 36.1142 2.65838 35.9604 2.81031 35.5759C4.55749 31.5518 6.32998 27.5278 8.07716 23.5037C8.27973 23.0423 8.50762 22.8117 9.03937 22.7604C10.2548 22.6579 11.4702 22.4272 12.8123 22.2478Z" fill="#E52034"/>
<path d="M30.6387 19.0182C31.8794 19.0182 33.1202 19.0182 34.3862 19.0182C34.3862 30.8085 34.3862 42.5476 34.3862 54.3379C33.1455 54.3379 31.9047 54.3379 30.6387 54.3379C30.6387 42.5988 30.6387 30.8342 30.6387 19.0182Z" fill="#E52034"/>
</g>
<defs>
<clipPath id="clip0_163_1086">
<rect width="65" height="66" fill="white"/>
</clipPath>
</defs>
</svg>
