<svg width="37" height="36" viewBox="0 0 37 36" fill="none" xmlns="http://www.w3.org/2000/svg">
<path d="M7.96298 33.2236C7.68382 33.164 7.39691 33.1193 7.12551 33.0448C4.10136 32.2549 2.3489 29.52 2.91497 26.5542C3.61285 22.9028 4.25644 19.2439 4.93882 15.585C5.11716 14.6237 5.18695 13.6326 5.62895 12.7309C6.62149 10.6817 8.30416 9.55644 10.6537 9.42976C11.7005 9.37014 12.7551 9.41485 13.8096 9.41485C13.9182 9.41485 14.0345 9.41485 14.2051 9.41485C13.3677 8.10332 13.1661 6.76198 13.7631 5.36103C14.1276 4.51152 14.7324 3.8483 15.5544 3.37138C17.1672 2.43244 19.2686 2.60383 20.6799 3.80359C21.5097 4.50406 22.0136 5.37593 22.1532 6.4341C22.3005 7.49227 22.0292 8.45356 21.4088 9.3925C21.5639 9.39995 21.6724 9.4074 21.7733 9.4074C22.8046 9.4074 23.8359 9.38505 24.8672 9.42231C27.6433 9.51173 29.8687 11.33 30.365 13.9531C30.9621 17.0977 31.5281 20.2499 32.1097 23.402C32.3268 24.572 32.5594 25.7419 32.7378 26.9119C33.2108 29.9224 31.0551 32.6871 27.9068 33.164C27.8138 33.1789 27.7285 33.2087 27.6433 33.2311C21.0909 33.2236 14.5231 33.2236 7.96298 33.2236ZM17.7953 31.4277C20.8505 31.4277 23.9057 31.4352 26.9531 31.4277C29.3337 31.4203 31.0861 29.6616 30.9155 27.4186C30.8612 26.6511 30.6674 25.891 30.5278 25.1309C29.8764 21.5912 29.2173 18.0516 28.5815 14.5119C28.217 12.4925 26.6894 11.2033 24.557 11.2033C22.2695 11.2033 19.9743 11.2033 17.6868 11.2033C15.3683 11.2033 13.042 11.166 10.7235 11.2182C9.24242 11.2555 8.14907 11.9858 7.44343 13.2526C7.05572 13.9531 7.00145 14.728 6.85412 15.4881C6.195 19.0352 5.54365 22.5823 4.89229 26.1369C4.74496 26.9268 4.56661 27.7092 4.76047 28.5215C5.17145 30.2503 6.7378 31.4277 8.6686 31.4277C11.7083 31.4352 14.7557 31.4277 17.7953 31.4277ZM17.7721 9.39995C19.1136 9.44466 20.2845 8.34178 20.3232 7.00044C20.362 5.71127 19.2532 4.59349 17.8496 4.56368C16.5237 4.53387 15.3295 5.48026 15.2907 6.94083C15.2675 8.23 16.2755 9.33288 17.7721 9.39995Z" fill="#484848"/>
<path d="M22.8752 22.4938C22.7273 22.4938 22.5936 22.5005 22.4668 22.4938C22.0023 22.4737 21.6503 22.1247 21.6433 21.702C21.6362 21.2792 21.9952 20.9102 22.4458 20.89C22.9032 20.8766 23.3608 20.8766 23.8183 20.89C24.2126 20.9034 24.5574 21.1853 24.5927 21.5476C24.656 22.2791 24.656 23.0105 24.2196 23.6681C23.6846 24.4734 22.9103 24.9163 21.9107 24.923C20.9182 24.9297 20.1299 24.5002 19.5879 23.695C19.2993 23.2655 19.1725 22.7824 19.1725 22.2724C19.1725 21.7288 19.1655 21.1853 19.1725 20.6417C19.2007 19.0983 20.4818 17.9173 22.0374 18.0045C22.8329 18.0448 23.4946 18.3736 24.0014 18.9574C24.3111 19.3198 24.2759 19.7962 23.938 20.0915C23.5931 20.3867 23.0863 20.38 22.7554 20.0378C22.4458 19.7224 22.0938 19.5412 21.6362 19.6553C21.249 19.7493 20.9182 20.0714 20.9042 20.4471C20.883 21.1249 20.8761 21.8026 20.9042 22.4804C20.9253 22.9501 21.3758 23.2991 21.8756 23.3058C22.3824 23.3125 22.7977 22.9971 22.8752 22.4938Z" fill="#484848"/>
<path d="M14.0223 22.3611C14.0223 22.984 14.0292 23.5466 14.0223 24.1159C14.0154 24.6651 13.5293 25.0201 12.9877 24.8995C12.6058 24.8125 12.3558 24.4977 12.3558 24.0623C12.349 23.0108 12.3558 21.9592 12.3558 20.9076C12.3558 20.2312 12.3558 19.5547 12.3558 18.8782C12.3558 18.3625 12.703 18.0008 13.189 18.0008C13.6682 18.0008 14.0223 18.3625 14.0223 18.8782C14.0292 19.4207 14.0223 19.9632 14.0223 20.5728C14.1334 20.4723 14.2028 20.412 14.2653 20.345C14.9457 19.6685 15.6262 18.9921 16.3067 18.3089C16.5358 18.0745 16.8066 17.9472 17.1469 18.0209C17.7996 18.1615 18.0217 18.8983 17.5565 19.3872C16.9941 19.9699 16.4178 20.5326 15.8415 21.0952C15.7235 21.209 15.5777 21.2961 15.4318 21.4033C15.5638 21.5372 15.6262 21.6109 15.6956 21.6779C16.3137 22.2941 16.9316 22.9036 17.5426 23.5198C17.7926 23.7743 17.8759 24.0757 17.744 24.4039C17.619 24.7187 17.376 24.8861 17.0288 24.9129C16.7303 24.9397 16.5012 24.8125 16.2928 24.6048C15.6123 23.9217 14.9318 23.2452 14.2515 22.5687C14.1958 22.5151 14.1334 22.4615 14.0223 22.3611Z" fill="#484848"/>
</svg>
