<svg width="82" height="82" viewBox="0 0 82 82" fill="none" xmlns="http://www.w3.org/2000/svg">
<g clip-path="url(#clip0_163_1108)">
<path d="M22.4085 0C23.3188 0.420154 23.879 1.16709 24.3458 2.03074C24.9294 3.10447 25.583 4.15485 26.1665 5.22858C26.8901 6.55907 26.5633 7.93624 25.3962 8.63649C24.1824 9.36009 22.8053 8.93994 21.9883 7.60945C21.3347 6.51238 20.7045 5.39197 20.0743 4.2949C18.9072 2.24082 19.1639 1.19044 21.1247 0C21.5682 0 21.9883 0 22.4085 0Z" fill="#125EA9"/>
<path d="M60.8521 0C60.9689 0.0700256 61.0622 0.140051 61.1789 0.210077C62.5561 0.933675 62.9996 2.2875 62.276 3.64133C61.5291 5.0185 60.7354 6.37233 59.9185 7.72616C59.1715 8.96328 57.771 9.31341 56.6039 8.63649C55.4835 7.95958 55.0867 6.60575 55.7636 5.36863C56.5339 3.96812 57.3042 2.56761 58.1678 1.23712C58.4946 0.74694 59.1015 0.420154 59.5683 0.0233419C60.0118 0 60.432 0 60.8521 0Z" fill="#125EA9"/>
<path d="M81.9998 36.8335C81.3695 38.2107 80.2725 38.7009 78.7786 38.6075C77.4948 38.5375 76.2343 38.6075 74.9505 38.5842C73.4566 38.5608 72.4062 37.5571 72.4062 36.1799C72.4062 34.8028 73.4566 33.7991 74.9505 33.7757C76.2343 33.7524 77.5181 33.8458 78.7786 33.7524C80.2725 33.659 81.3695 34.1492 81.9998 35.5264C81.9998 35.9932 81.9998 36.4134 81.9998 36.8335Z" fill="#125EA9"/>
<path d="M41.0118 82C39.5179 82 38.0241 82 36.5302 82C32.0719 81.9767 29.0141 78.8956 28.9907 74.4139C28.9907 73.0601 28.9907 71.6829 28.9907 70.3291C28.9907 64.6804 27.1234 59.7552 23.1319 55.7404C20.0742 52.636 17.6233 49.2047 16.106 45.0732C11.9045 33.5657 16.5262 20.1908 26.9833 13.7717C41.9221 4.57504 61.4126 11.9277 66.3144 28.7572C69.0687 38.2807 66.8746 46.8472 60.2689 54.2232C58.4015 56.3006 56.3474 58.2147 55.0169 60.7356C53.7098 63.2565 53.0095 65.8941 53.0095 68.7185C53.0095 70.7026 53.0329 72.6633 53.0095 74.6474C52.9395 78.8722 49.8817 81.93 45.6568 82C44.0929 82.0234 42.5524 82 41.0118 82ZM48.2011 67.4114C48.2478 67.0612 48.3178 66.8045 48.3412 66.5477C48.738 62.0661 50.4886 58.1446 53.313 54.7134C54.8535 52.846 56.6509 51.1888 58.1447 49.2747C64.1436 41.6419 64.0502 30.4378 57.9813 22.8517C51.3989 14.5654 39.9381 12.2078 30.578 17.1797C22.7818 21.3345 18.2068 30.5312 19.5606 39.2611C20.3076 44.0228 22.315 48.131 25.7696 51.5389C28.4539 54.1765 30.6714 57.1409 31.9552 60.6656C32.7488 62.8364 33.239 65.1005 33.8925 67.388C35.3164 67.388 36.927 67.388 38.5843 67.388C38.5843 63.8401 38.6076 60.3388 38.5609 56.8608C38.5609 56.4174 38.3975 55.9272 38.1408 55.5537C35.4331 51.4222 32.6788 47.3374 29.9478 43.2292C29.6443 42.7857 29.3175 42.3655 28.9441 41.9921C27.5902 40.6149 26.2131 39.2844 24.8826 37.9072C23.9022 36.8802 23.9489 35.4563 24.8826 34.5227C25.8163 33.589 27.2168 33.5657 28.2671 34.5227C28.6873 34.8961 29.0608 35.3163 29.4576 35.7131C30.0878 36.3433 30.718 36.9736 31.4183 37.6738C32.2353 36.8102 33.0289 36.0866 33.7291 35.2696C35.4098 33.3556 36.9036 33.2855 38.6776 35.293C39.4012 36.1099 40.1715 36.8569 40.9885 37.6972C41.9922 36.6701 42.8558 35.7831 43.7428 34.8961C45.19 33.4489 46.4271 33.4489 47.8743 34.8961C48.7613 35.8065 49.6483 36.7168 50.6053 37.6972C51.5857 36.6935 52.4727 35.7831 53.3363 34.8961C54.6435 33.589 56.0673 33.4489 57.1177 34.5227C58.1681 35.5964 58.028 36.9969 56.6975 38.3041C55.4371 39.5645 54.1766 40.825 52.9162 42.1088C52.6361 42.3889 52.3793 42.6923 52.1459 43.0191C49.3449 47.1973 46.5438 51.3988 43.7662 55.6004C43.5561 55.9272 43.416 56.3707 43.416 56.7675C43.3927 60.082 43.3927 63.3966 43.3927 66.6878C43.3927 66.9212 43.416 67.1546 43.4394 67.388C45.05 67.4114 46.5905 67.4114 48.2011 67.4114ZM33.7992 72.2665C33.7992 73.2002 33.7758 74.0405 33.7992 74.9041C33.8692 76.1879 34.8262 77.1916 36.11 77.1916C39.3545 77.215 42.6224 77.215 45.8669 77.1916C47.0107 77.1916 47.991 76.398 48.1077 75.3009C48.2244 74.3206 48.1311 73.2935 48.1311 72.2898C43.3693 72.2665 38.6309 72.2665 33.7992 72.2665ZM47.3841 41.5019C46.8006 40.825 46.2871 40.2414 45.7035 39.5879C45.0266 40.2881 44.3964 40.9417 43.7895 41.6186C41.5954 44.0695 40.3349 44.0462 38.1874 41.6419C37.5806 40.9417 36.927 40.2881 36.2034 39.4945C35.6899 40.0314 35.3397 40.4748 34.9196 40.825C34.5228 41.1751 34.4994 41.4319 34.8029 41.8987C36.7402 44.7698 38.6543 47.6641 40.5683 50.5352C40.685 50.6986 40.8251 50.8386 40.9885 51.0487C43.2059 47.7575 45.3301 44.583 47.3841 41.5019Z" fill="#E52034"/>
<path d="M4.73878 38.6074C3.99184 38.6074 3.2449 38.6307 2.49796 38.6074C1.05077 38.5841 0.0237234 37.5804 0.000381478 36.2265C-0.0229604 34.8727 1.02742 33.8457 2.45128 33.8223C4.01518 33.799 5.60243 33.799 7.16634 33.8223C8.54351 33.8457 9.57055 34.8727 9.59389 36.2032C9.61723 37.5337 8.56685 38.5841 7.143 38.6307C6.34937 38.6074 5.53241 38.6074 4.73878 38.6074Z" fill="#125EA9"/>
<path d="M67.7385 19.0937C67.7618 18.5101 68.112 17.8332 68.8122 17.3897C70.2361 16.5261 71.6833 15.6624 73.1538 14.8688C74.3442 14.2386 75.6981 14.6587 76.3516 15.7558C77.0052 16.8762 76.7018 18.2534 75.558 18.977C74.1342 19.864 72.687 20.7043 71.1931 21.4746C69.5592 22.3382 67.7152 21.1478 67.7385 19.0937Z" fill="#125EA9"/>
<path d="M7.77286 14.4954C8.21636 14.6588 8.6832 14.7988 9.08001 15.0089C10.3638 15.7091 11.6243 16.4561 12.8847 17.203C14.2386 17.9966 14.6354 19.3738 13.9118 20.6109C13.2115 21.8014 11.8344 22.1282 10.5039 21.3812C9.12669 20.6109 7.77286 19.8407 6.44238 19.0237C5.43868 18.3935 5.08855 17.3197 5.43868 16.246C5.76546 15.2423 6.69914 14.5654 7.77286 14.4954Z" fill="#125EA9"/>
<path d="M14.2615 53.3128C14.2382 53.8964 13.8647 54.5966 13.1411 55.0401C11.7173 55.8804 10.3168 56.7207 8.84622 57.5144C7.63245 58.1679 6.23193 57.7244 5.6017 56.5807C4.97147 55.4369 5.29826 54.0831 6.46535 53.3829C7.86586 52.5192 9.28972 51.6789 10.7603 50.932C12.4175 50.045 14.2849 51.2354 14.2615 53.3128Z" fill="#125EA9"/>
<path d="M76.8649 55.2503C76.7015 57.0943 74.9042 58.3547 73.3403 57.5844C71.753 56.7908 70.2124 55.8805 68.7186 54.9235C67.6682 54.2466 67.4348 52.8694 68.065 51.7957C68.6719 50.7686 69.9557 50.2551 71.0294 50.8153C72.64 51.6323 74.2039 52.5426 75.6978 53.5463C76.2347 53.9198 76.4914 54.6667 76.8649 55.2503Z" fill="#125EA9"/>
</g>
<defs>
<clipPath id="clip0_163_1108">
<rect width="82" height="82" fill="white"/>
</clipPath>
</defs>
</svg>
