<svg width="19" height="24" viewBox="0 0 19 24" fill="none" xmlns="http://www.w3.org/2000/svg">
<path d="M18.9999 11.1427V19.7142C18.9999 20.8509 18.615 21.941 17.9297 22.7447C17.2445 23.5485 16.3152 24 15.3461 24H10.2307C10.0369 24 9.85105 23.9097 9.714 23.7489C9.57696 23.5882 9.49996 23.3702 9.49996 23.1428C9.49996 22.9155 9.57696 22.6975 9.714 22.5367C9.85105 22.376 10.0369 22.2857 10.2307 22.2857H15.3461C15.9275 22.2857 16.4852 22.0148 16.8963 21.5325C17.3074 21.0503 17.5384 20.3962 17.5384 19.7142H15.3461C14.7647 19.7142 14.207 19.4433 13.7959 18.9611C13.3848 18.4788 13.1538 17.8248 13.1538 17.1428V12.857C13.1538 12.175 13.3848 11.5209 13.7959 11.0387C14.207 10.5564 14.7647 10.2855 15.3461 10.2855H17.5064C17.3681 8.50363 16.8005 6.80469 15.8697 5.38713C14.9389 3.96957 13.6835 2.89191 12.25 2.28003C10.8166 1.66816 9.2643 1.54732 7.77448 1.93164C6.28467 2.31596 4.91884 3.18957 3.83652 4.45043C2.49069 6.00821 1.6606 8.07628 1.49442 10.2855H3.65383C4.23527 10.2855 4.79289 10.5564 5.20402 11.0387C5.61516 11.5209 5.84613 12.175 5.84613 12.857V17.1428C5.84613 17.8248 5.61516 18.4788 5.20402 18.9611C4.79289 19.4433 4.23527 19.7142 3.65383 19.7142H2.1923C1.61087 19.7142 1.05325 19.4433 0.64211 18.9611C0.230974 18.4788 0 17.8248 0 17.1428V11.1427C0.00204883 8.93538 0.562346 6.77843 1.60997 4.94482C2.6576 3.11121 4.14546 1.68339 5.88522 0.842068C7.62498 0.000750212 9.53843 -0.216236 11.3834 0.218576C13.2283 0.653387 14.9218 1.72045 16.2495 3.28469C17.1261 4.31789 17.8203 5.54382 18.2922 6.89224C18.7642 8.24065 19.0047 9.68505 18.9999 11.1427Z" fill="#484848"/>
</svg>
