<svg width="22" height="26" viewBox="0 0 22 26" fill="none" xmlns="http://www.w3.org/2000/svg">
<path d="M21.9742 11.9347C21.9363 11.7958 21.8595 11.6671 21.7505 11.5601C21.6415 11.4531 21.5037 11.3711 21.3493 11.3214L14.1499 8.97949L15.9819 1.03275C16.0234 0.848115 15.9945 0.656785 15.8996 0.487635C15.8047 0.318485 15.6489 0.180695 15.4558 0.0950554C15.2626 0.00941608 15.0426 -0.0194248 14.8289 0.0128848C14.6152 0.0451943 14.4194 0.136901 14.2711 0.274167L0.274582 13.2785C0.160904 13.3824 0.078668 13.5091 0.0352211 13.6472C-0.00822581 13.7854 -0.0115306 13.9307 0.0256024 14.0703C0.0627353 14.2098 0.139149 14.3392 0.248017 14.4468C0.356885 14.5545 0.494817 14.6371 0.649489 14.6873L7.85144 17.0292L6.0244 24.9672C5.98291 25.1519 6.01181 25.3432 6.10672 25.5124C6.20163 25.6815 6.35741 25.8193 6.55055 25.9049C6.74369 25.9906 6.96371 26.0194 7.17741 25.9871C7.39111 25.9548 7.5869 25.8631 7.73522 25.7258L21.7317 12.7215C21.8434 12.6176 21.9238 12.4915 21.9661 12.3543C22.0084 12.2171 22.0112 12.0731 21.9742 11.9347ZM8.67499 22.3198L9.98341 16.6434C10.0302 16.4421 9.99313 16.2329 9.8787 16.0531C9.76427 15.8733 9.57995 15.7345 9.35857 15.6616L2.75521 13.5104L13.3301 3.68564L12.0229 9.36204C11.9761 9.56335 12.0132 9.77255 12.1276 9.95235C12.242 10.1322 12.4264 10.2709 12.6477 10.3439L19.2461 12.4896L8.67499 22.3198Z" fill="#484848"/>
</svg>
