<svg width="94" height="96" viewBox="0 0 94 96" fill="none" xmlns="http://www.w3.org/2000/svg">
<g clip-path="url(#clip0_163_1095)">
<path d="M30.449 40.0237C18.8826 33.9477 17.1566 21.6149 19.8872 14.0652C23.03 5.352 31.2991 -0.336126 40.7017 0.0258457C49.7179 0.361962 57.7036 6.9033 59.9963 15.8492C62.289 24.7692 58.5022 34.9819 48.8935 39.9978C49.383 40.153 49.7694 40.2822 50.1815 40.4115C55.9777 41.9887 61.1555 44.7293 65.6894 48.6852C66.3591 49.254 66.9258 49.3057 67.5699 48.8403C68.3942 48.2715 69.1928 47.6768 69.9914 47.0821C72.2325 45.4274 74.6798 45.4016 76.9467 47.0563C77.1012 47.1597 77.2558 47.289 77.4104 47.4183C78.956 48.9179 80.8108 49.4091 82.9489 49.4091C86.1432 49.4091 88.0237 51.038 88.7707 54.1406C88.7965 54.244 88.8223 54.3216 88.8223 54.425C89.0283 56.5451 90.0845 58.1223 91.6817 59.4926C92.4803 60.1648 93.15 61.1215 93.6137 62.0781C94.2577 63.3709 94.1289 64.767 93.588 66.1115C93.4334 66.4993 93.2788 66.8872 93.047 67.2491C91.8878 68.9814 91.7074 70.8171 92.0681 72.8855C92.6348 76.2984 91.3983 78.3151 88.2298 79.6854C87.9722 79.7888 87.7146 79.9181 87.3797 80.0733C87.5085 80.4094 87.6373 80.7455 87.7918 81.0557C89.0283 83.7188 90.2391 86.3819 91.5014 89.0191C91.862 89.7948 91.965 90.5446 91.4241 91.2944C90.9089 91.9925 90.1618 92.1217 89.3632 91.9925C88.3071 91.8115 87.2766 91.6563 86.2462 91.4236C85.5764 91.2685 85.1385 91.3719 84.8036 92.07C84.3399 93.0525 83.7217 93.9575 83.1807 94.9141C82.7943 95.6122 82.2276 96.0517 81.4032 96.0259C80.5531 96 79.9864 95.5088 79.6515 94.7331C78.4408 92.1217 77.23 89.5362 76.0451 86.9507C75.4783 85.7355 74.4479 85.1926 73.1341 85.4253C72.2583 85.5804 71.6143 85.9165 71.2021 86.8731C70.1202 89.4587 68.8836 91.9666 67.6987 94.5004C67.338 95.3019 66.8486 95.9483 65.8697 96.0259C64.865 96.0776 64.2983 95.457 63.8604 94.6555C63.3451 93.7248 62.7784 92.8198 62.289 91.889C62.0314 91.3978 61.7222 91.2944 61.207 91.3978C60.0736 91.6305 58.9401 91.8115 57.7809 91.9925C56.9566 92.1217 56.2353 91.9925 55.72 91.2685C55.2048 90.5704 55.2821 89.8206 55.6428 89.0708C56.8793 86.4078 58.1158 83.7705 59.3523 81.1075C59.5068 80.7972 59.6356 80.4611 59.7902 80.0733C59.2492 79.8406 58.6825 79.6854 58.2703 79.3752C57.4202 78.7288 56.4929 78.1083 55.8489 77.255C55.3852 76.6604 54.973 76.4794 54.3032 76.4794C37.0179 76.5052 19.7326 76.4794 2.44737 76.4794C0.438047 76.4794 0.000119194 75.9882 0.231964 73.9973C2.24128 57.7344 14.1941 44.1605 29.9338 40.2305C29.9853 40.2047 30.1914 40.1013 30.449 40.0237ZM21.8192 21.046C21.8192 30.9486 29.7535 38.9378 39.6455 38.9895C49.5118 39.0412 57.5748 30.9744 57.5748 21.0719C57.5748 11.1953 49.5633 3.12846 39.7485 3.12846C29.8565 3.07675 21.8192 11.1177 21.8192 21.046ZM36.1421 73.3509C34.8541 71.9289 33.7206 70.6361 32.5614 69.3692C32.0204 68.7746 31.8401 68.154 32.0204 67.3267C32.4068 65.7237 32.6902 64.1207 33.0251 62.5176C33.3084 61.1732 33.566 59.8029 33.8494 58.3291C32.3553 59.4667 31.5567 59.3116 30.7066 57.7862C28.9034 54.5543 27.1001 51.3224 25.2969 48.0905C24.8332 47.289 24.3695 46.4875 23.9316 45.686C12.9319 50.5726 4.63701 62.0522 3.34898 73.3509C14.2199 73.3509 25.0651 73.3509 36.1421 73.3509ZM57.9097 73.868C57.7809 75.3418 58.2188 76.1433 59.7129 76.6862C62.3405 77.6429 64.4529 79.1425 65.8182 81.6763C66.8743 83.5895 67.6729 83.874 69.7337 83.0983C72.2325 82.1675 74.654 82.1675 77.1528 83.0724C79.3166 83.874 80.0379 83.5895 81.1972 81.5729C82.4852 79.2976 84.2884 77.798 86.7357 76.8931C88.9511 76.0657 89.389 75.3676 88.9511 73.0665C88.4616 70.481 88.848 68.1282 90.2133 65.9305C90.3937 65.6461 90.5225 65.3617 90.6513 65.0773C91.1407 64.0172 91.0119 62.9572 90.1103 62.2591C87.5342 60.2424 86.0401 57.7086 85.6022 54.4508C85.4476 53.2615 84.546 52.641 83.361 52.5117C82.717 52.4341 82.073 52.4341 81.429 52.4341C79.6 52.4083 77.9513 51.8653 76.5345 50.676C76.1481 50.3399 75.7102 50.0555 75.298 49.7452C73.8554 48.6593 72.9538 48.5817 71.5885 49.7711C69.3989 51.6843 66.9259 52.6151 64.0149 52.5117C62.3147 52.46 61.4904 53.1581 61.2328 54.8387C60.7691 57.7086 59.5068 60.0355 57.2142 61.8713C55.7458 63.0347 55.617 63.9914 56.5701 65.5944C57.9612 67.9731 58.5795 70.4552 57.9612 73.1958C57.9097 73.4026 57.9354 73.6353 57.9097 73.868ZM54.7669 73.3768C55.3594 70.2225 55.3594 70.119 53.9683 67.3784C53.7622 66.9647 53.5304 66.5769 53.3758 66.1632C52.5773 64.1724 52.8091 62.2849 54.1229 60.6044C54.6381 59.958 55.2564 59.3633 55.9004 58.8462C57.0338 57.9154 57.6778 56.7778 57.9097 55.3299C58.2961 52.7961 59.2492 50.6501 62.1602 49.6159C59.7902 48.1681 57.6778 46.8753 55.4624 45.5308C55.1791 46.0221 54.9988 46.3582 54.8184 46.6943C52.7576 50.3657 50.6968 54.063 48.6359 57.7344C47.7858 59.2599 47.116 59.4409 45.5704 58.5101C45.5962 58.7945 45.5962 59.0531 45.6477 59.2857C46.0341 61.1473 46.4205 63.0089 46.7812 64.8705C47.6828 69.3434 47.9146 67.9472 45.0294 71.3084C44.4627 71.9548 43.8702 72.627 43.2005 73.3768C47.1933 73.3768 50.9544 73.3768 54.7669 73.3768ZM39.6713 72.6528C41.0108 71.1532 42.2473 69.7571 43.5353 68.4126C44.0505 67.8696 44.2051 67.3784 44.0505 66.6286C43.2005 62.7245 42.3504 58.8204 41.6291 54.9162C41.3715 53.4683 40.7532 52.3307 39.5167 51.2448C38.9757 52.1239 38.1772 52.9254 37.9711 53.8562C36.9664 58.2257 36.1163 62.6211 35.2405 66.9906C35.1889 67.3008 35.2405 67.7404 35.4208 67.9472C36.8119 69.4985 38.2287 71.024 39.6713 72.6528ZM26.7653 44.3932C28.7488 47.9354 30.6551 51.3482 32.6129 54.8387C34.2358 52.8995 35.833 51.0121 37.4559 49.073C35.0601 47.2114 32.7675 45.4016 30.4233 43.6176C30.2429 43.4624 29.8823 43.4366 29.6504 43.4883C28.7231 43.7468 27.8214 44.0571 26.7653 44.3932ZM46.7296 54.8387C48.6874 51.3224 50.6195 47.9095 52.5773 44.3932C51.5468 44.0829 50.6452 43.7727 49.7179 43.5141C49.5118 43.4624 49.1769 43.4366 49.0223 43.5658C46.6524 45.3757 44.3082 47.2114 41.9124 49.073C43.5096 51.0121 45.081 52.8737 46.7296 54.8387ZM84.6748 81.8314C83.3353 84.1842 81.9957 86.2785 79.1106 86.5629C79.8834 88.2435 80.6304 89.7948 81.3517 91.3719C81.4805 91.3202 81.5578 91.2944 81.5836 91.2427C81.97 90.5704 82.3821 89.924 82.7685 89.2518C83.4641 88.0625 83.8247 87.8815 85.19 88.1142C85.9886 88.2435 86.7872 88.3986 87.7918 88.5537C86.7099 86.2526 85.7568 84.1584 84.6748 81.8314ZM62.2374 81.8573C61.1555 84.1842 60.2024 86.2526 59.1462 88.5537C60.2024 88.3727 61.0782 88.2693 61.9541 88.0883C62.933 87.8815 63.6285 88.2176 64.0922 89.1225C64.5044 89.8982 64.9681 90.648 65.4833 91.5529C66.3076 89.7948 67.0289 88.2176 67.8017 86.5629C64.9165 86.2785 63.6028 84.1842 62.2374 81.8573ZM45.1582 42.6351C43.0717 41.9628 35.4981 41.9628 34.2873 42.6868C36.0906 44.1088 37.8938 45.4791 39.697 46.9011C41.5003 45.4533 43.2777 44.0829 45.1582 42.6351Z" fill="#E52034"/>
<path d="M84.9837 66.1632C85.0095 72.5494 79.8574 77.7722 73.5203 77.8239C67.1575 77.8497 61.9023 72.627 61.9023 66.2149C61.9023 59.8287 67.0802 54.6318 73.4173 54.606C79.7801 54.5801 84.958 59.777 84.9837 66.1632ZM81.8925 66.2408C81.9182 61.5352 78.1314 57.7345 73.4688 57.7086C68.8062 57.6827 65.0194 61.4835 64.9936 66.1891C64.9678 70.8689 68.7546 74.6954 73.4173 74.7213C78.0799 74.7213 81.8925 70.9206 81.8925 66.2408Z" fill="#125EA9"/>
</g>
<defs>
<clipPath id="clip0_163_1095">
<rect width="94" height="96" fill="white"/>
</clipPath>
</defs>
</svg>
