<svg width="106" height="84" viewBox="0 0 106 84" fill="none" xmlns="http://www.w3.org/2000/svg">
<g clip-path="url(#clip0_163_1148)">
<path d="M0 56.7703C0.497782 55.8236 1.29977 55.5452 2.32298 55.5731C6.22228 55.6009 10.1216 55.5731 14.0209 55.6009C14.8229 55.6009 15.5972 55.7958 16.6481 55.935C17.1182 55.0441 17.6989 53.9582 18.252 52.8445C19.1646 50.9512 19.9113 48.9466 20.9622 47.1369C23.2298 43.239 27.0462 43.3503 29.2585 47.3039C30.7242 49.9211 30.4477 52.7331 29.9223 55.5174C29.7287 56.5754 29.3968 57.5777 29.1203 58.7471C29.5627 58.7749 29.9223 58.8028 30.2818 58.8028C32.4112 58.8028 34.5682 58.8584 36.6976 58.8028C40.6246 58.7192 41.9797 62.8956 40.4033 65.5684C40.1821 65.9304 40.1268 66.5151 40.2374 66.9605C40.5969 68.464 40.4586 69.8283 39.629 71.1369C39.4354 71.4153 39.3801 71.9164 39.4907 72.2505C39.9056 73.8932 39.712 75.3967 38.6334 76.761C38.4399 77.0394 38.3016 77.4849 38.3846 77.819C39.0483 81.0765 37.2231 83.3874 33.9045 83.3874C29.0373 83.3874 24.1701 83.3874 19.3306 83.3874C18.8051 83.3874 18.3073 83.3318 17.7819 83.2761C17.1458 83.2204 16.5374 83.1369 15.9567 83.6659C15.6801 83.9164 15.1271 83.9721 14.6846 83.9721C10.5087 84 6.3329 83.9721 2.15706 84C1.18915 84 0.497782 83.638 0.0276546 82.8028C0 74.1438 0 65.457 0 56.7703ZM16.7587 79.8236C17.1458 79.8793 17.3671 79.9072 17.616 79.9072C23.0916 79.9628 28.5672 79.9907 34.0704 80.0464C34.0981 80.0464 34.1534 80.0464 34.1811 80.0464C34.5129 79.7123 34.8724 79.406 35.2043 79.0719C34.8724 78.7378 34.5959 78.3202 34.2364 78.0974C33.9875 77.9304 33.5727 78.0417 33.2132 78.0417C30.586 78.0417 27.9588 78.0974 25.3592 77.986C24.8338 77.9582 24.0595 77.5127 23.8382 77.0394C23.617 76.5661 23.7829 75.703 24.0871 75.2575C24.3637 74.8956 25.1104 74.7285 25.6358 74.7007C28.8161 74.645 31.9687 74.645 35.149 74.6728C35.8403 74.6728 36.3381 74.4501 36.3658 73.7262C36.3934 72.9744 35.8956 72.7517 35.2043 72.7517C32.4112 72.7517 29.6181 72.7517 26.8249 72.7239C26.4931 72.7239 26.1336 72.7517 25.8017 72.696C24.8615 72.5568 24.336 71.8886 24.419 70.942C24.4743 69.9953 24.9721 69.4663 25.9123 69.4106C26.2165 69.3828 26.5207 69.3828 26.8526 69.3828C29.8946 69.3828 32.909 69.355 35.951 69.355C36.587 69.355 37.0571 69.1879 37.1124 68.4918C37.1954 67.7123 36.7253 67.4338 36.0339 67.406C35.7021 67.3782 35.3426 67.3782 35.0107 67.3782C32.2452 67.3782 29.4798 67.3782 26.742 67.3782C25.6358 67.3782 25.0274 66.7656 25.0274 65.7355C25.0274 64.7332 25.6358 64.1206 26.7143 64.0649C27.0185 64.0371 27.3227 64.0649 27.6546 64.0649C30.6413 64.0649 33.6556 64.0371 36.6423 64.0371C37.306 64.0371 37.7208 63.7865 37.7208 63.0905C37.7208 62.3944 37.306 62.116 36.6423 62.116C36.3658 62.116 36.0892 62.116 35.8127 62.116C32.8536 62.116 29.8669 62.1438 26.9079 62.116C25.2763 62.0881 24.6402 61.058 25.1657 59.5267C25.5805 58.3294 26.0506 57.1044 26.3825 55.8793C26.9356 53.7633 27.378 51.5638 26.5484 49.4478C26.2719 48.7239 25.4422 48.2227 24.8615 47.638C24.3913 48.1392 23.8659 48.6403 23.4787 49.1972C23.1745 49.6427 23.0086 50.1995 22.7874 50.7007C22.013 52.4269 21.3493 54.2366 20.3814 55.8793C19.5794 57.2436 18.5286 58.4408 17.4224 59.5823C16.9246 60.0835 16.7034 60.4733 16.7034 61.1415C16.731 67.0162 16.7034 72.8909 16.7034 78.7378C16.731 79.0719 16.7587 79.406 16.7587 79.8236ZM3.37386 58.9141C3.37386 66.2366 3.37386 73.4199 3.37386 80.5754C6.74772 80.5754 10.011 80.5754 13.3848 80.5754C13.3848 80.1021 13.3848 79.7401 13.3848 79.3503C13.3848 73.0301 13.3848 66.7099 13.3848 60.3898C13.3848 60.0835 13.4401 59.7494 13.3572 59.471C13.2742 59.2482 12.9977 58.9141 12.8041 58.9141C9.70676 58.8863 6.55414 58.9141 3.37386 58.9141Z" fill="#125EA9"/>
<path d="M76.7136 58.7193C76.3541 56.5754 75.8563 54.5429 75.7734 52.4826C75.6904 51.007 75.967 49.42 76.4647 48.0279C76.8243 47.0255 77.6539 46.0511 78.4835 45.355C80.6129 43.5731 82.6317 43.7958 84.2633 46.0511C85.2589 47.4432 85.9779 49.058 86.7523 50.5893C87.5542 52.1207 88.2733 53.7077 89.0199 55.239C89.1582 55.5453 89.4071 55.7958 89.4901 55.935C90.4027 55.7958 91.1493 55.6009 91.9237 55.6009C95.823 55.5731 99.7223 55.5731 103.622 55.6009C105.502 55.6009 106 56.1021 106 58.0232C106 65.9026 106 73.7819 106 81.6613C106 83.4988 105.502 84.0279 103.677 84.0279C99.6393 84.0279 95.6017 84.0557 91.5641 84C90.9557 84 90.3473 83.6381 89.7389 83.471C89.4347 83.3875 89.1029 83.2761 88.771 83.2761C83.1295 83.304 77.4603 83.4153 71.8188 83.4153C68.8321 83.4153 67.0069 80.993 67.6706 78.0696C67.7812 77.5406 67.8089 77.1508 67.394 76.6775C66.2879 75.3968 66.1772 73.8933 66.5921 72.2784C66.675 71.9443 66.6197 71.471 66.4261 71.1647C65.5688 69.8005 65.4306 68.4084 65.8454 66.877C65.956 66.5151 65.873 66.0139 65.6795 65.6798C64.8222 64.0928 64.7116 62.5058 65.5688 60.9188C66.3985 59.3875 67.7812 58.8306 69.4681 58.8585C71.8464 58.8863 74.2247 58.8585 76.603 58.8306C76.6307 58.775 76.686 58.7193 76.7136 58.7193ZM89.1029 79.9072C89.1859 79.6566 89.2412 79.5731 89.2412 79.4617C89.2412 73.1694 89.2688 66.9049 89.2412 60.6125C89.2412 60.362 89.1305 60.0279 88.937 59.9165C86.5587 58.2738 85.4248 55.7958 84.2633 53.29C83.5443 51.7587 82.9359 50.1717 82.1616 48.6682C81.4702 47.304 80.6959 47.1926 79.9216 48.5569C79.3685 49.5313 79.0643 50.7564 79.0366 51.8979C78.926 54.5708 79.811 57.0766 80.7789 59.5545C81.3596 61.0859 80.6959 62.116 79.0919 62.1717C77.405 62.1995 75.7181 62.1717 74.0311 62.1717C72.4548 62.1717 70.8509 62.116 69.2746 62.2274C68.915 62.2552 68.4173 62.7842 68.3343 63.1462C68.196 63.7309 68.6108 64.0928 69.2469 64.0928C69.4128 64.0928 69.5788 64.0928 69.7723 64.0928C72.8973 64.0928 76.0499 64.0928 79.1749 64.1207C80.364 64.1207 81.0001 64.7332 81.0001 65.7912C81.0001 66.8492 80.3917 67.4339 79.2025 67.4617C77.8198 67.4896 76.4371 67.4617 75.0544 67.4617C73.3674 67.4617 71.6805 67.4617 69.9936 67.4896C69.3299 67.4896 68.8597 67.7958 68.915 68.5476C68.9704 69.2715 69.4405 69.4385 70.0765 69.4385C71.9294 69.4385 73.8099 69.4664 75.6628 69.4664C77.1561 69.4664 78.6218 69.4664 80.1152 69.4942C81.0554 69.5221 81.5532 70.0789 81.6362 70.9977C81.7191 71.9443 81.1937 72.6125 80.2534 72.7517C79.9216 72.8074 79.5621 72.7796 79.2302 72.7796C76.4371 72.7796 73.644 72.7796 70.8509 72.8353C70.4914 72.8353 69.9936 73.0302 69.8276 73.2808C69.3299 73.9768 69.883 74.7007 70.8785 74.7007C74.0865 74.7007 77.2944 74.7007 80.5023 74.7285C81.7744 74.7285 82.4381 75.3411 82.4381 76.3991C82.4381 77.4571 81.7744 78.0418 80.5023 78.0696C77.9028 78.0696 75.3309 78.0696 72.7314 78.0696C72.3166 78.0696 71.8741 78.0418 71.5146 78.181C71.238 78.3202 70.8785 78.71 70.8785 78.9884C70.8785 79.3225 71.1551 79.768 71.4593 79.935C71.7358 80.1021 72.1783 80.0743 72.5655 80.0743C76.9072 80.0743 81.249 80.1021 85.5908 80.0743C86.7523 80.0464 87.9137 79.9629 89.1029 79.9072ZM102.654 58.9142C99.6116 58.9142 96.7079 58.9698 93.7765 58.8863C92.8086 58.8585 92.5597 59.1926 92.5597 60.1114C92.5874 66.5986 92.5874 73.0859 92.5874 79.5731C92.5874 79.9072 92.615 80.2413 92.6427 80.5754C96.0442 80.5754 99.3351 80.5754 102.654 80.5754C102.654 73.3643 102.654 66.2088 102.654 58.9142Z" fill="#125EA9"/>
<path d="M53.0138 13.1694C64.3522 13.1694 73.5059 22.413 73.5059 33.8283C73.5059 45.2158 64.2416 54.4872 52.9309 54.4594C41.6755 54.4316 32.4941 45.1601 32.4941 33.8005C32.4941 22.3852 41.6478 13.1415 53.0138 13.1694ZM53.0415 16.4826C43.556 16.4548 35.8403 24.1671 35.8127 33.7169C35.785 43.2668 43.4454 51.0626 52.9032 51.1183C62.3611 51.174 70.1597 43.406 70.1873 33.9118C70.215 24.2784 62.5823 16.5104 53.0415 16.4826Z" fill="#E52034"/>
<path d="M81.2216 16.3434C81.5534 16.6775 82.1895 17.0394 82.3277 17.5684C82.466 18.0974 82.3001 19.0441 81.9406 19.2947C80.5025 20.297 78.9539 21.1322 77.4052 21.9118C76.6862 22.2738 75.9672 21.9397 75.5524 21.2158C75.1652 20.5197 75.1375 19.6845 75.8013 19.239C77.3223 18.2367 78.9262 17.4014 80.5302 16.4826C80.6408 16.4269 80.8067 16.4269 81.2216 16.3434Z" fill="#E52034"/>
<path d="M39.3527 11.3039C39.1314 11.1369 38.5507 10.8584 38.2741 10.413C37.4722 9.16007 36.7531 7.85148 36.0341 6.57074C35.5087 5.6241 35.7852 4.73315 36.6425 4.25983C37.4722 3.78651 38.3018 3.98141 38.8549 4.9002C39.6292 6.18095 40.3759 7.46169 41.0673 8.77027C41.7033 9.96749 40.929 11.3318 39.3527 11.3039Z" fill="#E52034"/>
<path d="M67.3938 11.7494C65.9558 11.7494 65.0708 10.5522 65.5962 9.49421C66.3429 7.99073 67.2002 6.51509 68.1128 5.09514C68.5829 4.3434 69.3849 4.28771 70.1316 4.70534C70.9059 5.15082 71.2931 5.87472 70.8783 6.70999C70.1316 8.18562 69.302 9.63342 68.417 11.0255C68.1405 11.4432 67.5874 11.6102 67.3938 11.7494Z" fill="#E52034"/>
<path d="M31.0834 19.2669C31.0834 20.7146 30.0325 21.5778 29.0093 21.1044C27.433 20.3527 25.912 19.4617 24.4463 18.5151C23.7273 18.0418 23.7273 17.2065 24.1697 16.4548C24.6122 15.703 25.3589 15.3968 26.1056 15.7587C27.5989 16.5105 29.0646 17.4014 30.475 18.2924C30.8345 18.543 30.9728 19.072 31.0834 19.2669Z" fill="#E52034"/>
<path d="M55.0881 3.84225C55.0881 4.59399 55.1157 5.37357 55.0881 6.12531C55.0604 7.12763 54.4244 7.79584 53.4841 7.79584C52.5992 7.82368 51.8525 7.239 51.8248 6.29236C51.7419 4.67751 51.7695 3.03482 51.8248 1.41997C51.8525 0.473337 52.5992 -0.0556656 53.5118 -0.0278234C54.452 1.88667e-05 55.0328 0.556863 55.0881 1.53134C55.1157 2.33877 55.0881 3.09051 55.0881 3.84225Z" fill="#E52034"/>
<path d="M82.7979 32.5754C83.5169 32.5754 84.2359 32.5475 84.9549 32.5754C85.9229 32.6311 86.5036 33.2158 86.5313 34.1346C86.5589 35.109 86.0058 35.8329 85.0102 35.8608C83.4339 35.9165 81.8576 35.9165 80.2537 35.8608C79.2858 35.8329 78.7327 35.0812 78.788 34.0789C78.8433 33.1601 79.424 32.6032 80.3919 32.5475C80.4472 32.5475 80.5302 32.5475 80.5855 32.5475C81.3598 32.5754 82.0789 32.5754 82.7979 32.5754Z" fill="#E52034"/>
<path d="M23.313 34.9698C22.5111 34.9698 21.7367 35.0255 20.9348 34.9698C19.9668 34.8863 19.4414 34.2738 19.4414 33.3271C19.4414 32.3805 19.9668 31.7401 20.9624 31.7123C22.5387 31.6566 24.115 31.6566 25.6913 31.7123C26.6593 31.7401 27.1847 32.4084 27.1847 33.355C27.1847 34.3016 26.6593 34.8585 25.6637 34.9977C25.6084 34.9977 25.5254 35.0255 25.4701 35.0255C24.7511 34.9977 24.0321 34.9977 23.313 34.9698Z" fill="#E52034"/>
<path d="M50.1375 37.5313C50.3864 37.1137 50.5523 36.7517 50.8012 36.4733C53.9538 33.2715 57.1341 30.0696 60.3144 26.8956C61.3929 25.8376 62.9415 26.1438 63.1904 27.536C63.2734 28.0928 62.9415 28.9002 62.5267 29.3179C60.3973 31.5731 58.1573 33.7726 55.9726 35.9722C54.4516 37.5035 52.9582 39.007 51.4372 40.5383C50.3587 41.6241 49.5844 41.6241 48.5335 40.5661C46.8189 38.8677 45.1043 37.1415 43.4174 35.4153C42.5048 34.4965 42.4495 33.6334 43.2238 32.8817C43.9705 32.1299 44.8554 32.1856 45.7404 33.0766C47.1231 34.4408 48.5058 35.8608 50.1375 37.5313Z" fill="#E52034"/>
</g>
<defs>
<clipPath id="clip0_163_1148">
<rect width="106" height="84" fill="white"/>
</clipPath>
</defs>
</svg>
