<svg width="36" height="32" viewBox="0 0 36 32" fill="none" xmlns="http://www.w3.org/2000/svg">
<g clip-path="url(#clip0_183_2586)">
<path d="M5.888 14.7566C9.50267 14.7566 13.0964 14.7566 16.7425 14.7566C16.7425 14.6435 16.7425 14.5202 16.7425 14.3969C16.7425 12.6705 16.732 10.9338 16.753 9.20742C16.753 8.94024 16.6691 8.83748 16.4177 8.74499C14.2803 7.95373 13.0335 5.80601 13.4736 3.67884C13.9241 1.49002 15.831 -0.0308566 18.0941 -2.80459e-05C20.2524 0.0308005 22.1278 1.59278 22.5364 3.70967C22.9346 5.79573 21.7297 7.9229 19.6971 8.70389C19.5609 8.75527 19.4247 8.80665 19.278 8.85803C19.278 10.8105 19.278 12.763 19.278 14.7463C19.4037 14.7566 19.5085 14.7668 19.6237 14.7668C22.9031 14.7668 26.1825 14.7668 29.4724 14.7668C30.0277 14.7668 30.143 14.6538 30.143 14.1194C30.143 12.4958 30.1325 10.8619 30.1534 9.23825C30.1534 8.94024 30.0487 8.8272 29.7762 8.72444C27.6598 7.94345 26.4445 5.80601 26.874 3.63774C27.2931 1.52085 29.2314 -0.0205804 31.4526 -2.80459e-05C33.6738 0.0205243 35.5283 1.59278 35.9369 3.79188C36.3141 5.81629 35.0882 7.95373 33.0766 8.69361C32.7308 8.81693 32.6365 8.98135 32.6365 9.32046C32.6575 10.9235 32.647 12.5266 32.647 14.1297C32.647 16.0308 31.4212 17.2331 29.4829 17.2331C26.2454 17.2331 22.9974 17.2331 19.7599 17.2331C19.6028 17.2331 19.4561 17.2331 19.278 17.2331C19.278 19.2164 19.278 21.1792 19.278 23.1316C21.8659 23.9537 22.9346 26.3584 22.5155 28.3519C22.0649 30.4791 20.2314 31.9794 18.0731 32.0102C15.8624 32.0308 14.0079 30.5819 13.4945 28.4239C13.065 26.5844 13.966 24.0359 16.7425 23.1316C16.7425 21.323 16.7425 19.4939 16.7425 17.675C16.7425 17.5517 16.7425 17.4181 16.7425 17.2639C13.1173 17.2639 9.51315 17.2639 5.85657 17.2639C5.85657 17.3873 5.85657 17.5106 5.85657 17.6236C5.85657 19.3397 5.86705 21.0558 5.84609 22.7822C5.84609 23.0597 5.94039 23.1727 6.20232 23.2652C8.31873 24.0359 9.5341 26.1528 9.12549 28.3417C8.72735 30.4791 6.75762 32.0411 4.49452 32C2.30476 31.9691 0.450282 30.3763 0.0626221 28.1978C-0.304083 26.1837 0.911283 24.0565 2.90197 23.3166C3.24772 23.183 3.36297 23.0289 3.36297 22.6589C3.35249 18.1991 3.35249 13.7392 3.36297 9.26908C3.36297 8.95052 3.2582 8.80665 2.95436 8.69361C0.911283 7.95373 -0.325038 5.79573 0.0835767 3.7405C0.523623 1.50029 2.43049 -0.0308566 4.71454 -2.80459e-05C6.89382 0.0308005 8.80069 1.65444 9.13596 3.76105C9.49219 5.92932 8.27682 7.98456 6.18137 8.75527C5.99277 8.8272 5.84609 8.86831 5.84609 9.13549C5.85657 10.9338 5.85657 12.7219 5.85657 14.5202C5.86705 14.5921 5.87752 14.6641 5.888 14.7566ZM18.0102 6.54589C19.1837 6.54589 20.1162 5.63131 20.0952 4.50094C20.0847 3.38083 19.1418 2.47653 18.0102 2.46625C16.8577 2.46625 15.9043 3.39111 15.9043 4.51121C15.9043 5.65187 16.8368 6.54589 18.0102 6.54589ZM17.9893 25.4643C16.8368 25.4643 15.9148 26.3481 15.9043 27.4785C15.8938 28.5986 16.8368 29.544 17.9893 29.544C19.1418 29.544 20.0952 28.6191 20.0952 27.4887C20.0952 26.3481 19.1732 25.4541 17.9893 25.4643ZM31.3897 6.54589C32.5737 6.54589 33.4852 5.66214 33.4747 4.51121C33.4747 3.39111 32.5527 2.47653 31.4107 2.46625C30.2477 2.45598 29.3048 3.37056 29.2943 4.50094C29.2943 5.64159 30.2163 6.54589 31.3897 6.54589ZM4.60977 6.54589C5.78323 6.54589 6.70523 5.65187 6.70523 4.51121C6.70523 3.38083 5.76227 2.45598 4.59929 2.46625C3.45727 2.46625 2.53526 3.37056 2.52479 4.49066C2.52479 5.65187 3.42584 6.54589 4.60977 6.54589ZM4.60977 25.4643C3.42584 25.4643 2.52479 26.3481 2.52479 27.5093C2.52479 28.6294 3.44679 29.544 4.58882 29.5542C5.74132 29.5645 6.69475 28.6397 6.69475 27.5093C6.70523 26.3584 5.78323 25.4643 4.60977 25.4643Z" fill="#E52034"/>
<path d="M31.3898 22.9878C33.9253 22.9878 35.9789 24.9814 35.9789 27.4785C35.9894 29.9756 33.9253 32.0103 31.3794 32.0103C28.8439 32.0103 26.7693 29.9756 26.7798 27.4785C26.7903 25.0019 28.8648 22.9878 31.3898 22.9878ZM31.3898 25.4438C30.2269 25.4438 29.2944 26.3584 29.3049 27.499C29.3153 28.6294 30.2583 29.544 31.4213 29.5337C32.5633 29.5234 33.4748 28.6191 33.4853 27.4888C33.4748 26.3481 32.5528 25.4438 31.3898 25.4438Z" fill="#E52034"/>
</g>
<defs>
<clipPath id="clip0_183_2586">
<rect width="36" height="32" fill="white"/>
</clipPath>
</defs>
</svg>
