<svg width="16" height="17" viewBox="0 0 16 17" fill="none" xmlns="http://www.w3.org/2000/svg">
<path fill-rule="evenodd" clip-rule="evenodd" d="M0.75 12.4757C0.948912 12.4757 1.13968 12.5548 1.28033 12.6954C1.42098 12.8361 1.5 13.0268 1.5 13.2257V15.2257C1.5 15.3637 1.612 15.4757 1.75 15.4757H13.75C13.8163 15.4757 13.8799 15.4494 13.9268 15.4025C13.9737 15.3556 14 15.292 14 15.2257V13.2257C14 13.0268 14.079 12.8361 14.2197 12.6954C14.3603 12.5548 14.5511 12.4757 14.75 12.4757C14.9489 12.4757 15.1397 12.5548 15.2803 12.6954C15.421 12.8361 15.5 13.0268 15.5 13.2257V15.2257C15.5 15.6899 15.3156 16.135 14.9874 16.4632C14.6592 16.7914 14.2141 16.9757 13.75 16.9757H1.75C1.28587 16.9757 0.840752 16.7914 0.512563 16.4632C0.184375 16.135 0 15.6899 0 15.2257V13.2257C0 13.0268 0.0790175 12.8361 0.21967 12.6954C0.360322 12.5548 0.551088 12.4757 0.75 12.4757ZM6.488 12.3527C6.23982 12.3529 6.00059 12.2601 5.8175 12.0926C5.63441 11.925 5.52076 11.695 5.499 11.4477C5.34578 9.69527 5.31904 7.93404 5.419 6.17774C5.17186 6.16391 4.92485 6.14791 4.678 6.12974L3.188 6.02074C3.05678 6.01112 2.9303 5.9676 2.82094 5.89444C2.71158 5.82128 2.62309 5.72097 2.56413 5.60335C2.50516 5.48573 2.47775 5.35481 2.48456 5.22341C2.49138 5.09201 2.53219 4.96463 2.603 4.85374C3.66489 3.19161 5.0332 1.74661 6.635 0.595737L7.232 0.166737C7.38296 0.0583183 7.56414 0 7.75 0C7.93586 0 8.11704 0.0583183 8.268 0.166737L8.865 0.596737C10.4667 1.74733 11.835 3.19199 12.897 4.85374C12.9678 4.96463 13.0086 5.09201 13.0154 5.22341C13.0223 5.35481 12.9948 5.48573 12.9359 5.60335C12.8769 5.72097 12.7884 5.82128 12.6791 5.89444C12.5697 5.9676 12.4432 6.01112 12.312 6.02074L10.822 6.12974C10.576 6.14774 10.329 6.16374 10.082 6.17674C10.182 7.93374 10.154 9.69474 10 11.4467C9.97849 11.694 9.86509 11.9241 9.68219 12.0919C9.49929 12.2596 9.26016 12.3527 9.012 12.3527H6.488Z" fill="#F0F0F0"/>
</svg>
