<svg width="106" height="106" viewBox="0 0 106 106" fill="none" xmlns="http://www.w3.org/2000/svg">
<path d="M49.8893 106C49.8893 105.198 49.8893 104.424 49.8893 103.622C49.8893 100.69 48.7555 99.5288 45.8517 99.5288C34.7346 99.5288 23.6451 99.5288 12.528 99.5288C12.1132 99.5288 11.726 99.5288 11.2559 99.5288C11.2559 96.2379 11.2559 93.0853 11.2559 89.8774C13.3023 89.8774 15.2934 89.8774 17.3675 89.8774C17.3675 90.9836 17.3675 92.0621 17.3675 93.3065C17.8653 93.3065 18.2801 93.3065 18.6673 93.3065C27.3232 93.3065 35.979 93.3619 44.6349 93.2789C47.6769 93.2512 50.553 93.5278 52.9866 95.7678C55.4479 93.4725 58.4069 93.2512 61.5042 93.2789C70.0495 93.3342 78.6224 93.3065 87.1677 93.3065C87.5825 93.3065 87.9697 93.3065 88.4951 93.3065C88.4951 92.1174 88.4951 91.0389 88.4951 89.8774C90.6245 89.8774 92.6156 89.8774 94.6897 89.8774C94.6897 93.0577 94.6897 96.2103 94.6897 99.5012C94.2196 99.5012 93.8324 99.5012 93.4176 99.5012C82.3005 99.5012 71.211 99.5565 60.0938 99.4735C57.356 99.4459 55.8074 101.16 56.0286 103.594C56.1116 104.368 56.0286 105.17 56.0286 105.972C54.0375 106 51.9634 106 49.8893 106Z" fill="#E52034"/>
<path d="M106.001 83.6551C96.9022 83.6551 87.8038 83.6275 78.6778 83.6275C78.263 83.6275 77.8758 83.6275 77.4886 83.6275C76.6314 77.7094 80.0882 69.7449 89.3525 67.6708C87.0018 66.7858 85.2596 65.4584 84.181 63.329C83.1025 61.1996 82.9642 58.9872 83.7662 56.7196C85.0383 53.1521 88.5505 50.8844 92.3115 51.161C96.0449 51.4375 99.1975 54.2307 99.9165 57.964C100.718 62.0016 98.8103 65.2372 94.0537 67.7261C94.4686 67.8367 94.7728 67.9197 95.1046 68.0026C101.05 69.7449 104.645 73.6165 105.807 79.7558C105.835 79.9494 105.918 80.143 106.001 80.3366C106.001 81.4428 106.001 82.5489 106.001 83.6551Z" fill="#125EA9"/>
<path d="M37.5554 35.066C36.8364 26.9079 42.0354 19.5241 50.5254 17.9202C45.1604 15.1824 43.0586 11.5873 44.1372 6.96897C45.1051 2.90374 48.8384 -0.0276437 53.0419 1.09217e-05C57.2178 0.0276655 60.8682 2.9314 61.8361 6.96897C62.9423 11.5596 60.8405 15.1824 55.4479 17.9202C64.0761 19.5518 69.1369 27.0185 68.4179 35.066C58.158 35.066 47.8982 35.066 37.5554 35.066Z" fill="#125EA9"/>
<path d="M16.7037 67.726C21.2667 68.694 24.6959 71.0723 26.9083 75.0822C28.3463 77.7093 28.8164 80.5025 28.5952 83.5445C19.1097 83.5445 9.62415 83.5445 0.166283 83.5445C-0.773973 78.3454 2.35099 69.8001 12.0301 67.6984C9.6518 66.8134 7.88191 65.4584 6.80338 63.3013C5.72485 61.1166 5.61423 58.8489 6.47153 56.5813C7.77129 53.0968 11.3387 50.8568 15.0444 51.1886C18.7225 51.5205 21.8751 54.2859 22.5665 57.8534C23.3685 62.0569 21.5433 65.2371 16.7037 67.726Z" fill="#125EA9"/>
<path d="M59.5682 67.09C61.4487 67.09 63.1633 67.09 65.1544 67.09C61.0339 71.9572 57.0516 76.6308 52.9864 81.3874C48.9488 76.6308 44.9665 71.9572 40.8184 67.09C42.8095 67.09 44.5517 67.09 46.3769 67.09C46.3769 58.4895 46.3769 49.9718 46.3769 41.4266C50.8017 41.4266 55.1434 41.4266 59.5682 41.4266C59.5682 49.9442 59.5682 58.4618 59.5682 67.09Z" fill="#E52034"/>
</svg>
