<svg width="52" height="52" viewBox="0 0 52 52" fill="none" xmlns="http://www.w3.org/2000/svg">
<g clip-path="url(#clip0_172_1693)">
<path d="M0 32.6C0.0813984 32.3287 0.135664 32.0438 0.230629 31.7725C0.841117 29.9139 2.57762 28.6522 4.58544 28.6387C8.00418 28.6251 11.4229 28.6387 14.8416 28.6387C25.6405 28.6387 36.4394 28.6387 47.2382 28.6387C49.4224 28.6387 51.186 29.8868 51.7829 31.8539C52.6919 34.8114 50.5213 37.7688 47.401 37.7688C42.1101 37.7824 36.8056 37.7688 31.5147 37.7688C31.3112 37.7688 31.1213 37.7688 30.8229 37.7688C30.9585 37.9859 31.0399 38.1351 31.1349 38.2844C32.8849 40.9976 34.6486 43.7109 36.3851 46.4378C37.4026 48.0386 37.1448 49.8972 35.7746 51.1182C35.137 51.6744 34.3908 51.9729 33.5497 51.9729C28.5301 51.9864 23.497 51.9864 18.4774 51.9729C17.1208 51.9729 16.0762 51.2945 15.4386 50.1007C14.7874 48.8797 14.8416 47.6587 15.5878 46.492C17.3107 43.7923 19.0472 41.1197 20.7702 38.42C20.8923 38.2301 21.0008 38.0537 21.1771 37.7688C20.933 37.7688 20.7566 37.7688 20.5938 37.7688C15.3843 37.7688 10.1748 37.7688 4.95174 37.7688C2.36055 37.7688 0.719019 36.4936 0.0813984 33.9974C0.067832 33.9296 0.0271328 33.8753 0 33.8075C0 33.414 0 33.007 0 32.6ZM25.9932 31.6775C18.993 31.6775 11.9927 31.6775 4.97887 31.6775C3.75789 31.6775 3.05244 32.2338 3.05244 33.197C3.05244 34.1602 3.75789 34.73 4.97887 34.73C19.0065 34.73 33.0206 34.73 47.0483 34.73C47.1975 34.73 47.3467 34.73 47.5095 34.73C48.2964 34.6757 48.9204 34.0652 48.9611 33.2919C49.0018 32.5458 48.4727 31.8675 47.7266 31.7182C47.5095 31.6775 47.2925 31.6911 47.0754 31.6911C40.0344 31.6775 33.007 31.6775 25.9932 31.6775ZM25.9932 48.9476C28.3402 48.9476 30.7008 48.9611 33.0477 48.934C33.3191 48.934 33.7261 48.8526 33.8346 48.6627C33.9431 48.4863 33.8075 48.0793 33.6582 47.8622C31.8539 45.0269 30.0224 42.2051 28.2045 39.3832C27.8654 38.8542 27.6348 38.1351 27.1464 37.8774C26.6444 37.606 25.8983 37.8095 25.2606 37.7824C24.935 37.7688 24.7451 37.8638 24.5687 38.1487C22.4931 41.4046 20.3903 44.6606 18.3011 47.9301C18.1654 48.1471 18.0704 48.4999 18.1654 48.7034C18.2332 48.8662 18.6131 48.9611 18.8573 48.9611C21.2314 48.9476 23.6191 48.9476 25.9932 48.9476Z" fill="#125EA9"/>
<path d="M14.8281 0C14.9502 0.0406992 15.0723 0.0949648 15.1944 0.135664C16.7274 0.596922 17.7448 1.92643 17.772 3.52726C17.7855 4.35481 17.772 5.18236 17.772 6.09131C17.989 6.09131 18.179 6.09131 18.3689 6.09131C19.4271 6.11845 20.5124 6.03705 21.557 6.19984C23.1714 6.44404 24.3517 7.89564 24.3652 9.53718C24.3924 13.6614 24.3924 17.7855 24.3652 21.9233C24.3517 23.8226 22.7915 25.3827 20.8923 25.3827C15.0858 25.3963 9.29298 25.3963 3.48656 25.3827C1.95356 25.3827 0.651187 24.3652 0.176363 22.9136C0.122098 22.7508 0.067832 22.6016 0 22.4524C0 17.989 0 13.5121 0 9.04879C0.0271328 9.00809 0.067832 8.96739 0.0813984 8.92669C0.624054 7.04096 1.8586 6.10488 3.82572 6.10488C4.73467 6.10488 5.64362 6.10488 6.59327 6.10488C6.59327 5.22306 6.5797 4.38195 6.59327 3.54083C6.6204 1.96713 7.61075 0.637621 9.11662 0.162797C9.25228 0.122098 9.40151 0.067832 9.53718 0.0135664C11.3008 0 13.0644 0 14.8281 0ZM21.3264 14.7331C21.1229 14.7874 20.9872 14.8145 20.838 14.8552C18.2061 15.6014 15.5742 16.3475 12.9423 17.1208C12.4133 17.27 11.9249 17.27 11.4093 17.1072C10.2155 16.7409 9.00809 16.4153 7.81424 16.0626C6.24054 15.6149 4.66684 15.1672 3.05244 14.7195C3.05244 14.923 3.05244 15.0723 3.05244 15.2215C3.05244 17.3243 3.05244 19.4135 3.05244 21.5163C3.05244 22.2218 3.17454 22.3439 3.86642 22.3439C9.40151 22.3439 14.9366 22.3439 20.4717 22.3439C21.2178 22.3439 21.3264 22.2353 21.3264 21.5027C21.3264 19.4271 21.3264 17.3379 21.3264 15.2622C21.3264 15.0858 21.3264 14.923 21.3264 14.7331ZM3.05244 11.4907C3.1067 11.5314 3.13384 11.5586 3.16097 11.5721C6.09131 12.4133 9.03522 13.2679 11.9656 14.0955C12.1419 14.1498 12.3726 14.1091 12.5625 14.0548C13.987 13.6614 15.4114 13.2408 16.8495 12.8338C18.3418 12.4133 19.8341 11.9927 21.3399 11.5586C21.3399 11.0295 21.3399 10.5411 21.3399 10.0527C21.3399 9.23872 21.245 9.14375 20.4446 9.14375C14.9502 9.14375 9.45578 9.14375 3.96139 9.14375C3.83929 9.14375 3.73076 9.14375 3.60866 9.14375C3.2695 9.17089 3.07957 9.34725 3.06601 9.68641C3.03887 10.2969 3.05244 10.9074 3.05244 11.4907ZM9.64571 6.06418C11.3686 6.06418 13.0373 6.06418 14.7195 6.06418C14.7195 5.22306 14.7195 4.40908 14.7195 3.60866C14.7195 3.24237 14.5025 3.05244 14.1362 3.05244C12.8338 3.05244 11.5314 3.05244 10.2426 3.05244C9.8492 3.05244 9.65927 3.25594 9.65927 3.64936C9.64571 4.43621 9.64571 5.23663 9.64571 6.06418Z" fill="#125EA9"/>
<path d="M39.736 5.54867C40.4821 5.04671 41.1469 4.49049 41.9066 4.11063C44.9048 2.60476 48.5541 3.48658 50.5891 6.18629C52.5969 8.8453 52.4613 12.6168 50.1957 15.0587C48.5813 16.7952 46.8448 18.4096 45.2168 20.119C43.8195 21.5842 42.49 23.1307 41.1469 24.6502C40.2922 25.6269 39.3154 25.6405 38.5014 24.6502C35.8017 21.3535 32.7357 18.4232 29.7511 15.3979C26.9836 12.6168 26.9293 8.28908 29.6019 5.52154C32.2473 2.78113 36.5886 2.64546 39.3968 5.22308C39.5189 5.35874 39.6546 5.48084 39.736 5.54867ZM39.736 21.3942C42.4357 18.6538 45.0947 15.9541 47.7402 13.2408C49.341 11.5993 49.3546 9.15733 47.7809 7.5972C46.2072 6.03706 43.7788 6.05063 42.1372 7.65146C41.7574 8.01776 41.3911 8.39761 41.0248 8.76391C40.2379 9.53719 39.3968 9.53719 38.6235 8.77747C38.1623 8.32978 37.7282 7.85496 37.2398 7.4344C36.0052 6.33552 34.2009 6.13203 32.7493 6.93244C30.4023 8.20768 29.9682 11.3008 31.8675 13.2408C33.7668 15.1944 35.7068 17.1072 37.6061 19.0608C38.3522 19.807 39.0577 20.6345 39.736 21.3942Z" fill="#E52034"/>
</g>
<defs>
<clipPath id="clip0_172_1693">
<rect width="52" height="52" fill="white"/>
</clipPath>
</defs>
</svg>
