<svg width="119" height="119" viewBox="0 0 119 119" fill="none" xmlns="http://www.w3.org/2000/svg">
<path d="M49.4589 119C48.8765 115.366 48.3174 111.731 47.735 108.12C47.4787 106.513 47.2458 104.905 46.8963 103.321C46.8031 102.902 46.4071 102.389 46.011 102.203C43.6115 101.131 41.1886 100.13 38.7424 99.1745C38.3464 99.0114 37.6941 99.1046 37.3446 99.3375C33.0347 102.366 28.7714 105.441 24.578 108.447C19.8953 103.741 15.236 99.1046 10.5067 94.352C10.763 94.0026 11.0891 93.49 11.4386 93.0008C14.141 89.2267 16.8201 85.4293 19.5692 81.6786C20.0351 81.0496 19.9885 80.6069 19.6856 79.908C18.6839 77.6482 17.752 75.3651 16.8434 73.0588C16.5639 72.3598 16.261 72.057 15.4689 71.9405C10.3203 71.1251 5.17175 70.2398 -0.0234375 69.3779C-0.0234375 62.7616 -0.0234375 56.1919 -0.0234375 49.529C3.84383 48.8767 7.6878 48.2477 11.5318 47.5954C12.9529 47.3624 14.374 47.176 15.7718 46.8732C16.1212 46.8033 16.5406 46.4305 16.7037 46.0811C17.7753 43.6349 18.8004 41.1887 19.7555 38.696C19.8953 38.2999 19.7788 37.6476 19.5459 37.2982C16.7503 33.3144 13.8847 29.354 11.0425 25.3702C10.8329 25.0674 10.6232 24.7412 10.4601 24.5082C15.1661 19.8023 19.8254 15.1429 24.5314 10.437C27.6997 12.6968 30.9147 15.0032 34.153 17.3328C35.2479 18.1249 36.3428 18.9403 37.4844 19.6858C37.7873 19.8722 38.3464 19.9188 38.6958 19.779C41.142 18.8238 43.5649 17.7988 45.9644 16.7504C46.3605 16.564 46.8031 16.0748 46.873 15.6788C47.7816 10.4836 48.6436 5.28839 49.5055 0.0233154C56.1218 0.0233154 62.7148 0.0233154 69.3777 0.0233154C70.2397 5.2418 71.125 10.4137 71.9636 15.6089C72.0801 16.2845 72.3364 16.564 72.9654 16.8203C75.2951 17.7289 77.6248 18.684 79.9311 19.7091C80.6068 20.012 81.0494 20.0353 81.7017 19.5926C85.9184 16.5174 90.1817 13.4889 94.3286 10.5302C99.0112 15.2128 103.671 19.8722 108.4 24.6014C108.33 24.7179 108.12 25.0441 107.911 25.3469C105.068 29.3074 102.249 33.2911 99.384 37.2516C98.9413 37.8573 98.918 38.2999 99.2209 38.9988C100.246 41.2819 101.155 43.6349 102.156 45.9413C102.319 46.3373 102.715 46.8266 103.088 46.8965C108.19 47.805 113.315 48.6204 118.441 49.4824C118.627 49.5057 118.837 49.5057 119.023 49.5057C119.023 56.1686 119.023 62.8315 119.023 69.5176C118.837 69.5176 118.627 69.4943 118.441 69.5409C113.315 70.3796 108.213 71.2183 103.111 72.1269C102.762 72.1968 102.343 72.686 102.18 73.082C101.155 75.4117 100.246 77.788 99.2209 80.1177C98.9413 80.7234 98.9646 81.1427 99.3607 81.6786C101.853 85.1265 104.323 88.5977 106.816 92.0689C107.421 92.9076 108.004 93.7463 108.493 94.4219C103.74 99.1744 99.1044 103.834 94.4217 108.516C90.2283 105.511 85.9417 102.459 81.6784 99.3608C81.1426 98.9648 80.7465 98.9648 80.1175 99.221C77.7878 100.246 75.4349 101.225 73.0586 102.156C72.4529 102.389 72.1267 102.646 72.0335 103.345C71.8472 104.952 71.4977 106.56 71.2414 108.144C70.659 111.778 70.0999 115.412 69.5175 119.023C62.808 119 56.1451 119 49.4589 119ZM94.0257 15.0497C93.7927 15.1895 93.4666 15.3992 93.1637 15.6322C89.4129 18.3113 85.6622 20.9671 81.9347 23.6929C81.3057 24.1588 80.863 24.1122 80.1874 23.786C77.8344 22.6212 75.4349 21.5263 73.0353 20.4779C71.754 19.9188 69.9135 19.8955 69.168 18.9403C68.3759 17.9385 68.539 16.1447 68.3061 14.677C67.677 10.9495 67.0713 7.19873 66.4423 3.42465C61.7597 3.42465 57.1702 3.42465 52.5341 3.42465C52.4409 3.91388 52.3477 4.35652 52.2779 4.82245C51.5324 9.31873 50.7636 13.8383 50.0414 18.3346C49.9249 19.0102 49.6919 19.3131 49.0163 19.4761C45.382 20.4313 41.8875 21.8524 38.6492 23.786C38.0668 24.1355 37.6475 24.1122 37.0883 23.6929C34.3393 21.6893 31.5437 19.7091 28.7947 17.7289C27.4668 16.797 26.1622 15.8418 24.974 15.0032C21.6426 18.3346 18.381 21.5728 15.0962 24.881C15.236 25.114 15.4456 25.4168 15.6786 25.743C18.3577 29.4938 21.0369 33.2445 23.7393 36.9953C24.112 37.5079 24.2984 37.9039 23.9257 38.5329C21.8988 41.8643 20.501 45.4288 19.4527 49.1329C19.3595 49.4591 18.9169 49.8551 18.5674 49.925C16.8201 50.2745 15.0729 50.5541 13.3023 50.8336C10.0175 51.3694 6.75593 51.9286 3.47108 52.4644C3.47108 57.1703 3.47108 61.7598 3.47108 66.3959C3.98361 66.4891 4.42625 66.5822 4.89219 66.6521C9.38847 67.3976 13.908 68.1664 18.4043 68.8886C19.1032 69.0051 19.3595 69.2847 19.5226 69.937C20.4777 73.548 21.8755 76.9959 23.7859 80.2109C24.1819 80.8865 24.112 81.3524 23.6694 81.9581C21.2465 85.2663 18.8703 88.621 16.494 91.9757C15.9815 92.6979 15.4689 93.4201 15.0962 93.956C18.4276 97.3107 21.6892 100.549 24.974 103.857C25.1604 103.717 25.4865 103.508 25.8127 103.298C29.5635 100.619 33.3143 97.9397 37.0418 95.2373C37.5776 94.8645 37.9736 94.7248 38.5793 95.0975C41.8642 97.0544 45.3587 98.4755 49.0629 99.454C49.7152 99.6171 49.9249 99.92 50.0181 100.549C50.3442 102.739 50.7403 104.905 51.0897 107.072C51.5557 109.891 52.0216 112.687 52.4875 115.482C57.2168 115.482 61.8062 115.482 66.419 115.482C66.5122 114.97 66.6054 114.504 66.6753 114.061C67.4208 109.588 68.1663 105.115 68.8885 100.642C69.005 99.9432 69.2379 99.6171 69.9834 99.4074C73.5944 98.4523 77.019 97.0544 80.234 95.1441C80.863 94.7714 81.2824 94.7947 81.8881 95.2373C85.6156 97.9397 89.3663 100.619 93.1171 103.298C93.4433 103.531 93.7927 103.764 94.049 103.927C97.3804 100.619 100.595 97.3806 103.904 94.0724C103.717 93.7929 103.484 93.4434 103.228 93.094C100.549 89.3432 97.8697 85.5924 95.1672 81.8649C94.7712 81.3291 94.7013 80.9098 95.0508 80.3041C97.0077 77.0192 98.3822 73.5014 99.4306 69.8438C99.5237 69.4943 100.013 69.0517 100.386 68.9818C103.042 68.4693 105.721 68.0499 108.4 67.6073C110.753 67.2113 113.106 66.8152 115.435 66.4192C115.435 61.7132 115.435 57.147 115.435 52.511C114.97 52.4178 114.504 52.3246 114.061 52.2547C109.518 51.4859 104.975 50.7171 100.432 49.9949C99.78 49.9017 99.547 49.6455 99.384 49.0165C98.4288 45.4055 97.0543 41.9575 95.144 38.7426C94.7013 37.9971 94.8178 37.5311 95.2837 36.9021C97.9629 33.1979 100.619 29.4705 103.275 25.7663C103.507 25.4401 103.74 25.0907 103.857 24.9043C100.526 21.5495 97.3106 18.3113 94.0257 15.0497Z" fill="#E52034"/>
<path d="M59.4761 23.4366C79.5812 23.6463 95.4464 39.6279 95.4464 59.5233C95.4464 79.3955 79.1852 95.5635 59.4761 95.447C39.371 95.3305 23.5059 79.279 23.5059 59.3836C23.5059 39.5114 39.7437 23.4133 59.4761 23.4366ZM91.9751 59.4069C91.8819 41.5149 77.3214 26.9544 59.4761 26.9311C41.6308 26.9078 26.8606 41.7013 26.9538 59.5C27.047 77.392 41.6075 91.9525 59.4528 91.9758C77.2981 91.9991 92.0683 77.2056 91.9751 59.4069Z" fill="#E52034"/>
<path d="M61.6665 35.4112C61.6665 37.7175 61.7131 39.954 61.6432 42.1905C61.6199 43.0525 61.9228 43.4951 62.6916 43.8446C67.4441 46.1044 72.1734 48.4108 76.9259 50.6706C77.4617 50.9268 77.8578 51.1598 77.8578 51.9286C77.8112 62.2025 77.8345 72.4763 77.8345 82.7269C77.8345 82.9599 77.7879 83.1696 77.7646 83.4491C65.5571 83.4491 53.4194 83.4491 41.2119 83.4491C41.2119 67.3977 41.2119 51.4161 41.2119 35.3646C48.0146 35.4112 54.7706 35.4112 61.6665 35.4112ZM44.6365 80.0711C45.1491 80.0711 45.5218 80.0711 45.9179 80.0711C49.5522 80.0711 53.2098 80.0245 56.8441 80.0944C57.9157 80.1177 58.1953 79.7915 58.1953 78.7432C58.1487 65.8834 58.172 53.0235 58.172 40.1637C58.172 39.7444 58.1254 39.3483 58.1021 38.929C53.5359 38.929 49.1095 38.929 44.6365 38.929C44.6365 52.6508 44.6365 66.2794 44.6365 80.0711ZM74.2468 80.0012C74.2934 79.7682 74.3167 79.6518 74.3167 79.5353C74.3167 71.0552 74.34 62.5752 74.2934 54.0952C74.2934 53.7224 73.9206 53.1633 73.5712 53.0002C69.8204 51.1365 66.0696 49.3426 62.2955 47.5488C62.1324 47.4789 61.9694 47.4323 61.7364 47.3624C61.7364 58.2886 61.7364 69.1216 61.7364 80.0012C65.9298 80.0012 70.0533 80.0012 74.2468 80.0012Z" fill="#125EA9"/>
<path d="M80.4439 47.5953C79.3956 48.1778 78.4637 48.7136 77.4153 49.3193C74.3635 44.2406 69.9837 40.9092 64.2061 39.3949C64.4623 38.2533 64.6953 37.2283 64.9748 36.0168C71.7542 37.7175 76.7863 41.5615 80.4439 47.5953Z" fill="#125EA9"/>
<path d="M80.4434 76.0641C83.7282 71.8007 85.6153 67.0948 86.1045 61.7598C87.2693 61.8763 88.341 61.9695 89.5524 62.0627C89.0399 68.1198 86.8733 73.3849 83.1691 78.2074C82.2605 77.4852 81.4218 76.8328 80.4434 76.0641Z" fill="#125EA9"/>
<path d="M79.0693 53.0701C80.1643 52.6974 81.1893 52.3712 82.3309 51.9752C83.9384 56.9607 83.9151 61.853 82.3542 66.9317C81.2592 66.5822 80.2109 66.2328 79.0693 65.86C80.3507 61.5734 80.374 57.3567 79.0693 53.0701Z" fill="#125EA9"/>
<path d="M36.5759 51.9752C37.7407 52.3712 38.7658 52.6974 39.6511 53.0002C39.3715 55.2134 38.9289 57.3101 38.9056 59.4068C38.9056 61.5035 39.3482 63.6003 39.6278 65.9066C38.7658 66.2095 37.7407 66.5589 36.5992 66.9317C34.9917 61.9229 35.015 57.0306 36.5759 51.9752Z" fill="#125EA9"/>
<path d="M86.245 59.5466C86.1751 58.4283 86.1285 57.4266 86.0586 56.3316C87.1768 56.1919 88.2485 56.0521 89.4599 55.9123C89.5531 57.147 89.623 58.3119 89.7162 59.5466C88.5048 59.5466 87.4331 59.5466 86.245 59.5466Z" fill="#125EA9"/>
<path d="M85.7089 54.165C85.4061 53.0468 85.1731 52.0683 84.8936 50.9967C85.9885 50.6239 87.0369 50.2745 88.1784 49.9017C88.4813 51.0899 88.7841 52.1848 89.1103 53.4428C87.9454 53.6991 86.8971 53.9088 85.7089 54.165Z" fill="#125EA9"/>
<path d="M46.4307 46.1276C46.4307 44.9861 46.4307 43.9377 46.4307 42.7962C49.7155 42.7962 52.9771 42.7962 56.3318 42.7962C56.3318 43.8679 56.3318 44.9628 56.3318 46.1276C53.0702 46.1276 49.8087 46.1276 46.4307 46.1276Z" fill="#125EA9"/>
<path d="M56.3778 53.6991C56.3778 54.8173 56.3778 55.889 56.3778 57.0305C53.093 57.0305 49.8314 57.0305 46.5 57.0305C46.5 55.9356 46.5 54.8406 46.5 53.6991C49.7848 53.6991 53.0464 53.6991 56.3778 53.6991Z" fill="#125EA9"/>
<path d="M56.3319 62.482C53.0005 62.482 49.7622 62.482 46.4541 62.482C46.4541 61.3405 46.4541 60.2921 46.4541 59.1273C49.7622 59.1273 53.0238 59.1273 56.3319 59.1273C56.3319 60.2921 56.3319 61.3638 56.3319 62.482Z" fill="#125EA9"/>
<path d="M56.3545 64.6253C56.3545 65.7901 56.3545 66.8385 56.3545 67.98C53.0697 67.98 49.8314 67.98 46.5 67.98C46.5 66.8851 46.5 65.8134 46.5 64.6253C49.7616 64.6253 52.9998 64.6253 56.3545 64.6253Z" fill="#125EA9"/>
<path d="M56.3777 48.2477C56.3777 49.3659 56.3777 50.4143 56.3777 51.5325C53.0696 51.5325 49.808 51.5325 46.4766 51.5325C46.4766 50.4609 46.4766 49.4125 46.4766 48.2477C49.7381 48.2477 52.9997 48.2477 56.3777 48.2477Z" fill="#125EA9"/>
<path d="M67.0249 77.3919C65.93 77.3919 64.8583 77.3919 63.7168 77.3919C63.7168 69.9836 63.7168 62.5985 63.7168 55.1435C64.7884 55.1435 65.8601 55.1435 67.0249 55.1435C67.0249 62.5053 67.0249 69.9137 67.0249 77.3919Z" fill="#125EA9"/>
<path d="M72.2429 77.392C71.1013 77.392 70.0763 77.392 68.958 77.392C68.958 73.8508 68.958 70.3563 68.958 66.7686C70.0297 66.7686 71.078 66.7686 72.2429 66.7686C72.2429 70.2631 72.2429 73.781 72.2429 77.392Z" fill="#125EA9"/>
<path d="M72.267 58.4983C71.1254 58.4983 70.0538 58.4983 68.9355 58.4983C68.9355 57.3567 68.9355 56.2618 68.9355 55.1202C70.0771 55.1202 71.1254 55.1202 72.267 55.1202C72.267 56.2385 72.267 57.3101 72.267 58.4983Z" fill="#125EA9"/>
<path d="M72.2429 64.3224C71.1246 64.3224 70.0996 64.3224 68.958 64.3224C68.958 63.2042 68.958 62.1325 68.958 60.9444C70.0297 60.9444 71.078 60.9444 72.2429 60.9444C72.2429 62.0393 72.2429 63.111 72.2429 64.3224Z" fill="#125EA9"/>
</svg>
