<svg width="26" height="34" viewBox="0 0 26 34" fill="none" xmlns="http://www.w3.org/2000/svg">
<g clip-path="url(#clip0_172_1564)">
<path d="M17.2575 0C17.5325 0.217343 17.8169 0.415787 18.0635 0.661479C20.5383 3.1184 23.0131 5.59422 25.488 8.05114C25.8388 8.39133 25.9905 8.76932 25.9905 9.2607C25.981 16.4614 25.981 23.662 25.981 30.8722C25.981 32.3747 25.0992 33.5559 23.7338 33.9055C23.4588 33.9716 23.1648 34 22.8804 34C16.2998 34.0094 9.7097 34.0094 3.1291 34C1.28957 33.9906 0 32.7054 0 30.8816C0 21.6398 0 12.4074 0 3.16565C0 1.5214 0.89132 0.425236 2.51276 0.0472485C2.54121 0.0377988 2.56966 0.0188994 2.5981 0C7.4814 0 12.3742 0 17.2575 0ZM15.9964 1.99389C15.8446 1.99389 15.7309 1.99389 15.6171 1.99389C11.4734 1.99389 7.32969 1.99389 3.186 1.99389C2.36105 1.99389 1.99125 2.37187 1.99125 3.194C1.99125 12.398 1.99125 21.602 1.99125 30.8155C1.99125 31.6376 2.37053 32.0061 3.19548 32.0061C9.72866 32.0061 16.2524 32.0061 22.7856 32.0061C23.6105 32.0061 23.9803 31.6281 23.9803 30.806C23.9803 23.9833 23.9803 17.1512 23.9803 10.3285C23.9803 10.2151 23.9803 10.0923 23.9803 9.95998C23.8096 9.95998 23.6864 9.95998 23.5726 9.95998C22.0365 9.95998 20.5098 9.96943 18.9737 9.95998C17.4945 9.95053 16.2903 8.92051 16.0438 7.47471C15.9964 7.17232 15.9964 6.86048 15.9964 6.54864C15.9869 5.03669 15.9964 3.53419 15.9964 1.99389ZM17.9971 3.48694C17.9971 4.63035 17.9971 5.75486 17.9971 6.87938C17.9971 7.55976 18.4048 7.96609 19.097 7.96609C20.1495 7.96609 21.202 7.96609 22.2546 7.96609C22.3399 7.96609 22.4158 7.95664 22.4726 7.94719C20.984 6.46359 19.4953 4.98944 17.9971 3.48694Z" fill="black"/>
<path d="M13.9771 18.0583C12.3367 18.0583 10.6963 18.0678 9.05587 18.0583C8.28782 18.0583 7.78527 17.3402 8.08869 16.6692C8.26885 16.2818 8.58176 16.0739 9.00846 16.0739C12.3367 16.0739 15.6649 16.0645 18.9931 16.0739C19.5621 16.0739 19.9888 16.518 19.9982 17.0567C19.9982 17.6142 19.5621 18.0583 18.9742 18.0583C17.3053 18.0678 15.6365 18.0583 13.9771 18.0583Z" fill="#E52034"/>
<path d="M13.9958 22.0461C12.3743 22.0461 10.7529 22.0461 9.14093 22.0461C8.45821 22.0461 8.01255 21.6492 8.00307 21.0634C7.99359 20.4586 8.45821 20.0522 9.15041 20.0522C12.4028 20.0522 15.6552 20.0522 18.898 20.0522C19.6945 20.0522 20.2066 20.7515 19.9031 21.4414C19.7135 21.8666 19.3532 22.0461 18.8886 22.0461C17.2576 22.0367 15.6267 22.0461 13.9958 22.0461Z" fill="#E52034"/>
<path d="M13.9955 24.04C15.6359 24.04 17.2763 24.04 18.9167 24.04C19.7132 24.04 20.2063 24.7677 19.8934 25.448C19.6943 25.8733 19.3245 26.0339 18.8598 26.0339C16.2048 26.0339 13.5593 26.0339 10.9043 26.0339C10.2975 26.0339 9.68113 26.0339 9.07427 26.0339C8.43897 26.0339 7.98383 25.6087 7.99331 25.0228C8.00279 24.4558 8.44845 24.04 9.06479 24.04C10.7147 24.0306 12.3551 24.04 13.9955 24.04Z" fill="#E52034"/>
<path d="M5.99236 17.0567C5.99236 17.5953 5.5467 18.0489 5.0157 18.0584C4.46574 18.0678 3.99163 17.6048 4.00112 17.0567C4.00112 16.5181 4.45626 16.0739 4.99674 16.0739C5.53722 16.0645 5.99236 16.5181 5.99236 17.0567Z" fill="#E52034"/>
<path d="M4.96831 22.0461C4.42782 22.0272 3.99165 21.5736 4.00113 21.035C4.01061 20.4869 4.4942 20.0333 5.04416 20.0617C5.58464 20.09 6.02082 20.5531 6.00186 21.0917C5.97341 21.6209 5.50879 22.0556 4.96831 22.0461Z" fill="#E52034"/>
<path d="M5.99306 25.0322C5.99306 25.5708 5.53792 26.0244 4.99744 26.0244C4.44747 26.0244 3.98285 25.5614 3.99233 25.0039C4.00181 24.4652 4.46644 24.0211 5.00692 24.0305C5.5474 24.04 6.00254 24.4936 5.99306 25.0322Z" fill="#E52034"/>
</g>
<defs>
<clipPath id="clip0_172_1564">
<rect width="26" height="34" fill="white"/>
</clipPath>
</defs>
</svg>
