<svg width="35" height="35" viewBox="0 0 35 35" fill="none" xmlns="http://www.w3.org/2000/svg">
<g clip-path="url(#clip0_183_2590)">
<path d="M34.9999 23.4146C34.9999 26.6739 34.9999 29.9231 34.9999 33.1825C34.9999 34.4213 34.4421 35 33.2269 35C29.213 35 25.1991 35 21.1851 35C19.9899 35 19.4321 34.4314 19.4321 33.213C19.4321 28.8468 19.4321 24.4706 19.4321 20.1045C19.4321 19.6577 19.5417 19.2617 19.7608 18.886C20.9959 16.8248 22.2309 14.7636 23.456 12.6821C23.8146 12.0728 24.3026 11.7682 25.0098 11.7784C27.7887 11.7885 30.5775 11.7784 33.3564 11.7885C34.3923 11.7885 34.9899 12.4079 34.9899 13.4741C35.0098 16.7842 34.9999 20.1045 34.9999 23.4146ZM28.0875 26.7755C28.2967 26.7755 28.5058 26.7755 28.725 26.7755C30.1991 26.7755 31.6831 26.7755 33.1572 26.7755C33.6353 26.7755 33.964 26.4506 33.974 26.0241C33.974 25.5976 33.6353 25.2829 33.1672 25.2626C33.1074 25.2626 33.0477 25.2626 32.9779 25.2626C29.7409 25.2626 26.4939 25.2626 23.2568 25.2626C23.0875 25.2626 22.8684 25.2423 22.7489 25.3336C22.5596 25.4758 22.3704 25.689 22.2907 25.9124C22.1911 26.1866 22.3206 26.481 22.5795 26.6333C22.7489 26.7349 22.9779 26.7755 23.1771 26.7755C24.8106 26.7755 26.4441 26.7755 28.0875 26.7755ZM28.0875 21.526C29.0935 21.526 30.0995 21.526 31.1054 21.526C31.8126 21.526 32.5198 21.5361 33.2269 21.5158C33.6353 21.5057 33.9341 21.1909 33.954 20.8051C33.974 20.4395 33.705 20.0943 33.3266 20.0232C33.207 20.0029 33.0775 20.0029 32.958 20.0029C29.721 20.0029 26.474 20.0029 23.2369 20.0029C23.0875 20.0029 22.9381 20.0029 22.7987 20.0435C22.4301 20.1451 22.2309 20.4598 22.2608 20.8457C22.3007 21.262 22.5995 21.5158 23.0975 21.5158C24.7608 21.526 26.4242 21.526 28.0875 21.526ZM28.1074 32.0148C29.7708 32.0148 31.4341 32.0148 33.0975 32.0148C33.4859 32.0148 33.7748 31.8828 33.9142 31.4868C34.0935 30.9588 33.715 30.4918 33.0875 30.4918C29.7608 30.4918 26.4341 30.4918 23.1074 30.4918C23.0178 30.4918 22.9281 30.4918 22.8485 30.5121C22.3604 30.6238 22.1015 31.1619 22.3405 31.6087C22.5098 31.9234 22.7787 32.025 23.1174 32.0148C24.7807 32.0148 26.4441 32.0148 28.1074 32.0148ZM29.223 16.2867C30.4979 16.2867 31.7827 16.2968 33.0576 16.2765C33.2867 16.2765 33.5556 16.1851 33.7349 16.043C33.974 15.8602 34.0238 15.5556 33.9042 15.251C33.7548 14.8854 33.466 14.7636 33.0975 14.7636C30.5277 14.7636 27.958 14.7636 25.3883 14.7636C24.8405 14.7636 24.5018 15.0479 24.5018 15.5048C24.4919 15.9922 24.8106 16.2765 25.3983 16.2765C26.6732 16.2867 27.9481 16.2867 29.223 16.2867Z" fill="#E52034"/>
<path d="M7.80866 13.21C9.90029 13.21 11.982 13.21 14.0736 13.21C15.1393 13.21 15.6274 13.7177 15.5577 14.8143C15.3485 18.1854 15.1294 21.5666 14.9102 24.9376C14.8306 26.2271 14.7409 27.5167 14.6612 28.8062C14.6114 29.649 14.0935 30.177 13.2768 30.177C9.61144 30.177 5.94611 30.177 2.28077 30.177C1.49391 30.177 0.975986 29.6794 0.926185 28.8671C0.726982 25.8718 0.537739 22.8764 0.338535 19.881C0.228974 18.1752 0.119412 16.4694 -0.000109982 14.7635C-0.0698311 13.8192 0.448097 13.21 1.39431 13.21C3.53575 13.21 5.67718 13.21 7.80866 13.21ZM7.80866 24.7853C6.80268 24.7853 5.7967 24.7853 4.79073 24.7853C4.09352 24.7853 3.3963 24.7752 2.69909 24.7853C2.24093 24.7955 1.9222 25.1001 1.91224 25.5265C1.90228 25.9631 2.22101 26.2881 2.69909 26.3084C2.76881 26.3084 2.8485 26.3084 2.91822 26.3084C6.16523 26.3084 9.40228 26.3084 12.6493 26.3084C12.7688 26.3084 12.8983 26.3185 13.0178 26.2982C13.5656 26.2068 13.8346 25.5976 13.5258 25.1305C13.3465 24.8665 13.0875 24.7853 12.7887 24.7853C11.1353 24.7853 9.472 24.7853 7.80866 24.7853ZM7.80866 22.4499C9.48196 22.4499 11.1652 22.4499 12.8385 22.4499C13.3365 22.4499 13.6553 22.1555 13.6652 21.7189C13.6752 21.2721 13.3465 20.9573 12.8385 20.937C12.7788 20.937 12.719 20.937 12.6493 20.937C9.40228 20.937 6.16523 20.937 2.91822 20.937C2.74889 20.937 2.56961 20.9472 2.40029 20.998C2.08156 21.0893 1.88236 21.4244 1.90228 21.7595C1.93216 22.1149 2.19113 22.3992 2.53973 22.4499C2.67917 22.4702 2.80866 22.4601 2.9481 22.4601C4.5716 22.4499 6.18515 22.4499 7.80866 22.4499ZM7.80866 17.0786C6.19511 17.0786 4.58156 17.0786 2.96802 17.0786C2.25089 17.0786 1.90228 17.3324 1.9222 17.8503C1.93216 18.3478 2.28077 18.6017 2.96802 18.6017C6.18515 18.6017 9.40228 18.6017 12.6194 18.6017C12.8087 18.6017 12.9979 18.5915 13.1672 18.5407C13.4859 18.4494 13.6951 18.1143 13.6652 17.7792C13.6353 17.434 13.3963 17.1497 13.0676 17.0989C12.9381 17.0786 12.7987 17.0786 12.6593 17.0786C11.0357 17.0786 9.4222 17.0786 7.80866 17.0786Z" fill="#E52034"/>
<path d="M9.23288 11.6667C8.25678 11.6667 7.30061 11.6667 6.33447 11.6667C6.33447 7.77778 6.33447 3.89904 6.33447 0C7.29065 0 8.25678 0 9.23288 0C9.23288 3.88889 9.23288 7.76762 9.23288 11.6667Z" fill="#E52034"/>
<path d="M27.978 0.0812378C28.9541 0.0812378 29.9103 0.0812378 30.8864 0.0812378C30.8864 3.46244 30.8864 6.83349 30.8864 10.2248C29.9203 10.2248 28.9641 10.2248 27.978 10.2248C27.978 6.85379 27.978 3.48275 27.978 0.0812378Z" fill="#E52034"/>
</g>
<defs>
<clipPath id="clip0_183_2590">
<rect width="35" height="35" fill="white"/>
</clipPath>
</defs>
</svg>
