<svg width="89" height="87" viewBox="0 0 89 87" fill="none" xmlns="http://www.w3.org/2000/svg">
<g clip-path="url(#clip0_163_1140)">
<path d="M88.9998 35.796C88.419 38.0172 87.815 40.215 87.2806 42.4595C85.9797 47.6501 84.7716 52.864 83.4242 58.0545C81.6586 64.7882 77.8254 70.1424 72.3428 74.3276C69.8105 76.2682 67.1854 78.0919 64.5602 79.9156C64.0956 80.2429 63.9097 80.5703 63.9562 81.1314C64.0026 81.9264 63.9794 82.6979 63.9562 83.4929C63.9097 85.4335 62.5623 86.8363 60.6341 87C60.3785 87.0234 60.123 87.0234 59.8442 87.0234C49.6223 87.0234 39.3772 87.0234 29.1554 87.0234C26.3211 87.0234 24.8808 85.6907 25.0434 82.8616C25.1595 81.0379 24.6252 79.8922 23.0455 78.9102C20.5365 77.3437 18.1436 75.5902 15.8437 73.7197C10.152 69.1371 6.59754 63.1983 4.97133 56.0204C3.50774 49.4504 1.78861 42.9505 0.162404 36.4273C-0.557773 33.5047 0.719961 30.7224 3.36836 29.5533C6.06321 28.3609 9.03685 29.2728 10.6631 31.8213C11.0348 32.4058 11.3135 33.0605 11.5691 33.6917C13.1024 37.7834 14.6124 41.875 16.1225 45.9667C16.2154 46.2239 16.3316 46.5044 16.4709 46.8084C18.9567 45.5458 21.1637 46.0602 23.3475 47.5332C27.5059 50.3155 31.7573 53.0043 35.9854 55.7165C39.5631 58.0312 42.3044 61.0941 44.0932 64.9753C44.1629 65.1389 44.2326 65.3026 44.3255 65.4429C44.3488 65.4896 44.4185 65.4896 44.5346 65.5598C44.7205 65.1857 44.9063 64.7882 45.0922 64.4141C46.9042 60.8135 49.5062 57.961 52.8747 55.7632C57.2655 52.9108 61.6563 50.1285 66.0238 47.2526C68.0682 45.8965 70.1358 45.6861 72.4357 46.8084C72.5518 46.5278 72.6912 46.2472 72.7842 45.9667C74.3407 41.7581 75.8972 37.573 77.4537 33.3644C78.2436 31.2835 79.591 29.7638 81.798 29.2026C84.7716 28.4544 87.815 30.208 88.721 33.154C88.7907 33.4112 88.8836 33.645 88.9765 33.9022C88.9998 34.5101 88.9998 35.1414 88.9998 35.796ZM42.6064 83.4227C42.6064 79.635 42.8155 75.8941 42.5599 72.1999C42.2579 67.8043 40.3297 64.04 37.1238 61.0005C36.241 60.1588 35.2885 59.3873 34.2663 58.7326C29.8291 55.8334 25.3686 52.9575 20.9082 50.0817C19.6304 49.2634 18.3527 49.427 17.5861 50.4792C16.8194 51.5313 17.0982 52.8172 18.283 53.7525C19.5375 54.7345 20.792 55.7398 22.0465 56.7218C23.4869 57.8675 24.9272 58.9898 26.3443 60.1354C27.1574 60.7901 27.2736 61.8656 26.6696 62.6138C26.0656 63.3854 25.0666 63.4789 24.1838 62.871C24.0212 62.7541 23.8586 62.6138 23.6959 62.4969C21.094 60.416 18.4921 58.3117 15.8669 56.2542C14.0084 54.7812 13.4741 52.864 13.7993 50.5727C13.869 50.1285 13.8458 49.6375 13.7064 49.24C12.0802 44.7976 10.4307 40.3553 8.75807 35.9129C8.50252 35.2349 8.27021 34.5335 7.94497 33.9022C7.27125 32.663 6.10968 32.2188 4.9481 32.6864C3.78652 33.154 3.29866 34.2295 3.64713 35.6323C5.3198 42.4128 7.06217 49.1698 8.66514 55.9737C10.2681 62.7541 13.9619 68.0382 19.5607 72.0597C22.1859 73.9301 24.7878 75.8473 27.413 77.6944C28.2261 78.2556 28.6443 78.9336 28.5746 79.9624C28.5049 81.108 28.5513 82.2537 28.5513 83.4227C33.3138 83.4227 37.9833 83.4227 42.6064 83.4227ZM60.4715 83.4461C60.4715 82.2069 60.5179 81.0846 60.4482 79.939C60.4018 78.957 60.7735 78.3023 61.5633 77.7412C64.444 75.7071 67.348 73.6495 70.1822 71.5219C74.8053 68.0382 78.2436 63.5724 79.7769 57.9376C81.8212 50.4324 83.5636 42.857 85.4454 35.3284C85.7009 34.2763 85.2363 33.3176 84.3302 32.8033C83.3545 32.2655 82.2859 32.4058 81.5657 33.2241C81.194 33.645 80.892 34.1827 80.6829 34.7205C78.8708 39.5603 77.0588 44.4235 75.2932 49.2867C75.1538 49.6608 75.1538 50.1285 75.2235 50.5493C75.5487 52.8172 75.0376 54.7579 73.1559 56.2308C72.2266 56.9556 71.2973 57.7038 70.3681 58.452C68.5328 59.925 66.6975 61.398 64.839 62.8476C64.1188 63.4088 63.3057 63.4088 62.6784 62.9178C62.028 62.4034 61.8189 61.7253 62.0977 60.9771C62.2603 60.5797 62.6088 60.2056 62.9572 59.925C65.6289 57.774 68.3237 55.6697 70.9953 53.5187C71.8549 52.8406 72.0872 51.7183 71.5994 50.7597C71.1347 49.8245 70.0661 49.3335 69.0439 49.6141C68.7187 49.7076 68.3934 49.8946 68.1146 50.0817C63.6077 52.9809 59.0543 55.8568 54.5939 58.8261C49.8546 61.9825 46.9972 66.4483 46.4628 72.1298C46.1144 75.8006 46.3235 79.5181 46.277 83.2357C46.277 83.2824 46.3235 83.3292 46.3699 83.4461C51.0162 83.4461 55.6858 83.4461 60.4715 83.4461Z" fill="#125EA9"/>
<path d="M40.4698 11.9008C43.1879 10.7786 45.8363 10.8019 48.5079 11.8775C48.415 5.77507 50.4594 2.17443 54.8501 0.584531C58.846 -0.841698 63.2367 0.374104 65.8386 3.64742C68.7891 7.36497 68.7194 11.48 65.5599 16.4835C66.071 16.6939 66.5821 16.881 67.0699 17.1381C70.0436 18.7514 71.693 21.2532 71.7859 24.6668C71.8788 27.7764 71.8324 30.9094 71.8092 34.0191C71.7859 36.1701 70.2759 37.6899 68.1153 37.7133C65.1417 37.7366 62.1448 37.7133 59.1712 37.7133C58.846 37.7133 58.5439 37.7133 58.1026 37.7133C58.1026 38.3679 58.1026 38.9758 58.1026 39.5603C58.1026 41.4308 58.1258 43.3013 58.1026 45.1484C58.0793 47.276 56.6622 48.7022 54.5481 48.749C53.8512 48.7724 53.1542 48.7724 52.4573 48.749C51.4583 48.7022 50.7846 48.071 50.7382 47.1357C50.6917 46.1537 51.2957 45.4055 52.3179 45.2886C52.6896 45.2419 53.0613 45.2653 53.4562 45.2653C53.8047 45.2653 54.1532 45.2653 54.4552 45.2653C54.5249 45.1717 54.5946 45.125 54.5946 45.0782C54.5946 41.8517 54.6875 38.6017 54.5714 35.3752C54.4784 32.8501 52.2714 30.8393 49.623 30.7925C46.2312 30.7224 42.8394 30.7224 39.4476 30.7925C36.5437 30.8393 34.4528 33.0605 34.4296 35.9597C34.4064 39.0226 34.4296 42.0855 34.4296 45.2653C35.1033 45.2653 35.7306 45.2653 36.3578 45.2653C37.6123 45.2886 38.379 46.0134 38.3557 47.089C38.3325 48.1177 37.5659 48.749 36.3346 48.7724C35.6609 48.7724 35.0104 48.7958 34.3367 48.7724C32.4317 48.7022 31.0146 47.276 30.9681 45.3588C30.9449 43.161 30.9681 40.9866 30.9681 38.7888C30.9681 38.4848 30.9681 38.1575 30.9681 37.7366C30.5964 37.7366 30.2944 37.7366 29.9692 37.7366C27.0188 37.7366 24.0684 37.7366 21.0947 37.7366C18.7251 37.7366 17.2383 36.2403 17.2383 33.8554C17.2383 31.003 17.2383 28.1505 17.2383 25.2747C17.2383 21.0895 19.3059 18.1201 23.1856 16.6471C23.3017 16.6004 23.3946 16.5302 23.4876 16.4835C20.2816 11.5034 20.2119 7.36497 23.1391 3.6708C25.741 0.397485 30.2247 -0.841698 34.1276 0.607912C38.5881 2.26795 40.6557 5.89197 40.4698 11.9008ZM51.7836 27.4958C55.6632 29.2728 56.3602 30.0444 57.9632 34.136C61.4014 34.136 64.8397 34.136 68.2547 34.136C68.278 33.9957 68.3012 33.9489 68.3012 33.9022C68.3012 30.9796 68.3244 28.0804 68.3012 25.1578C68.3012 21.8844 66.1407 19.7334 62.9115 19.71C60.3095 19.71 57.6844 19.71 55.0825 19.71C54.8037 19.71 54.5249 19.71 54.1997 19.71C54.4784 22.7262 53.6886 25.2747 51.7836 27.4958ZM20.6765 34.1828C24.1845 34.1828 27.5995 34.1828 31.0378 34.1828C31.8509 30.8393 33.9418 28.6415 37.2174 27.5426C35.266 25.2513 34.4993 22.6794 34.7316 19.7568C31.4792 19.7568 28.3197 19.6165 25.1835 19.8036C22.6977 19.9438 20.7695 22.0481 20.6998 24.4797C20.6069 27.6595 20.6765 30.8627 20.6765 34.1828ZM30.8055 16.2029C34.2902 16.1795 37.1012 13.3271 37.078 9.84333C37.0548 6.33621 34.2438 3.50713 30.759 3.50713C27.2511 3.50713 24.4401 6.35959 24.4401 9.93686C24.4865 13.4206 27.3208 16.2263 30.8055 16.2029ZM64.5145 9.79657C64.4912 6.28945 61.657 3.46037 58.1722 3.48375C54.6875 3.50713 51.8765 6.33621 51.8765 9.84333C51.8765 13.3738 54.7107 16.2029 58.2652 16.1795C61.7499 16.1795 64.5145 13.3271 64.5145 9.79657ZM50.7846 20.8791C50.7614 17.3486 47.9736 14.5663 44.4656 14.5663C40.9577 14.5663 38.1699 17.372 38.1699 20.9025C38.1699 24.4563 40.9809 27.2854 44.5353 27.262C48.0433 27.2387 50.8078 24.4096 50.7846 20.8791Z" fill="#E52034"/>
<path d="M44.5117 48.7724C43.5127 48.7958 42.7461 48.0242 42.7461 47.0422C42.7461 46.1303 43.536 45.312 44.442 45.312C45.3945 45.2886 46.2076 46.107 46.2076 47.0656C46.2076 48.0008 45.4642 48.749 44.5117 48.7724Z" fill="black"/>
</g>
<defs>
<clipPath id="clip0_163_1140">
<rect width="89" height="87" fill="white"/>
</clipPath>
</defs>
</svg>
