<svg width="29" height="29" viewBox="0 0 29 29" fill="none" xmlns="http://www.w3.org/2000/svg">
<g clip-path="url(#clip0_183_2582)">
<path d="M28.9998 24.7141C28.1503 25.5742 27.3009 26.427 26.4514 27.2871C26.2815 27.4576 26.1116 27.4651 25.9343 27.2871C25.1366 26.4863 24.3314 25.6855 23.5411 24.8698C23.4598 24.7882 23.3933 24.5955 23.4303 24.4991C23.4672 24.4027 23.6519 24.3211 23.7701 24.3211C24.2428 24.2989 24.7082 24.3137 25.2031 24.3137C25.2031 18.6857 25.2031 13.0726 25.2031 7.42977C24.7525 7.42977 24.3019 7.42977 23.8513 7.42977C23.7479 7.42977 23.6371 7.42236 23.5485 7.38528C23.349 7.2963 23.3342 7.08127 23.5189 6.89589C23.8144 6.58446 24.1172 6.28786 24.4201 5.99127C24.9224 5.48705 25.4247 4.99024 25.9196 4.48602C26.0968 4.30065 26.2741 4.28582 26.4588 4.47119C27.3083 5.33133 28.1577 6.19147 29.0072 7.04419C29.0072 7.11834 29.0072 7.19249 29.0072 7.27406C28.8373 7.33338 28.6674 7.42236 28.4901 7.43719C28.0543 7.45943 27.6111 7.4446 27.1679 7.4446C27.1679 13.0948 27.1679 18.7005 27.1679 24.3285C27.6333 24.3285 28.0765 24.3137 28.5123 24.3359C28.6748 24.3433 28.8373 24.4397 28.9998 24.4991C28.9998 24.5584 28.9998 24.6399 28.9998 24.7141Z" fill="#E52034"/>
<path d="M11.0578 28.9852C7.93327 28.9852 4.8161 28.963 1.69154 29.0001C0.590932 29.0075 0 28.2734 0 27.2946C0.02216 20.9993 0.00738665 14.6965 0.0147733 8.40123C0.0147733 7.57817 0.421039 7.01463 1.14493 6.84408C1.29266 6.80701 1.4404 6.80701 1.59552 6.80701C7.90372 6.80701 14.2193 6.80701 20.5275 6.80701C21.5321 6.80701 22.1156 7.38538 22.1156 8.3864C22.1156 14.7188 22.1156 21.0586 22.1156 27.391C22.1156 28.4143 21.5395 28.9852 20.5127 28.9852C17.3586 28.9852 14.2045 28.9852 11.0578 28.9852ZM2.90295 26.0711C8.35431 26.0711 13.7835 26.0711 19.2053 26.0711C19.2053 20.6063 19.2053 15.1637 19.2053 9.72851C13.7539 9.72851 8.33214 9.72851 2.90295 9.72851C2.90295 15.1859 2.90295 20.6137 2.90295 26.0711Z" fill="#E52034"/>
<path d="M21.4876 1.80926C21.4876 1.34953 21.4728 0.904628 21.495 0.467144C21.5024 0.311429 21.6132 0.155715 21.6797 0C21.8274 0.0667349 22.0047 0.0963948 22.1081 0.20762C22.8689 0.956533 23.6224 1.71286 24.3758 2.46919C24.6565 2.75096 24.6565 2.83994 24.3758 3.12171C23.6224 3.87804 22.8763 4.64178 22.1081 5.38328C22.0047 5.48709 21.8126 5.5909 21.6797 5.56865C21.4655 5.53158 21.4876 5.30171 21.4876 5.12375C21.4876 4.67885 21.4876 4.23396 21.4876 3.77423C15.8738 3.77423 10.2821 3.77423 4.66082 3.77423C4.66082 4.24137 4.67559 4.69368 4.65343 5.146C4.64605 5.2943 4.54263 5.4426 4.48354 5.58348C4.33581 5.52416 4.15853 5.4945 4.05511 5.39069C3.2869 4.63436 2.52608 3.87062 1.76525 3.10688C1.50672 2.84735 1.50672 2.73613 1.77264 2.46919C2.53346 1.70545 3.29429 0.941703 4.0625 0.185375C4.16591 0.0815648 4.36535 0 4.49093 0.0296599C4.57957 0.0519049 4.64605 0.289184 4.65343 0.430069C4.67559 0.882383 4.66082 1.3347 4.66082 1.80184C10.2747 1.80926 15.859 1.80926 21.4876 1.80926Z" fill="#E52034"/>
</g>
<defs>
<clipPath id="clip0_183_2582">
<rect width="29" height="29" fill="white"/>
</clipPath>
</defs>
</svg>
