<svg width="78" height="83" viewBox="0 0 78 83" fill="none" xmlns="http://www.w3.org/2000/svg">
<g clip-path="url(#clip0_163_1137)">
<path d="M17.4589 83.0001C15.8561 82.6539 14.6647 81.7018 13.5384 80.5767C11.9571 78.9972 10.2893 77.4826 8.68638 75.9247C7.94991 75.2107 7.86327 74.5183 8.42645 73.9557C8.96797 73.4148 9.63945 73.4797 10.3542 74.1505C12.2387 75.9247 14.1015 77.7206 15.986 79.5165C17.5023 80.9662 19.2351 80.9229 20.6864 79.4299C21.2496 78.8457 21.8344 78.2832 22.3759 77.6773C23.5456 76.3791 23.5456 74.5832 22.2893 73.3715C18.0221 69.2605 13.755 65.1927 9.4445 61.1249C8.20984 59.9565 6.45533 60.0214 5.22067 61.2331C4.57085 61.8822 3.92103 62.5313 3.31454 63.2237C2.14486 64.5003 2.18818 66.2746 3.42284 67.5295C4.2676 68.3734 5.13403 69.1739 6.00046 69.9961C6.6936 70.6669 6.75858 71.3593 6.1954 71.9002C5.67555 72.4195 5.00407 72.3762 4.33259 71.7488C3.46616 70.9265 2.59974 70.126 1.75497 69.2821C-0.519399 67.0751 -0.584381 63.8296 1.56002 61.5144C1.94992 61.1033 2.36147 60.7138 2.7297 60.2811C4.59251 58.0957 6.84522 57.3168 9.63945 58.3554C10.2893 55.0233 10.5709 51.6911 10.5925 48.359C10.6142 45.7626 10.5059 43.1878 10.4842 40.5913C10.4626 38.1247 12.282 36.0259 14.6214 35.7446C17.0474 35.4417 19.4301 36.9779 19.9499 39.358C20.2098 40.5697 20.1449 41.8679 20.2098 43.1445C20.2315 43.4041 20.2098 43.6638 20.2098 44.1614C22.9391 41.327 25.4734 38.6656 28.116 35.896C27.8994 35.7446 27.7044 35.6364 27.5528 35.4849C25.9283 33.8838 25.7333 31.4604 27.1846 29.6646C29.6539 26.6137 32.1665 23.6278 34.6575 20.5986C35.2207 19.9062 35.9138 19.8197 36.4987 20.2957C37.0618 20.7717 37.0835 21.4641 36.5203 22.1565C34.0943 25.0991 31.6683 28.0201 29.2423 30.9628C28.2893 32.1096 28.4842 33.2347 29.9355 34.1651C30.1088 33.9271 30.2604 33.5592 30.5203 33.3645C31.1701 32.8885 31.82 32.3259 32.5564 32.1095C33.3362 31.8932 33.8127 31.4821 34.2893 30.9195C35.5239 29.4049 36.7586 27.9119 38.0149 26.419C38.708 25.5751 39.4012 25.402 40.0077 25.8997C40.6575 26.419 40.5925 27.1114 39.8561 28.0201C38.6214 29.5131 37.3867 31.0061 36.2171 32.4341C36.8452 33.1914 37.4084 33.9054 38.0149 34.6411C39.2279 34.3598 40.3326 33.8189 41.0907 32.6288C41.5023 32.0014 42.0438 31.4388 42.5203 30.8762C43.1485 30.1406 43.82 30.0107 44.4048 30.4868C45.0113 30.9628 45.0113 31.6552 44.4048 32.4125C43.82 33.1481 43.2135 33.8622 42.542 34.6844C43.6683 35.4417 44.4048 36.4802 44.6647 38.0165C45.2712 37.2808 45.7261 36.6317 46.2893 36.0908C46.6358 35.7879 47.1774 35.4849 47.5889 35.5066C48.5203 35.5715 48.8669 36.6966 48.2387 37.4972C47.5023 38.4276 46.7225 39.3363 45.9644 40.2451C45.7044 40.548 45.4662 40.8726 45.1846 41.2188C46.3326 42.0843 47.069 43.1878 47.1774 44.7673C47.4156 44.5293 47.5672 44.3562 47.7189 44.1831C49.9499 41.4784 52.2026 38.7738 54.4337 36.0691C54.8236 35.5931 55.2351 35.2037 55.9283 35.3768C56.6214 35.5715 56.7947 36.0908 56.903 36.7183C57.2062 38.644 57.5311 40.548 57.8777 42.4521C58.116 43.8369 59.0907 44.724 60.3254 44.7024C61.4734 44.6807 62.5564 43.8585 62.6431 42.7117C62.708 41.7597 62.5781 40.7644 62.4698 39.8124C61.9283 34.7276 61.6033 29.6429 62.1882 24.5366C62.3398 23.1518 62.0149 22.1781 60.8236 21.2261C57.0113 18.2185 53.3073 15.0595 49.5817 11.9437C49.1701 11.5976 48.8019 11.4677 48.2604 11.5543C46.1376 11.8788 44.3615 12.8309 42.9535 14.4104C41.9788 15.5139 41.0907 16.6606 40.1376 17.7641C39.4662 18.5647 38.4481 18.5647 38.0582 17.7209C37.9066 17.3747 37.8633 16.7688 38.0799 16.5308C39.5095 14.8215 40.9391 13.0689 42.5203 11.511C43.8633 10.1911 45.6611 9.56367 47.5672 9.1742C47.5456 8.95783 47.5239 8.78473 47.5239 8.58999C47.5239 7.89761 47.3723 7.14031 47.5889 6.51283C48.4553 3.85146 50.1015 1.70939 52.6358 0.497711C54.4987 -0.411048 56.4264 -0.0215798 58.051 1.27665C60.2387 3.00762 62.3615 4.8035 64.4842 6.57774C65.134 7.11867 65.2207 7.78942 64.7875 8.35199C64.3326 8.93619 63.6178 9.0011 62.9246 8.43853C60.8885 6.77248 58.8741 5.10642 56.8597 3.44036C55.1485 2.03395 53.4806 2.18541 52.051 3.89474C51.5528 4.50058 51.0329 5.08478 50.5564 5.71226C49.4734 7.11867 49.6033 8.87128 50.9463 9.97477C55.4734 13.7396 60.0221 17.4829 64.5709 21.2261C65.9355 22.3512 67.6683 22.1781 68.8597 20.8799C69.4878 20.1875 70.0943 19.4518 70.6792 18.6945C71.6972 17.3747 71.5239 15.6437 70.2676 14.5402C69.3579 13.7396 68.4048 12.9823 67.4734 12.2034C66.7802 11.6192 66.6503 10.8619 67.1268 10.2993C67.5817 9.78004 68.3181 9.7584 69.0113 10.321C69.986 11.0999 70.9391 11.8788 71.8705 12.701C74.0799 14.6484 74.3831 17.8074 72.607 20.1442C72.0438 20.9015 71.4156 21.6155 70.8091 22.3296C69.2929 24.0822 67.3867 24.7097 65.134 24.1904C65.0041 24.1687 64.8741 24.1255 64.7441 24.1038C64.7225 24.1038 64.7008 24.1254 64.6575 24.1254C64.181 28.0201 64.2243 31.9148 64.5275 35.8311C64.6358 37.1726 64.8524 38.5141 64.8958 39.8556C64.9391 41.1539 65.3506 42.3223 65.9355 43.469C67.5384 46.5848 69.033 49.7654 70.6575 52.8595C72.1304 55.6507 72.8669 58.5285 72.0438 61.7091C72.3037 61.7957 72.542 61.8606 72.7586 61.9471C73.0835 62.0553 73.4301 62.1635 73.7333 62.315C76.181 63.505 78.477 68.157 77.8922 70.7967C77.5239 72.4411 76.6142 73.6961 75.0979 74.475C72.6286 75.7516 70.1376 76.9633 67.6467 78.1966C66.8669 78.5861 66.1521 78.3697 65.8488 77.7422C65.5456 77.0715 65.8055 76.444 66.607 76.0329C68.9463 74.8645 71.2857 73.6961 73.625 72.5277C75.5528 71.554 76.0727 69.9312 75.1196 68.0055C74.773 67.3131 74.4265 66.5991 74.0582 65.9067C73.1918 64.3056 71.5456 63.743 69.921 64.5436C64.6358 67.14 59.3723 69.7581 54.1304 72.4195C52.5709 73.1984 52.0293 74.8861 52.7658 76.4873C53.1557 77.3095 53.5456 78.1533 54.0005 78.9539C54.8236 80.4685 56.4481 81.0094 58.0293 80.2954C59.1124 79.7978 60.1521 79.2352 61.2135 78.7159C62.0799 78.2832 62.773 78.4346 63.1196 79.1054C63.4662 79.7978 63.1629 80.4902 62.2748 80.9013C60.7369 81.6369 59.199 82.3293 57.6611 83.0217C57.0113 83.0217 56.3615 83.0217 55.7117 83.0217C54.282 82.5457 52.9391 81.9182 52.1593 80.5551C51.4878 79.3867 50.903 78.175 50.3615 76.9417C50.1232 76.4224 50.0799 75.7949 50.0366 75.2107C49.9499 73.7177 50.5564 72.4411 51.5311 71.2944C51.3579 71.1862 51.2062 71.0996 51.0763 71.0131C47.0907 68.7196 42.8236 67.0319 38.4698 65.5822C37.9932 65.4307 37.7333 65.6038 37.4301 65.9284C35.8922 67.5512 34.3326 69.1739 32.7947 70.7967C31.4084 72.2464 29.8055 73.3499 27.8777 73.9341C27.1413 74.1505 26.3615 74.3019 25.5817 74.4967C25.6033 74.7563 25.6033 75.0376 25.625 75.2972C25.69 76.6171 25.4084 77.8504 24.542 78.8457C23.0474 80.5767 21.6394 82.4375 19.2568 83.0217C18.6286 83.0001 18.0438 83.0001 17.4589 83.0001ZM24.7586 72.03C27.4012 71.8353 29.3723 70.84 31.0185 69.109C35.7622 64.1325 40.5275 59.1559 45.2929 54.1794C45.5095 53.9414 45.7477 53.7034 45.8994 53.4221C46.3542 52.6215 46.181 51.6911 45.4878 51.0637C44.8163 50.4578 43.82 50.4146 43.1052 50.9555C42.8669 51.1286 42.6719 51.3449 42.4553 51.5613C40.4626 53.6385 38.4481 55.7373 36.4553 57.8144C35.6755 58.6367 34.9391 58.7665 34.3759 58.2039C33.7911 57.6197 33.8994 56.9706 34.7225 56.1051C34.8308 55.9969 34.9391 55.8671 35.069 55.7589C37.9932 52.6865 40.9391 49.6356 43.8633 46.5631C44.2098 46.1953 44.5348 45.7626 44.6864 45.3082C44.968 44.5076 44.5348 43.6205 43.755 43.1661C42.9752 42.7334 42.1088 42.8416 41.394 43.5556C39.3362 45.6977 37.2784 47.8397 35.2207 49.9818C34.5275 50.6958 33.8561 51.4315 33.1413 52.1239C32.6214 52.6215 31.9499 52.5999 31.4734 52.1455C30.9968 51.6911 30.9535 51.042 31.4084 50.4795C31.5167 50.328 31.6683 50.1982 31.7983 50.0684C34.7008 47.0175 37.625 43.9883 40.5275 40.9375C40.9824 40.4615 41.4589 40.0287 41.8488 39.5094C42.6719 38.406 42.1521 36.8914 40.8524 36.5235C40.0077 36.2855 39.3362 36.6101 38.7514 37.2375C37.69 38.3627 36.6503 39.4878 35.5889 40.5913C33.7694 42.517 31.9716 44.4643 30.1304 46.3468C29.8272 46.6497 29.2207 46.8444 28.7875 46.8012C28.4842 46.7795 27.986 46.2819 27.9644 45.9789C27.9427 45.5462 28.1593 44.9836 28.4626 44.6374C30.542 42.4088 32.6647 40.2235 34.7658 38.0165C35.0041 37.7568 35.264 37.4972 35.4373 37.2159C35.9571 36.4153 35.7839 35.4417 35.069 34.7926C34.3759 34.1867 33.4228 34.1218 32.6864 34.6627C32.4264 34.8575 32.2098 35.0955 31.9716 35.3335C28.2459 39.2282 24.4987 43.1445 20.773 47.0392C20.2532 47.5801 19.755 47.9479 18.9319 47.645C18.0654 47.3204 17.8272 46.7146 17.8272 45.8924C17.8272 44.9836 17.8055 44.0532 17.7838 43.1445C17.7622 42.279 17.7838 41.4135 17.7405 40.548C17.6539 39.1632 16.7225 38.1679 15.5095 38.0814C14.0149 37.9948 12.9319 39.0551 12.9319 40.6346C12.9319 44.2263 13.0402 47.8181 12.8885 51.3882C12.7802 53.963 12.347 56.5379 12.0438 59.091C11.9571 59.7834 12.1304 60.2811 12.6719 60.8004C16.4626 64.3705 20.2098 67.9839 24.0005 71.5757C24.2387 71.8786 24.6286 71.9651 24.7586 72.03ZM64.116 45.2866C62.7514 46.8012 61.1052 47.4503 59.134 46.931C56.8597 46.3251 55.7333 44.7024 55.4301 42.4305C55.3001 41.4352 55.1052 40.4615 54.9102 39.3147C53.8705 40.5697 52.9391 41.6515 52.0727 42.7766C51.921 42.9714 51.9427 43.3825 52.051 43.6205C52.5275 44.6807 53.069 45.6977 53.5889 46.7362C54.0438 47.645 53.8922 48.3374 53.1557 48.6836C52.4842 49.0081 51.8561 48.7052 51.4228 47.8614C50.9896 46.9959 50.5564 46.1304 50.0799 45.1784C48.9752 46.5199 47.9355 47.7748 46.9174 49.0081C49.1485 51.2368 49.1918 53.6601 47.1124 55.8671C44.9246 58.1823 42.7153 60.4758 40.5059 62.7694C40.3109 62.9857 40.116 63.2021 39.921 63.4401C41.8272 64.1541 43.7117 64.76 45.4878 65.5605C47.9138 66.6424 50.2965 67.8757 52.6792 69.0658C53.5672 69.5201 54.3254 69.65 55.3001 69.1307C59.8055 66.7939 64.3759 64.5869 68.903 62.2933C69.2279 62.1202 69.5745 61.7524 69.6828 61.4062C70.3542 59.1776 70.0943 57.0355 69.0763 54.9583C67.56 51.8859 66.0221 48.835 64.4842 45.7626C64.3326 45.6111 64.2243 45.4597 64.116 45.2866Z" fill="#F0F0F0"/>
</g>
<defs>
<clipPath id="clip0_163_1137">
<rect width="78" height="83" fill="white"/>
</clipPath>
</defs>
</svg>
