<svg width="32" height="25" viewBox="0 0 32 25" fill="none" xmlns="http://www.w3.org/2000/svg">
<path d="M4.5896 10.492C5.82104 10.492 7.02629 10.492 8.25775 10.492C9.69876 9.6229 11.1399 8.73091 12.5809 7.86182C16.9826 7.86182 21.3844 7.86182 25.7861 7.86182C25.7861 9.05111 25.7861 10.2633 25.7861 11.4527C26.4936 11.4527 27.1748 11.4527 27.8822 11.4527C27.8822 10.7208 27.8822 9.98889 27.8822 9.25691C28.6421 9.25691 29.4281 9.25691 30.1879 9.25691C30.2665 12.985 30.3451 16.6903 30.4238 20.4183C29.5852 20.4183 28.7206 20.4183 27.8822 20.4183C27.8822 19.7551 27.8822 19.0918 27.8822 18.4285C27.1748 18.4285 26.4936 18.4285 25.7861 18.4285C25.7861 19.4349 25.7861 20.4183 25.7861 21.4247C24.9477 22.088 24.0831 22.7513 23.2447 23.4145C19.76 23.4145 16.3014 23.4145 12.8167 23.4145C11.4543 21.9279 10.118 20.4412 8.78177 18.9546C7.39309 18.9546 5.97825 18.9546 4.5896 18.9546C4.5896 16.1413 4.5896 13.3052 4.5896 10.492Z" stroke="#484848" stroke-width="1.3" stroke-miterlimit="10" stroke-linecap="round" stroke-linejoin="round"/>
<path d="M23.7425 3.51589C22.7993 3.51589 21.856 3.51589 20.8867 3.51589C18.6595 3.51589 16.4325 3.51589 14.2316 3.51589C14.2054 3.51589 14.0744 3.51589 13.9696 3.4244C13.9171 3.37866 13.8647 3.28718 13.8647 3.19569V1.32021C13.8647 1.13723 14.022 1 14.2054 1H23.7163C23.8998 1 24.0569 1.13723 24.0569 1.32021V3.19569C24.1094 3.37866 23.9521 3.51589 23.7425 3.51589Z" stroke="#484848" stroke-width="1.3" stroke-miterlimit="10" stroke-linecap="round" stroke-linejoin="round"/>
<path d="M2.51966 10.2634H1V19.4122H2.51966V10.2634Z" stroke="#484848" stroke-width="1.3" stroke-miterlimit="10" stroke-linecap="round" stroke-linejoin="round"/>
<path d="M17.1926 3.74512C17.1926 5.11743 17.1926 6.48971 17.1926 7.86199" stroke="#484848" stroke-width="1.3" stroke-miterlimit="10" stroke-linecap="round" stroke-linejoin="round"/>
<path d="M20.887 3.74512C20.887 5.11743 20.887 6.48971 20.887 7.86199" stroke="#484848" stroke-width="1.3" stroke-miterlimit="10" stroke-linecap="round" stroke-linejoin="round"/>
<path d="M2.83374 13.5796C3.38396 13.5796 3.90799 13.5796 4.4582 13.5796" stroke="#484848" stroke-width="1.3" stroke-miterlimit="10" stroke-linecap="round" stroke-linejoin="round"/>
<path d="M2.59814 16.5525C3.22696 16.5525 3.82959 16.5525 4.45841 16.5525" stroke="#484848" stroke-width="1.3" stroke-miterlimit="10" stroke-linecap="round" stroke-linejoin="round"/>
<path d="M14.9388 15.5685C15.4367 14.059 15.9607 12.5495 16.4585 11.04C16.4847 10.9942 16.5371 10.9485 16.5895 10.9485H20.2052C20.31 10.9485 20.3887 11.0628 20.3362 11.1543C19.786 12.1607 19.262 13.1671 18.7118 14.1505C18.6594 14.2419 18.7379 14.3563 18.8428 14.3563L20.7555 14.1733C20.8864 14.1505 20.9651 14.3106 20.8602 14.402C18.9214 16.4148 16.9563 18.4047 15.0175 20.4174C14.9126 20.5317 14.7293 20.3945 14.7817 20.2573C15.489 18.8163 16.1703 17.3983 16.8778 15.9573C16.9302 15.8659 16.8515 15.7515 16.7467 15.7515H15.0699C14.965 15.7515 14.9126 15.66 14.9388 15.5685Z" stroke="#484848" stroke-width="1.3" stroke-miterlimit="10" stroke-linecap="round" stroke-linejoin="round"/>
</svg>
