<svg width="94" height="92" viewBox="0 0 94 92" fill="none" xmlns="http://www.w3.org/2000/svg">
<g clip-path="url(#clip0_163_1132)">
<path d="M0 52.7662C3.02206 48.8149 6.11439 44.8985 9.10131 40.9472C9.69869 40.1429 10.3664 39.7932 11.3854 39.7932C20.9084 39.8282 30.4314 39.8282 39.9544 39.8282C40.3058 39.8282 40.6572 39.8282 41.0789 39.8282C41.0789 37.6952 41.0789 35.667 41.0789 33.534C39.4273 33.534 37.846 33.534 36.2647 33.534C34.8239 33.534 34.5428 33.2543 34.5428 31.8206C34.5428 24.0578 34.5428 16.26 34.5428 8.49715C34.5428 7.13341 34.8591 6.85367 36.2295 6.85367C37.8108 6.85367 39.3922 6.85367 41.114 6.85367C41.114 5.31509 41.114 3.84645 41.114 2.34284C41.114 1.95819 41.114 1.53858 41.114 1.15393C41.114 0.419612 41.5357 0 42.2385 0C45.4011 0 48.5637 0 51.6912 0C52.5346 0 52.886 0.524515 52.886 1.32877C52.886 3.11212 52.886 4.93044 52.886 6.85367C53.2725 6.85367 53.6239 6.85367 54.0105 6.85367C63.6389 6.85367 73.2321 6.85367 82.8606 6.8187C83.7391 6.8187 84.3364 7.09844 84.8635 7.79779C87.745 11.6093 90.6265 15.3858 93.5432 19.1273C94.1054 19.8616 94.1054 20.4211 93.5432 21.1555C90.6265 24.932 87.745 28.7085 84.8987 32.52C84.3716 33.2193 83.7742 33.4991 82.8957 33.4991C73.3024 33.4641 63.7092 33.4991 54.151 33.4991C53.7996 33.4991 53.4131 33.4991 52.9914 33.4991C52.9914 35.5971 52.9914 37.6602 52.9914 39.7932C54.643 39.7932 56.2594 39.7932 57.8759 39.7932C59.2112 39.7932 59.5275 40.1429 59.5275 41.4717C59.5275 49.2695 59.5275 57.0673 59.5275 64.8651C59.5275 66.1938 59.2464 66.4736 57.911 66.4736C56.2946 66.4736 54.6781 66.4736 52.9914 66.4736C52.9914 74.2364 52.9914 81.9293 52.9914 89.6921C55.9432 89.6921 58.9301 89.6921 62.0224 89.6921C61.5305 88.8529 61.0736 88.0836 60.652 87.3493C60.1951 86.545 60.3006 85.9506 60.9331 85.6009C61.5656 85.2163 62.0927 85.4261 62.5847 86.2303C63.0415 86.9996 63.4632 87.7689 63.9551 88.6431C64.4471 87.8039 64.8688 87.0346 65.3256 86.3003C65.7121 85.6708 66.2041 85.1463 67.0475 85.5659C67.7151 85.9156 67.7854 86.58 67.2583 87.4892C66.8366 88.1885 66.4501 88.9228 65.9581 89.7271C69.9993 89.7271 73.935 89.7271 78.0112 89.7271C77.5544 88.9228 77.1327 88.1885 76.711 87.4542C76.2191 86.58 76.2893 86.0205 76.9219 85.6359C77.5544 85.2512 78.0815 85.496 78.6086 86.3352C79.0654 87.0695 79.4871 87.8039 80.0142 88.6431C80.3656 88.0486 80.6116 87.5241 80.9278 86.9996C81.1387 86.615 81.3495 86.2653 81.6307 85.9156C82.0172 85.4261 82.5092 85.2163 83.0714 85.5659C83.6688 85.9156 83.7742 86.5101 83.4931 87.0695C83.1768 87.7339 82.7551 88.3284 82.4037 88.9928C82.2983 89.2026 82.1929 89.4124 82.0172 89.797C83.2471 89.797 84.3013 89.797 85.3907 89.797C86.3394 89.797 87.2882 89.797 88.237 89.797C88.975 89.797 89.5021 90.0418 89.5723 90.8461C89.6426 91.5454 89.1155 91.9301 88.237 92C87.991 92 87.745 92 87.4991 92C83.5985 92 79.7331 92 75.8325 92C68.5585 92 61.3196 92 54.0456 92C46.5959 92 39.1462 92 31.7316 92C23.2979 92 14.8994 92 6.46579 92C6.11439 92 5.79813 92 5.44673 91.965C4.74393 91.9301 4.35738 91.5104 4.39252 90.8461C4.42766 90.1467 4.84935 89.797 5.51701 89.797C7.27402 89.797 8.99589 89.797 10.7529 89.797C11.1043 89.797 11.4557 89.797 12.0179 89.797C11.4908 88.8879 11.034 88.1186 10.6123 87.3843C10.2258 86.7548 10.1204 86.1254 10.8583 85.6359C11.4908 85.2163 12.0531 85.461 12.5802 86.3003C13.037 87.0346 13.4587 87.8039 13.9507 88.6431C14.4426 87.7689 14.8643 87.0346 15.3211 86.3352C15.7077 85.7058 16.1996 85.1463 17.043 85.5659C17.7107 85.8806 17.7458 86.58 17.2538 87.4892C16.8321 88.1885 16.4456 88.9228 15.9536 89.7271C19.9948 89.7271 23.9656 89.7271 28.077 89.7271C27.6202 88.9228 27.1985 88.1885 26.7768 87.4542C26.2849 86.58 26.3551 86.0205 27.0228 85.6359C27.6553 85.2512 28.2176 85.496 28.7095 86.3702C29.1312 87.1045 29.5529 87.8388 30.0449 88.6781C30.5017 87.9088 30.8882 87.1745 31.3099 86.5101C31.5207 86.1954 31.7667 85.7757 32.083 85.6708C32.4344 85.5659 33.1021 85.5659 33.2778 85.8107C33.5237 86.0905 33.6292 86.7548 33.4535 87.1045C33.1021 87.9787 32.5398 88.8179 32.0127 89.7621C35.105 89.7621 38.0217 89.7621 41.0437 89.7621C41.0437 82.0692 41.0437 74.3763 41.0437 66.5435C40.6572 66.5435 40.3058 66.5435 39.9544 66.5435C30.4314 66.5435 20.9084 66.5435 11.3854 66.5785C10.3664 66.5785 9.69869 66.2987 9.06617 65.4595C6.11439 61.4033 3.0572 57.4519 0 53.5006C0 53.2558 0 53.011 0 52.7662ZM57.2785 64.2706C57.2785 56.8225 57.2785 49.4443 57.2785 42.0312C55.135 42.0312 53.0617 42.0312 50.9884 42.0312C41.4303 42.0312 31.8721 42.0661 22.3492 41.9263C20.1705 41.8913 18.8 42.4508 17.535 44.2691C15.4617 47.3113 13.1073 50.1437 10.8232 53.1159C11.034 53.3957 11.2097 53.6404 11.3854 53.8852C13.8452 57.1022 16.3402 60.3193 18.7649 63.5713C19.1865 64.1657 19.6434 64.3406 20.3813 64.3406C30.6422 64.3056 40.9032 64.3056 51.129 64.3056C53.1671 64.2706 55.1701 64.2706 57.2785 64.2706ZM83.2822 20.2113C83.0363 19.8966 82.8606 19.6169 82.6497 19.3721C80.1899 16.19 77.7301 12.973 75.3054 9.75599C74.9189 9.23147 74.5323 9.02166 73.8647 9.02166C61.8467 9.05663 49.7936 9.02166 37.7757 9.02166C37.4594 9.02166 37.1432 9.02166 36.8269 9.02166C36.8269 16.5047 36.8269 23.8829 36.8269 31.2961C37.2135 31.2961 37.5649 31.2961 37.8811 31.2961C40.3761 31.2961 42.8359 31.2611 45.3308 31.2611C54.8538 31.2611 64.3768 31.2961 73.8998 31.2961C74.3215 31.2961 74.8837 31.0863 75.1297 30.7716C77.8707 27.3098 80.5413 23.778 83.2822 20.2113ZM50.6721 89.6921C50.6721 81.9643 50.6721 74.3063 50.6721 66.6484C48.2123 66.6484 45.8228 66.6484 43.3981 66.6484C43.3981 74.3763 43.3981 82.0342 43.3981 89.6921C45.8579 89.6921 48.2123 89.6921 50.6721 89.6921ZM16.5159 41.9962C14.794 41.9962 13.283 42.0312 11.8071 41.9962C11.2097 41.9612 10.8583 42.206 10.5069 42.6606C8.01196 45.9475 5.51701 49.1995 2.98692 52.4515C2.56523 52.9761 2.56523 53.2908 2.98692 53.8502C5.34131 56.8575 7.6957 59.8647 9.90953 62.9418C10.6826 63.9909 11.4557 64.4804 12.7559 64.3406C13.9507 64.2356 15.1454 64.3056 16.5159 64.3056C16.1996 63.886 16.0239 63.6412 15.8482 63.3964C13.529 60.3542 11.1746 57.2771 8.85533 54.2349C8.08224 53.1859 8.08224 53.081 8.89047 52.0319C11.2449 48.9897 13.5641 45.9126 15.9185 42.8704C16.0942 42.6256 16.2699 42.3808 16.5159 41.9962ZM77.4841 9.05663C80.1548 12.5184 82.6849 15.8054 85.215 19.0924C85.9178 20.0015 85.9178 20.3512 85.215 21.2604C82.8606 24.3375 80.5062 27.4147 78.1518 30.4918C77.9761 30.7016 77.8355 30.9464 77.5895 31.3311C78.5032 31.3311 79.2411 31.2261 79.9439 31.366C82.1929 31.7507 83.6336 30.8765 84.8987 28.9882C86.9368 25.981 89.2912 23.1486 91.5402 20.2113C88.7641 16.5747 85.988 12.973 83.212 9.37134C83.1065 9.23147 82.8606 9.0916 82.6849 9.0916C81.0333 9.02166 79.3817 9.05663 77.4841 9.05663ZM50.6721 33.604C48.2123 33.604 45.7877 33.604 43.3981 33.604C43.3981 35.667 43.3981 37.6952 43.3981 39.7233C45.8579 39.7233 48.2475 39.7233 50.6721 39.7233C50.6721 37.6602 50.6721 35.667 50.6721 33.604ZM50.6721 6.8187C50.6721 5.24515 50.6721 3.77651 50.6721 2.23793C48.2123 2.23793 45.8228 2.23793 43.3981 2.23793C43.3981 3.81148 43.3981 5.31509 43.3981 6.8187C45.8579 6.8187 48.2475 6.8187 50.6721 6.8187Z" fill="#E52034"/>
<path d="M30.8177 53.2908C31.1691 52.7663 31.3096 52.4166 31.5556 52.2068C33.8749 49.864 36.1941 47.5211 38.5485 45.2482C40.165 43.6747 42.3437 43.6747 43.9601 45.2482C45.5766 46.7868 45.682 49.0247 44.1007 50.5983C40.5866 54.165 37.0375 57.6617 33.418 61.1585C31.8367 62.6971 29.6932 62.6621 28.0767 61.0886C26.636 59.6899 25.1952 58.2912 23.7896 56.8225C22.1732 55.179 22.2083 53.046 23.8248 51.4725C25.4061 49.8989 27.5848 49.864 29.2364 51.4375C29.7635 51.8921 30.15 52.4865 30.8177 53.2908ZM26.39 52.2767C25.898 52.6963 25.3358 52.9761 25.0547 53.4307C24.633 54.0601 24.8438 54.7245 25.3709 55.249C26.6711 56.5777 27.9713 57.9065 29.3066 59.2353C30.3257 60.2843 31.2745 60.2843 32.3287 59.2353C33.8397 57.7317 35.3508 56.2281 36.8618 54.6895C38.6891 52.8362 40.5515 51.0179 42.3788 49.1646C43.2924 48.2205 43.187 47.0665 42.0977 46.5071C41.2543 46.0525 40.5866 46.3322 39.9541 46.9616C37.2835 49.6541 34.5777 52.3117 31.907 54.9692C31.0988 55.7735 30.6068 55.7735 29.7986 55.0042C29.1661 54.4098 28.639 53.7454 27.9713 53.1859C27.5496 52.8712 27.0577 52.6614 26.39 52.2767Z" fill="#125EA9"/>
<path d="M60.3356 25.6313C59.703 26.2257 59.2462 26.6803 58.7894 27.065C57.1378 28.4637 54.8185 28.3588 53.3778 26.8901C51.9019 25.3515 51.9019 23.1835 53.3778 21.5401C53.7643 21.1205 54.186 20.7008 54.7834 20.0365C54.2563 19.6168 53.6941 19.3021 53.2724 18.8126C51.7965 17.239 51.8668 15.141 53.4129 13.5674C54.9591 11.9939 57.1378 11.854 58.7542 13.2877C59.2462 13.7073 59.6328 14.2318 60.195 14.8263C60.6518 14.3018 61.0032 13.8472 61.4249 13.4625C63.1116 11.924 65.4309 11.9589 66.9419 13.4975C68.4178 15.0361 68.3827 17.3789 66.8365 19.0224C66.4851 19.407 66.0634 19.7217 65.466 20.2812C66.0283 20.7008 66.5202 20.9806 66.8716 21.4002C68.4178 23.1136 68.4178 25.4215 66.9068 26.8901C65.3606 28.4287 63.0062 28.3937 61.3195 26.7852C60.9681 26.5055 60.687 26.0509 60.3356 25.6313ZM56.2944 25.946C56.5053 25.8411 56.9621 25.7012 57.3135 25.4564C57.8055 25.0718 58.2271 24.6172 58.6488 24.1976C60.0544 22.7639 60.3707 22.7639 61.7763 24.1976C62.2683 24.6872 62.7602 25.2117 63.3225 25.6313C64.201 26.2607 65.1849 26.0159 65.7471 25.0718C66.1688 24.3724 65.958 23.778 65.466 23.2185C64.8686 22.5192 64.1658 21.9247 63.5684 21.2254C62.8305 20.4211 62.8656 19.9665 63.6739 19.1972C64.2361 18.6378 64.8335 18.1132 65.3255 17.4838C66.0985 16.5747 66.0634 15.7354 65.3606 15.0361C64.6227 14.3367 63.8847 14.3367 62.9359 15.1759C62.3385 15.7005 61.8114 16.2949 61.2141 16.8194C60.3356 17.5887 59.9139 17.5538 59.1056 16.7495C58.438 16.1201 57.8055 15.4557 57.0675 14.8962C56.2944 14.3018 55.5916 14.4416 54.924 15.141C54.2914 15.8054 54.2212 16.4698 54.8888 17.274C55.4159 17.9034 56.0485 18.4629 56.6107 19.0224C57.5946 20.0365 57.5595 20.4211 56.5756 21.4352C55.943 22.0646 55.2402 22.729 54.7483 23.4633C54.0455 24.5123 54.8185 25.911 56.2944 25.946Z" fill="#125EA9"/>
</g>
<defs>
<clipPath id="clip0_163_1132">
<rect width="94" height="92" fill="white"/>
</clipPath>
</defs>
</svg>
