<svg width="168" height="187" viewBox="0 0 168 187" fill="none" xmlns="http://www.w3.org/2000/svg">
<g clip-path="url(#clip0_163_1017)">
<path d="M85.0722 0C87.0223 1.07359 87.7049 2.73278 87.6561 4.97756C87.5586 12.3951 87.6074 19.8126 87.6074 27.2302C87.6074 29.6213 86.3886 31.1829 84.4385 31.4269C82.3909 31.7197 80.392 30.1581 80.392 27.9622C80.3433 19.8126 80.3433 11.6631 80.392 3.56237C80.392 1.80558 81.6596 0.927192 82.9272 0.0487996C83.6097 0 84.341 0 85.0722 0Z" fill="#F0F0F0"/>
<path d="M83.5127 144.642C67.2295 144.496 51.9213 139.323 37.7832 130.49C23.4013 121.56 11.3595 110.043 1.31657 96.428C-0.487264 93.988 -0.487264 92.9632 1.36532 90.5232C14.7722 72.6626 30.9579 58.1691 51.6776 49.2876C74.4448 39.4789 97.0658 40.1133 119.443 50.654C138.798 59.7795 154.155 73.7362 166.83 90.816C168.342 92.8168 168.39 94.1344 167.025 95.9888C152.448 115.557 134.654 131.076 111.496 139.713C102.624 142.983 93.4582 144.593 83.5127 144.642ZM83.5127 137.371C92.6294 137.322 101.015 135.809 109.108 132.784C129.632 125.122 145.525 111.458 159.03 94.5736C159.712 93.6952 159.566 93.1584 158.932 92.3776C148.304 78.9577 135.97 67.5874 120.808 59.4867C97.4558 46.994 73.8598 46.262 50.02 58.0715C33.5418 66.221 20.3299 78.1769 8.97066 92.4752C8.19062 93.4512 8.58064 94.0368 9.16567 94.8176C18.3311 106.432 28.9103 116.485 41.4884 124.293C54.5052 132.344 68.4971 137.273 83.5127 137.371Z" fill="#F0F0F0"/>
<path d="M87.6566 171.433C87.6566 175.142 87.6566 178.85 87.6566 182.559C87.6566 185.341 86.2428 187.049 83.9514 187C81.7576 186.951 80.3438 185.292 80.3438 182.657C80.3438 175.044 80.3438 167.48 80.3438 159.867C80.3438 157.232 81.8063 155.573 84.0489 155.622C86.2428 155.671 87.6566 157.33 87.6566 159.965C87.6566 163.82 87.6566 167.627 87.6566 171.433Z" fill="#F0F0F0"/>
<path d="M33.9318 46.5548C33.8343 49.7756 30.9091 51.4836 28.5203 50.166C27.984 49.8732 27.5452 49.434 27.1065 48.9948C22.28 44.2124 17.4535 39.4301 12.7246 34.5501C11.8958 33.6717 11.1645 32.1589 11.3108 31.0853C11.457 30.0117 12.5783 28.5966 13.6021 28.255C14.6259 27.8646 16.4297 28.2062 17.2098 28.9382C22.5238 34.0133 27.6915 39.2349 32.8105 44.5052C33.4442 45.1396 33.688 46.1156 33.9318 46.5548Z" fill="#F0F0F0"/>
<path d="M157.372 31.3293C156.592 32.6469 156.153 33.7205 155.471 34.4525C150.596 39.4301 145.623 44.3588 140.699 49.2876C138.895 51.0932 136.75 51.142 135.239 49.5804C133.679 48.0188 133.776 45.9204 135.58 44.1148C140.504 39.1373 145.428 34.2573 150.352 29.2798C151.62 28.011 153.18 27.3278 154.788 28.3038C155.812 28.9382 156.446 30.2557 157.372 31.3293Z" fill="#F0F0F0"/>
<path d="M14.6742 163.283C13.5529 162.405 12.1878 161.868 11.7491 160.892C11.2615 159.916 11.6028 158.501 11.7491 157.33C11.7978 156.891 12.3828 156.451 12.7729 156.061C17.5506 151.23 22.3283 146.399 27.2035 141.665C28.081 140.836 29.5436 140.104 30.6649 140.201C31.6887 140.25 32.9075 141.324 33.5413 142.3C34.4188 143.568 33.9801 145.032 32.9563 146.155C31.5424 147.668 30.0799 149.132 28.6173 150.547C25.0584 154.109 21.5483 157.72 17.8918 161.234C17.0631 161.966 15.9418 162.454 14.6742 163.283Z" fill="#F0F0F0"/>
<path d="M137.481 139.518C138.797 140.299 139.87 140.689 140.601 141.372C145.574 146.252 150.498 151.181 155.422 156.159C157.274 158.062 157.372 160.209 155.714 161.771C154.154 163.283 152.058 163.137 150.205 161.283C145.233 156.354 140.309 151.425 135.385 146.448C134.166 145.228 133.483 143.715 134.41 142.153C135.141 141.177 136.36 140.445 137.481 139.518Z" fill="#F0F0F0"/>
<path d="M117.005 93.5488C116.859 110.726 103.793 124.829 86.5347 126.342C69.8614 127.806 54.2607 115.655 51.6769 98.9655C51.1406 95.5496 51.4331 91.9384 51.6281 88.4248C51.7744 85.7896 53.5782 84.3257 55.772 84.6185C57.9171 84.9113 59.1847 86.5704 58.8434 89.1568C58.3071 92.8656 58.4047 96.5744 59.3797 100.186C62.8411 112.971 75.2729 120.877 88.5335 118.681C101.112 116.631 110.374 104.724 109.546 91.7432C108.473 75.2977 91.9949 64.1226 76.1992 69.149C75.6142 69.3442 75.0779 69.5882 74.4441 69.6858C72.4453 70.0762 70.6902 69.1002 70.1052 67.2946C69.5202 65.4402 70.3489 63.5858 72.2503 62.8538C76.8817 60.9995 81.7569 60.2675 86.7297 60.7555C101.794 62.2195 113.348 72.7602 116.225 87.5464C116.663 89.4984 116.761 91.548 117.005 93.5488Z" fill="#ECECEC"/>
<path d="M98.5768 93.5976C98.5281 101.65 91.9466 108.189 83.8537 108.14C75.8096 108.091 69.3255 101.454 69.3743 93.3536C69.423 85.3993 76.0046 78.9089 83.9999 78.9089C92.0441 78.9089 98.6256 85.4969 98.5768 93.5976ZM91.3128 93.5C91.3128 89.4984 88.0464 86.1801 84.0487 86.1801C80.051 86.1801 76.7359 89.4496 76.7359 93.4512C76.7359 97.4528 80.0023 100.771 83.9999 100.771C87.9976 100.82 91.264 97.5504 91.3128 93.5Z" fill="#ECECEC"/>
<path d="M65.7182 75.2977C65.6694 77.2985 63.9631 78.9577 61.9643 78.9089C60.0142 78.8113 58.4541 77.1521 58.4541 75.2489C58.4541 73.2482 60.2092 71.589 62.208 71.6378C64.1581 71.6866 65.7669 73.3458 65.7182 75.2977Z" fill="#F0F0F0"/>
</g>
<defs>
<clipPath id="clip0_163_1017">
<rect width="168" height="187" fill="white"/>
</clipPath>
</defs>
</svg>
