<svg width="56" height="52" viewBox="0 0 56 52" fill="none" xmlns="http://www.w3.org/2000/svg">
<g clip-path="url(#clip0_172_1671)">
<path d="M24.2736 22.2791C24.2736 20.7907 24.2736 19.3798 24.2736 17.969C24.2736 17.0078 24.5699 16.7132 25.5053 16.7132C27.1734 16.7132 28.8416 16.7132 30.5253 16.7132C31.4296 16.7132 31.7414 17.0233 31.7414 17.938C31.7414 19.3643 31.7414 20.7907 31.7414 22.2791C33.1601 22.2791 34.532 22.2791 35.9195 22.2791C37.1044 22.2791 37.3538 22.5116 37.3538 23.7054C37.3538 25.3023 37.3538 26.9147 37.3538 28.5116C37.3538 29.3798 37.042 29.7054 36.169 29.7054C34.7347 29.7054 33.3004 29.7054 31.7569 29.7054C31.7569 29.907 31.7569 30.093 31.7569 30.2791C31.7569 31.5504 31.7569 32.8372 31.7569 34.1085C31.7569 34.9457 31.4296 35.2868 30.6033 35.2868C28.8728 35.2868 27.1422 35.2868 25.4117 35.2868C24.6166 35.2868 24.2892 34.9457 24.2892 34.1395C24.2892 32.6977 24.2892 31.2403 24.2892 29.7364C24.071 29.7209 23.8839 29.7054 23.6968 29.7054C22.3716 29.7054 21.0465 29.7054 19.7369 29.7054C19.0509 29.7054 18.6924 29.3488 18.6924 28.6667C18.6768 26.8837 18.6768 25.1163 18.6924 23.3333C18.6924 22.6202 19.0509 22.2946 19.7993 22.2946C21.2491 22.2791 22.7146 22.2791 24.2736 22.2791ZM29.8705 33.3953C29.8705 31.8915 29.8705 30.4186 29.8705 28.9612C29.8705 28.2016 30.2135 27.8605 30.9774 27.8605C31.679 27.845 32.3806 27.8605 33.0821 27.8605C33.8772 27.8605 34.6567 27.8605 35.4362 27.8605C35.4362 26.5736 35.4362 25.3643 35.4362 24.1395C34.0175 24.1395 32.63 24.1395 31.2581 24.1395C30.1512 24.1395 29.8861 23.876 29.8861 22.7752C29.8861 21.3953 29.8861 20 29.8861 18.6047C28.6233 18.6047 27.4073 18.6047 26.1445 18.6047C26.1445 20.1085 26.1445 21.5659 26.1445 23.0388C26.1445 23.7985 25.8015 24.1395 25.0376 24.1395C24.336 24.155 23.6345 24.1395 22.9329 24.1395C22.1378 24.1395 21.3583 24.1395 20.5788 24.1395C20.5788 25.4264 20.5788 26.6357 20.5788 27.8605C21.9975 27.8605 23.385 27.8605 24.7569 27.8605C25.8638 27.8605 26.1289 28.124 26.1289 29.2248C26.1289 30.6047 26.1289 32 26.1289 33.4109C27.3917 33.3954 28.5921 33.3953 29.8705 33.3953Z" fill="#E52034"/>
<path d="M26.6593 51.907C24.7417 51.907 22.8085 51.969 20.8909 51.8915C19.3942 51.8295 18.0067 51.3023 16.666 50.6667C14.5925 49.6589 12.5034 48.6512 10.4299 47.6589C8.68378 46.8217 6.84413 46.4186 4.91095 46.4186C3.64814 46.4341 2.38534 46.4186 1.12253 46.4186C0.43656 46.4186 0.015625 46.062 0.015625 45.5039C0.015625 44.9457 0.42097 44.5581 1.10694 44.5736C3.2428 44.6357 5.39424 44.5737 7.49892 44.8372C8.82409 44.9923 10.1181 45.5349 11.3497 46.062C13.4388 46.9768 15.4811 48.0155 17.539 49.0233C19.0668 49.7675 20.6726 50.1395 22.372 50.1395C25.3653 50.124 28.3586 50.1395 31.3519 50.124C31.6325 50.124 31.9288 50.0775 32.1938 49.969C34.6259 48.9923 37.0423 47.969 39.4744 47.0078C39.9421 46.8217 40.0357 46.5736 39.9577 46.124C39.8018 45.2248 39.3029 44.7132 38.3987 44.5581C37.2294 44.3566 36.1225 44.6822 35.0156 44.9923C34.4232 45.1473 33.8308 45.3643 33.2383 45.5504C32.5212 45.7829 32.0223 45.5969 31.8352 45.0543C31.6481 44.4961 31.9132 44 32.6303 43.814C34.1582 43.4109 35.7016 42.9768 37.2606 42.7132C37.9778 42.5892 38.7884 42.7442 39.49 42.9612C41.2361 43.5194 42.2027 45.4574 41.7038 47.2248C41.5167 47.876 41.1426 48.3411 40.4878 48.6047C37.8219 49.6899 35.1715 50.7907 32.5212 51.8605C32.2562 51.969 31.9599 52 31.6637 52C29.9956 52.0155 28.3118 52 26.6437 52C26.6593 51.969 26.6593 51.938 26.6593 51.907Z" fill="#125EA9"/>
<path d="M29.3093 0.0930232C31.2581 0.0930232 33.1913 0.0465116 35.1401 0.108527C36.5432 0.155039 37.8839 0.635659 39.1467 1.24031C41.3917 2.31008 43.6211 3.41085 45.8661 4.46512C47.4875 5.22481 49.2024 5.58139 51.0109 5.58139C52.2893 5.58139 53.5833 5.58139 54.8617 5.58139C55.5944 5.58139 56.0309 5.92248 56.0309 6.51163C56.0309 7.08527 55.5944 7.45736 54.8617 7.44186C52.7726 7.37984 50.6523 7.45736 48.5788 7.17829C47.1913 6.99225 45.8193 6.43411 44.5098 5.86046C42.3895 4.94574 40.3472 3.87597 38.2581 2.88372C36.8238 2.18605 35.296 1.86046 33.6902 1.87597C30.6813 1.87597 27.6568 1.87597 24.6478 1.89147C24.3672 1.89147 24.071 1.95349 23.806 2.04651C21.3739 3.02326 18.9574 4.04651 16.5254 5.00775C16.0576 5.1938 15.9641 5.45736 16.0421 5.89147C16.198 6.77519 16.6968 7.30232 17.6011 7.45736C18.7703 7.64341 19.8772 7.31783 20.9842 7.02325C21.6078 6.85271 22.2002 6.63566 22.8238 6.44961C23.4942 6.24806 23.9931 6.43411 24.1646 6.97674C24.3516 7.51938 24.0866 8.0155 23.4162 8.20155C21.826 8.62015 20.2358 9.08527 18.6144 9.33333C16.7436 9.6124 15.1222 8.74418 14.5454 7.22481C14.2804 6.54263 14.2492 5.72093 14.2804 4.96124C14.3271 4.23256 14.7948 3.70543 15.5276 3.41085C18.1467 2.35659 20.7659 1.25581 23.385 0.20155C23.6813 0.0775194 24.0242 0.0310077 24.336 0.0155039C26.0042 0 27.6568 0 29.3093 0C29.3093 0.0310077 29.3093 0.0620155 29.3093 0.0930232Z" fill="#125EA9"/>
<path d="M27.9068 6.62015C27.6106 7.81395 27.9224 8.8217 28.7799 9.5969C29.3723 10.124 30.0895 10.5891 30.8066 10.9147C32.6307 11.7364 34.4859 12.4496 36.3255 13.2403C36.5906 13.3488 36.8868 13.5659 37.0115 13.7984C38.2431 16.3256 40.3946 17.3488 43.0761 17.5039C44.3389 17.5814 45.5394 17.3178 46.7398 16.9302C47.114 16.8062 47.5349 16.7287 47.9247 16.7287C50.1541 16.7132 52.399 16.7132 54.6284 16.7132C54.7376 16.7132 54.8623 16.7132 54.9714 16.7132C55.5794 16.7442 55.9692 17.0853 55.9848 17.6124C56.0004 18.155 55.595 18.5581 54.9714 18.5581C52.742 18.5736 50.497 18.5581 48.2676 18.5736C47.8935 18.5736 47.5037 18.6512 47.1296 18.7597C43.7932 19.7984 40.5973 19.6899 37.7131 17.5039C36.9336 16.9147 36.3723 16.031 35.6863 15.2868C35.4681 15.0388 35.2186 14.7752 34.9224 14.6357C33.2387 13.907 31.4926 13.2868 29.84 12.4806C28.889 12.0155 27.9536 11.3798 27.2053 10.6202C25.6151 9.00775 25.5839 6.91473 26.4414 4.96124C26.6908 4.38759 27.1585 4.26356 27.8757 4.55814C30.4948 5.6279 33.114 6.71317 35.7331 7.79845C36.5282 8.12403 37.3077 8.44961 38.1028 8.77519C38.82 9.06976 39.085 9.56589 38.8356 10.1085C38.6017 10.6357 38.0716 10.7752 37.3857 10.4961C34.3924 9.27131 31.399 8.031 28.4057 6.79069C28.2654 6.75969 28.0939 6.69767 27.9068 6.62015Z" fill="#125EA9"/>
<path d="M28.0939 45.3798C28.3901 44.1705 28.0783 43.1318 27.1741 42.3721C26.5193 41.8139 25.7554 41.3488 24.9759 40.9922C23.2298 40.2015 21.4369 39.5194 19.6596 38.7597C19.3946 38.6512 19.0983 38.4496 18.9736 38.2015C17.7576 35.6899 15.6217 34.6512 12.9714 34.4806C11.7242 34.4031 10.5082 34.6512 9.3077 35.0388C8.87118 35.1783 8.40347 35.2713 7.95136 35.2713C5.69078 35.2868 3.44579 35.2868 1.18521 35.2868C0.421291 35.2868 -0.0308247 34.9302 -0.0152345 34.3411C0.00035568 33.7674 0.421291 33.4419 1.16962 33.4419C3.38343 33.4419 5.59724 33.4419 7.81105 33.4264C8.13844 33.4264 8.46583 33.3643 8.77764 33.2558C11.4747 32.3566 14.1563 32.3101 16.7754 33.5349C18.2565 34.2326 19.3946 35.3023 20.2832 36.6667C20.4703 36.9457 20.7821 37.2093 21.0783 37.3488C22.6529 38.031 24.2587 38.6822 25.8489 39.3488C26.9558 39.8139 27.9536 40.4341 28.7643 41.3333C30.1674 42.8837 30.4792 45.1473 29.5282 47.0077C29.2476 47.5814 28.7955 47.7209 28.0939 47.4263C25.6306 46.4186 23.183 45.3953 20.7353 44.3876C19.7999 44 18.8645 43.6124 17.9447 43.2248C17.1808 42.9147 16.9001 42.4341 17.134 41.876C17.3678 41.3333 17.8979 41.2093 18.6774 41.5194C21.5616 42.7132 24.4458 43.907 27.33 45.0853C27.595 45.1938 27.8289 45.2713 28.0939 45.3798Z" fill="#125EA9"/>
<path d="M47.597 26.1085C47.5502 30.3101 46.3186 34.124 43.8241 37.5194C43.3097 38.2171 42.5302 38.2636 42.156 37.6279C41.8754 37.1783 42.0469 36.7907 42.3275 36.4031C43.6838 34.5581 44.6504 32.5271 45.2117 30.3101C45.8353 27.814 45.9288 25.3178 45.4455 22.7907C45.4299 22.6822 45.3988 22.5581 45.3988 22.4496C45.3364 21.7984 45.617 21.3798 46.1783 21.2868C46.6927 21.2093 47.1449 21.5349 47.2384 22.1395C47.3943 23.1628 47.5034 24.2016 47.6126 25.2403C47.6281 25.5349 47.597 25.814 47.597 26.1085Z" fill="#125EA9"/>
<path d="M8.30957 25.9535C8.44988 21.7519 9.66592 17.938 12.1603 14.5271C12.5969 13.938 13.1114 13.7985 13.5946 14.155C14.0624 14.5116 14.0935 15.0233 13.657 15.6279C12.4098 17.3488 11.4744 19.2248 10.9131 21.2713C10.196 23.907 10.0713 26.5581 10.5857 29.2403C10.5857 29.2713 10.6013 29.3178 10.6013 29.3488C10.7416 30.1705 10.4922 30.6667 9.89977 30.7597C9.27616 30.8527 8.87082 30.4961 8.76169 29.6744C8.59019 28.4341 8.44988 27.1938 8.30957 25.9535Z" fill="#125EA9"/>
<path d="M16.0577 11.0853C16.5722 11.1008 16.962 11.5039 16.9464 12.031C16.9308 12.5581 16.4319 13.0543 15.9018 13.0543C15.3718 13.0543 14.9352 12.6047 14.9664 12.093C14.9976 11.5814 15.5433 11.0698 16.0577 11.0853Z" fill="#125EA9"/>
<path d="M40.2852 39.0232C40.784 39.0388 41.205 39.4729 41.1894 39.9535C41.1738 40.4341 40.6437 40.9147 40.1293 40.8992C39.6304 40.8837 39.2094 40.4496 39.225 39.9535C39.2406 39.4574 39.7395 39.0077 40.2852 39.0232Z" fill="#125EA9"/>
</g>
<defs>
<clipPath id="clip0_172_1671">
<rect width="56" height="52" fill="white"/>
</clipPath>
</defs>
</svg>
