<svg width="97" height="81" viewBox="0 0 97 81" fill="none" xmlns="http://www.w3.org/2000/svg">
<g clip-path="url(#clip0_163_1123)">
<path d="M25.5441 31.4398C27.1228 31.2333 28.598 31.0268 30.0991 30.8719C31.5742 30.717 33.0494 30.6138 34.6023 30.4847C34.4987 30.2524 34.447 30.0459 34.3434 29.8652C32.2213 25.9675 31.1602 21.8117 31.1602 17.3719C31.1602 14.1712 31.186 10.9962 31.1343 7.79543C31.1343 6.86618 31.4448 6.34993 32.3507 5.98855C37.4232 4.0526 42.444 2.06503 47.5166 0.154897C48.0601 -0.0516043 48.8106 -0.0774169 49.3282 0.129084C54.4008 2.03922 59.4216 4.02679 64.4942 5.96274C65.4259 6.32411 65.7882 6.84036 65.7623 7.84706C65.7106 10.2993 65.6588 12.7515 65.7623 15.1778C65.9694 21.1664 64.7789 26.7677 61.3368 31.827C62.6567 32.6014 63.8989 33.3499 65.193 34.0727C65.3483 34.1759 65.6847 34.0469 65.9176 33.9436C67.574 33.2467 69.2303 32.4981 70.8867 31.827C71.3525 31.6463 71.4819 31.414 71.456 30.8977C71.3784 29.2199 72.336 27.9035 73.9923 27.4388C77.4603 26.458 80.9542 25.4771 84.4222 24.5478C86.4408 24.0058 88.1748 25.0124 88.7701 27.0258C91.4616 36.2926 94.1273 45.5593 96.793 54.826C97.4142 57.0201 96.4566 58.7237 94.2567 59.369C90.9182 60.3241 87.5537 61.2534 84.1892 62.1826C82.0929 62.7505 80.9283 62.1568 79.5566 59.8079C76.9945 61.2017 74.2253 62.0019 71.3266 62.4149C71.1196 62.4408 70.8349 62.6214 70.7573 62.8021C69.8256 64.893 68.1433 66.0029 65.9176 66.3385C67.6257 71.0105 63.3813 75.7343 58.1794 73.7209C56.0054 79.4255 52.4857 80.2515 47.5166 76.1989C46.8696 78.6511 45.4462 80.3289 42.9099 80.8451C40.296 81.3872 38.4584 80.0708 36.8797 78.2639C33.4376 79.348 31.9366 78.8318 30.4873 76.0698C28.8568 76.7409 27.2522 76.7409 25.8288 75.5019C24.4571 74.2887 24.1724 72.74 24.6124 71.2429C23.7325 70.391 22.6972 69.7457 22.2055 68.8423C21.7138 67.913 21.7655 66.7256 21.5326 65.4608C19.5657 64.7123 18.5305 63.1635 18.7634 60.7113C18.8152 60.195 18.0905 59.6014 17.6247 58.8786C17.4176 59.4981 17.3141 59.8337 17.1847 60.1434C16.5118 61.8212 14.8813 62.7247 13.1215 62.2601C9.54996 61.305 5.95257 60.3241 2.40695 59.2916C0.517676 58.7495 -0.388141 56.891 0.18123 54.8777C2.66575 46.2046 5.20204 37.5058 7.68657 28.8327C7.89361 28.1616 8.04889 27.4646 8.28182 26.7935C8.90295 24.9866 10.5593 24.0316 12.3968 24.522C15.9424 25.4513 19.4881 26.4321 23.0337 27.4388C24.7936 27.9809 25.5441 29.2457 25.5441 31.4398ZM38.2255 76.6635C38.6914 77.0765 39.0796 77.3863 39.4419 77.7218C40.8394 79.0125 42.8322 79.1157 44.178 77.9025C45.5497 76.6893 45.705 74.7276 44.5145 73.2046C44.0227 72.5851 43.7381 71.9398 44.4368 71.3461C45.1097 70.7782 45.6791 71.1912 46.1967 71.7075C47.4649 72.9981 48.733 74.2887 50.027 75.5277C51.4504 76.8958 53.5726 76.8958 54.8925 75.5536C56.1866 74.2371 56.2383 72.1979 54.8667 70.804C52.2527 68.1195 49.587 65.4866 46.9472 62.8538C46.7143 62.6214 46.352 62.3891 46.3261 62.131C46.2743 61.6664 46.2485 61.0469 46.5073 60.7629C46.7143 60.5306 47.3613 60.5822 47.8013 60.6597C48.0601 60.7113 48.293 61.0469 48.5259 61.2792C51.6834 64.4283 54.8149 67.5516 57.9723 70.7008C59.551 72.2754 61.6474 72.3786 63.0449 71.0105C64.4942 69.5908 64.3907 67.5 62.7602 65.8738C61.5956 64.7123 60.431 63.5507 59.2663 62.3891C57.2218 60.3499 55.1513 58.2849 53.1068 56.2457C52.5374 55.7037 52.1751 55.11 52.7962 54.413C53.2621 53.8451 53.9608 53.9742 54.7114 54.7228C55.3843 55.3681 56.0313 56.0392 56.7042 56.7103C58.904 58.8786 61.078 61.0985 63.3037 63.2409C64.9859 64.8413 67.8587 64.1702 68.6609 62.0019C69.2303 60.4532 68.8162 59.1367 67.6516 57.9752C62.3979 52.761 57.1441 47.4952 51.8904 42.2811C49.6129 40.0096 46.8178 40.087 44.5921 42.4618C43.0134 44.1654 41.4606 45.8949 39.856 47.5727C37.682 49.8442 34.3435 50.1281 31.833 48.3212C29.3226 46.5144 28.5462 43.2878 29.9955 40.5C31.3672 37.8929 33.0494 35.4924 35.1199 33.4016C35.301 33.2209 35.4822 33.0144 35.6634 32.8079C35.6375 32.7046 35.6116 32.6014 35.5598 32.4981C32.1177 32.9369 28.6756 33.3757 25.2335 33.8404C24.9747 33.8662 24.6642 34.2276 24.5865 34.5115C22.4902 41.7132 20.4198 48.8891 18.3493 56.0908C18.2976 56.2973 18.2976 56.6329 18.427 56.7878C18.9446 57.4073 19.4881 57.9494 20.0833 58.5947C21.2997 57.3815 22.3349 56.2715 23.4219 55.239C25.6994 53.1224 29.3485 54.1549 30.1249 57.1492C30.2026 57.4847 30.2543 57.8461 30.3061 58.2075C32.8424 58.4656 34.214 59.8595 34.4729 62.3375C37.2421 62.9054 38.1479 63.8088 38.6396 66.4417C38.6914 66.4675 38.7431 66.5191 38.7949 66.5191C40.5806 66.6998 41.9264 67.5517 42.4958 69.3069C43.0652 71.088 42.4699 72.5851 41.1241 73.8241C40.2183 74.7276 39.2866 75.6568 38.2255 76.6635ZM71.1714 60.195C73.7335 59.8595 76.011 59.1625 78.2109 58.0784C78.8837 57.7429 79.0131 57.4073 78.8061 56.6587C76.8651 50.0249 74.9499 43.391 73.0348 36.7314C72.7501 35.7505 72.4395 34.7696 72.1289 33.7371C71.7149 33.9178 71.3784 34.0469 71.0678 34.1759C69.3856 34.8987 67.7034 35.6731 65.9953 36.3184C65.5294 36.4991 64.7789 36.4733 64.3907 36.2151C60.2757 33.4532 55.6948 31.9302 50.9328 30.8203C45.265 29.5038 40.4254 31.0268 36.5433 35.2601C34.8869 37.0669 33.5153 39.1836 32.1954 41.2486C30.979 43.1587 31.4966 45.3786 33.2047 46.566C34.8611 47.7276 37.0091 47.4436 38.5361 45.8432C40.0113 44.2687 41.4606 42.6683 42.9358 41.0937C46.1449 37.6348 50.2858 37.5574 53.6244 40.8872C58.5935 45.8432 63.5625 50.8251 68.5574 55.7553C69.7997 56.9943 70.9384 58.2591 71.1714 60.195ZM11.7498 26.6386C10.7405 26.6645 10.4558 27.2065 10.2487 27.9293C7.6348 37.0411 4.995 46.153 2.35519 55.2648C1.99286 56.5555 2.22579 57.0201 3.54569 57.3815C6.70311 58.2591 9.88641 59.1367 13.0438 60.0144C14.4155 60.4016 14.8813 60.1692 15.2695 58.827C17.8835 49.7409 20.5233 40.6549 23.1372 31.5947C23.4995 30.304 23.2666 29.8394 21.9467 29.478C19.3328 28.7553 16.7188 28.0325 14.1308 27.3098C13.2767 27.0516 12.4486 26.8193 11.7498 26.6386ZM94.8779 56.2199C94.7485 55.7811 94.6967 55.6004 94.645 55.4197C91.9793 46.2046 89.3394 37.0153 86.6738 27.8002C86.3632 26.7419 85.8456 26.458 84.7845 26.7419C81.4459 27.6453 78.1332 28.5746 74.8205 29.5038C73.7594 29.8136 73.5006 30.3298 73.8112 31.3882C74.8723 35.1052 75.9334 38.7964 77.0203 42.5134C78.5732 47.9082 80.1519 53.3289 81.7047 58.7237C82.0412 59.9369 82.4811 60.3499 83.4128 60.1176C86.9326 59.1884 90.4523 58.2075 93.9462 57.175C94.3085 57.0717 94.5932 56.5038 94.8779 56.2199ZM39.0019 11.8222C39.0019 14.0679 38.9243 16.262 39.0278 18.4302C39.209 21.9924 40.3995 25.219 42.4958 28.0842C42.677 28.3165 43.091 28.6262 43.2981 28.5488C46.559 27.7486 49.7682 28.239 52.9515 29.0134C53.495 29.1425 53.7538 28.9876 54.0644 28.6004C55.5654 26.6386 56.6524 24.4704 57.3253 22.0956C58.2311 18.8432 57.8947 15.5134 57.9206 12.2094C57.9206 12.0029 57.5324 11.6673 57.2477 11.5641C54.5302 10.4799 51.7869 9.42163 49.0694 8.36331C48.7848 8.26006 48.4224 8.15681 48.1636 8.26006C45.1356 9.44744 42.0558 10.6348 39.0019 11.8222ZM40.71 29.478C39.1055 27.1807 37.9667 24.7801 37.3456 22.1731C36.4656 18.4819 36.8539 14.739 36.8539 11.022C36.8539 10.6606 37.3715 10.1186 37.7856 9.96369C41.0983 8.62144 44.4368 7.33081 47.7754 6.0918C48.1895 5.93692 48.7589 5.93692 49.1471 6.0918C52.4857 7.35662 55.8242 8.67306 59.1628 9.93788C59.8616 10.196 60.1722 10.6606 60.1722 11.4092C60.1463 13.6291 60.198 15.849 60.1463 18.0689C60.0428 22.0956 58.7746 25.761 56.4971 29.0908C56.316 29.349 56.1607 29.5813 55.9795 29.8652C56.963 30.2266 57.8429 30.4847 58.6452 30.8461C59.1628 31.0784 59.3957 30.9235 59.6546 30.5105C61.6991 27.3872 63.0967 23.9799 63.3296 20.2629C63.5884 16.391 63.5107 12.4675 63.5107 8.59562C63.5107 8.31168 63.1225 7.89868 62.812 7.79543C59.7322 6.55643 56.6265 5.36905 53.5468 4.18167C51.8645 3.53635 50.1823 2.40059 48.5001 2.40059C46.792 2.40059 45.058 3.53635 43.3499 4.18167C40.0113 5.4723 36.6986 6.76293 33.3341 8.07937C33.3341 11.3576 33.3082 14.5583 33.3341 17.7849C33.3859 21.9924 34.4987 25.9159 36.6209 29.5555C37.2162 30.5622 38.122 30.8461 39.209 30.3298C39.7007 30.0201 40.1666 29.762 40.71 29.478ZM36.6209 66.2868C36.181 65.7706 35.8445 65.1511 35.3269 64.8155C34.6281 64.3509 33.8776 64.5832 33.3082 65.1769C31.2637 67.1903 29.2191 69.2037 27.2004 71.2429C26.4758 71.9656 26.5017 73.0755 27.1746 73.7725C27.8475 74.4694 29.0121 74.5469 29.7885 73.7983C31.833 71.7849 33.8517 69.7457 35.8445 67.7065C36.181 67.371 36.3104 66.8805 36.6209 66.2868ZM32.4542 62.131C32.0401 61.6147 31.7295 60.9178 31.2119 60.6855C30.7202 60.4532 29.7885 60.479 29.4262 60.7887C27.6404 62.4149 25.9582 64.1186 24.3018 65.8738C23.6289 66.5966 23.7842 67.6549 24.483 68.3002C25.1818 68.9713 26.1652 68.9972 26.9158 68.3002C28.5462 66.7515 30.1249 65.1511 31.6778 63.5249C31.9883 63.2409 32.1177 62.7505 32.4542 62.131ZM34.2399 76.8442C34.7834 76.6377 35.1975 76.6119 35.4304 76.3796C37.0609 74.805 38.7173 73.2046 40.2701 71.5526C40.8395 70.9331 40.6324 69.849 40.0113 69.2811C39.3901 68.6874 38.329 68.5325 37.7079 69.1262C36.0774 70.675 34.447 72.2495 32.9718 73.9274C32.6353 74.2887 32.6612 75.2438 32.8941 75.7859C33.1271 76.2247 33.8258 76.5086 34.2399 76.8442ZM26.4758 56.1683C25.9582 56.3232 25.5959 56.3232 25.4147 56.5038C23.9654 57.9235 22.5161 59.3174 21.1703 60.8146C20.6268 61.4341 20.8856 62.4408 21.5585 62.9828C22.2573 63.5507 23.0854 63.6798 23.7583 63.0603C25.13 61.7954 26.4758 60.5048 27.6922 59.1109C28.0286 58.7237 27.9769 57.7945 27.7698 57.2524C27.5628 56.762 26.8899 56.478 26.4758 56.1683Z" fill="#F0F0F0"/>
<path d="M19.0478 34.4856C19.0478 36.5506 17.4173 38.1252 15.3469 38.1252C13.3023 38.0994 11.6719 36.4474 11.6719 34.4082C11.6719 32.3948 13.3541 30.7686 15.3987 30.7686C17.4432 30.7686 19.0478 32.3948 19.0478 34.4856ZM16.848 34.4598C16.8738 33.6854 16.1751 32.9627 15.3987 32.9369C14.5964 32.8853 13.8458 33.6338 13.8458 34.434C13.8458 35.2084 14.5446 35.9053 15.321 35.9053C16.1233 35.9053 16.8221 35.2342 16.848 34.4598Z" fill="#F0F0F0"/>
<path d="M81.5491 38.0995C79.5045 38.0995 77.8481 36.4216 77.8223 34.4341C77.8223 32.3949 79.4527 30.7429 81.4973 30.7429C83.5418 30.7429 85.1982 32.3949 85.1982 34.4083C85.2241 36.4474 83.5677 38.1253 81.5491 38.0995ZM82.9984 34.4341C82.9984 33.6081 82.3513 32.9369 81.5491 32.9111C80.7468 32.9111 80.0739 33.5822 80.048 34.3824C80.048 35.1826 80.695 35.8796 81.4973 35.8796C82.3255 35.9054 82.9725 35.2601 82.9984 34.4341Z" fill="#F0F0F0"/>
<path d="M46.2748 21.9666C47.6723 20.5469 48.9405 19.2821 50.2086 18.0172C51.0627 17.1654 51.8908 16.3394 52.7449 15.4876C53.2884 14.9455 53.9095 14.7132 54.5306 15.3327C55.1259 15.9264 54.8671 16.5201 54.3495 17.0105C51.9944 19.3595 49.6651 21.7084 47.2841 24.0316C46.5853 24.7285 46.0677 24.7027 45.369 24.0058C44.4631 23.1281 43.5832 22.2247 42.7033 21.3471C42.1339 20.805 41.9269 20.1597 42.5221 19.5918C43.1432 18.9981 43.7644 19.2821 44.282 19.8241C44.929 20.4952 45.5501 21.1922 46.2748 21.9666Z" fill="#F0F0F0"/>
</g>
<defs>
<clipPath id="clip0_163_1123">
<rect width="97" height="81" fill="white"/>
</clipPath>
</defs>
</svg>
