<svg width="54" height="54" viewBox="0 0 54 54" fill="none" xmlns="http://www.w3.org/2000/svg">
<g clip-path="url(#clip0_172_1681)">
<path d="M0 45.2531C0.30994 44.9719 0.605792 44.6766 1.05661 44.2547C1.05661 43.4953 1.05661 42.4969 1.05661 41.4984C1.05661 40.6266 1.43699 40.2047 2.29637 40.2047C5.25489 40.2188 8.01618 39.4594 10.6788 38.2219C12.454 37.3922 14.2432 36.5906 16.2155 36.2531C19.9066 35.6344 23.0201 36.6891 25.5701 39.4031C26.0772 39.9375 26.514 40.5281 27.0211 41.1188C27.3593 40.6969 27.6833 40.275 28.0355 39.8672C30.2473 37.2797 33.0086 35.9016 36.4461 36.0984C38.4044 36.2109 40.2358 36.8016 41.9969 37.6172C43.927 38.5031 45.8429 39.4453 47.9562 39.8109C49.1678 40.0219 50.3934 40.1063 51.6191 40.2047C52.5912 40.275 52.9434 40.5984 52.9575 41.5688C52.9575 42.5391 52.9575 43.4953 52.9575 44.4516C53.8591 44.8031 54.0141 45.0141 54.0141 45.9844C54.0141 47.3344 54.0141 48.6844 54.0141 50.0484C54.0141 51.0188 53.6478 51.3844 52.6757 51.3844C45.7161 51.3844 38.7566 51.3844 31.797 51.3703C31.4166 51.3703 31.2053 51.4688 31.0081 51.8063C30.3319 52.9031 29.3316 53.5781 28.0918 53.9016C27.9791 53.9297 27.8664 53.9859 27.7537 54.0281C27.2606 54.0281 26.7675 54.0281 26.2745 54.0281C26.1618 53.9859 26.049 53.9438 25.9363 53.9016C24.7107 53.5781 23.7104 52.9313 23.0483 51.8625C22.8088 51.4828 22.5552 51.3844 22.1325 51.3844C15.2434 51.3984 8.3402 51.3844 1.45108 51.3984C0.803026 51.3984 0.324028 51.2156 0.0140882 50.6531C0 48.825 0 47.0391 0 45.2531ZM51.8586 46.6172C51.6191 46.6172 51.4219 46.6172 51.2246 46.6172C44.4623 46.6172 37.6859 46.6313 30.9236 46.6031C29.6274 46.6031 28.5567 46.9125 27.8242 48.1078C27.4297 48.7406 26.528 48.7406 26.1336 48.1078C25.4151 46.9406 24.3726 46.6172 23.0905 46.6172C16.2859 46.6313 9.48135 46.6313 2.69084 46.6313C2.5077 46.6313 2.32455 46.6313 2.1414 46.6313C2.1414 47.5453 2.1414 48.4031 2.1414 49.275C2.39499 49.275 2.60631 49.275 2.81764 49.275C9.56588 49.275 16.3141 49.2891 23.0624 49.2609C23.8372 49.2609 24.3021 49.5141 24.5698 50.2734C24.9361 51.2859 25.9363 51.9188 26.993 51.9047C28.0496 51.9047 29.0076 51.2578 29.4302 50.2734C29.8106 49.3875 29.9656 49.275 30.9236 49.275C37.6859 49.275 44.4623 49.275 51.2246 49.275C51.436 49.275 51.6332 49.275 51.8586 49.275C51.8586 48.3609 51.8586 47.5172 51.8586 46.6172ZM28.1059 45.0281C29.4584 44.3531 30.9236 44.5078 32.3746 44.5078C38.3058 44.5078 44.251 44.5078 50.1821 44.5078C50.3793 44.5078 50.5907 44.5078 50.7879 44.5078C50.7879 43.7203 50.7879 43.0172 50.7879 42.3C48.3084 42.1734 45.9557 41.6391 43.7015 40.6828C42.4759 40.1625 41.2784 39.5859 40.0386 39.0797C38.1931 38.3344 36.2771 37.9266 34.2765 38.3344C31.8534 38.8266 30.191 40.3594 28.7681 42.2859C28.1623 43.1297 27.8946 43.9734 28.1059 45.0281ZM26.0209 45.0844C25.9363 44.3672 26.049 43.6781 25.7673 43.2281C25.0911 42.1734 24.3162 41.1469 23.4146 40.275C21.6817 38.6016 19.5403 37.9688 17.1171 38.25C15.3984 38.4469 13.8205 39.0797 12.2849 39.7969C10.3407 40.7109 8.36838 41.5266 6.24106 41.9203C5.22672 42.1031 4.19828 42.2016 3.19802 42.3422C3.19802 43.0734 3.19802 43.7766 3.19802 44.5078C3.4516 44.5078 3.66293 44.5078 3.87425 44.5078C10.1294 44.5078 16.3846 44.5078 22.6256 44.5078C23.7527 44.5078 24.8375 44.5359 26.0209 45.0844Z" fill="#E52034"/>
<path d="M28.05 0C28.9376 0.210938 29.8392 0.3375 30.6986 0.632812C38.123 3.13594 40.9689 12.1078 36.362 18.4359C35.6435 19.4203 34.9391 20.3906 34.2206 21.375C33.5726 22.2609 33.2908 23.2313 33.3049 24.3281C33.3472 26.3109 33.3049 28.2937 33.319 30.2906C33.319 30.8109 33.164 31.2047 32.7977 31.5562C32.2201 32.1187 31.6425 32.6953 31.079 33.2719C30.7549 33.6094 30.3886 33.7641 29.9096 33.7641C27.9655 33.75 26.0072 33.7781 24.063 33.7359C23.6827 33.7219 23.2459 33.5391 22.9501 33.2859C22.302 32.7234 21.6821 32.1187 21.1327 31.4578C20.8791 31.1625 20.696 30.7266 20.6819 30.3469C20.6396 28.3078 20.6396 26.2688 20.6678 24.2297C20.6819 23.2172 20.4142 22.3172 19.8366 21.5156C19.1604 20.5594 18.47 19.6031 17.7656 18.6609C12.6657 11.7844 16.2018 2.16563 24.5561 0.267188C25.021 0.16875 25.486 0.084375 25.9509 0C26.6412 0 27.3456 0 28.05 0ZM22.7247 23.1609C23.8235 23.1609 24.8661 23.1609 25.9368 23.1609C25.9368 20.2922 25.9368 17.4656 25.9509 14.6391C25.9509 14.2734 25.8382 14.0203 25.5846 13.7672C25.1337 13.3453 24.7111 12.9094 24.2744 12.4594C23.739 11.9109 23.6968 11.2922 24.1617 10.8422C24.6266 10.3922 25.2324 10.4344 25.7818 10.9969C26.1763 11.3906 26.5567 11.7984 26.8948 12.1641C27.0216 12.1359 27.0497 12.1359 27.0638 12.1359C27.4724 11.7281 27.8809 11.3203 28.3036 10.9266C28.8108 10.4484 29.4166 10.4344 29.8533 10.8703C30.29 11.3063 30.2759 11.9109 29.7969 12.4172C29.332 12.8953 28.8389 13.3453 28.4022 13.8516C28.2331 14.0484 28.0923 14.3578 28.0782 14.625C28.05 17.3109 28.0641 19.9969 28.0641 22.6969C28.0641 22.8656 28.0782 23.0344 28.0923 23.1891C29.1911 23.1891 30.2337 23.1891 31.2903 23.1891C31.403 22.0922 31.8679 21.1641 32.4596 20.3062C33.1077 19.3641 33.7839 18.4359 34.4601 17.5359C36.0662 15.3984 36.7424 13.0359 36.4184 10.3641C35.7562 5.07656 30.5859 1.27969 25.3592 2.25C18.3573 3.55781 15.1875 11.5594 19.3999 17.2969C19.8789 17.9438 20.3719 18.5766 20.8509 19.2375C21.6962 20.4328 22.5556 21.6281 22.7247 23.1609ZM31.1776 27.4078C31.1776 26.7188 31.1776 26.0297 31.1776 25.3406C28.374 25.3406 25.5987 25.3406 22.8233 25.3406C22.8233 26.0437 22.8233 26.7188 22.8233 27.4078C25.6127 27.4078 28.374 27.4078 31.1776 27.4078ZM31.3748 29.5594C28.3599 29.5594 25.5846 29.5594 22.6261 29.5594C22.8233 29.925 22.9219 30.2203 23.105 30.4594C23.3727 30.7828 23.6686 31.0922 23.9926 31.3453C24.1758 31.5 24.4434 31.6125 24.6688 31.6266C25.8241 31.6547 26.9934 31.5562 28.1345 31.6687C29.2898 31.7672 30.1773 31.4578 30.8395 30.5156C31.0367 30.2344 31.1635 29.9391 31.3748 29.5594Z" fill="#125EA9"/>
<path d="M10.6366 12.6562C10.2985 12.6562 9.97443 12.6703 9.63631 12.6562C9.00234 12.6281 8.55152 12.2062 8.53743 11.6156C8.52334 11.025 8.97416 10.575 9.60813 10.5469C10.3125 10.5328 11.0029 10.5328 11.7073 10.5469C12.3131 10.5609 12.7498 11.0109 12.7498 11.5734C12.7639 12.15 12.3131 12.6141 11.6791 12.6422C11.341 12.6703 10.9888 12.6562 10.6366 12.6562Z" fill="#E52034"/>
<path d="M43.3067 12.6563C42.9545 12.6563 42.6023 12.6703 42.2501 12.6563C41.6584 12.6281 41.2217 12.1641 41.2217 11.6016C41.2217 11.0391 41.6584 10.575 42.2501 10.5609C42.9686 10.5328 43.6871 10.5328 44.4056 10.5609C44.9973 10.575 45.434 11.0391 45.434 11.6156C45.434 12.1781 44.9973 12.6281 44.4056 12.6563C44.0534 12.6703 43.673 12.6563 43.3067 12.6563Z" fill="#E52034"/>
<path d="M14.8913 3.90937C14.7927 4.73905 14.0179 5.2453 13.2994 4.89374C12.6231 4.55624 11.9751 4.16249 11.3411 3.75468C10.848 3.43124 10.7353 2.85468 11.0312 2.36249C11.2989 1.91249 11.8624 1.70155 12.3555 1.95468C13.0458 2.30624 13.722 2.68593 14.356 3.12187C14.5955 3.29062 14.7082 3.64218 14.8913 3.90937Z" fill="#E52034"/>
<path d="M14.8913 19.35C14.6941 19.6172 14.5391 19.9547 14.2714 20.1375C13.6938 20.5313 13.0739 20.8688 12.454 21.2063C11.9046 21.5016 11.3129 21.3469 11.017 20.8547C10.7071 20.3344 10.848 19.7438 11.3974 19.3922C11.9891 19.0266 12.5949 18.6609 13.2289 18.3375C14.0037 17.9438 14.8068 18.45 14.8913 19.35Z" fill="#E52034"/>
<path d="M41.9826 21.3469C41.8699 21.3047 41.6586 21.2625 41.4754 21.1641C40.9119 20.8547 40.3484 20.5313 39.7848 20.1938C39.1931 19.8422 39.0241 19.2375 39.334 18.7031C39.644 18.1828 40.2497 18.0422 40.8555 18.3797C41.4472 18.7172 42.053 19.0406 42.6307 19.4203C43.0533 19.6875 43.2224 20.1094 43.0674 20.6156C42.9124 21.0938 42.5602 21.3188 41.9826 21.3469Z" fill="#E52034"/>
<path d="M43.1096 3.12187C42.9969 3.26249 42.8278 3.61406 42.5461 3.81093C41.9825 4.20468 41.3768 4.52812 40.771 4.85156C40.2074 5.16093 39.6016 4.99218 39.3058 4.47187C39.024 3.96562 39.179 3.37499 39.7003 3.05156C40.292 2.68593 40.8978 2.32031 41.5317 1.99687C42.3066 1.60312 43.1378 2.10937 43.1096 3.12187Z" fill="#E52034"/>
</g>
<defs>
<clipPath id="clip0_172_1681">
<rect width="54" height="54" fill="white"/>
</clipPath>
</defs>
</svg>
