<svg width="142" height="142" viewBox="0 0 142 142" fill="none" xmlns="http://www.w3.org/2000/svg">
<g clip-path="url(#clip0_163_1046)">
<path d="M75.8622 -0.0078125C78.4525 0.350433 81.0429 0.598448 83.6058 1.09448C86.4442 1.64563 89.255 2.33456 92.0383 3.07861C94.3807 3.71243 95.4554 5.64144 94.8216 7.65312C94.2153 9.58213 92.2588 10.4915 89.9991 9.80259C82.9444 7.65312 75.7519 6.71617 68.3941 7.12953C51.5566 8.06648 37.1992 14.5425 25.5149 26.6952C15.3187 37.3324 9.201 50.1189 8.2365 64.807C6.50039 91.4274 17.1651 111.958 40.0928 125.709C52.7416 133.287 66.7131 135.795 81.2083 133.287C104.908 129.181 121.525 115.788 130.591 93.4942C136.075 80.0186 136.35 66.1297 132.189 52.2133C131.252 49.0718 133.347 46.9499 135.496 47.0601C137.067 47.1428 138.252 48.0246 138.803 49.7056C140.346 54.6659 141.338 59.764 141.724 64.9448C141.779 65.5235 141.889 66.1022 141.972 66.7085C141.972 69.2713 141.972 71.8617 141.972 74.4245C141.889 74.8379 141.807 75.2237 141.752 75.637C141.283 78.8888 140.98 82.1957 140.319 85.4199C134.725 113.087 111.466 135.436 83.5782 140.038C81.0154 140.452 78.425 140.755 75.8346 141.113C72.886 141.113 69.9649 141.113 67.0163 141.113C66.7131 141.031 66.41 140.92 66.1069 140.893C62.8551 140.397 59.5482 140.121 56.324 139.432C28.7116 133.618 6.63817 110.552 1.98099 82.6917C1.56763 80.1289 1.2645 77.5385 0.90625 74.9481C0.90625 71.9995 0.90625 69.0784 0.90625 66.1297C0.988922 65.7164 1.07159 65.3306 1.15427 64.9172C1.73297 61.3348 2.06366 57.7248 2.89038 54.1974C9.22856 26.9157 31.8531 5.64144 59.3278 1.06692C61.8906 0.626006 64.481 0.350433 67.0714 -0.0078125C69.9924 -0.0078125 72.9135 -0.0078125 75.8622 -0.0078125Z" fill="black"/>
<path d="M71.7563 119.784C47.7539 119.536 27.2237 102.202 23.2003 78.503C18.5431 51.1661 37.3923 25.4 64.9221 21.5971C68.0361 21.1562 71.2327 21.2664 74.4018 21.2664C76.3859 21.2664 77.7638 22.3687 78.2323 24.0497C78.9212 26.4196 77.1024 28.5691 74.512 28.3211C66.4653 27.6322 58.9146 29.3958 51.8048 33.1161C36.6758 41.0801 27.8851 57.8074 29.7865 74.8654C31.936 94.128 46.5138 109.202 65.7764 112.068C88.5387 115.485 110.199 99.2812 113.368 76.4086C113.754 73.5151 113.699 70.5665 113.643 67.6454C113.616 65.4408 114.773 63.7874 116.813 63.5394C118.797 63.3189 120.671 64.7243 120.671 66.9289C120.671 70.9523 120.863 75.0859 120.037 78.9715C115.683 99.8323 103.006 112.977 82.3659 118.296C78.9212 119.15 75.2837 119.288 71.7563 119.784Z" fill="black"/>
<path d="M92.7547 37.663C92.7547 35.8718 92.7822 34.0806 92.7547 32.2893C92.7271 30.8839 93.1956 29.7265 94.2152 28.7345C100.994 22.0105 107.746 15.2589 114.47 8.47983C115.682 7.2673 117.033 6.6886 118.686 7.34998C120.367 8.01135 120.891 9.41677 120.863 11.1253C120.836 13.8811 120.863 16.6368 120.863 19.3925C120.863 21.1286 120.863 21.1286 122.682 21.1286C125.438 21.1286 128.193 21.1562 130.949 21.1286C132.603 21.1011 133.953 21.6522 134.614 23.2505C135.303 24.8764 134.78 26.2543 133.54 27.4944C126.733 34.2735 119.954 41.0526 113.175 47.8592C112.21 48.8237 111.08 49.2647 109.73 49.2647C106.203 49.2371 102.648 49.2922 99.1204 49.2371C98.1283 49.2095 97.4119 49.5127 96.7229 50.2292C89.4754 57.5318 82.2002 64.7794 74.9251 72.0546C74.5393 72.4404 74.1535 72.8537 73.7126 73.1568C72.252 74.2316 70.323 74.0662 69.0829 72.771C67.898 71.5034 67.7877 69.6571 68.89 68.2516C69.2207 67.8107 69.6341 67.4249 70.0199 67.0391C77.2123 59.8191 84.4324 52.5991 91.6524 45.4342C92.424 44.6626 92.8373 43.9185 92.7822 42.7887C92.6996 41.0801 92.7547 39.3716 92.7547 37.663ZM113.864 19.3374C113.588 19.4476 113.478 19.4476 113.423 19.5028C109.041 23.8844 104.632 28.266 100.278 32.6476C100.057 32.8681 99.8369 33.1712 99.8369 33.4468C99.8093 36.3127 99.8093 39.2062 99.8093 42.1824C102.593 42.1824 105.183 42.2375 107.801 42.1549C108.435 42.1273 109.234 41.7966 109.675 41.3557C113.781 37.3323 117.804 33.2539 121.883 29.2029C122.158 28.9274 122.379 28.6242 122.627 28.3211C122.489 28.2109 122.461 28.1557 122.434 28.1557C120.863 28.1282 119.32 28.1282 117.749 28.1282C115.297 28.1006 113.919 26.7228 113.891 24.2977C113.864 22.6718 113.864 21.0735 113.864 19.3374Z" fill="black"/>
<path d="M71.6733 98.3994C57.0955 98.3994 44.8601 87.1835 43.6751 72.7435C42.4626 58.2208 52.4108 45.2413 66.713 42.6785C68.2562 42.4029 69.7994 42.2651 71.3702 42.21C73.5472 42.1549 75.0905 43.5327 75.2007 45.5169C75.3385 47.5285 73.8504 48.934 71.6182 49.2647C69.0554 49.6505 66.3823 49.8709 63.9849 50.7528C54.8634 54.1974 49.6826 63.2362 50.8125 73.1844C51.8321 82.113 59.3001 89.7188 68.4767 91.1518C80.8499 93.0808 92.2035 83.7664 92.7547 71.283C92.8925 68.3068 94.2152 66.7084 96.4474 66.7911C98.7346 66.8738 99.9747 68.665 99.8094 71.6688C98.9826 86.7151 86.6645 98.3994 71.6733 98.3994Z" fill="black"/>
</g>
<defs>
<clipPath id="clip0_163_1046">
<rect width="141.093" height="141.093" fill="white" transform="translate(0.90625 -0.0078125)"/>
</clipPath>
</defs>
</svg>
