<svg width="94" height="105" viewBox="0 0 94 105" fill="none" xmlns="http://www.w3.org/2000/svg">
<g clip-path="url(#clip0_163_1056)">
<path d="M58.4962 0C59.7274 0.39886 61.0251 0.631529 62.1564 1.19658C67.4138 3.65622 70.1422 9.47294 68.6782 15.0237C67.1808 20.6743 61.9235 24.4302 56.0672 23.9981C50.0113 23.5328 45.3196 18.5802 45.0534 12.2982C44.7872 6.51472 49.2127 1.19658 55.0357 0.232669C55.2353 0.19943 55.4017 0.0997151 55.6014 0.0332384C56.5663 0 57.5313 0 58.4962 0ZM57.0654 18.9126C60.8587 18.9126 63.9865 15.8215 64.0198 12.0323C64.053 8.20988 60.8587 5.05223 56.9989 5.08547C53.1723 5.11871 50.0778 8.24312 50.1111 12.0323C50.1111 15.8215 53.2389 18.9126 57.0654 18.9126Z" fill="#125EA9"/>
<path d="M65.7501 79.5394C66.0496 79.4065 66.4156 79.2735 66.7816 79.0741C72.0057 76.548 77.2297 73.9886 82.4538 71.4957C86.0807 69.7673 90.0404 70.5983 92.3363 73.5897C94.9982 77.0133 94.3993 81.9326 90.8722 84.5252C88.2103 86.4862 85.4152 88.3143 82.6867 90.1757C77.3961 93.7654 72.1388 97.4217 66.8149 100.945C62.6223 103.704 57.9639 105 52.9395 105.033C48.1147 105.066 43.2899 105.066 38.4651 105.033C32.3094 105 26.8191 103.039 21.9611 99.2165C21.4619 98.8177 20.9628 98.452 20.2641 97.887C20.2641 99.1168 20.2641 100.114 20.2641 101.144C20.2973 103.238 19.5986 104.634 16.9034 104.568C12.4113 104.468 7.95257 104.535 3.46053 104.535C1.0315 104.535 0 103.471 0 101.045C0 88.2146 0 75.4179 0 62.5878C0 60.2944 0.99823 59.2972 3.32743 59.2972C8.01912 59.2972 12.7108 59.2972 17.4025 59.2972C19.3657 59.2972 20.2308 60.1282 20.2973 62.056C20.3306 63.1861 20.2641 64.3162 20.3306 65.4463C20.3306 65.7455 20.6301 66.1776 20.863 66.2441C25.7211 67.7066 30.5791 69.2688 35.5037 70.5318C37.5335 71.0636 39.6963 71.0969 41.8258 71.1301C47.0832 71.1966 52.3738 71.1301 57.6312 71.1633C60.892 71.1633 63.4209 72.4929 64.8184 75.5176C65.3175 76.6809 65.4174 78.1102 65.7501 79.5394ZM20.3639 71.396C20.2973 71.5954 20.2641 71.6619 20.2641 71.7284C20.2641 78.0769 20.2308 84.4255 20.2641 90.8072C20.2641 91.1064 20.497 91.5385 20.7299 91.7379C22.5933 93.2336 24.4234 94.7958 26.3866 96.1586C29.6807 98.4853 33.3742 99.7816 37.4004 99.8813C42.3915 99.981 47.3827 99.8813 52.3738 99.9478C57.132 100.014 61.3912 98.6182 65.251 95.9592C72.5048 90.9734 79.7919 85.9877 87.0789 81.0351C87.4117 80.8025 87.7777 80.5698 88.0439 80.3039C89.5412 78.8414 88.909 76.282 86.9126 75.8499C86.1473 75.6838 85.1823 75.9164 84.4835 76.2488C79.0931 78.8082 73.6694 81.3675 68.3788 84.1263C64.5522 86.1206 60.5593 87.3172 56.3335 87.9487C51.7416 88.6135 47.1497 88.7464 42.5579 88.0484C41.1604 87.849 40.1289 86.6192 40.2619 85.3561C40.4283 83.8936 41.5929 82.963 43.1235 83.0627C43.4896 83.0959 43.8889 83.0959 44.2549 83.1624C49.5122 83.8604 54.703 83.2621 59.794 82.0323C60.0602 81.9658 60.4262 81.6334 60.4262 81.434C60.4595 80.3371 60.4595 79.2403 60.3264 78.1766C60.1933 77.113 59.4612 76.4815 58.3965 76.3485C57.8973 76.282 57.365 76.2488 56.8658 76.2488C52.4071 76.2488 47.9816 76.1823 43.5228 76.2488C38.0658 76.3485 32.7752 75.5176 27.6177 73.7559C25.2552 72.8917 22.8262 72.1605 20.3639 71.396ZM5.15752 64.3827C5.15752 76.0826 5.15752 87.7493 5.15752 99.3495C8.55151 99.3495 11.8457 99.3495 15.0733 99.3495C15.0733 87.6163 15.0733 76.0161 15.0733 64.3162C11.8789 64.3162 8.78442 64.3162 5.65664 64.3162C5.52354 64.3162 5.35717 64.3495 5.15752 64.3827Z" fill="#E52034"/>
<path d="M45.3195 53.2146C45.2862 46.6002 50.6434 41.2156 57.265 41.1823C63.8866 41.1491 69.277 46.5337 69.3103 53.1482C69.3436 59.7293 63.9198 65.1804 57.3315 65.1804C50.7432 65.2137 45.3195 59.8291 45.3195 53.2146ZM57.4314 46.2678C53.6381 46.1681 50.4105 49.2593 50.3439 53.1149C50.2774 56.8044 53.3386 59.9953 57.0986 60.095C60.9252 60.1947 64.0862 57.2032 64.2193 53.4141C64.3524 49.5584 61.3244 46.4008 57.4314 46.2678Z" fill="#125EA9"/>
<path d="M24.5566 32.4407C24.5899 25.793 29.9471 20.4749 36.5687 20.5081C43.1903 20.5413 48.5807 25.9259 48.5474 32.5071C48.5142 39.1216 43.0904 44.5062 36.5021 44.473C29.9138 44.4397 24.5566 39.0551 24.5566 32.4407ZM36.5354 39.3875C40.3287 39.4207 43.4897 36.3296 43.523 32.5404C43.5563 28.718 40.3952 25.5271 36.5687 25.5603C32.7421 25.5603 29.6143 28.6847 29.6143 32.4407C29.5811 36.2298 32.7089 39.3542 36.5354 39.3875Z" fill="#125EA9"/>
</g>
<defs>
<clipPath id="clip0_163_1056">
<rect width="94" height="105" fill="white"/>
</clipPath>
</defs>
</svg>
