<svg width="33" height="29" viewBox="0 0 33 29" fill="none" xmlns="http://www.w3.org/2000/svg">
<g clip-path="url(#clip0_183_2606)">
<path d="M26.0705 23.6262C26.132 23.6874 26.1934 23.7486 26.265 23.7996C26.8792 24.3196 27.4933 24.8295 28.1075 25.3393C30.9837 21.8927 32.4167 15.9174 29.8885 10.4008C27.2886 4.71095 21.7511 1.96799 17.3702 1.85582C17.3702 2.69197 17.3599 3.52811 17.3804 4.36426C17.3804 4.43564 17.5851 4.558 17.6977 4.5682C20.0315 4.82312 22.1195 5.66946 23.9517 7.11742C24.4328 7.49471 24.5045 7.98416 24.1565 8.41243C23.8084 8.8305 23.3376 8.86109 22.8361 8.47361C21.8841 7.72924 20.8401 7.15821 19.6834 6.78093C13.6546 4.81292 7.29821 8.69794 6.38723 14.9588C5.95733 17.9261 6.73524 20.6079 8.63909 22.9328C9.21229 23.6262 9.18158 24.0137 8.48555 24.6051C7.46198 25.4719 6.43841 26.3284 5.41483 27.1951C4.84163 27.6744 4.39126 27.6336 3.91018 27.0524C1.14653 23.7486 -0.255762 19.9451 0.0410739 15.6624C0.511918 8.78972 3.98183 3.83402 10.3792 1.23381C19.2945 -2.39629 29.2641 2.31468 32.1608 11.4511C33.9725 17.1716 32.8159 22.423 29.0184 27.083C28.5885 27.603 28.1075 27.6336 27.5854 27.2053C26.5209 26.3182 25.4564 25.4209 24.3919 24.5235C23.8084 24.0341 23.7573 23.5956 24.2383 23.0246C25.9579 20.975 26.787 18.6093 26.654 15.9377C26.613 15.122 26.4083 14.3062 26.2548 13.5007C26.1422 12.8991 26.5312 12.3994 27.1351 12.3994C27.5547 12.3994 27.8413 12.6339 27.9744 13.1438C28.8342 16.2539 28.5169 19.2415 27.002 22.0865C26.7256 22.6167 26.3878 23.1062 26.0705 23.6262ZM1.81186 15.5605C2.65119 15.5605 3.43934 15.5503 4.22749 15.5707C4.49362 15.5809 4.56527 15.4789 4.60621 15.2342C4.72904 14.5 4.84163 13.7556 5.03611 13.0316C5.48648 11.4103 6.31558 9.97256 7.39033 8.70814C6.73524 8.05554 6.10063 7.42333 5.45578 6.77073C3.26533 9.26897 2.04728 12.1751 1.81186 15.5605ZM8.72097 7.36215C10.9217 5.63887 12.6413 4.91489 15.323 4.58859C15.5482 4.558 15.5892 4.45603 15.5892 4.27249C15.5789 3.5689 15.5892 2.87551 15.5892 2.17192C15.5892 2.05976 15.5687 1.95779 15.5584 1.81503C12.1909 2.05976 9.2737 3.27319 6.78642 5.42474C7.43127 6.07734 8.07612 6.70955 8.72097 7.36215ZM4.5448 17.3347C3.62358 17.3347 2.74331 17.3347 1.80162 17.3347C2.00633 20.3224 2.9992 22.9838 4.8314 25.3801C5.5479 24.7683 6.23369 24.1972 6.92972 23.6058C5.51719 21.7296 4.73927 19.6392 4.5448 17.3347Z" fill="#E52034"/>
<path d="M16.3671 21.7601C15.1183 21.7601 13.9924 20.975 13.583 19.8023C13.1633 18.6093 13.5113 17.2633 14.5451 16.5189C16.7356 14.9486 18.9465 13.4293 21.1676 11.9099C22.6723 10.88 24.1974 9.88074 25.7123 8.86105C26.0398 8.64692 26.3674 8.58574 26.7154 8.79987C27.0327 9.00381 27.2067 9.29952 27.1351 9.6768C27.1044 9.83996 27.0225 10.0133 26.9201 10.1561C24.2179 13.623 21.5259 17.09 18.8134 20.5467C18.1071 21.4134 17.3395 21.7703 16.3671 21.7601ZM22.14 13.4599C22.1196 13.4395 22.0991 13.4191 22.0786 13.3987C20.6149 14.398 19.1512 15.3871 17.6977 16.3966C16.9915 16.886 16.2749 17.3857 15.5994 17.9261C15.0057 18.3952 15.016 19.1701 15.5789 19.6902C16.1112 20.1796 16.8379 20.149 17.3292 19.5474C18.3528 18.2932 19.3559 17.0288 20.359 15.7644C20.9527 14.9996 21.5464 14.2246 22.14 13.4599Z" fill="#E52034"/>
<path d="M16.4796 27.2462C18.9157 27.2462 21.3518 27.2462 23.7982 27.2462C24.3919 27.2462 24.7194 27.5113 24.7706 28.0007C24.832 28.5718 24.5044 28.9592 23.9312 29C23.8698 29 23.8084 29 23.7368 29C18.8953 29 14.064 29 9.2225 29C8.5367 29 8.17845 28.6839 8.18869 28.1027C8.18869 27.6031 8.51623 27.2666 9.01778 27.2462C9.49886 27.236 9.99018 27.236 10.4713 27.236C12.4672 27.2462 14.4734 27.2462 16.4796 27.2462Z" fill="#E52034"/>
<path d="M16.4384 25.6656C15.4865 25.6656 14.5244 25.6656 13.5724 25.6656C12.9276 25.6656 12.5693 25.3393 12.5693 24.7785C12.5796 24.238 12.9378 23.9117 13.552 23.9117C15.507 23.9117 17.4518 23.9117 19.4068 23.9117C20.0209 23.9117 20.3894 24.238 20.3894 24.7887C20.3894 25.3393 20.0414 25.6656 19.417 25.6656C18.4242 25.6656 17.4313 25.6656 16.4384 25.6656Z" fill="#E52034"/>
</g>
<defs>
<clipPath id="clip0_183_2606">
<rect width="33" height="29" fill="white"/>
</clipPath>
</defs>
</svg>
