<svg width="20" height="26" viewBox="0 0 20 26" fill="none" xmlns="http://www.w3.org/2000/svg">
<path d="M3.4 18.8C3.71826 18.7072 4.06036 18.7446 4.35104 18.904C4.64172 19.0634 4.85717 19.3317 4.95 19.65C5.04283 19.9683 5.00542 20.3104 4.84602 20.601C4.68661 20.8917 4.41826 21.1072 4.1 21.2C3.475 21.3825 3.025 21.575 2.73625 21.75C3.03375 21.9287 3.50375 22.1287 4.15625 22.315C5.6 22.7275 7.66625 23 10 23C12.3337 23 14.4 22.7275 15.8437 22.315C16.4975 22.1287 16.9663 21.9287 17.2638 21.75C16.9763 21.575 16.5263 21.3825 15.9013 21.2C15.588 21.1031 15.3254 20.887 15.17 20.5982C15.0146 20.3095 14.9789 19.9712 15.0705 19.6564C15.1622 19.3416 15.3739 19.0754 15.66 18.9152C15.9461 18.755 16.2837 18.7136 16.6 18.8C17.435 19.0437 18.2 19.3563 18.7875 19.7575C19.3313 20.1313 20 20.7825 20 21.75C20 22.7288 19.315 23.385 18.7625 23.7588C18.165 24.1613 17.3838 24.475 16.53 24.7188C14.8075 25.2125 12.5 25.5 10 25.5C7.5 25.5 5.1925 25.2125 3.47 24.7188C2.61625 24.475 1.835 24.1613 1.2375 23.7588C0.685 23.3838 0 22.7288 0 21.75C0 20.7825 0.66875 20.1313 1.2125 19.7575C1.8 19.3563 2.565 19.0437 3.4 18.8ZM10 0.5C12.4864 0.5 14.871 1.48772 16.6291 3.24587C18.3873 5.00403 19.375 7.3886 19.375 9.875C19.375 13.085 17.625 15.695 15.8125 17.55C15.092 18.2799 14.3177 18.9547 13.4963 19.5687C12.7537 20.1262 11.0563 21.1713 11.0563 21.1713C10.7343 21.3542 10.3703 21.4505 10 21.4505C9.62967 21.4505 9.2657 21.3542 8.94375 21.1713C8.10096 20.6833 7.28633 20.1483 6.50375 19.5687C5.68193 18.9551 4.90764 18.2803 4.1875 17.55C2.375 15.695 0.625 13.085 0.625 9.875C0.625 7.3886 1.61272 5.00403 3.37087 3.24587C5.12903 1.48772 7.5136 0.5 10 0.5ZM10 7.375C9.33696 7.375 8.70107 7.63839 8.23223 8.10723C7.76339 8.57607 7.5 9.21196 7.5 9.875C7.5 10.538 7.76339 11.1739 8.23223 11.6428C8.70107 12.1116 9.33696 12.375 10 12.375C10.663 12.375 11.2989 12.1116 11.7678 11.6428C12.2366 11.1739 12.5 10.538 12.5 9.875C12.5 9.21196 12.2366 8.57607 11.7678 8.10723C11.2989 7.63839 10.663 7.375 10 7.375Z" fill="#484848"/>
</svg>
