<svg width="92" height="93" viewBox="0 0 92 93" fill="none" xmlns="http://www.w3.org/2000/svg">
<g clip-path="url(#clip0_163_1075)">
<path d="M23.7429 93C21.8819 92.3429 21.1015 91.0289 21.1915 89.0876C21.2516 87.8632 21.1915 86.6088 21.2215 85.3545C21.2516 83.3535 22.5423 82.0693 24.5534 82.0693C30.0163 82.0693 35.5093 82.0693 40.9723 82.0693C43.0434 82.0693 44.3041 83.3535 44.3341 85.4142C44.3341 86.5192 44.2741 87.6541 44.3641 88.7591C44.5142 90.7302 43.8538 92.1637 41.9928 92.9701C35.9295 93 29.8362 93 23.7429 93ZM32.7778 84.7871C30.1364 84.7871 27.495 84.7871 24.8535 84.7871C24.2532 84.7871 23.953 84.9364 23.953 85.5934C23.983 86.9075 23.983 88.1917 23.953 89.5058C23.953 90.1031 24.2232 90.2822 24.7935 90.2822C30.1364 90.2822 35.4793 90.2822 40.8522 90.2822C41.4525 90.2822 41.6627 90.0433 41.6326 89.4759C41.6026 88.341 41.6326 87.1763 41.6326 86.0414C41.6326 84.8169 41.6326 84.8169 40.432 84.8169C37.8806 84.7871 35.3292 84.7871 32.7778 84.7871Z" fill="#F0F0F0"/>
<path d="M50.0373 93C48.1763 92.1936 47.516 90.7302 47.6661 88.789C47.7561 87.6541 47.666 86.4894 47.6961 85.3545C47.7261 83.4132 49.0168 82.0992 50.9678 82.0992C56.4908 82.0693 62.0439 82.0693 67.5669 82.0992C69.4579 82.0992 70.7486 83.3834 70.8086 85.2948C70.8386 86.579 70.7786 87.8333 70.8386 89.1175C70.9287 91.0587 70.1483 92.3728 68.3173 93.0298C62.224 93 56.1307 93 50.0373 93ZM59.3124 84.787C56.701 84.787 54.0895 84.8169 51.4781 84.7572C50.6077 84.7273 50.3675 85.026 50.3975 85.8622C50.4576 86.9971 50.4276 88.1618 50.3975 89.2967C50.3675 89.9836 50.5776 90.2822 51.328 90.2524C56.6109 90.2225 61.8938 90.2225 67.1767 90.2524C67.867 90.2524 68.0771 89.9836 68.0771 89.3265C68.0471 88.1618 68.0471 86.9672 68.0771 85.8025C68.1072 85.026 67.867 84.7273 67.0566 84.7572C64.4752 84.8169 61.8938 84.787 59.3124 84.787Z" fill="#F0F0F0"/>
<path d="M32.6879 18.606C33.0781 17.7698 33.4683 17.053 33.7384 16.2766C35.0892 12.3045 38.0308 10.1542 41.9929 9.28811C43.7339 8.89987 45.5048 8.63108 47.2458 8.21297C49.3469 7.70526 51.0879 5.58484 51.328 3.19563C50.0973 3.0463 48.8366 2.83725 47.606 2.77752C39.9518 2.449 33.1681 4.68888 27.2849 9.58676C27.1048 9.73609 26.9247 9.91528 26.7146 10.0347C26.0242 10.5424 25.2438 10.5126 24.7335 9.97501C24.2233 9.40757 24.2533 8.48175 24.9437 7.97405C27.0448 6.48079 29.0559 4.80834 31.3071 3.61374C50.0673 -6.15216 72.6396 4.56942 76.9619 25.1764C80.5939 42.5877 68.5874 59.8498 50.9978 62.4779C34.1286 65.0164 18.6402 54.5338 15.0683 37.8989C13.1172 28.7303 15.1283 20.2486 20.7114 12.6031C21.4317 11.6176 22.5424 11.528 23.1127 12.3941C23.5929 13.1108 23.2928 13.7082 22.8425 14.3055C20.8314 16.9933 19.3606 19.95 18.3401 23.1754C18.13 23.8623 18.25 24.3401 18.7003 24.8777C20.7414 27.3266 23.2627 29.2082 25.8742 31.0001C26.6846 31.5376 27.495 32.0752 28.3055 32.6128C29.7463 33.5983 30.0464 35.0318 29.296 36.5848C28.9058 37.3912 28.5156 38.2274 28.2755 39.0935C27.7952 40.7958 28.3355 42.2293 29.6262 43.4239C30.7068 44.4095 31.7874 45.3951 32.7479 46.4702C34.4888 48.3816 34.9091 50.6214 33.9786 53.0405C33.4983 54.265 32.958 55.4895 32.3877 56.8931C33.8885 57.4904 35.3593 58.0877 36.8601 58.6552C37.0402 58.7149 37.3704 58.5058 37.5805 58.3266C38.6911 57.3411 39.7117 56.2659 40.8523 55.3103C42.8634 53.5781 45.2647 52.6821 47.8161 52.1147C48.7166 51.9056 49.6171 51.5771 50.4575 51.1889C51.9283 50.502 52.8588 49.3074 53.4291 47.7843C53.8494 46.6792 53.6393 45.7236 52.7087 45.1263C51.358 44.2602 49.9773 43.4239 48.4764 42.9162C46.7955 42.3787 45.5048 41.4529 44.4843 40.0791C43.2536 38.3767 42.113 36.6446 40.8223 35.002C39.2614 33.001 37.3404 31.9557 34.6389 32.4336C33.7084 32.6128 32.5678 32.2843 31.6673 31.896C29.266 30.8507 27.2849 29.2082 25.634 27.1773C24.7936 26.132 24.3733 24.9972 25.0037 23.6532C25.4539 22.6976 25.1238 21.7717 24.7936 20.8459C23.8331 18.3074 24.1332 16.9933 26.1743 15.2014C28.0654 13.529 30.3766 13.8575 31.6373 16.0376C32.0575 16.7843 32.2977 17.6503 32.6879 18.606ZM54.1795 3.79293C54.0895 4.09158 54.0595 4.21104 54.0295 4.3305C52.9489 8.09351 50.7577 10.5723 46.6755 11.1995C45.0246 11.4384 43.3737 11.7968 41.7828 12.2149C39.2314 12.8719 37.4004 14.3652 36.4999 16.8739C36.1698 17.7399 35.8096 18.606 35.3593 19.4423C35.0291 20.0694 34.6089 20.6966 34.0686 21.1744C32.898 22.2496 31.1871 21.9509 30.4366 20.5473C30.1365 19.9798 30.0164 19.3527 29.8063 18.7554C29.6562 18.3074 29.5061 17.8295 29.266 17.4114C28.9658 16.8739 28.5456 16.7544 28.0053 17.2621C26.8947 18.2775 26.8047 18.5164 27.345 19.9201C27.9453 21.4731 28.1554 22.9962 27.6151 24.6089C27.5251 24.8478 27.5551 25.266 27.7352 25.4153C29.9264 27.6552 31.8774 30.1638 35.6595 29.6561C38.6911 29.2679 41.0024 30.8806 42.8034 33.0906C44.1541 34.7332 45.3247 36.4952 46.5254 38.2573C47.2158 39.2727 48.0562 39.9596 49.2869 40.318C51.418 40.8854 53.3991 41.871 54.96 43.4837C56.3107 44.8873 56.761 46.4702 56.1606 48.4114C55.3802 50.8305 53.9394 52.6523 51.6582 53.6976C50.5776 54.2053 49.407 54.6532 48.2363 54.8922C45.2947 55.4596 42.9835 56.9827 40.8523 58.9837C40.6722 59.1629 40.5221 59.3719 40.1619 59.7602C42.143 59.9095 43.8539 60.1484 45.5649 60.1783C51.1479 60.3276 56.3107 58.8642 61.0833 55.9673C61.3234 55.818 61.6236 55.3999 61.5636 55.1908C61.0833 53.3392 61.4135 51.5473 62.2239 49.9047C63.3645 47.6051 64.6853 45.395 65.9159 43.1253C66.6063 41.8112 67.3267 40.527 67.897 39.1532C68.4373 37.8392 68.1071 37.3016 66.7864 36.7939C66.096 36.555 65.3756 36.3758 64.7153 36.0771C61.5035 34.7332 59.0122 32.6128 58.3818 29.029C57.7515 25.4451 58.4419 22.16 61.2034 19.5319C61.7437 18.9943 62.314 18.4866 62.8843 18.0087C63.4546 17.5309 63.6347 16.9634 63.4246 16.2467C63.2745 15.7091 63.0043 15.0819 63.0944 14.5742C63.3045 13.5588 62.7642 13.0213 62.1339 12.4239C60.453 10.8112 59.2823 8.9596 59.5825 6.48079C59.6125 6.3016 59.4324 6.00295 59.2823 5.91335C57.5714 5.19659 55.8905 4.50969 54.1795 3.79293ZM62.5241 7.82472C62.434 7.88445 62.344 7.94418 62.2539 7.97405C62.6141 8.54148 62.9143 9.16865 63.3345 9.67636C63.9048 10.3931 64.6552 10.9606 65.1655 11.7072C65.5557 12.3045 65.7658 13.0511 65.9159 13.7679C66.036 14.3353 65.9159 14.9625 66.036 15.5299C66.5163 17.3218 66.066 18.8151 64.6853 20.0396C64.0249 20.6369 63.3645 21.2043 62.7642 21.8315C59.9127 24.7582 59.7025 31.3584 65.6758 33.5685C66.5463 33.897 67.4768 34.1359 68.3472 34.4943C70.1482 35.2409 71.1087 36.8835 70.7185 38.7949C70.5084 39.87 70.1482 40.975 69.6379 41.9307C68.6474 43.8421 67.4768 45.634 66.4562 47.5453C65.7058 48.8893 65.0455 50.2929 64.4451 51.6966C64.175 52.2939 64.175 52.9808 63.9949 53.8469C70.9887 48.501 75.6712 39.3324 74.8308 29.2082C74.0503 20.1889 69.8481 13.081 62.5241 7.82472ZM30.0764 55.3401C30.5267 54.265 30.9769 53.2794 31.3972 52.2939C32.0275 50.8006 31.7874 49.4268 30.7068 48.2621C29.8363 47.3363 28.9058 46.4702 27.9453 45.634C25.634 43.5733 24.8536 41.0646 25.7241 38.108C26.0242 37.0627 26.5045 36.107 26.8647 35.1812C23.683 32.7621 20.5313 30.343 17.4096 27.9837C15.7287 38.7053 21.4317 49.9943 30.0764 55.3401Z" fill="#F0F0F0"/>
<path d="M13.7179 59.2225C13.7479 58.894 13.7479 58.7447 13.7479 58.5953C13.868 57.0722 14.5583 55.9373 15.9991 55.3699C17.53 54.8025 18.8807 55.1907 19.9913 56.3256C22.2725 58.6849 24.4937 61.0741 26.775 63.4335C27.1352 63.7919 27.5554 64.0905 28.0057 64.3294C30.3469 65.4942 32.6882 66.6291 35.0595 67.7341C39.2618 69.7052 41.3629 73.0501 41.6031 77.6194C41.6631 78.5154 41.1528 79.1425 40.3424 79.2023C39.5019 79.262 38.9916 78.7543 38.8716 77.8285C38.7815 77.2312 38.7515 76.6339 38.6314 76.0366C38.1212 73.4682 36.7104 71.5867 34.3091 70.4219C31.6977 69.1676 29.1163 67.9133 26.5349 66.6291C25.9946 66.3603 25.4843 66.0019 25.0641 65.5838C22.8128 63.2842 20.6216 60.9248 18.4004 58.5953C18.2203 58.3863 18.0402 58.1175 17.8301 58.0279C17.4999 57.9383 17.0497 57.8786 16.7796 58.0279C16.5995 58.1474 16.5094 58.7447 16.6295 58.9537C17.56 60.3872 18.4605 61.8805 19.6011 63.1647C21.1319 64.8969 22.8428 66.4499 24.4637 68.0924C25.3042 68.9287 25.3642 69.6454 24.7339 70.3025C24.1035 70.9296 23.3531 70.8102 22.5127 70.0038C21.8523 69.3766 21.222 68.7196 20.5916 68.0626C18.6706 66.0915 16.7195 64.21 14.2582 62.8063C12.5773 61.8805 11.1665 60.4768 9.72572 59.1628C8.01479 57.5799 6.66406 55.7283 5.79359 53.5481C5.31332 52.2938 4.713 51.0693 4.08266 49.8449C3.96259 49.6059 3.51235 49.5163 3.2422 49.367C3.09212 49.6657 2.76194 49.9942 2.82197 50.2331C4.14269 55.6984 5.76357 61.0741 9.30549 65.5838C10.5362 67.1368 12.2171 68.3911 13.838 69.6156C16.5394 71.6464 19.3309 73.498 22.0624 75.4691C22.7228 75.947 23.3231 76.5443 23.8634 77.1416C24.4037 77.7389 24.3136 78.5154 23.7734 79.0231C23.2331 79.5308 22.5127 79.4711 21.8823 78.9932C19.9613 77.5 18.0402 76.0366 16.1192 74.5732C14.8885 73.6474 13.5978 72.7514 12.3071 71.9152C8.37499 69.3766 5.76357 65.7928 3.72246 61.6714C1.98151 58.237 1.11104 54.4142 0.0904863 50.6811C-0.329742 49.1281 0.750845 47.4556 2.25166 46.9181C3.81251 46.3506 5.61349 46.9479 6.39391 48.4711C7.20435 50.024 7.89473 51.6368 8.61512 53.2495C9.72572 55.6984 11.6468 57.4007 13.7179 59.2225Z" fill="#F0F0F0"/>
<path d="M78.3729 59.1927C80.2039 57.6098 81.9448 56.0867 83.0254 54.026C83.8959 52.3536 84.5863 50.6214 85.3967 48.9191C86.2672 47.0674 88.0381 46.2611 89.8091 46.9181C91.52 47.5453 92.3605 49.3073 91.8502 51.2486C90.6496 55.7582 89.4189 60.2081 87.0176 64.2996C85.4567 66.8979 83.6558 69.1975 81.1944 70.9595C78.4929 72.8709 75.7615 74.7524 73.09 76.6936C72.0995 77.4104 71.199 78.2168 70.2985 78.9933C69.6681 79.5607 68.9177 79.6503 68.3474 79.1426C67.7771 78.6349 67.6871 77.7987 68.2574 77.2013C69.0378 76.395 69.8783 75.6484 70.7788 74.9913C73.3902 73.1098 76.0016 71.2283 78.673 69.4364C83.3256 66.3603 85.6368 61.7013 87.4378 56.7437C88.1582 54.7726 88.5784 52.6821 89.1788 50.6513C89.3288 50.1734 89.3889 49.6358 88.8186 49.5462C88.5484 49.4865 88.0381 49.8748 87.858 50.2033C87.4078 50.9499 87.0476 51.7563 86.7474 52.5925C84.8264 57.6994 80.9843 61.0742 76.4518 63.8516C75.4913 64.4191 74.5908 65.106 73.7804 65.8526C72.5197 67.0173 71.3791 68.2418 70.1784 69.4663C69.8482 69.7948 69.5481 70.1233 69.1879 70.422C68.5275 70.9894 67.7471 70.9595 67.2368 70.3921C66.6965 69.7948 66.7266 69.078 67.3569 68.4509C69.0078 66.7784 70.7487 65.2254 72.2796 63.4634C73.4502 62.1195 74.4107 60.5963 75.3713 59.1031C75.5213 58.894 75.3713 58.2071 75.1912 58.1175C74.891 57.9981 74.3207 58.0279 74.0806 58.237C73.2401 59.0135 72.4597 59.8796 71.6792 60.7158C70.5987 61.8507 69.4881 62.896 68.4975 64.0906C67.1168 65.7331 65.4359 66.8979 63.4848 67.7341C61.6838 68.5106 59.9429 69.4663 58.1419 70.2726C55.1703 71.6166 53.5794 73.8565 53.2492 77.052C53.2192 77.3805 53.1892 77.7091 53.1292 78.0376C53.0091 78.8738 52.4088 79.4114 51.6584 79.3516C50.908 79.2919 50.3677 78.6647 50.3977 77.8285C50.6378 73.4383 52.4088 69.974 56.581 68.0029C58.9823 66.868 61.4137 65.7033 63.785 64.5087C64.3553 64.21 64.9256 63.8218 65.3758 63.3439C67.567 61.0742 69.7282 58.7746 71.9194 56.5048C73.06 55.3102 74.3807 54.8324 75.9716 55.3998C77.5024 55.9672 78.2228 57.1619 78.2828 58.7746C78.3128 58.8343 78.3429 58.9538 78.3729 59.1927Z" fill="#F0F0F0"/>
</g>
<defs>
<clipPath id="clip0_163_1075">
<rect width="92" height="93" fill="white"/>
</clipPath>
</defs>
</svg>
