<svg width="26" height="26" viewBox="0 0 26 26" fill="none" xmlns="http://www.w3.org/2000/svg">
<path d="M26 13C26 16.4211 26 19.8421 26 23.3202C26 24.9737 24.9737 26 23.3202 26C16.4211 26 9.52193 26 2.67982 26C1.08333 26 0.0570175 24.9737 0.0570175 23.3202C0 16.4211 0 9.52193 0 2.67982C0 1.02632 1.02632 0 2.62281 0C9.52193 0 16.4211 0 23.3202 0C24.9167 0 25.943 1.02632 25.943 2.62281C26 6.10088 26 9.52193 26 13ZM13.5702 16.5921C13.5702 16.136 13.5702 15.6798 13.5702 15.2237C13.5702 14.8816 13.7412 14.7105 14.0263 14.7105C14.3114 14.7105 14.5395 14.8816 14.5395 15.2807C14.5395 15.7368 14.5395 16.193 14.5395 16.5921C15.3947 16.7061 15.8509 17.2193 15.8509 17.9035C15.8509 18.6447 15.8509 19.386 15.8509 20.1272C15.7939 21.3246 14.9956 22.4079 13.8553 22.807C13.7412 22.864 13.5702 22.864 13.4561 22.9211C13.4561 23.6053 13.4561 24.2325 13.4561 24.9167C13.5702 24.9167 13.6842 24.9167 13.7982 24.9167C16.9912 24.9167 20.1272 24.9167 23.3202 24.9167C24.3465 24.9167 24.9737 24.3465 24.9737 23.2632C24.9737 16.364 24.9737 9.46491 24.9737 2.56579C24.9737 1.53947 24.3465 0.912281 23.3202 0.912281C16.4211 0.912281 9.52193 0.912281 2.67982 0.912281C1.59649 0.912281 1.02632 1.48246 1.02632 2.56579C1.02632 9.46491 1.02632 16.364 1.02632 23.2061C1.02632 24.2895 1.59649 24.8596 2.67982 24.8596C5.81579 24.8596 9.00877 24.8596 12.1447 24.8596C12.2588 24.8596 12.3728 24.8596 12.4868 24.8596C12.4868 24.2895 12.4868 23.7193 12.4868 23.1491C12.4868 22.9211 12.4298 22.807 12.2018 22.75C11.0044 22.4079 10.2632 21.6096 10.0921 20.4123C9.97807 19.6711 10.0351 18.9298 10.0351 18.1886C10.0351 17.1623 10.3772 16.7632 11.3465 16.5351C11.3465 16.4781 11.3465 16.4211 11.3465 16.4211C11.3465 16.0219 11.3465 15.5658 11.3465 15.1667C11.3465 14.8816 11.5746 14.7105 11.8596 14.7105C12.1447 14.7105 12.3158 14.8816 12.3158 15.1667C12.3158 15.2807 12.3158 15.4518 12.3158 15.5658C12.3158 15.9079 12.3158 16.25 12.3158 16.5351C12.8289 16.5921 13.1711 16.5921 13.5702 16.5921ZM13 17.6184C12.4868 17.6184 12.0307 17.6184 11.5175 17.6184C11.1754 17.6184 11.0614 17.7325 11.0614 18.0746C11.0614 18.7588 11.0614 19.386 11.0614 20.0702C11.0614 20.2412 11.1184 20.4123 11.1184 20.5833C11.3465 21.4956 12.2588 22.1228 13.1711 22.0088C14.1404 21.8947 14.8816 21.0965 14.8816 20.0702C14.8816 19.386 14.8816 18.7588 14.8816 18.0746C14.8816 17.7325 14.7675 17.6184 14.4254 17.6184C13.9693 17.6184 13.4561 17.6184 13 17.6184Z" fill="#484848"/>
<path d="M13.0001 3.02192C13.6843 3.02192 14.4256 2.96491 15.1098 3.02192C16.8203 3.24999 18.1887 4.84649 18.1887 6.61403C18.1887 7.64035 18.1887 8.66666 18.1887 9.69298C18.1317 11.6886 16.5352 13.2851 14.5396 13.3421C13.5133 13.3421 12.487 13.3421 11.4606 13.3421C9.46503 13.2851 7.86854 11.6316 7.81152 9.69298C7.81152 8.66666 7.81152 7.64034 7.81152 6.67105C7.81152 4.67543 9.46503 3.02192 11.4606 3.02192C11.9738 3.02192 12.487 3.02192 13.0001 3.02192ZM13.0001 3.99122C12.544 3.99122 12.0308 3.99122 11.5747 3.99122C10.0922 4.04824 8.95187 5.01754 8.83784 6.49999C8.78082 7.58333 8.78082 8.72368 8.83784 9.86403C8.95187 11.2895 9.97819 12.2588 11.4036 12.3728C12.487 12.4298 13.5133 12.4298 14.5966 12.3728C16.0221 12.3158 17.0484 11.2895 17.1624 9.86403C17.2194 8.72368 17.2194 7.64034 17.1624 6.49999C17.0484 5.13157 16.0221 4.10526 14.6536 3.99122C14.0835 3.9342 13.5133 3.99122 13.0001 3.99122Z" fill="#484848"/>
<path d="M21.3246 8.55271C21.5526 8.55271 21.7807 8.4957 22.0088 8.55271C22.1798 8.60973 22.4079 8.72377 22.4649 8.8378C22.5219 9.00885 22.4649 9.29394 22.3509 9.40798C21.6667 10.1492 20.9825 10.8334 20.2983 11.5176C20.0702 11.7457 19.7851 11.7457 19.6141 11.5176C19.386 11.3466 19.443 11.0045 19.6141 10.7764C20.0132 10.3773 20.4123 9.97815 20.8684 9.52201C20.5263 9.52201 20.2983 9.57903 20.1272 9.52201C19.9562 9.46499 19.7281 9.35096 19.6711 9.23692C19.5 9.06587 19.614 8.8378 19.7851 8.66675C20.4693 7.98254 21.0965 7.29833 21.7807 6.67113C22.0088 6.44306 22.2939 6.44306 22.5219 6.61412C22.75 6.78517 22.693 7.12727 22.5219 7.35534C22.1798 7.75447 21.7807 8.09657 21.3816 8.49569C21.2676 8.49569 21.3246 8.4957 21.3246 8.55271Z" fill="#484848"/>
<path d="M4.73252 8.55254C4.27638 8.0964 3.93427 7.75429 3.53515 7.35517C3.30708 7.1271 3.30708 6.89903 3.47813 6.67096C3.64918 6.44289 3.99129 6.38587 4.21936 6.61394C4.96059 7.29815 5.6448 7.98236 6.32901 8.72359C6.44304 8.83762 6.44304 9.06569 6.38602 9.23675C6.32901 9.35078 6.10094 9.52183 5.92988 9.52183C5.70181 9.57885 5.47374 9.52183 5.18866 9.52183C5.24567 9.63587 5.30269 9.69289 5.35971 9.7499C5.70181 10.092 6.04392 10.4341 6.32901 10.7192C6.55708 10.9473 6.61409 11.2894 6.38602 11.4604C6.15795 11.6885 5.87287 11.6885 5.6448 11.4034C4.96059 10.7192 4.33339 10.092 3.64918 9.4078C3.47813 9.23675 3.42111 9.00868 3.47813 8.78061C3.59216 8.60955 3.76322 8.55254 3.99129 8.55254C4.21936 8.55254 4.44743 8.55254 4.73252 8.55254Z" fill="#484848"/>
<path d="M5.13166 17.4475C4.78956 17.4475 4.56149 17.5045 4.33342 17.4475C4.16237 17.3904 3.9343 17.2764 3.87728 17.1624C3.82026 16.9913 3.87728 16.7633 3.99131 16.6492C4.67552 15.965 5.35973 15.2808 6.04395 14.5966C6.27202 14.3685 6.5571 14.3685 6.72816 14.5966C6.95623 14.7676 6.95623 15.1097 6.72816 15.3378C6.32903 15.7369 5.92991 16.079 5.53079 16.4782C5.53079 16.5352 5.53079 16.5352 5.58781 16.5922C5.81588 16.5922 5.98693 16.5922 6.215 16.5922C6.44307 16.5922 6.61412 16.6492 6.72816 16.8773C6.84219 17.1054 6.78517 17.3334 6.61412 17.5045C5.98693 18.1317 5.30272 18.8159 4.67552 19.4431C4.39044 19.6712 4.16237 19.7282 3.9343 19.5001C3.70623 19.272 3.70623 18.9869 3.99131 18.7019C4.33342 18.2457 4.67552 17.8466 5.13166 17.4475Z" fill="#484848"/>
<path d="M20.4123 16.3641C20.0702 16.022 19.6711 15.6229 19.329 15.2808C19.0439 14.9957 19.0439 14.7106 19.2719 14.4825C19.5 14.2545 19.7851 14.3115 20.0702 14.5966C20.6974 15.2238 21.3816 15.908 22.0088 16.5352C22.1798 16.7062 22.2939 16.9343 22.1798 17.1624C22.0658 17.3904 21.8377 17.5045 21.6097 17.4474C21.4386 17.4474 21.2105 17.4474 21.0395 17.4474L20.9825 17.5045C21.3246 17.7895 21.6097 18.1316 21.9518 18.4167C22.0088 18.4738 22.1228 18.5878 22.1798 18.6448C22.3509 18.8729 22.3509 19.158 22.1798 19.329C22.0088 19.5001 21.7237 19.5571 21.4956 19.329C21.2676 19.1009 21.0395 18.8729 20.7544 18.6448C20.3553 18.2457 19.9562 17.8466 19.5 17.4474C19.329 17.2764 19.1579 17.0483 19.2719 16.7632C19.386 16.4781 19.6711 16.4211 19.9562 16.4211C20.1272 16.4211 20.2983 16.4211 20.4693 16.4211C20.4123 16.4211 20.4123 16.3641 20.4123 16.3641Z" fill="#484848"/>
<path d="M12.9431 19.4431C12.772 19.4431 12.601 19.4431 12.4299 19.4431C12.1448 19.4431 11.9167 19.215 11.9167 18.9299C11.9167 18.6448 12.0878 18.4738 12.3729 18.4167C12.772 18.4167 13.1141 18.4167 13.5132 18.4167C13.7983 18.4167 13.9694 18.6448 13.9694 18.9299C13.9694 19.215 13.7983 19.386 13.5132 19.4431H13.4562C13.3422 19.4431 13.1711 19.4431 12.9431 19.4431Z" fill="#484848"/>
<path d="M12.9431 21.1535C12.772 21.1535 12.5439 21.1535 12.3729 21.1535C12.0878 21.1535 11.9167 20.9254 11.9167 20.6404C11.9167 20.4123 12.0878 20.1842 12.3729 20.1272C12.772 20.1272 13.1711 20.1272 13.5703 20.1272C13.8553 20.1272 14.0264 20.3553 14.0264 20.6404C14.0264 20.9254 13.8553 21.0965 13.5703 21.1535C13.5132 21.1535 13.5132 21.1535 13.4562 21.1535C13.3422 21.2105 13.1711 21.2105 12.9431 21.1535Z" fill="#484848"/>
<path d="M9.69287 8.15345C9.69287 6.32889 11.1753 4.84644 12.9999 4.84644C14.8245 4.84644 16.3069 6.32889 16.3069 8.15345C16.3069 9.97801 14.8245 11.4605 12.9999 11.4605C11.1753 11.5175 9.69287 9.97801 9.69287 8.15345ZM12.9999 5.87275C11.6885 5.87275 10.6622 6.89907 10.6622 8.21047C10.6622 9.52187 11.6885 10.5482 12.9999 10.5482C14.2543 10.5482 15.3376 9.52187 15.3376 8.26749C15.3376 6.89907 14.2543 5.87275 12.9999 5.87275Z" fill="#484848"/>
<path d="M12.3729 8.15362C12.3729 8.32468 12.3729 8.49573 12.3729 8.66678C12.3729 8.95187 12.1448 9.17994 11.9167 9.17994C11.6316 9.17994 11.4036 8.95187 11.4036 8.66678C11.4036 8.32468 11.4036 8.03959 11.4036 7.69748C11.4036 7.4124 11.6316 7.24134 11.9167 7.18433C12.2018 7.18433 12.3729 7.35538 12.4299 7.64047C12.3729 7.81152 12.3729 7.98257 12.3729 8.15362Z" fill="#484848"/>
<path d="M14.5965 8.15362C14.5965 8.32468 14.5965 8.49573 14.5965 8.66678C14.5965 8.95187 14.3684 9.12292 14.0833 9.12292C13.8553 9.12292 13.6272 8.95187 13.6272 8.66678C13.6272 8.32468 13.6272 7.98257 13.6272 7.64047C13.6272 7.35538 13.8553 7.18433 14.0833 7.18433C14.3684 7.18433 14.5965 7.35538 14.5965 7.64047C14.5965 7.81152 14.5965 7.98257 14.5965 8.15362Z" fill="#484848"/>
</svg>
