<svg width="25" height="31" viewBox="0 0 25 31" fill="none" xmlns="http://www.w3.org/2000/svg">
<path d="M13.2579 0C13.3579 0.0349296 13.4578 0.0523944 13.5577 0.0873239C14.6736 0.384225 15.5064 1.39718 15.573 2.60225C15.623 3.51042 15.5897 4.43606 15.573 5.36169C15.5564 5.88563 15.3565 6.33972 15.09 6.75887C14.9901 6.91606 14.9235 7.10817 14.8902 7.30028C14.8402 7.66704 14.8402 8.01634 14.8235 8.43549C14.9401 8.43549 15.0567 8.43549 15.1733 8.43549C17.2219 8.43549 19.2706 8.43549 21.3192 8.43549C23.0514 8.43549 24.5004 9.65803 24.8669 11.4394C24.9168 11.6839 24.9501 11.9459 24.9501 12.1904C24.9501 13.7448 24.9668 15.2992 24.9501 16.8535C24.9501 17.0456 24.8669 17.2901 24.7336 17.4124C24.6004 17.5172 24.3672 17.5521 24.184 17.5172C23.9508 17.4823 23.8176 17.2552 23.8176 17.0107C23.8009 16.6789 23.8176 16.347 23.8176 16.0152C23.8176 14.8101 23.8176 13.6051 23.8176 12.4175C23.8176 10.7758 22.7683 9.67549 21.2193 9.67549C19.1707 9.67549 17.122 9.67549 15.0734 9.67549C14.9734 9.67549 14.8902 9.69296 14.7736 9.69296C14.6237 12.3825 14.4738 15.0721 14.3239 17.7617C15.3232 17.7617 16.3225 17.7617 17.3552 17.7617C17.3552 17.6569 17.3552 17.5346 17.3552 17.4299C17.3552 16.4169 17.3552 15.3865 17.3552 14.3735C17.3718 13.4828 17.9881 12.7318 18.7876 12.627C19.6703 12.4873 20.4698 12.9938 20.7196 13.867C20.7696 14.0592 20.8029 14.2862 20.8029 14.4958C20.8029 18.0062 20.8029 21.4992 20.8029 25.0096C20.8029 26.0225 20.1367 26.8085 19.204 26.9132C18.3712 27.0006 17.5717 26.3893 17.3719 25.4986C17.3385 25.3239 17.3385 25.1318 17.3385 24.9572C17.3385 23.9093 17.3385 22.8614 17.3385 21.8135C17.3385 21.7087 17.3385 21.5865 17.3385 21.4642C16.2892 21.4642 15.2732 21.4642 14.1906 21.4642C14.1906 21.5865 14.1906 21.6913 14.1906 21.8135C14.1906 22.9487 14.2073 24.0839 14.174 25.2017C14.124 26.5989 12.6084 27.3848 11.5091 26.6163C10.9761 26.2496 10.7263 25.6907 10.7263 25.027C10.7263 23.9617 10.7263 22.8789 10.7263 21.8135C10.7263 21.7087 10.7263 21.5865 10.7263 21.4642C9.67698 21.4642 8.66099 21.4642 7.59504 21.4642C7.59504 21.569 7.59504 21.6913 7.59504 21.7961C7.59504 22.8963 7.59504 23.9966 7.59504 25.0969C7.59504 26.0749 6.8955 26.8608 5.96279 26.9307C5.11336 27.0006 4.31389 26.3369 4.14733 25.4113C4.13068 25.3065 4.13068 25.1842 4.13068 25.0794C4.13068 21.5341 4.13068 17.9887 4.13068 14.4434C4.13068 13.4654 4.81356 12.6969 5.72961 12.627C6.64567 12.5572 7.42848 13.2034 7.57838 14.1639C7.61169 14.4085 7.59504 14.6704 7.59504 14.9149C7.59504 15.8406 7.59504 16.7662 7.59504 17.6918C7.59504 17.7093 7.59504 17.7268 7.61169 17.7792C8.59437 17.7792 9.5937 17.7792 10.6263 17.7792C10.4764 15.0896 10.3432 12.4 10.1933 9.71042C10.1267 9.71042 10.0767 9.69296 10.0267 9.69296C7.87818 9.69296 5.72961 9.67549 3.58104 9.69296C2.3985 9.71042 1.44913 10.5487 1.21596 11.7363C1.16599 11.9285 1.16599 12.173 1.16599 12.4175C1.16599 17.2901 1.16599 22.1628 1.16599 27.0355C1.16599 28.7296 2.19863 29.7949 3.79757 29.7949C9.5937 29.7949 15.3898 29.7949 21.186 29.7949C22.7849 29.7949 23.8176 28.7121 23.8342 27.0355C23.8342 25.4637 23.8342 23.8918 23.8342 22.32C23.8342 21.9358 24.0674 21.6913 24.4005 21.6913C24.717 21.6913 24.9668 21.9358 24.9834 22.3025C24.9834 22.3375 24.9834 22.3899 24.9834 22.4248C24.9834 24.0315 24.9834 25.6383 24.9834 27.2451C24.9834 27.4197 24.9668 27.5944 24.9501 27.7516C24.7003 29.6028 23.2013 31 21.4192 31.0175C20.8362 31.0175 20.2699 31.0175 19.687 31.0175C14.3572 31.0175 9.02741 31.0175 3.69763 31.0175C1.88218 31.0175 0.416488 29.7425 0.0833773 27.8738C0.0500661 27.6468 0.0334106 27.4197 0.0334106 27.1752C0.0334106 22.2152 0.0334106 17.2377 0.0334106 12.2777C9.94541e-05 10.3916 1.16599 8.90704 2.88151 8.52282C3.16466 8.45296 3.4478 8.43549 3.7476 8.43549C5.74627 8.43549 7.74494 8.43549 9.76026 8.43549C9.87685 8.43549 9.99344 8.43549 10.1267 8.43549C10.11 7.96394 10.0934 7.50986 10.0601 7.05578C10.0601 6.96845 9.99344 6.89859 9.94347 6.82873C9.57705 6.30479 9.39384 5.72845 9.39384 5.08225C9.39384 4.3662 9.39384 3.65014 9.39384 2.93408C9.39384 1.46704 10.2266 0.384225 11.609 0.0698592C11.6423 0.0698592 11.6756 0.0349296 11.709 0.0174648C12.2086 0 12.7249 0 13.2579 0ZM13.7076 7.85916C13.2746 7.87662 12.8748 7.92901 12.4751 7.92901C12.0754 7.92901 11.6756 7.87662 11.2759 7.85916C11.2759 7.91155 11.2759 7.98141 11.2759 8.05127C11.3925 10.4265 11.5257 12.8017 11.659 15.1769C11.7423 16.6614 11.8089 18.1459 11.8922 19.613C11.9255 20.067 12.1253 20.329 12.4751 20.329C12.8082 20.329 13.0247 20.102 13.0581 19.6479C13.1413 18.4254 13.208 17.1854 13.2746 15.9628C13.3912 14.0417 13.4911 12.1206 13.591 10.1994C13.6243 9.41352 13.6577 8.64507 13.7076 7.85916ZM14.4405 3.98197H14.4238C14.4238 3.54535 14.4571 3.09127 14.4238 2.65465C14.3572 1.8338 13.7076 1.24 12.9248 1.22254C12.625 1.22254 12.3252 1.22254 12.0254 1.22254C11.2093 1.25746 10.5431 1.93859 10.5431 2.79437C10.5264 3.58028 10.5264 4.3662 10.5431 5.15211C10.5597 5.9031 11.0594 6.5493 11.7756 6.67155C12.1087 6.72394 12.4585 6.72394 12.8082 6.70648C13.7909 6.68901 14.4238 6.02535 14.4405 4.99493C14.4405 4.6631 14.4405 4.3138 14.4405 3.98197ZM14.174 20.1893C14.3072 20.1893 14.4072 20.1893 14.5071 20.1893C15.6064 20.1893 16.7056 20.1893 17.8049 20.1893C18.2879 20.1893 18.5044 20.4163 18.5044 20.9403C18.5044 21.1499 18.5044 21.342 18.5044 21.5515C18.5044 22.7217 18.5044 23.8918 18.5044 25.062C18.5044 25.4113 18.7376 25.6732 19.0541 25.6907C19.3539 25.7082 19.6203 25.4637 19.6537 25.1144C19.6703 25.027 19.6537 24.9572 19.6537 24.8699C19.6537 21.4468 19.6537 18.0237 19.6537 14.6006C19.6537 14.4783 19.6537 14.3561 19.6204 14.2338C19.5371 13.9194 19.2872 13.7623 18.9874 13.7972C18.6876 13.8496 18.5044 14.0766 18.5044 14.4783C18.5044 15.6834 18.5044 16.8885 18.5044 18.0761C18.5044 18.8096 18.3545 18.9668 17.6383 18.9668C16.6224 18.9668 15.6064 18.9668 14.5737 18.9668C14.4738 18.9668 14.3738 18.9668 14.2573 18.9668C14.2239 19.3859 14.1906 19.7701 14.174 20.1893ZM10.7596 20.1893C10.7429 19.84 10.7096 19.5606 10.7096 19.2637C10.7096 19.0366 10.643 18.9668 10.4265 18.9668C9.34387 18.9842 8.26126 18.9668 7.16199 18.9668C6.62901 18.9668 6.42915 18.7572 6.42915 18.1983C6.42915 16.9408 6.42915 15.7008 6.42915 14.4434C6.42915 14.0242 6.19597 13.7623 5.8462 13.7797C5.51309 13.7797 5.27991 14.0417 5.27991 14.4434C5.27991 17.9713 5.27991 21.4817 5.27991 25.0096C5.27991 25.1668 5.34653 25.3239 5.42981 25.4462C5.57971 25.6558 5.81289 25.7256 6.04607 25.6208C6.32921 25.4986 6.42915 25.2716 6.42915 24.9746C6.42915 23.6299 6.42915 22.2851 6.42915 20.9577C6.42915 20.3989 6.62901 20.1893 7.16199 20.1893C7.92815 20.1893 8.6943 20.1893 9.47711 20.1893C9.8935 20.1893 10.3265 20.1893 10.7596 20.1893ZM11.8755 21.5166C11.8755 21.9358 11.8755 22.3549 11.8755 22.7915C11.8755 23.5251 11.8755 24.2586 11.8755 25.0096C11.8755 25.3938 12.1253 25.6732 12.4585 25.6732C12.7916 25.6732 13.0247 25.4113 13.0247 25.0096C13.0247 23.8918 13.0247 22.7915 13.0247 21.6738C13.0247 21.6214 13.0081 21.5515 13.0081 21.5166C12.6417 21.5166 12.2752 21.5166 11.8755 21.5166Z" fill="#484848"/>
<path d="M19.204 10.6709C19.5205 10.6709 19.7703 10.9503 19.7703 11.2822C19.7703 11.614 19.5038 11.8934 19.1707 11.876C18.8543 11.8585 18.6211 11.5965 18.6211 11.2647C18.6377 10.9329 18.8876 10.6709 19.204 10.6709Z" fill="#484848"/>
<path d="M11.9089 28.1532C11.9089 27.8214 12.1754 27.5769 12.4919 27.5769C12.7917 27.5769 13.0582 27.8563 13.0582 28.1707C13.0582 28.5025 12.7917 28.782 12.4919 28.7645C12.1754 28.7645 11.9089 28.4851 11.9089 28.1532Z" fill="#484848"/>
<path d="M19.1874 27.5593C19.4872 27.5593 19.7537 27.8213 19.7703 28.1531C19.787 28.4675 19.5205 28.7644 19.2207 28.7644C18.9042 28.7819 18.6211 28.5024 18.6211 28.1706C18.6211 27.8388 18.8876 27.5593 19.1874 27.5593Z" fill="#484848"/>
<path d="M6.39576 11.2648C6.39576 11.5967 6.16258 11.8586 5.84613 11.8586C5.52967 11.8586 5.27984 11.6141 5.26318 11.2823C5.26318 10.933 5.51302 10.6536 5.82947 10.6536C6.14593 10.671 6.39576 10.933 6.39576 11.2648Z" fill="#484848"/>
<path d="M24.4338 20.2766C24.1174 20.2766 23.8675 20.0146 23.8509 19.7002C23.8342 19.3684 24.0841 19.089 24.4005 19.089C24.7336 19.0715 25.0001 19.3335 25.0001 19.6828C25.0001 19.9971 24.7503 20.2766 24.4338 20.2766Z" fill="#484848"/>
<path d="M5.82947 28.7644C5.51302 28.7644 5.26318 28.5024 5.26318 28.1706C5.26318 27.8388 5.52967 27.5419 5.84613 27.5593C6.16258 27.5593 6.39576 27.8388 6.39576 28.1706C6.39576 28.5024 6.14593 28.7644 5.82947 28.7644Z" fill="#484848"/>
</svg>
