<svg width="119" height="112" viewBox="0 0 119 112" fill="none" xmlns="http://www.w3.org/2000/svg">
<g clip-path="url(#clip0_137_1100)">
<path d="M0 62.7844C0.543831 62.4146 1.03822 61.9955 1.60677 61.6751C17.6498 53.0473 33.6928 44.4442 49.7358 35.8164C50.0324 35.6438 50.329 35.4713 50.7246 35.2494C49.8841 33.6718 49.0436 32.1188 48.2279 30.5411C46.4975 27.2626 47.338 24.4031 50.6257 22.6529C53.1471 21.2971 55.6685 19.9413 58.2146 18.6348C59.7719 17.846 61.3045 18.0185 62.6394 19.2018C63.9742 20.3603 64.5922 22.3571 63.9001 23.8115C63.4799 24.6496 62.7383 25.4384 61.972 26.0054C60.9832 26.7449 59.8461 27.2379 58.6843 27.8788C58.9562 28.3965 59.1786 28.8402 59.4011 29.2593C64.0731 37.9364 68.7451 46.5888 73.4171 55.2659C74.3812 57.0654 74.3317 57.6323 72.4283 58.3965C70.3519 59.21 69.8822 60.5165 69.9564 62.6118C70.1294 67.468 70.0058 72.3489 70.0058 77.2297C72.2059 78.0185 73.0958 79.6455 72.9722 81.938C76.9026 81.938 80.7836 81.938 84.8128 81.938C84.8128 81.4697 84.8128 81.0259 84.8128 80.5576C84.8128 72.4475 84.8128 64.3374 84.8128 56.2272C84.8128 54.3538 85.1589 54.0087 87.0376 54.0087C92.5006 54.0087 97.9636 53.9594 103.427 53.984C110.843 54.0333 116.899 58.8649 118.629 66.0629C118.876 67.0736 119 68.1089 119.025 69.1443C119.049 77.1804 119.049 85.2166 119.049 93.2527C119.049 97.2955 116.355 100.007 112.301 100.056C111.535 100.081 110.768 100.056 110.027 100.056C109.211 107.526 105.256 111.618 99.2738 111.371C93.8355 111.149 88.9905 106.737 89.2871 100.13C81.3768 100.13 73.4666 100.13 65.5563 100.13C65.7541 107.378 60.4641 111.199 55.4954 111.371C49.4886 111.568 45.5582 107.452 44.8166 100.106C43.1851 100.106 41.5289 100.106 39.7985 100.106C39.9221 103.655 38.785 106.663 36.0658 108.955C34.0141 110.656 31.641 111.47 28.9713 111.346C23.7061 111.125 18.7622 106.761 19.0835 100.032C18.515 100.032 17.9464 100.056 17.4026 100.032C13.9418 99.9084 11.2721 97.2215 11.2474 93.7704C11.198 90.5658 11.2474 87.3612 11.2227 84.1566C11.2227 83.0966 11.3463 82.2092 12.6317 81.9627C12.4834 81.8394 12.4587 81.7655 12.4092 81.7655C10.0361 81.519 8.80017 80.0646 7.78666 78.0185C5.58662 73.6061 3.13939 69.2922 0.766307 64.9536C0.56855 64.5839 0.321354 64.2634 0.0988783 63.8936C0 63.5485 0 63.1788 0 62.7844ZM3.38658 63.8197C3.46074 64.0662 3.46074 64.1894 3.51018 64.2881C5.98214 68.8731 8.42937 73.4581 10.9508 78.0432C11.1485 78.3883 11.5935 78.6841 11.989 78.8074C14.1643 79.4976 16.4385 79.9413 18.515 80.8287C21.4813 82.1106 23.9285 81.4943 26.6971 79.966C39.0816 73.113 51.5897 66.5066 64.0484 59.8263C66.2484 58.643 68.4732 57.4598 70.7227 56.2519C70.5249 55.8328 70.3519 55.4877 70.1789 55.1673C65.4327 46.4162 60.7113 37.6405 55.9651 28.8895C55.001 27.1147 55.1741 26.5723 56.9786 25.6356C57.7202 25.2412 58.5359 24.9207 59.2775 24.5263C59.8214 24.2305 60.3652 23.9101 60.8349 23.5403C61.4034 23.0719 61.5764 22.4557 61.1562 21.7901C60.7113 21.1245 60.0933 20.9027 59.3517 21.2971C56.7808 22.6529 54.1853 23.9594 51.6886 25.3891C49.983 26.3751 49.7358 27.3119 50.601 29.0867C51.4414 30.8616 52.4302 32.5625 53.3695 34.288C54.4325 36.2601 54.3583 36.5806 52.4055 37.6159C40.8862 43.7786 29.3668 49.9413 17.8475 56.104C13.0272 58.643 8.23162 61.2067 3.38658 63.8197ZM84.7387 84.9208C61.0821 84.9208 37.549 84.9208 13.9666 84.9208C13.9666 88.1747 13.8677 91.3793 14.016 94.5592C14.0902 96.0383 15.6228 97.1969 17.1801 97.3201C17.7486 97.3694 18.3666 97.4187 18.9105 97.2955C19.306 97.2215 19.8251 96.9504 20.0229 96.6052C22.0499 92.883 25.1151 90.8616 29.3668 90.8616C33.6186 90.8616 36.7333 92.883 38.6861 96.6299C38.9828 97.2215 39.3536 97.3694 39.9468 97.3448C41.4547 97.3201 42.9626 97.2955 44.4705 97.3448C45.2368 97.3694 45.6076 97.1229 45.9537 96.4327C47.8571 92.809 50.8976 90.8863 55.0258 90.8616C59.2281 90.8123 62.3428 92.7351 64.345 96.4327C64.7158 97.0983 65.0619 97.3694 65.8282 97.3694C71.7856 97.3448 77.743 97.3448 83.7252 97.3448C84.0465 97.3448 84.3926 97.2955 84.7387 97.2708C84.7387 93.1048 84.7387 89.0621 84.7387 84.9208ZM87.6556 97.1969C89.1882 97.5666 89.9792 97.1229 90.7703 95.7918C94.7254 89.0128 104.737 89.1853 108.544 96.0629C109.087 97.0243 109.631 97.5666 110.744 97.3448C110.966 97.2955 111.213 97.3448 111.436 97.3448C115.07 97.2955 116.157 96.2108 116.157 92.6365C116.157 92.1188 116.157 91.5765 116.157 90.8616C115.02 90.8616 114.031 90.9109 113.043 90.8616C111.386 90.763 110.744 90.1221 110.62 88.4951C110.521 87.1886 110.496 85.8821 110.496 84.551C110.496 82.3571 111.337 81.4943 113.562 81.371C114.402 81.3217 115.243 81.371 116.108 81.371C116.108 80.1139 116.108 79.0539 116.108 77.8953C115.613 77.8953 115.193 77.8953 114.773 77.8953C110.175 77.8953 105.553 77.8953 100.955 77.8953C96.431 77.8953 93.44 74.9372 93.44 70.4508C93.44 66.3587 93.44 62.2667 93.44 58.1747C93.44 57.7802 93.44 57.3612 93.44 56.9421C91.413 56.9421 89.5837 56.9421 87.6556 56.9421C87.6556 70.3521 87.6556 83.7622 87.6556 97.1969ZM116.034 75.0111C116.034 72.9651 116.034 70.9684 116.034 68.9717C116.034 64.0169 112.252 58.1747 105.701 57.164C102.858 56.7203 99.9165 56.9668 97.0243 56.9175C96.7771 56.9175 96.5299 56.9914 96.2086 57.0407C96.2086 61.5518 96.2086 65.989 96.2086 70.4015C96.2086 73.3596 97.9142 75.0605 100.881 75.0605C105.553 75.0605 110.249 75.0605 114.921 75.0605C115.292 75.0605 115.613 75.0111 116.034 75.0111ZM59.4753 81.9873C59.327 80.0892 59.8214 78.5116 61.527 77.6981C62.2686 77.3283 62.3922 76.8846 62.3922 76.1697C62.3675 72.4968 62.3922 68.8238 62.3675 65.1508C62.3675 64.7811 62.3428 64.4113 62.2933 63.8936C51.0706 69.9084 39.9963 75.8493 28.9219 81.7901C28.9466 81.8641 28.9713 81.9134 28.9713 81.9873C39.1064 81.9873 49.2414 81.9873 59.4753 81.9873ZM21.8274 101.092C21.8027 105.233 25.1892 108.635 29.3174 108.659C33.4703 108.684 36.9063 105.307 36.931 101.215C36.9558 97.1229 33.5692 93.7211 29.4163 93.6471C25.3623 93.5732 21.8521 96.9996 21.8274 101.092ZM92.031 101.116C92.031 105.258 95.3928 108.635 99.5457 108.635C103.674 108.635 107.085 105.258 107.085 101.141C107.085 97.049 103.674 93.6225 99.5457 93.6225C95.4423 93.6225 92.031 96.9996 92.031 101.116ZM47.6346 101.141C47.6346 105.282 51.0212 108.659 55.1741 108.635C59.327 108.61 62.7135 105.233 62.6888 101.116C62.6888 97.0243 59.2528 93.5978 55.1246 93.6225C50.9965 93.6471 47.6346 97.0243 47.6346 101.141ZM67.1631 61.4286C65.1855 62.2174 65.1855 62.2174 65.1855 64.0662C65.1855 67.9857 65.1855 71.9298 65.1855 75.8493C65.1855 76.2683 65.1855 76.6628 65.1855 77.0572C65.9518 77.0572 66.5451 77.0572 67.1631 77.0572C67.1631 71.8312 67.1631 66.6792 67.1631 61.4286ZM62.3428 81.9627C64.9136 81.9627 67.5091 81.9627 70.08 81.9627C70.1047 80.2125 69.8822 79.9906 68.2507 80.0153C66.817 80.0153 65.408 79.9906 63.9742 79.9906C62.4416 79.9906 62.1697 80.3111 62.3428 81.9627ZM113.339 88.0268C114.279 88.0268 115.144 88.0268 116.009 88.0268C116.009 86.6956 116.009 85.4384 116.009 84.1566C115.07 84.1566 114.254 84.1566 113.339 84.1566C113.339 85.4631 113.339 86.7203 113.339 88.0268Z" fill="#E52034"/>
<path d="M25.4364 75.233C25.4117 76.3916 24.2746 77.0572 23.36 76.4902C23.0634 76.293 22.7914 75.9725 22.6184 75.6521C20.5667 71.8066 18.515 67.961 16.4632 64.1155C15.9441 63.1048 16.1172 62.3407 16.9576 61.9709C17.7734 61.6258 18.4161 61.8969 18.8116 62.6611C20.9622 66.6299 23.0881 70.5987 25.2387 74.5674C25.3623 74.814 25.387 75.0851 25.4364 75.233Z" fill="#E52034"/>
<path d="M29.5895 55.5617C29.7872 55.7343 30.3311 55.9808 30.5535 56.3752C32.7289 60.344 34.8547 64.3127 36.9806 68.3062C37.4009 69.1196 37.2773 69.8345 36.4615 70.2782C35.6705 70.6973 35.0031 70.3768 34.6075 69.6373C32.4322 65.6439 30.2322 61.6504 28.1063 57.6077C27.5377 56.6217 28.2052 55.611 29.5895 55.5617Z" fill="#E52034"/>
<path d="M60.8345 56.6216C60.5378 56.9668 60.2659 57.5091 59.8951 57.6323C59.4502 57.7556 58.8569 57.6077 58.3872 57.4351C58.14 57.3612 57.9917 56.9668 57.8434 56.7202C55.8164 52.924 53.7647 49.1032 51.7871 45.2823C51.5399 44.8139 51.4658 44.0251 51.6882 43.606C52.2073 42.5953 53.4928 42.7432 54.086 43.8279C55.0254 45.5041 55.9153 47.2297 56.8052 48.9306C57.9423 51.0752 59.0794 53.2198 60.2165 55.3645C60.439 55.6603 60.5873 56.0547 60.8345 56.6216Z" fill="#E52034"/>
<path d="M39.5518 50.4836C39.8731 50.1385 40.145 49.5469 40.5653 49.4483C41.0349 49.325 41.6035 49.5962 42.1226 49.7934C42.2956 49.8673 42.3698 50.1632 42.4934 50.3604C44.5204 54.1319 46.5721 57.9035 48.5991 61.6751C49.1677 62.7597 49.0441 63.5732 48.2283 63.9676C47.2148 64.4606 46.6463 63.869 46.2013 63.0555C44.1496 59.2346 42.0979 55.4384 40.0461 51.6422C39.8237 51.3217 39.7495 50.9766 39.5518 50.4836Z" fill="#E52034"/>
<path d="M95.64 83.6636C95.0714 83.6143 94.231 83.6636 93.4894 83.3924C93.0197 83.2199 92.4512 82.579 92.4512 82.1599C92.4512 81.7408 93.0692 80.9767 93.4647 80.9274C94.9478 80.7548 96.4557 80.7548 97.9389 80.8781C98.3097 80.9027 98.903 81.6669 98.8783 82.086C98.8535 82.5543 98.3839 83.2199 97.9142 83.4171C97.3456 83.6883 96.5793 83.5897 95.64 83.6636Z" fill="#E52034"/>
<path d="M34.4589 101.116C34.4589 104.124 32.3577 106.244 29.3666 106.268C26.425 106.293 24.2744 104.099 24.2744 101.116C24.2744 98.109 26.425 95.9644 29.3666 95.9644C32.333 95.989 34.4589 98.109 34.4589 101.116ZM31.6656 101.141C31.6656 99.7606 30.7262 98.7745 29.3666 98.7499C28.0565 98.7252 27.043 99.7606 27.043 101.092C27.043 102.448 28.0071 103.458 29.3419 103.458C30.7015 103.483 31.6656 102.521 31.6656 101.141Z" fill="#E52034"/>
<path d="M104.637 101.067C104.662 104.099 102.586 106.219 99.5947 106.268C96.6531 106.318 94.5025 104.173 94.4778 101.166C94.453 98.1582 96.5542 95.989 99.5205 95.9643C102.512 95.9397 104.637 98.0843 104.637 101.067ZM101.869 101.116C101.869 99.7359 100.905 98.7745 99.57 98.7499C98.2598 98.7252 97.2216 99.7359 97.1969 101.067C97.1722 102.423 98.2104 103.507 99.5947 103.483C100.93 103.458 101.869 102.497 101.869 101.116Z" fill="#E52034"/>
<path d="M60.2413 101.067C60.266 104.099 58.1896 106.219 55.1985 106.268C52.2569 106.318 50.0816 104.173 50.0569 101.166C50.0321 98.1829 52.158 95.989 55.0996 95.9643C58.0907 95.9397 60.2166 98.0843 60.2413 101.067ZM57.4727 101.166C57.4974 99.7852 56.5581 98.7992 55.2232 98.7745C53.8637 98.7252 52.8007 99.8098 52.8007 101.166C52.8007 102.497 53.8142 103.507 55.1491 103.507C56.4839 103.483 57.448 102.521 57.4727 101.166Z" fill="#E52034"/>
</g>
<g clip-path="url(#clip1_137_1100)">
<path d="M97.7983 0C98.5421 0 99.2858 0 100.029 0C100.122 0.0185833 100.206 0.0464583 100.299 0.0557499C101.21 0.195125 102.14 0.27875 103.042 0.483166C109.902 2.05346 115.304 7.78641 116.466 14.7273C116.577 15.3777 116.642 16.0281 116.735 16.6878C116.735 17.4311 116.735 18.1745 116.735 18.9178C116.717 18.9829 116.689 19.0479 116.68 19.1129C116.559 19.9399 116.494 20.7668 116.317 21.5845C113.984 32.6137 101.805 38.7276 91.5604 34.026C83.993 30.5603 79.8561 22.5323 81.4365 14.3649C82.8217 7.17316 88.6227 1.49596 95.8461 0.269458C96.4875 0.157958 97.1476 0.0929166 97.7983 0ZM114.504 17.7935C114.495 9.20803 107.504 2.23 98.9232 2.23C90.3239 2.22071 83.3144 9.22661 83.3237 17.8121C83.333 26.3883 90.3239 33.3756 98.9046 33.3849C107.495 33.3942 114.513 26.379 114.504 17.7935Z" fill="#125EA9"/>
<path d="M97.7983 9.01289C97.7983 8.61335 97.789 8.2231 97.7983 7.82356C97.8076 7.16385 98.2817 6.68068 98.8953 6.67139C99.5274 6.6621 100.011 7.16385 100.02 7.83285C100.029 8.21381 100.02 8.59476 100.02 9.0036C100.132 9.04076 100.234 9.07793 100.346 9.1058C102.4 9.71905 103.869 11.6331 103.915 13.7516C103.934 14.4857 103.478 15.006 102.828 15.0153C102.186 15.0246 101.721 14.5414 101.694 13.826C101.628 12.2557 100.355 11.0663 98.793 11.1221C97.2684 11.1778 96.0784 12.488 96.1342 14.0304C96.19 15.5078 97.4078 16.632 98.9511 16.6878C101.071 16.7621 102.623 17.7656 103.497 19.6983C104.724 22.4115 103.227 25.6171 100.373 26.4812C100.262 26.5184 100.16 26.5462 100.029 26.5834C100.029 26.983 100.039 27.3732 100.029 27.7727C100.02 28.4232 99.546 28.9156 98.9232 28.9249C98.291 28.9342 97.8076 28.4324 97.7983 27.7634C97.789 27.3825 97.7983 27.0015 97.7983 26.6484C97.2963 26.4254 96.785 26.2489 96.3387 25.9795C94.8048 25.041 93.996 23.6472 93.9031 21.854C93.8659 21.1199 94.3307 20.5996 94.9908 20.5903C95.6322 20.581 96.097 21.0642 96.1249 21.7796C96.19 23.3499 97.4729 24.5392 99.0254 24.4835C100.55 24.4277 101.74 23.1176 101.684 21.5752C101.628 20.0978 100.42 18.955 98.8674 18.9271C96.7571 18.8806 94.9443 17.617 94.2098 15.6564C93.1965 12.9525 94.7397 9.8863 97.5194 9.1151C97.6124 9.07793 97.696 9.05005 97.7983 9.01289Z" fill="#125EA9"/>
</g>
<defs>
<clipPath id="clip0_137_1100">
<rect width="119" height="93.2293" fill="white" transform="translate(0 18.1911)"/>
</clipPath>
<clipPath id="clip1_137_1100">
<rect width="35.6242" height="35.6242" fill="white" transform="translate(81.1016)"/>
</clipPath>
</defs>
</svg>
