<svg><defs><font id="HermesFB-Thin" horiz-adv-x="728"><font-face font-family="HermesFB Thin" font-weight="100" panose-1="2 0 6 6 5 0 0 2 0 4" ascent="775" descent="-225" x-height="538" cap-height="732" bbox="-63 -214 1012 991" underline-thickness="20" underline-position="-113" unicode-range="U+0020-U+FB04"/><glyph glyph-name="f_f" unicode="ff" horiz-adv-x="546" d="M520 490q0-8-19-8h-76V20q0-20-15-20h-23q-17 0-17 17v465H176V20q0-20-15-20h-23q-17 0-17 17v465H61q-10 0-12 1.5t-2 9.5v18q0 11 9 11h59q-23 46-23 98 0 55 25.5 89t77.5 34q44 0 72-10 3-3 3-12.5t-4-20-8-9.5q-40 10-60 10-25 0-40.5-21T142 622q0-54 28-100h194q-23 46-23 98 0 55 25.5 89t77.5 34q44 0 72-10 3-3 3-12.5t-4-20-8-9.5q-40 10-60 10-25 0-40.5-21T391 622q0-54 28-100h84q17 0 17-9v-23z"/><glyph glyph-name="fi" unicode="fi" horiz-adv-x="501" d="M425 29q0-20-2-24.5T414 0h-34q-6 0-8 5t-2 24v469H176V20q0-20-15-20h-23q-17 0-17 17v481H61q-10 0-12 1.5t-2 9.5v18q0 11 9 11h59q-23 46-23 92 0 113 103 113 44 0 72-10 3-3 3-12.5t-4-20-8-9.5q-40 10-60 10-56 0-56-69 0-48 28-94h243q9 0 10.5-3.5T425 518V29zm0 654q0-20-2-24.5t-9-4.5h-26q-10 0-13.5 6t-3.5 26v19q0 12 1 16.5t5 7.5 14 3h22q9 0 10.5-3.5T425 712v-29z"/><glyph glyph-name="f_f_i" unicode="ffi" horiz-adv-x="750" d="M674 29q0-20-2-24.5T663 0h-33q-6 0-8 5t-2 24v469H425V20q0-20-15-20h-23q-17 0-17 17v481H176V20q0-20-15-20h-23q-17 0-17 17v481H61q-10 0-12 1.5t-2 9.5v18q0 11 9 11h59q-23 46-23 92 0 113 103 113 44 0 72-10 3-3 3-12.5t-4-20-8-9.5q-40 10-60 10-56 0-56-69 0-48 28-94h194q-23 46-23 92 0 113 103 113 44 0 72-10 3-3 3-12.5t-4-20-8-9.5q-40 10-60 10-56 0-56-69 0-48 28-94h243q9 0 10.5-3.5T674 518V29zm0 654q0-20-2-24.5t-9-4.5h-26q-10 0-13.5 6t-3.5 26v19q0 12 1 16.5t5 7.5 14 3h22q9 0 10.5-3.5T674 712v-29z"/><glyph glyph-name=".notdef" horiz-adv-x="500"/><glyph glyph-name=".notdef" horiz-adv-x="500"/><glyph glyph-name=".null" horiz-adv-x="0"/><glyph glyph-name="nonmarkingreturn" horiz-adv-x="333"/><glyph glyph-name="space" horiz-adv-x="215"/><glyph glyph-name="exclam" unicode="!" horiz-adv-x="233" d="M153 704l-12-460q0-20-2-24.5t-9-4.5h-14q-10 0-13.5 6T99 247L87 705q0 12 1 16.5t5 7.5 14 3h34q9 0 10.5-3.5T153 712v-8zm12-677v-8l-1-7-2.5-6.5L156 2l-9-2h-47Q76 0 76 25v39q0 20 15 20h51q15 0 19-3.5t4-12.5V27z"/><glyph glyph-name="quotedbl" unicode="&quot;" horiz-adv-x="312" d="M259 700l-10-220q-1-33-13-33h-15q-15 0-16 26l-10 224q-1 14 0 20t5.5 10.5T215 732h29q12 0 14-6t1-26zm-129-3l-10-224q-1-26-16-26H89q-12 0-13 33L66 700q-1 20 1 26t14 6h29q10 0 14.5-4.5T130 717t0-20z"/><glyph glyph-name="numbersign" unicode="#" horiz-adv-x="592" d="M567 488l-5-16q-3-11-10-14t-26-3h-73l-42-158h76q20 0 24-2t2-9l-5-16q-3-10-10-13.5t-27-3.5h-72L339 29q-5-19-8-24t-11-5h-26q-10 0-11.5 6t3.5 26l59 221H197L137 29q-5-19-8-24t-11-5H92Q82 0 80.5 6T84 32l59 221H55q-12 0-15.5.5t-7 5T34 273l4 12q2 9 6 10.5t17 1.5h94l42 158h-87q-12 0-16 .5t-7 5 1 14.5l4 12q3 9 6.5 10.5T115 499h94l54 206q4 13 5.5 16.5t6.5 7 15 3.5h22q10 0 10-5.5t-5-22.5l-54-205h148l54 206q4 13 5.5 16.5t6.5 7 15 3.5h22q10 0 10-5.5t-5-22.5l-54-205h76q20 0 24-2t2-9zm-168-33H251l-42-158h148z"/><glyph glyph-name="dollar" unicode="$" horiz-adv-x="570" d="M505 184q0-88-57.5-136.5T297-11v-68q0-20-2-24.5t-9-4.5h-26q-10 0-13.5 6T243-76v62Q115-13 49 27q-4 5-1.5 17T57 68t13 9l10-5q10-5 12.5-6t13-6 17-7l18-5.5 22-5.5 24-4 28-3 30.5-1q91 0 147 32.5T448 172q0 66-37 105.5T270 358q-98 38-145.5 85T77 571q0 63 49.5 113T279 742v72q0 12 1 16.5t5 7.5 14 3h22q9 0 10.5-3.5T333 821v-78q26-1 47-2.5t37-4.5 23.5-5 19.5-6l11-4q8-5 7-16.5t-8.5-22T455 674q-58 21-140 21-99 0-140-33.5T134 565q0-60 38.5-94.5T310 398q110-42 152.5-94T505 184z"/><glyph glyph-name="percent" unicode="%" horiz-adv-x="724" d="M587 743q9 0 9-5 0-3-11-23L217 29q-10-19-14.5-24T190 0h-26q-10 0-10 6t11 26l366 684q1 2 3 5.5t3 5 3 4 2.5 3.5 2.5 3 3 2.5l3 1.5 4 1 4.5.5 5.5.5h22zM325 485q0-66-41-95.5T194 360q-67 0-102.5 32.5T56 482v111q0 151 140 151 59 0 94-36t35-109V485zm355-373q0-66-41-95.5T549-13q-67 0-102.5 32.5T411 109v111q0 151 140 151 59 0 94-36t35-109V112zM277 478v121q0 103-81 103-92 0-92-108V481q0-35 23.5-57t66.5-22q40 0 61.5 22t21.5 54zm355-373v121q0 103-81 103-92 0-92-108V108q0-35 23.5-57T549 29q40 0 61.5 22t21.5 54z"/><glyph glyph-name="ampersand" unicode="&amp;" horiz-adv-x="526" d="M471 38Q415-6 321-12v-67q0-20-2-24.5t-9-4.5h-26q-10 0-13.5 6T267-76v64q-94 7-143 55.5T75 171q0 72 43 125t116 66q-73 16-116 63.5T75 544q0 86 52.5 139T259 743v71q0 12 1 16.5t5 7.5 14 3h22q9 0 10.5-3.5T313 821v-78q78-5 142-46 4-5 2.5-16.5T449 659t-14-6q-28 16-45 24t-45.5 15.5T285 700q-70 0-114.5-40.5T126 548q0-69 49-112t128-48h10.5l8.5-.5 6-4 2-10.5v-17q0-4-.5-7t-2-5-2.5-3-4.5-1.5-4.5-.5-6-.5-7-.5q-80-5-127.5-48T128 169q0-63 45-101.5T297 29q83 0 151 49 5 4 13-4.5t11-19-1-16.5z"/><glyph glyph-name="quotesingle" unicode="'" horiz-adv-x="210" d="M137 697l-10-224q-1-26-16-26H96q-12 0-13 33L73 700q-1 20 1 26t14 6h29q10 0 14.5-4.5T137 717t0-20z"/><glyph glyph-name="parenleft" unicode="(" horiz-adv-x="336" d="M266 722q-49-43-92.5-157T130 332q0-126 40-238.5T254-69q5-5-2.5-15.5t-19-16.5-16.5-1q-49 52-95 171.5T75 333q0 129 49 249t110 179q5 5 16-3t16-18.5 0-17.5z"/><glyph glyph-name="parenright" unicode=")" horiz-adv-x="336" d="M258 333q0-144-46-263.5T117-102q-5-5-16.5 1t-19 16.5T79-69q44 50 84 162.5T203 332q0 119-43.5 233T67 722q-5 7 0 17.5T83 758t16 3q61-59 110-179t49-249z"/><glyph glyph-name="asterisk" unicode="*" horiz-adv-x="381" d="M352 615q4-13-1-17.5t-23-8.5l-102-26 69-80q11-13 12.5-17t-6.5-12l-22-16q-13-6-17.5-3.5T247 453l-55 91-56-92q-8-14-12.5-17t-13.5 2l-22 16q-10 10-8.5 15T93 488l69 80-105 25q-16 4-20.5 7.5T35 614l8 25q3 9 8 11.5t10 1.5 17-6l98-41-9 107q-1 10-.5 16t3.5 9 10 3h26q13 0 16-6.5t2-24.5l-9-107 100 42q8 4 11.5 5t8 1.5 6.5-2 3-7.5z"/><glyph glyph-name="plus" unicode="+" horiz-adv-x="511" d="M482 217q0-9-5.5-11t-26.5-2H280V29q0-20-2-24.5T269 0h-26q-10 0-13.5 6T226 32v172H48q-15 0-18 2.5T27 220v22q0 9 3.5 10.5T47 254h179v174q0 12 1 16.5t5 7.5 14 3h22q9 0 10.5-3.5T280 435V254h173q20 0 24.5-2t4.5-9v-26z"/><glyph glyph-name="comma" unicode="," horiz-adv-x="207" d="M154 69q-6-21-19-53-12-27-27-51-21-30-43-54-7-7-22 0-7 3-5 7Q84 1 90 69q2 15 13 15h41q14 0 10-15z"/><glyph glyph-name="hyphen" unicode="-" horiz-adv-x="490" d="M399 275q0-9-5.5-11t-26.5-2H113q-15 0-18 2.5T92 278v22q0 9 3.5 10.5T112 312h258q20 0 24.5-2t4.5-9v-26z"/><glyph glyph-name="period" unicode="." horiz-adv-x="207" d="M151 27v-8l-1-7-2.5-6.5L142 2l-9-2H86Q62 0 62 25v39q0 20 15 20h51q15 0 19-3.5t4-12.5V27z"/><glyph glyph-name="slash" unicode="/" horiz-adv-x="400" d="M384 715L80 29Q71 10 67 5T55 0H29q-5 0-8 1.5t-3 5 2 9.5 7 16l304 684q6 13 8 16.5t7.5 7T362 743h22q9 0 9-5 0-3-9-23z"/><glyph glyph-name="zero" unicode="0" horiz-adv-x="617" d="M533 228q0-66-15.5-113t-36-71.5-54-38-57-16T314-13Q84-13 84 189v303q0 138 50 194.5T318 743q112 0 163.5-54T533 501V228zm-56-11v284q0 111-33.5 154T318 698q-108 0-143-44.5T140 493V189q0-157 175-157 41 0 66 5.5t49.5 23 35.5 56T477 217z"/><glyph glyph-name="one" unicode="1" horiz-adv-x="340" d="M207 32q0-15-.5-20.5t-3-8.5-9.5-3h-35q-8 0-8 35v621q0 11-10 11H72q-6 0-9.5 2.5T58 675v20q0 7 6 11t26 9l43 10q30 7 38 7h21q11 0 13-6t2-28V32z"/><glyph glyph-name="two" unicode="2" horiz-adv-x="583" d="M502 11q0-11-15-11H79q-5 0-7 .5t-4 5T66 19v33q0 109 54.5 185T253 359q89 53 139.5 101.5T443 560q0 67-40 102.5T290 698q-34 0-65-7t-45-12.5-37.5-18.5-24.5-14q-4-2-11.5 8.5t-11 21.5.5 15q81 52 200 52 97 0 151.5-45T502 567q0-37-18-72.5T430.5 427t-68-55.5T282 319Q129 226 122 73q-1-14 3-18t19-4h343q9 0 12-2.5t3-12.5V11z"/><glyph glyph-name="three" unicode="3" horiz-adv-x="526" d="M458 186q0-93-60-146T251-13Q121-13 48 34q-4 5-3 16t8.5 21T68 78q36-16 57-24.5T179.5 38t68.5-7q70 0 114.5 40T407 182q0 69-49 112.5T230 343h-10.5l-8.5.5-6 4-2 10.5v17q0 4 .5 7t2 5 2.5 3 4.5 1.5 4.5.5 6 .5 7 .5q80 5 127.5 47.5T405 561q0 63-45 101.5T236 701q-83 0-151-49-5-4-13 4.5t-11 19 1 16.5q65 51 175 51 108 0 164.5-50T458 559q0-72-43-124.5T299 369q72-16 115.5-64T458 186z"/><glyph glyph-name="four" unicode="4" horiz-adv-x="569" d="M478 163q0-11-9-11h-38V13q0-8-2-10.5T420 0h-32q-8 0-10.5 2.5T375 14v138H66q-15 0-15 7v21q0 15 5 24l324 500q18 28 22 28h19q5 0 7.5-1.5t2.5-3.5V196h38q6 0 7.5-1t1.5-7v-25zm-103 33v413L107 196h268z"/><glyph glyph-name="five" unicode="5" horiz-adv-x="555" d="M479 215q0-91-64.5-158.5T251-11q-66 0-114 17T67 40q-3 5 0 16t10.5 21.5T89 86l19-10q18-10 27-13.5t29-10 41.5-9.5 47.5-3q76 0 121.5 49.5T420 209q0 122-87 168-69 36-202 39-24 0-24 22v275q0 13 3 16t10 3h338q15 0 15-11v-25q0-10-3-12.5t-12-2.5H181q-15 0-18.5-4t-3.5-18V478q0-16 22-17 107-4 183-45 115-62 115-201z"/><glyph glyph-name="six" unicode="6" horiz-adv-x="613" d="M543 218q0-105-52-168T324-13Q94-13 94 190v302q0 138 50 194.5T328 743q100 0 141-19 4-4 .5-14.5t-11-21.5-10.5-10q-67 21-120 21-108 0-143-44.5T150 493v-62q0-22 5-23 4 0 9 3 82 42 162 42 107 0 162-64t55-171zm-56 0q0 193-163 193-83 0-160-43-14-9-14-26V189q0-160 175-160 162 0 162 189z"/><glyph glyph-name="seven" unicode="7" horiz-adv-x="539" d="M457 697L232 17q-6-17-11-17h-40q-10 0-11 3.5t4 16.5l218 652q4 13-16 13H27q-9 0-9 15v22q0 10 12 10h397q41 0 30-35z"/><glyph glyph-name="eight" unicode="8" horiz-adv-x="595" d="M530 179q0-87-59.5-139.5T307-13Q73-13 73 179q0 69 40.5 124.5T198 369q-46 19-78.5 63.5T87 531q0 89 58 150.5T297 743q106 0 161.5-59T514 532q0-57-40.5-105.5T389 369q66-19 103.5-70.5T530 179zm-70 352q0 85-44 127t-119 42q-68 0-111-43t-43-125q0-70 41.5-104.5T296 393q79 0 121.5 35T460 531zm14-351q0 69-48 118t-130 49q-81 0-124-50t-43-118q0-73 47.5-111T307 30q80 0 123.5 38.5T474 180z"/><glyph glyph-name="nine" unicode="9" horiz-adv-x="613" d="M519 238q0-134-59-192.5T265-13q-43 0-91 9.5T105 16q-4 4-.5 14t11 20.5T126 60q2-1 14-5l24.5-8 29-8.5 35.5-7 36-2.5q111 0 154.5 47.5T463 237v62q0 22-5 23-4 0-9-3-82-42-162-42-107 0-162 64T70 512q0 105 52 168t167 63q230 0 230-203V238zm-56 150v153q0 160-175 160-162 0-162-189 0-193 163-193 83 0 160 43 14 9 14 26z"/><glyph glyph-name="colon" unicode=":" horiz-adv-x="207" d="M150 474q0-20-15-20H84q-15 0-19 3.5T61 470v49l1 7 2.5 6.5L70 536l9 2h54q17 0 17-25v-39zm0-447v-8l-1-7-2.5-6.5L141 2l-9-2H85Q61 0 61 25v39q0 20 15 20h51q15 0 19-3.5t4-12.5V27z"/><glyph glyph-name="semicolon" unicode=";" horiz-adv-x="207" d="M151 474q0-20-15-20H85q-15 0-19 3.5T62 470v49l1 7 2.5 6.5L71 536l9 2h54q17 0 17-25v-39zm-7-405q-6-21-19-53-12-27-27-51-21-30-43-54-7-7-22 0-7 3-5 7Q74 1 80 69q2 15 13 15h41q14 0 10-15z"/><glyph glyph-name="less" unicode="&lt;" horiz-adv-x="511" d="M433 99q0-4-1-5.5t-4-1.5-8.5 1.5T404 99L114 204q-3 1-7 2.5t-6 2.5-4.5 2-3.5 1.5-2.5 2-2 2.5-1.5 2.5-1 3.5v34q0 12 12 17 2 1 9 3 4 2 7 3l290 105q10 4 15.5 5.5t8.5 1.5 4-1.5 1-5.5v-26q0-9-5.5-13T401 334l-253-92 253-92q21-8 26.5-12t5.5-13V99z"/><glyph glyph-name="equal" unicode="=" horiz-adv-x="511" d="M445 305q0-9-5.5-11t-26.5-2H99q-15 0-18 2.5T78 308v22q0 9 3.5 10.5T98 342h318q20 0 24.5-2t4.5-9v-26zm-3-141q0-9-3.5-10.5T422 152H104q-20 0-24.5 2t-4.5 9v26q0 9 5.5 11t26.5 2h314q15 0 18-2.5t3-13.5v-22z"/><glyph glyph-name="greater" unicode="&gt;" horiz-adv-x="511" d="M441 227q0-12-12-17-2-1-9-3-4-2-7-3L123 99q-10-4-15.5-5.5T99 92t-4 1.5-1 5.5v26q0 9 5.5 13t26.5 12l253 92-253 92q-21 8-26.5 12T94 359v26q0 4 1 5.5t4 1.5 8.5-1.5T123 385l290-105q3-1 7-2.5t6-2.5 4.5-2 3.5-1.5 2.5-2 2-2.5 1.5-2.5 1-3.5v-34z"/><glyph glyph-name="question" unicode="?" horiz-adv-x="429" d="M373 577q0-39-16.5-76t-40-64.5l-47-53-40-50.5-16.5-47v-50q0-16-8-16h-35q-6 0-8.5 1t-3.5 5.5-1 13.5q-3 46 5 74 7 25 33.5 58t53.5 60 48.5 64 21.5 72q0 63-31 96.5T201 698q-27 0-59-13.5T91 655q-2-2-11 6t-14.5 18.5T65 694q69 49 135 49 78 0 125.5-45.5T373 577zM233 27v-8l-1-7-2.5-6.5L224 2l-9-2h-47q-24 0-24 25v39q0 20 15 20h51q15 0 19-3.5t4-12.5V27z"/><glyph glyph-name="at" unicode="@" horiz-adv-x="799" d="M761 333q0-105-39.5-160.5T616 117q-34 0-63 22t-35 55q-17-33-54.5-57.5T386 112q-67 0-108 54t-41 167q0 99 36 162.5T379 559q88 0 127-74v51q0 14 10 14h23q11 0 13.5-4t2.5-18V230q0-30 18.5-53t51.5-23q41 0 64.5 46T713 334q0 151-85.5 243.5T401 670q-136 0-220-94.5T97 334q0-163 84.5-251T406-5q60 0 119 15t87 32q12 7 17-12 6-20-8-27-96-47-217-47-169 0-264.5 104T44 333q0 158 102.5 267.5T404 710q157 0 257-104.5T761 333zm-254-87v143q0 41-29.5 83.5T394 515q-102 0-102-163v-43q0-72 25.5-112.5T395 156q45 0 78.5 34t33.5 56z"/><glyph glyph-name="A" unicode="A" horiz-adv-x="591" d="M541 33q6-15 4.5-22.5t-4.5-9-9-1.5h-33q-4 0-6 .5T489.5 2 487 5.5t-1.5 4.5-2 7-2.5 9l-56 184H163L108 26q-5-17-8-21.5T89 0H54q-4 0-5.5.5t-1.5 4 1.5 9.5T54 33l203 667q6 18 11.5 25t17.5 7h23q12 0 17.5-7t11.5-25zM412 255L295 657 177 255h235z"/><glyph glyph-name="B" unicode="B" horiz-adv-x="582" d="M518 195Q518 0 269 0H102Q92 0 90.5 4.5T89 26v671q0 14 .5 20t4 10.5T104 732h141q128 0 194.5-41.5T506 547q0-67-35.5-112T377 374q141-35 141-179zm-71 343q0 78-46 111.5T256 683h-93q-18-1-18-18V417q0-11 4-15t16-4h95q103 0 145 35t42 105zm13-345q0 74-50 115.5T262 350h-95q-12 0-16-4t-4-15V67q0-17 18-18h93q108 0 155 32t47 112z"/><glyph glyph-name="C" unicode="C" horiz-adv-x="571" d="M514 699q6-4-7-24t-18-18l-15 8q-16 8-24 11.5t-25 9.5-35 8.5-39 2.5q-121 0-166-50.5T140 501V189q0-45 19.5-77.5T211 63t63.5-23 65.5-7q25 0 48 3t41 8.5 29.5 10 25 11T500 73q6 2 10-9.5t3.5-25T509 23q-64-36-172-36-115 0-184 52T84 191v313q0 53 11.5 93.5t39.5 75 82 52.5 132 18q101 0 165-44z"/><glyph glyph-name="D" unicode="D" horiz-adv-x="631" d="M548 228q0-60-17-103t-42-66.5T425.5 21t-71-17.5T279 0H105q-9 0-12.5 7T89 35v671q0 15 2.5 20.5T104 732h179q58 0 103-10.5t83-35 58.5-71T548 502V228zm-56-11v284q0 102-54 143t-155 41H164q-18 0-18-19V68q0-13 4-17t17-4h113q27 0 42 .5t41 3.5 40.5 9 34 18.5T467 109t17.5 45.5T492 217z"/><glyph glyph-name="E" unicode="E" horiz-adv-x="515" d="M465 13q0-13-21-13H106Q96 0 92.5 5.5T89 26v673q0 33 15 33h322q24 0 26-3 1-2 1-8v-25q0-10-40-10H168q-26 0-26-16V432q0-15 4-19t18-4h211q21 0 26-2t3-11l-6-23q0-2-1.5-3.5l-3-3-3.5-2-5-1-5-1-6-.5H172q-18 0-23-4.5t-5-18.5V70q0-16 4.5-19t17.5-3h276q13 0 18-3t5-13V13z"/><glyph glyph-name="F" unicode="F" horiz-adv-x="473" d="M434 697q0-12-27-12H169q-26 0-26-16V405q0-15 4-19t18-4h208q21 0 26-2.5t3-10.5l-3-23q0-2-1.5-3.5l-3-3-3.5-2-5-1-5-1-6-.5H166q-15 0-18-4t-3-19V13q0-8-3-10.5T131 0h-28q-9 0-11.5 5T89 26v673q0 33 15 33h303q18 0 22.5-2t4.5-9v-24z"/><glyph glyph-name="G" unicode="G" horiz-adv-x="655" d="M575 221q0-39-3.5-67t-17-62T517 37 449 1.5 343-13q-78 0-130.5 18T133 57.5 95 133t-11 97v233q0 52 4 88t19.5 75 43 62.5 77 39T346 743q59 0 110-15t71.5-27.5T559 677q8-8-9.5-28T522 638q-64 59-178 59-117 0-159.5-50T142 470V230q0-107 46.5-152.5T343 32q92 0 134.5 34.5T520 202v111q0 22-19 22h-86q-20 0-20 14v22q0 9 2 12t12 3h121q29 0 37-7.5t8-33.5V221z"/><glyph glyph-name="H" unicode="H" horiz-adv-x="657" d="M568 32q0-15-.5-20.5t-3-8.5-9.5-3h-29q-14 0-14 26v314q0 14-3 17t-16 3H161q-10 0-13-3t-3-14V32q0-21-3-26.5T126 0h-21q-9 0-12.5 7T89 35v671q0 15 2.5 20.5T104 732h26q11 0 13-6t2-27V426q0-11 5-15t18-4h327q17 0 17 17v281q0 15 4 21t15 6h22q11 0 13-4.5t2-16.5V32z"/><glyph glyph-name="I" unicode="I" horiz-adv-x="234" d="M145 22q0-10-.5-13.5t-3.5-6-9-2.5H97q-6 0-7 4.5T89 25v690q0 11 3.5 14t15.5 3h22q11 0 13-3.5t2-20.5V22z"/><glyph glyph-name="J" unicode="J" horiz-adv-x="296" d="M207 129q0-100-68-140-55-32-94-49-15-5-20 4L14-34Q9-23 29-12q52 25 74 39 31 20 39.5 49.5T151 171v535q0 26 10 26h31q11 0 13-5.5t2-27.5V129z"/><glyph glyph-name="K" unicode="K" horiz-adv-x="521" d="M489 18q14-18-4-18h-42q-3 0-5.5.5T433 3t-3.5 4-4.5 7-6 8L167 348l-22-27V22q0-14-1.5-18T134 0h-31Q93 0 91 5t-2 23v672q0 20 2.5 26t12.5 6h25q11 0 13.5-4t2.5-21V390l276 331q9 11 21 11h24q17 0 19.5-4t-5.5-12L205 383z"/><glyph glyph-name="L" unicode="L" horiz-adv-x="486" d="M468 15q0-11-1.5-13T455 0H105q-9 0-12.5 7T89 35v671q0 15 2.5 20.5T104 732h26q11 0 13-6t2-27V65q0-11 5-15t18-4h285q12 0 13.5-2t1.5-14V15z"/><glyph glyph-name="M" unicode="M" horiz-adv-x="756" d="M668 27q0-11-.5-15.5t-4-8T652 0h-20q-14 0-18 6.5T610 33v610q0 19-1 19t-13-18L413 344q-17-27-24-27h-27q-8 0-25 28L162 639q-11 18-13.5 17.5T146 637V26q0-14-3-20t-14-6h-17Q99 0 94.5 5.5T90 33v667q0 32 11 32h46q14 0 25-19l200-328q7-9 14-1l200 327q12 21 22 21h44q12 0 14-6.5t2-27.5V27z"/><glyph glyph-name="N" unicode="N" horiz-adv-x="693" d="M604 35q0-21-3.5-28T585 0h-41q-9 0-14 4.5T516 24L167 624q-9 16-13.5 20.5t-6.5 0-2-21.5V35q0-35-10-35h-28q-8 0-10.5.5t-5 7.5T89 30v670q0 32 13 32h37q9 0 14.5-.5t9-2.5 5-4l5-6.5 5.5-7.5 349-605q15-27 19-18 2 7 2 33v579q0 32 8 32h34q10 0 12-6.5t2-26.5V35z"/><glyph glyph-name="O" unicode="O" horiz-adv-x="677" d="M593 228q0-66-18.5-113.5t-43.5-71T468 6t-64-16.5-60-2.5q-44 0-84 8t-82.5 28-68 63T84 190v302q0 133 63 192t201 59q117 0 181-55t64-186V228zm-56-11v284q0 106-46.5 151T348 697q-113 0-160.5-46.5T140 493V189q0-43 18-75t48.5-49 65-24.5T345 33q33 0 56.5 2.5t51 13.5T497 79t28.5 54 11.5 84z"/><glyph glyph-name="P" unicode="P" horiz-adv-x="581" d="M535 522q0-108-56-170.5T321 289H159q-9 0-10.5-2.5T147 272V32q0-20-1.5-26T137 0h-34Q93 0 91 6t-2 22v678q0 16 2.5 21t15.5 5h194q124 0 179-53.5T535 522zm-59-3q0 90-41.5 128.5T298 686H163q-18 0-18-18V354q0-13 3.5-16t16.5-3h155q74 0 115 45t41 139z"/><glyph glyph-name="Q" unicode="Q" horiz-adv-x="677" d="M604-107l-9-25q-5-13-24-5-67 24-154 129-34-5-73-5-44 0-84 8t-82.5 28-68 63T84 190v302q0 133 63 192t201 59q117 0 181-55t64-186V228Q593 57 474 8q17-22 51-51t66-42q19-7 13-22zm-67 324v284q0 106-46.5 151T348 697q-113 0-160.5-46.5T140 493V189q0-43 18-75t48.5-49 65-24.5T345 33q33 0 56.5 2.5t51 13.5T497 79t28.5 54 11.5 84z"/><glyph glyph-name="R" unicode="R" horiz-adv-x="611" d="M535 536q0-75-47.5-128T385 346q-7-1-9-2t-2-3 3-8L531 35q8-15 9-23t-2-10-11-2h-35q-11 0-23 26L320 329q-5 10-19 10H159q-9 0-10.5-2.5T147 322V32q0-20-1.5-26T137 0h-34Q93 0 91 6t-2 22v678q0 16 2.5 21t15.5 5h166q262 0 262-196zm-59-3q0 153-200 153H163q-18-1-18-18V404q0-13 3.5-16t16.5-3h151q73 0 116.5 37.5T476 533z"/><glyph glyph-name="S" unicode="S" horiz-adv-x="574" d="M506 184q0-100-72.5-149T248-14Q118-14 50 27q-4 5-1.5 17T58 68t13 9l10-5q10-5 12.5-6t13-6 17-7l18-5.5 22-5.5 24-4 28-3 30.5-1q91 0 147 32.5T449 172q0 66-37 105.5T271 358q-98 38-145.5 85T78 571q0 68 57 120t176 52q98 0 161-22 8-5 7-16.5t-8.5-22T456 674q-58 21-140 21-99 0-140-33.5T135 565q0-60 38.5-94.5T311 398q110-42 152.5-94T506 184z"/><glyph glyph-name="T" unicode="T" horiz-adv-x="499" d="M490 691q0-8-17-8H303q-16 0-19.5-3t-3.5-16V25q0-12-.5-16t-3-6.5T267 0h-30q-9 0-11 5.5T224 33v631q0 13-3.5 16t-19.5 3H29q-18 0-18 8v31q0 6 3 8t16 2h440q20 0 20-7v-34z"/><glyph glyph-name="U" unicode="U" horiz-adv-x="640" d="M551 227q0-240-232-240-98 0-164 57.5T89 210v496q0 25 7 26h37q11 0 11-33V228q0-91 48-142.5T319 34q101 0 139 48t38 148v476q0 25 7 26h37q11 0 11-33V227z"/><glyph glyph-name="V" unicode="V" horiz-adv-x="586" d="M544 717L331 16q-3-10-6-13t-12-3h-37q-15 0-21 20L48 699q-10 33 3 33h37q11 0 15-10 1-2 5-16L295 74l189 632q11 25 14 26h38q12 0 8-15z"/><glyph glyph-name="W" unicode="W" horiz-adv-x="862" d="M824 717L611 16q-3-10-6-13t-12-3h-37q-15 0-21 20L433 353 331 16q-3-10-6-13t-12-3h-37q-15 0-21 20L48 699q-10 33 3 33h37q11 0 15-10 1-2 5-16L295 74l110 370-77 255q-10 33 3 33h37q11 0 15-10 1-2 5-16L575 74l189 632q11 25 14 26h38q12 0 8-15z"/><glyph glyph-name="X" unicode="X" horiz-adv-x="620" d="M553 0h-30q-17 0-38 35L310 319 134 35Q117 9 113.5 4.5T105 0H73Q59 0 59 5t11 23q2 2 3 4l34.5 56 67 108L250 318l31 48L72 705q-17 27 5 27h30q9 0 14.5-6t16.5-24q1-3 2-4l173-279 173 279q18 30 25 33 3 1 8 1h23q22 0 5-27L342 372 553 32q20-32 0-32z"/><glyph glyph-name="Y" unicode="Y" horiz-adv-x="568" d="M521 710L310 302V17q0-17-9-17h-37q-6 0-8 3.5T254 17v285L44 719q-6 13 6 13h36q8 0 16-15l182-356 184 357q7 14 19 14h29q11 0 11.5-5.5T521 710z"/><glyph glyph-name="Z" unicode="Z" horiz-adv-x="554" d="M511 15q0-10-4.5-12.5T484 0H56Q43 0 43 5v14q0 6 17 36l372 626H98q-21 0-28 5t-5 17l2 16q1 11 6 12 4 1 17 1h403q14 0 14-6v-13q0-4-24-47L119 50h362q21 0 25.5-2t4.5-10V15z"/><glyph glyph-name="bracketleft" unicode="[" horiz-adv-x="303" d="M257-88q0-12-16-12H101q-9 0-11.5 3.5T87-80v825q0 11 2.5 13.5T102 761h134q14 0 17.5-1t3.5-6v-29q0-7-4-9t-17-2h-78q-11 0-14-2.5t-3-12.5V-38q0-10 3-12.5t14-2.5h83q10 0 13-3.5t3-11.5v-20z"/><glyph glyph-name="backslash" unicode="\" horiz-adv-x="400" d="M373 32q5-10 7-16t2-9.5-3-5-8-1.5h-26q-8 0-12 5t-13 24L16 715q-12 25-7 27 2 1 7 1h22q14 0 18.5-5T69 716z"/><glyph glyph-name="bracketright" unicode="]" horiz-adv-x="303" d="M216-80q0-13-2.5-16.5T202-100H62q-16 0-16 12v20q0 8 3 11.5T62-53h83q11 0 14 2.5t3 12.5v737q0 10-3 12.5t-14 2.5H67q-13 0-17 2t-4 9v29q0 5 3.5 6t17.5 1h134q10 0 12.5-2.5T216 745V-80z"/><glyph glyph-name="asciicircum" unicode="^" horiz-adv-x="511" d="M431 386h-26q-3 0-5.5 1t-4 2-3.5 4.5l-3.5 6-4 8.5-4.5 10-122 256-122-256q-2-4-4-9t-3.5-7.5-3-5.5-2.5-4.5-3-3-4-2-5-.5H85q-4 0-6 1t-2.5 4 1.5 8.5 7 15.5l135 290q8 18 12 23t11 5h30q2 0 3-.5t2.5-.5 2.5-1 2-1.5 2-2.5l1.5-3 2-3.5 2.5-4.5 2.5-5.5 2.5-5.5 135-290q4-10 5.5-15.5t1.5-8.5-1.5-4-5.5-1z"/><glyph glyph-name="underscore" unicode="_" horiz-adv-x="388" d="M381-61q0-9-5.5-11T349-74H31q-15 0-18 2.5T10-58v22q0 9 3.5 10.5T30-24h322q20 0 24.5-2t4.5-9v-26z"/><glyph glyph-name="grave" unicode="`" horiz-adv-x="460" d="M316 597h-21q-12 0-25 14L148 748q-14 16-14 20t18 4h39q4 0 6.5-.5t4.5-1 3.5-1.5 3.5-3l3-3 3-4 3-5 97-135q16-22 1-22z"/><glyph glyph-name="a" unicode="a" horiz-adv-x="533" d="M457 32q0-20-3.5-26T440 0h-26q-7 0-9 4.5T403 29v51q-12-36-59-62.5T246-9q-84 0-135.5 67.5T59 267q0 124 45 203.5T237 550q116 0 165-93v64q0 17 12 17h23q14 0 17-5t3-22V32zm-54 114v204q0 49-40 103t-107 54q-68 0-104-49.5T116 291v-54q0-99 37-151.5T257 33q57 0 101.5 42.5T403 146z"/><glyph glyph-name="b" unicode="b" horiz-adv-x="536" d="M477 267q0-142-49-209T296-9Q188-9 134 58V29q-1-14-1.5-19.5t-3-7.5-7.5-2H96Q86 0 82.5 6T79 32v684q0 12 1 16.5t5 7.5 14 3h23q12 0 12-29V465q51 85 165 85 88 0 133-79.5T477 267zm-57-30v54q0 101-38 158.5T280 507q-69 0-108-47.5T133 357V131q0-25 43.5-61T277 34q68 0 105.5 52T420 237z"/><glyph glyph-name="c" unicode="c" horiz-adv-x="497" d="M457 483q4-6-4-17.5T434 450t-18 2q-43 54-126 54-76 0-125-49t-49-156v-74q0-105 48.5-149T289 34q79 0 125 57 7 6 16 1.5T446 78t3-14Q387-9 285-9 179-9 118.5 52.5T58 267q0 144 66 213.5T291 550q114 0 166-67z"/><glyph glyph-name="d" unicode="d" horiz-adv-x="533" d="M457 32q0-20-3.5-26T440 0h-26q-7 0-9 4.5T402 29v29Q348-9 240-9q-83 0-132 67T59 267q0 124 45 203.5T237 550q114 0 165-85v249q0 29 12 29h23q14 0 17-5t3-22V32zm-54 99v226q0 55-39 102.5T256 507q-64 0-102-57.5T116 291v-54q0-99 37.5-151T259 34q57 0 100.5 36t43.5 61z"/><glyph glyph-name="e" unicode="e" horiz-adv-x="521" d="M462 289q0-19-6-28t-24-9H111q0-216 174-216 76 0 135 28 27 14 27-3V30.5l-.5-3L445 25l-2-2-2.5-2-3-1.5L433 18l-5-2-6.5-2.5L414 11Q362-9 292-9q-53 0-92.5 12T127 43.5t-50.5 84T59 264q0 141 54 213.5T264 550q91 0 144.5-53T462 332v-43zm-50 19q-2 105-37 152.5T265 508q-72 0-112.5-55T110 309v-8.5l1-4.5 4-3.5 8-.5h278q7 0 9 2.5t2 13.5z"/><glyph glyph-name="f" unicode="f" horiz-adv-x="297" d="M271 490q0-8-19-8h-76V20q0-20-15-20h-23q-17 0-17 17v465H61q-10 0-12 1.5t-2 9.5v18q0 11 9 11h59q-23 46-23 98 0 55 25.5 89t77.5 34q44 0 72-10 3-3 3-12.5t-4-20-8-9.5q-40 10-60 10-25 0-40.5-21T142 622q0-54 28-100h79q22 0 22-8v-24z"/><glyph glyph-name="g" unicode="g" horiz-adv-x="533" d="M457 82q0-152-40.5-224T273-214q-72 0-135 15-17 4-22.5 7.5T110-178v27q0 3 1 5t2.5 2.5 3.5.5 5-1 6-1.5 7.5-2l7.5-2.5q79-22 127-22 70 0 99.5 47.5T403 37v30Q342-9 240-9q-83 0-132 67T59 267q0 124 45 203.5T237 550q56 0 94.5-16t70.5-57v15q0 29 1.5 37.5T414 538h23q14 0 17-5t3-22V82zm-54 59v216q0 55-39 102.5T256 507q-64 0-102-57.5T116 291v-54q0-99 37.5-151T259 34q57 0 100.5 39.5T403 141z"/><glyph glyph-name="h" unicode="h" horiz-adv-x="530" d="M454 41q0-27-2-34t-12-7h-27q-9 0-11 6.5T400 33v348q0 56-30 91t-93 35q-65 0-106-48.5T130 357V29q0-20-2-24.5T119 0H93Q82 0 79 5t-3 24v676q0 12 1 16.5t5 7.5 14 3h23q12 0 12-31V467q29 43 65.5 63t99.5 20q158 0 158-172V41z"/><glyph glyph-name="i" unicode="i" horiz-adv-x="206" d="M130 683q0-20-2-24.5t-9-4.5H93q-10 0-13.5 6T76 686v19q0 12 1 16.5t5 7.5 14 3h22q9 0 10.5-3.5T130 712v-29zm0-654q0-20-2-24.5T119 0H86q-6 0-8 5t-2 24v482q0 12 1 16.5t5 7.5 14 3h22q8 0 10-5t2-23V29z"/><glyph glyph-name="j" unicode="j" horiz-adv-x="218" d="M142 683q0-20-2-24.5t-9-4.5h-26q-10 0-13.5 6T88 686v19q0 12 1 16.5t5 7.5 14 3h22q9 0 10.5-3.5T142 712v-29zm0-780q0-117-83-117-36 0-73 13-3 3-2 13.5t5.5 21.5 8.5 10q30-8 58-8 32 0 32 70v605q0 12 1 16.5t5 7.5 14 3h22q9 0 10.5-3.5T142 518V-97z"/><glyph glyph-name="k" unicode="k" horiz-adv-x="448" d="M408 15q7-11 5.5-13T404 0h-40q-8 0-27 22L130 261V29q0-20-2-24.5T119 0H93Q83 0 79.5 6T76 32v684q0 12 1 16.5t5 7.5 14 3h22q9 0 10.5-3.5T130 723V292l210 232q12 14 16 14h44q15 0 2-15-2-4-6-8L183 280z"/><glyph glyph-name="l" unicode="l" horiz-adv-x="206" d="M130 29q0-20-2-24.5T119 0H93Q83 0 79.5 6T76 32v684q0 12 1 16.5t5 7.5 14 3h22q9 0 10.5-3.5T130 723V29z"/><glyph glyph-name="m" unicode="m" horiz-adv-x="792" d="M716 41q0-27-2-34t-12-7h-27q-9 0-11 6.5T662 33v348q0 60-22.5 93T556 507q-103 0-132-133V41q0-27-2-34t-12-7h-27q-9 0-11 6.5T370 33v348q0 60-22.5 93T264 507q-68 0-101-46.5T130 357V29q0-20-2-24.5T119 0H93Q83 0 79.5 6T76 32v479q0 12 1 16.5t5 7.5 14 3h23q9 0 10.5-8.5T131 492v-15q24 40 56 56.5t85 16.5 85-21.5 53-72.5q55 94 154 94 152 0 152-172V41z"/><glyph glyph-name="n" unicode="n" horiz-adv-x="530" d="M454 41q0-27-2-34t-12-7h-27q-9 0-11 6.5T400 33v348q0 56-30 90.5T277 506q-69 0-108-47t-39-102V29q0-20-2-24.5T119 0H93Q83 0 79.5 6T76 32v479q0 12 1 16.5t5 7.5 14 3h23q8 0 10-12t2-45v-15q51 84 165 84 158 0 158-172V41z"/><glyph glyph-name="o" unicode="o" horiz-adv-x="570" d="M511 269q0-130-64-204T285-9Q179-9 119 52.5T59 267q0 144 65.5 213.5T291 550q112 0 166-67t54-214zm-56-24v64q0 93-40 145t-125 52q-76 0-125-49t-49-156v-74q0-105 48.5-149T289 34q75 0 120.5 55.5T455 245z"/><glyph glyph-name="p" unicode="p" horiz-adv-x="536" d="M477 267q0-142-49-209T296-9Q188-9 134 58v-243q-1-14-1.5-19.5t-3-7.5-7.5-2H96q-10 0-13.5 6T79-182v693q0 12 1 16.5t5 7.5 14 3h23q12 0 12-29v-44q29 45 66.5 65t95.5 20q90 0 135.5-79T477 267zm-57-30v54q0 101-38 158.5T280 507q-69 0-108-47.5T133 357V137q0-26 43.5-64.5T277 34q68 0 105.5 52T420 237z"/><glyph glyph-name="q" unicode="q" horiz-adv-x="533" d="M457-191q0-14-3-18.5t-14-4.5h-26q-8 0-10 3t-2 16V58Q348-9 240-9q-83 0-132 67T59 267q0 124 45 203.5T237 550q114 0 165-85v44q0 29 12 29h23q14 0 17-5t3-22v-702zm-54 322v226q0 55-39 102.5T256 507q-64 0-102-57.5T116 291v-54q0-99 37.5-151T259 34q57 0 100.5 36t43.5 61z"/><glyph glyph-name="r" unicode="r" horiz-adv-x="324" d="M306 535l-5-30q-2-12-11-12-49 0-83-24-35-24-56-52.5T130 363V29q0-20-2-24.5T119 0H93Q83 0 79.5 6T76 32v479q0 12 1 16.5t5 7.5 14 3h23q12 0 12-25v-67q28 48 73 72.5t90 24.5h5l4-1 2.5-2.5.5-4.5z"/><glyph glyph-name="s" unicode="s" horiz-adv-x="428" d="M371 125Q371-9 202-9 113-9 55 23q-4 4-3.5 15T58 59t13 7q61-29 128-29 119 0 119 92 0 41-29.5 75.5T193 274q-67 36-100 69.5T60 421q0 61 45.5 95T218 550q39 0 77-6t50-11q3-1-.5-13t-10-22-11.5-8q-48 17-100 17-111 0-111-87 0-29 30-54t88-57q80-44 110.5-84T371 125z"/><glyph glyph-name="t" unicode="t" horiz-adv-x="342" d="M305 485q0-8-22-8H174V97q0-30 12.5-47.5T221 32q36 0 68 8 2 1 4-3t3.5-10 1.5-12-1-10.5-3-5.5q-23-8-77-8-98 0-98 123v363H60q-9 0-9 11v23q0 8 2 9.5t12 1.5h54v115q0 7 2 10.5t4.5 4.5 10.5 2l17 5q21 3 21-20V522h112q19 0 19-8v-29z"/><glyph glyph-name="u" unicode="u" horiz-adv-x="530" d="M454 27q0-12-1-16.5T448 3t-14-3h-23q-8 0-10 11.5T399 55v15Q338-9 234-9q-69 0-113.5 41.5T76 160v353q0 18 2 21.5t12 3.5h27q9 0 11-6.5t2-26.5V157q0-56 29.5-90T252 33q67 0 107.5 47.5T400 181v328q0 20 2 24.5t9 4.5h26q10 0 13.5-6t3.5-26V27z"/><glyph glyph-name="v" unicode="v" horiz-adv-x="475" d="M447 517L265 17q-3-9-7-12.5t-6.5-4T240 0h-19q-17 0-22 15L30 522q-6 16 14 16h24q11 0 15-14 1-1 1-2L237 75l161 447q6 16 15 16h28q10 0 10.5-4t-4.5-17z"/><glyph glyph-name="w" unicode="w" horiz-adv-x="566" d="M543 517L411 17q-3-9-7-12.5t-6.5-4T386 0h-19q-17 0-22 15l-63 270-71-268q-3-9-7-12.5t-6.5-4T186 0h-19q-17 0-22 15L26 522q-6 16 14 16h21q11 0 15-14 1-1 1-2L183 71l76 310-33 141q-6 16 14 16h21q11 0 15-14 1-1 1-2L383 71l114 451q6 16 15 16h25q10 0 10.5-4t-4.5-17z"/><glyph glyph-name="x" unicode="x" horiz-adv-x="408" d="M375 0h-34.5L335 2.5l-7 7-9 14.5-114 197L91 23Q69 1 65 0H38q-9 0-6 7 2 6 11 22l137 236L37 511q-10 15-9.5 21t14.5 6h27q10 0 13.5-4T97 510l110-193 111 193q1 3 3.5 7l3.5 5.5 3 4.5 2.5 4 2 3 3 2 3 1 3.5 1h23q14 0 14.5-6t-9.5-21L232 274 375 29q17-29 0-29z"/><glyph glyph-name="y" unicode="y" horiz-adv-x="484" d="M447 517L206-183q-3-9-7-12.5t-6.5-4-11.5-.5h-22q-2 0-4 1.5t-3.5 5.5.5 10L209-7 30 522q-6 16 14 16h24q11 0 15-14 1-1 1-2L241 69l157 453q6 16 15 16h28q10 0 10.5-4t-4.5-17z"/><glyph glyph-name="z" unicode="z" horiz-adv-x="436" d="M403 11q0-8-2.5-9.5T387 0H58Q32 0 29 13t12 35l279 446H58q-11 0-14 2t-3 10v22q0 10 12 10h310q25 0 29-6t-10-29L94 44h290q19 0 19-14V11z"/><glyph glyph-name="braceleft" unicode="{" horiz-adv-x="353" d="M292-92q0-8-11-8h-47q-105 0-89 135l20 165q5 42-23.5 72T65 308q-14 2-14 13v47q0 10 14 12 46 6 76 35t24 69l-20 138q-20 139 110 139h26q11 0 11-6v-35q0-6-10-6h-29q-25 0-41.5-15T198 655l22-185q5-48-31.5-84T105 345q46-6 83-46.5t32-90.5L200 21q-8-74 48-74h37q7 0 7-7v-32z"/><glyph glyph-name="bar" unicode="|" horiz-adv-x="206" d="M130-165q0-20-2-24.5t-9-4.5H93q-10 0-13.5 6T76-162v930q0 12 1 16.5t5 7.5 14 3h22q9 0 10.5-3.5T130 775v-940z"/><glyph glyph-name="braceright" unicode="}" horiz-adv-x="353" d="M300 321q0-11-14-13-48-6-76.5-36T186 200l20-165q16-135-89-135H70q-11 0-11 8v32q0 7 7 7h37q56 0 48 74l-20 187q-5 50 32 90.5t83 46.5q-47 5-83.5 41T131 470l22 185q3 29-13.5 44T98 714H69q-10 0-10 6v35q0 6 11 6h26q130 0 110-139l-20-138q-6-40 24-69t76-35q14-2 14-12v-47z"/><glyph glyph-name="asciitilde" unicode="~" horiz-adv-x="511" d="M431 302q-28-43-50-60t-55-17q-25 0-74 31.5T186 288q-28 0-60-45-8-11-14-6l-21 18q-5 4 0 12 46 65 98 65 22 0 72-31.5t68-31.5q34 0 62 54 6 10 13 5l26-13q7-4 1-13z"/><glyph glyph-name="nbspace" horiz-adv-x="108"/><glyph glyph-name="exclamdown" unicode="¡" horiz-adv-x="233" d="M86 28l12 460q0 20 2 24.5t9 4.5h14q10 0 13.5-6t3.5-26l12-458q0-12-1-16.5T146 3t-14-3H98q-9 0-10.5 3.5T86 20v8zM74 705v8l1 7 2.5 6.5L83 730l9 2h47q24 0 24-25v-39q0-20-15-20H97q-15 0-19 3.5T74 664v41z"/><glyph glyph-name="cent" unicode="¢" horiz-adv-x="562" d="M482 483q4-6-4-17.5T459 450t-18 2q-43 54-126 54-76 0-125-49t-49-156v-74q0-105 48.5-149T314 34q79 0 125 57 7 6 16 1.5T471 78t3-14Q422 3 339-7v-57q0-20-2-24.5t-9-4.5h-26q-10 0-13.5 6T285-61v53q-95 6-148.5 69T83 267q0 132 56 201.5T285 548v56q0 12 1 16.5t5 7.5 14 3h22q9 0 10.5-3.5T339 611v-62q96-6 143-66z"/><glyph glyph-name="sterling" unicode="£" horiz-adv-x="533" d="M480 11q0-12-40-18.5T359-14q-37 0-100 6.5T182-1q-54 0-80-6-14-4-17 5.5T88 24q59 173 60 308H85q-15 0-18 2.5T64 348v18q0 9 3.5 10.5T84 378h62q-2 20-11 74t-9 81q0 95 46.5 152.5T308 743q101 0 166-51 4-6 1-16.5t-11-19-13-4.5q-64 46-143 46-61 0-95-41t-34-124q0-26 10-82t11-73h109q20 0 24.5-2t4.5-9v-22q0-9-5.5-11t-26.5-2H202q-1-149-46-276-3-6 0-9t14-3q28 0 87.5-5.5T359 33q68 0 105 17 10 4 13 1t3-14V11z"/><glyph glyph-name="currency" unicode="¤" horiz-adv-x="595" d="M84 403H55q-15 0-18 2.5T34 419v16q0 9 3.5 10.5T54 447h30v45q0 138 50.5 194.5T321 743q104 0 168-44 6-4-7-24t-18-18q-4 2-18 9.5T422.5 678t-25.5 9.5-35.5 8T320 698q-110 0-145-44.5T140 493v-46h177q20 0 24.5-2t4.5-9v-20q0-9-4.5-11t-23.5-2H140v-82h177q20 0 24.5-2t4.5-9v-20q0-9-4.5-11t-23.5-2H140v-88q0-157 175-157 24 0 46 3t40.5 9l30 10L458 65l17 8q6 2 10-9.5t3.5-25T484 23q-64-36-170-36Q84-13 84 189v88H55q-15 0-18 2.5T34 293v16q0 9 3.5 10.5T54 321h30v82z"/><glyph glyph-name="yen" unicode="¥" horiz-adv-x="568" d="M521 710L310 302v-92h97q20 0 24.5-2t4.5-9v-20q0-9-5.5-11t-26.5-2h-94V17q0-17-9-17h-37q-6 0-8 3.5T254 17v149H150q-15 0-18 2.5t-3 13.5v16q0 9 3.5 10.5T149 210h105v92L44 719q-6 13 6 13h36q8 0 16-15l184-360 186 361q7 14 19 14h25q11 0 11.5-5.5T521 710z"/><glyph glyph-name="brokenbar" unicode="¦" d="M719 72H8v564h711V72zm-86 456q4 11-11 11h-31q-6 0-10-9 0-3-1-4l-82-276-83 276q-7 12-12 13h-38q-4 0-6-.5t-4-2-1.5-4.5l1.5-9 101-331q3-12 15-12h45q11 0 14 11zM363 196L263 523q-4 16-18 16h-40q-12 0-18-16L88 196q-5-16 3-16h35q7 0 9 2t4 11l22 75h119l23-75q1-5 1.5-6.5t1.5-3.5 3-2.5 5-.5h39q8 0 10 2t0 14zm-95 109h-96l49 164z"/><glyph glyph-name="section" unicode="§" horiz-adv-x="468" d="M400 318q0-55-33-88.5T291 190q95-69 95-150 0-66-51.5-100T217-94q-69 0-127 32-4 4-3.5 15T93-26t13 7q1-1 12-6.5t17.5-8T155-40t27.5-6 31.5-2q56 0 87.5 25.5T333 44q0 77-132 143Q75 249 75 336q0 59 45.5 96.5T226 464q-56 29-96.5 68T89 614q0 61 45.5 95T247 743q39 0 77-6t50-11q3-1-.5-13t-10-22-11.5-8q-48 17-100 17-111 0-111-87 0-20 20-42t42-37.5 61-39.5q72-44 104-82t32-94zm-53 4q0 42-34 72t-92 30q-44 0-69-25t-25-64q0-35 39-70t92-35q41 0 65 23t24 69z"/><glyph glyph-name="dieresis" unicode="¨" horiz-adv-x="460" d="M338 669v-8l-1-7-2.5-6.5-5.5-3.5-9-2h-30q-24 0-24 25v39q0 20 15 20h34q15 0 19-3.5t4-12.5v-41zm-201-7q0-20-15-20H88q-15 0-19 3.5T65 658v49l1 7 2.5 6.5L74 724l9 2h30q24 0 24-25v-39z"/><glyph glyph-name="copyright" unicode="©" horiz-adv-x="760" d="M735 357q0-149-103.5-253T380 0 128.5 104 25 357t103.5 253T380 714t251.5-104T735 357zm-41 0q0 135-92 227.5T380 677t-222-92.5T66 357q0-134 92-227t222-93 222 93 92 227zM478 522q1-1 .5-4.5T476 509t-4-9-4-7-3-2q-40 20-69 20-52 0-73.5-22T301 423V267q0-71 90-71 13 0 24 1.5t20.5 4 15 5l12 5.5 8.5 4 3-3q7-14 3-27-1-2-2-2-32-19-86-19-57 0-91.5 26.5T263 268v156q0 56 28.5 88T395 544q48 0 83-22z"/><glyph glyph-name="ordfeminine" unicode="ª" horiz-adv-x="410" d="M336 378q0-14-2-18.5t-9-4.5h-25q-5 0-6 3t-1 17v36q-9-25-41.5-43.5T183 349q-59 0-95 47T52 542q0 87 31.5 142.5T177 740q80 0 115-65v45q0 12 8 12h22q10 0 12-3.5t2-15.5V378zm-43 104v112q0 34-30 72t-73 38q-92 0-92-145v-38q0-61 25-99t68-38q39 0 70.5 31.5T293 482z"/><glyph glyph-name="guillemotleft" unicode="«" horiz-adv-x="541" d="M245 127q11-16-4-23l-22-12q-12-7-23 9L40 320l149 217q14 22 27 12l20-15q11-9-1-27L105 320zm200 0q11-16-4-23l-22-12q-12-7-23 9L240 320l149 217q14 22 27 12l20-15q11-9-1-27L305 320z"/><glyph glyph-name="logicalnot" unicode="¬" d="M719 72H8v564h711V72zm-86 456q4 11-11 11h-31q-6 0-10-9 0-3-1-4l-82-276-83 276q-7 12-12 13h-38q-4 0-6-.5t-4-2-1.5-4.5l1.5-9 101-331q3-12 15-12h45q11 0 14 11zM363 196L263 523q-4 16-18 16h-40q-12 0-18-16L88 196q-5-16 3-16h35q7 0 9 2t4 11l22 75h119l23-75q1-5 1.5-6.5t1.5-3.5 3-2.5 5-.5h39q8 0 10 2t0 14zm-95 109h-96l49 164z"/><glyph glyph-name="registered" unicode="®" horiz-adv-x="760" d="M735 357q0-149-103.5-253T380 0 128.5 104 25 357t103.5 253T380 714t251.5-104T735 357zm-41 0q0 135-92 227.5T380 677t-222-92.5T66 357q0-134 92-227t222-93 222 93 92 227zM520 191q13-19-2-19h-28q-4 0-11 13L379 328q-3 5-9 5h-46q-4 0-5-1.5t-1-8.5V188q0-16-5-16h-27q-7 0-7 15v338q0 6 .5 8.5t2 3.5 6.5 1h93q121 0 121-103 0-43-26-69t-49-31q-7-1-4-5zm-58 244q0 37-19 53.5T382 505h-56q-9 1-9-9V374q0-6 1.5-7t8.5-1h68q67 0 67 69z"/><glyph glyph-name="macron" unicode="¯" horiz-adv-x="460" d="M398 679q0-9-5.5-11t-26.5-2H112q-15 0-18 2.5T91 682v19q0 9 3.5 10.5T111 713h258q20 0 24.5-2t4.5-9v-23z"/><glyph glyph-name="degree" unicode="°" horiz-adv-x="433" d="M336 618q0-50-36.5-86.5T213 495t-86.5 36.5T90 618t36.5 86.5T213 741t86.5-36.5T336 618zm-50 0q0 31-21.5 55T213 697t-51.5-24-21.5-55 21.5-55 51.5-24 51.5 24 21.5 55z"/><glyph glyph-name="plusminus" unicode="±" horiz-adv-x="750" d="M520 490q0-8-19-8h-76V20q0-20-15-20h-23q-17 0-17 17v465H176V20q0-20-15-20h-23q-17 0-17 17v465H61q-10 0-12 1.5t-2 9.5v18q0 11 9 11h59q-23 46-23 98 0 55 25.5 89t77.5 34q44 0 72-10 3-3 3-12.5t-4-20-8-9.5q-40 10-60 10-25 0-40.5-21T142 622q0-54 28-100h194q-23 46-23 98 0 55 25.5 89t77.5 34q44 0 72-10 3-3 3-12.5t-4-20-8-9.5q-40 10-60 10-25 0-40.5-21T391 622q0-54 28-100h84q17 0 17-9v-23zM674 29q0-20-2-24.5T663 0h-26q-10 0-13.5 6T620 32v684q0 12 1 16.5t5 7.5 14 3h22q9 0 10.5-3.5T674 723V29z"/><glyph glyph-name="twosuperior" unicode="²" d="M719 72H8v564h711V72zm-86 456q4 11-11 11h-31q-6 0-10-9 0-3-1-4l-82-276-83 276q-7 12-12 13h-38q-4 0-6-.5t-4-2-1.5-4.5l1.5-9 101-331q3-12 15-12h45q11 0 14 11zM363 196L263 523q-4 16-18 16h-40q-12 0-18-16L88 196q-5-16 3-16h35q7 0 9 2t4 11l22 75h119l23-75q1-5 1.5-6.5t1.5-3.5 3-2.5 5-.5h39q8 0 10 2t0 14zm-95 109h-96l49 164z"/><glyph glyph-name="threesuperior" unicode="³" d="M719 72H8v564h711V72zm-86 456q4 11-11 11h-31q-6 0-10-9 0-3-1-4l-82-276-83 276q-7 12-12 13h-38q-4 0-6-.5t-4-2-1.5-4.5l1.5-9 101-331q3-12 15-12h45q11 0 14 11zM363 196L263 523q-4 16-18 16h-40q-12 0-18-16L88 196q-5-16 3-16h35q7 0 9 2t4 11l22 75h119l23-75q1-5 1.5-6.5t1.5-3.5 3-2.5 5-.5h39q8 0 10 2t0 14zm-95 109h-96l49 164z"/><glyph glyph-name="acute" unicode="´" horiz-adv-x="460" d="M318 748L196 611q-13-14-25-14h-21q-15 0 1 22l97 135q1 2 3.5 5.5t3.5 4.5 3.5 3 4 3 5 1.5 7.5.5h39q18 0 18-4t-14-20z"/><glyph glyph-name="mu" unicode="µ" d="M719 72H8v564h711V72zm-86 456q4 11-11 11h-31q-6 0-10-9 0-3-1-4l-82-276-83 276q-7 12-12 13h-38q-4 0-6-.5t-4-2-1.5-4.5l1.5-9 101-331q3-12 15-12h45q11 0 14 11zM363 196L263 523q-4 16-18 16h-40q-12 0-18-16L88 196q-5-16 3-16h35q7 0 9 2t4 11l22 75h119l23-75q1-5 1.5-6.5t1.5-3.5 3-2.5 5-.5h39q8 0 10 2t0 14zm-95 109h-96l49 164z"/><glyph glyph-name="mu" unicode="μ" d="M719 72H8v564h711V72zm-86 456q4 11-11 11h-31q-6 0-10-9 0-3-1-4l-82-276-83 276q-7 12-12 13h-38q-4 0-6-.5t-4-2-1.5-4.5l1.5-9 101-331q3-12 15-12h45q11 0 14 11zM363 196L263 523q-4 16-18 16h-40q-12 0-18-16L88 196q-5-16 3-16h35q7 0 9 2t4 11l22 75h119l23-75q1-5 1.5-6.5t1.5-3.5 3-2.5 5-.5h39q8 0 10 2t0 14zm-95 109h-96l49 164z"/><glyph glyph-name="paragraph" unicode="¶" horiz-adv-x="557" d="M467-143q0-30-5-33-2-2-7-2h-27q-13 0-13 11v837q0 13-9 13h-36q-11 0-11-13v-837q0-11-13-11h-21q-11 0-14.5 3t-3.5 13v406q0 27-24 27-32 0-66.5 13t-67 38.5-53 70T76 493q0 114 79.5 176.5T366 732h65q21 0 28.5-6t7.5-20v-849z"/><glyph glyph-name="periodcentered" unicode="·" horiz-adv-x="207" d="M150 279v-8l-1-7-2.5-6.5-5.5-3.5-9-2H85q-24 0-24 25v39q0 20 15 20h51q15 0 19-3.5t4-12.5v-41z"/><glyph glyph-name="cedilla" unicode="¸" horiz-adv-x="460" d="M334-118q0-36-30.5-57.5T224-197q-43 0-68 19-5 5-2.5 14t8.5 16.5 9 4.5q20-17 52-17 64 0 64 40 0 26-14.5 36T227-74h-15q-10 0-10 5v85h48v-57q38 0 61-19.5t23-57.5z"/><glyph glyph-name="onesuperior" unicode="¹" d="M719 72H8v564h711V72zm-86 456q4 11-11 11h-31q-6 0-10-9 0-3-1-4l-82-276-83 276q-7 12-12 13h-38q-4 0-6-.5t-4-2-1.5-4.5l1.5-9 101-331q3-12 15-12h45q11 0 14 11zM363 196L263 523q-4 16-18 16h-40q-12 0-18-16L88 196q-5-16 3-16h35q7 0 9 2t4 11l22 75h119l23-75q1-5 1.5-6.5t1.5-3.5 3-2.5 5-.5h39q8 0 10 2t0 14zm-95 109h-96l49 164z"/><glyph glyph-name="ordmasculine" unicode="º" horiz-adv-x="433" d="M379 539q0-96-44-145.5T221 344q-74 0-116 43T63 538q0 100 46 149t116 49q72 0 113-48.5T379 539zm-45-17v45q0 63-28 97.5T225 699q-52 0-84-34t-32-104v-51q0-67 32-98t83-31 80.5 38.5T334 522z"/><glyph glyph-name="guillemotright" unicode="»" horiz-adv-x="541" d="M303 320L147 101q-11-16-23-9l-22 12q-15 7-4 23l140 193-130 187q-12 18-1 27l20 15q13 10 27-12zm200 0L347 101q-11-16-23-9l-22 12q-15 7-4 23l140 193-130 187q-12 18-1 27l20 15q13 10 27-12z"/><glyph glyph-name="onequarter" unicode="¼" d="M719 72H8v564h711V72zm-86 456q4 11-11 11h-31q-6 0-10-9 0-3-1-4l-82-276-83 276q-7 12-12 13h-38q-4 0-6-.5t-4-2-1.5-4.5l1.5-9 101-331q3-12 15-12h45q11 0 14 11zM363 196L263 523q-4 16-18 16h-40q-12 0-18-16L88 196q-5-16 3-16h35q7 0 9 2t4 11l22 75h119l23-75q1-5 1.5-6.5t1.5-3.5 3-2.5 5-.5h39q8 0 10 2t0 14zm-95 109h-96l49 164z"/><glyph glyph-name="onehalf" unicode="½" d="M719 72H8v564h711V72zm-86 456q4 11-11 11h-31q-6 0-10-9 0-3-1-4l-82-276-83 276q-7 12-12 13h-38q-4 0-6-.5t-4-2-1.5-4.5l1.5-9 101-331q3-12 15-12h45q11 0 14 11zM363 196L263 523q-4 16-18 16h-40q-12 0-18-16L88 196q-5-16 3-16h35q7 0 9 2t4 11l22 75h119l23-75q1-5 1.5-6.5t1.5-3.5 3-2.5 5-.5h39q8 0 10 2t0 14zm-95 109h-96l49 164z"/><glyph glyph-name="threequarters" unicode="¾" d="M719 72H8v564h711V72zm-86 456q4 11-11 11h-31q-6 0-10-9 0-3-1-4l-82-276-83 276q-7 12-12 13h-38q-4 0-6-.5t-4-2-1.5-4.5l1.5-9 101-331q3-12 15-12h45q11 0 14 11zM363 196L263 523q-4 16-18 16h-40q-12 0-18-16L88 196q-5-16 3-16h35q7 0 9 2t4 11l22 75h119l23-75q1-5 1.5-6.5t1.5-3.5 3-2.5 5-.5h39q8 0 10 2t0 14zm-95 109h-96l49 164z"/><glyph glyph-name="questiondown" unicode="¿" horiz-adv-x="429" d="M66 155q0 39 16.5 76t40 64.5l47 53 40 50.5 16.5 47v50q0 16 8 16h35q6 0 8.5-1t3.5-5.5 1-13.5q3-46-5-74-7-25-33.5-58T190 300t-48.5-64-21.5-72q0-63 31-96.5T238 34q27 0 59 13.5T348 77q2 2 11-6t14.5-18.5.5-14.5q-69-49-135-49-78 0-125.5 45.5T66 155zm140 550v8l1 7 2.5 6.5 5.5 3.5 9 2h47q24 0 24-25v-39q0-20-15-20h-51q-15 0-19 3.5t-4 12.5v41z"/><glyph glyph-name="Agrave" unicode="À" horiz-adv-x="591" d="M541 33q6-15 4.5-22.5t-4.5-9-9-1.5h-33q-4 0-6 .5T489.5 2 487 5.5t-1.5 4.5-2 7-2.5 9l-56 184H163L108 26q-5-17-8-21.5T89 0H54q-4 0-5.5.5t-1.5 4 1.5 9.5T54 33l203 667q6 18 11.5 25t17.5 7h23q12 0 17.5-7t11.5-25zM412 255L295 657 177 255h235zm-86 522h-21q-12 0-25 14L158 928q-14 16-14 20t18 4h39q4 0 6.5-.5t4.5-1 3.5-1.5 3.5-3l3-3 3-4 3-5 97-135q16-22 1-22z"/><glyph glyph-name="Aacute" unicode="Á" horiz-adv-x="591" d="M541 33q6-15 4.5-22.5t-4.5-9-9-1.5h-33q-4 0-6 .5T489.5 2 487 5.5t-1.5 4.5-2 7-2.5 9l-56 184H163L108 26q-5-17-8-21.5T89 0H54q-4 0-5.5.5t-1.5 4 1.5 9.5T54 33l203 667q6 18 11.5 25t17.5 7h23q12 0 17.5-7t11.5-25zM412 255L295 657 177 255h235zm31 673L321 791q-13-14-25-14h-21q-15 0 1 22l97 135q1 2 3.5 5.5t3.5 4.5 3.5 3 4 3 5 1.5 7.5.5h39q18 0 18-4t-14-20z"/><glyph glyph-name="Acircumflex" unicode="Â" horiz-adv-x="591" d="M541 33q6-15 4.5-22.5t-4.5-9-9-1.5h-33q-4 0-6 .5T489.5 2 487 5.5t-1.5 4.5-2 7-2.5 9l-56 184H163L108 26q-5-17-8-21.5T89 0H54q-4 0-5.5.5t-1.5 4 1.5 9.5T54 33l203 667q6 18 11.5 25t17.5 7h23q12 0 17.5-7t11.5-25zM412 255L295 657 177 255h235zm16 522h-16q-14 0-22 10l-90 118-89-118q-7-10-23-10h-16q-15 0 1 22l87 135q1 2 3.5 5.5t3.5 4.5 3.5 3 4 3 5 1.5 7.5.5h26q4 0 6.5-.5t4.5-1 3.5-1.5 3.5-3l3-3 3-4 3-5 87-135q16-22 1-22z"/><glyph glyph-name="Atilde" unicode="Ã" horiz-adv-x="591" d="M541 33q6-15 4.5-22.5t-4.5-9-9-1.5h-33q-4 0-6 .5T489.5 2 487 5.5t-1.5 4.5-2 7-2.5 9l-56 184H163L108 26q-5-17-8-21.5T89 0H54q-4 0-5.5.5t-1.5 4 1.5 9.5T54 33l203 667q6 18 11.5 25t17.5 7h23q12 0 17.5-7t11.5-25zM412 255L295 657 177 255h235zm63 634q-27-42-50.5-58.5T368 814q-25 0-73 30.5T230 875q-27 0-60-45-8-11-14-6l-21 18q-5 4 0 12 46 65 98 65 22 0 72-31.5t68-31.5q38 0 65 51 6 10 13 5l23-10q7-4 1-13z"/><glyph glyph-name="Adieresis" unicode="Ä" horiz-adv-x="591" d="M541 33q6-15 4.5-22.5t-4.5-9-9-1.5h-33q-4 0-6 .5T489.5 2 487 5.5t-1.5 4.5-2 7-2.5 9l-56 184H163L108 26q-5-17-8-21.5T89 0H54q-4 0-5.5.5t-1.5 4 1.5 9.5T54 33l203 667q6 18 11.5 25t17.5 7h23q12 0 17.5-7t11.5-25zM412 255L295 657 177 255h235zm19 594v-8l-1-7-2.5-6.5-5.5-3.5-9-2h-30q-24 0-24 25v39q0 20 15 20h34q15 0 19-3.5t4-12.5v-41zm-201-7q0-20-15-20h-34q-15 0-19 3.5t-4 12.5v49l1 7 2.5 6.5 5.5 3.5 9 2h30q24 0 24-25v-39z"/><glyph glyph-name="Aring" unicode="Å" horiz-adv-x="591" d="M541 33q6-15 4.5-22.5t-4.5-9-9-1.5h-33q-4 0-6 .5T489.5 2 487 5.5t-1.5 4.5-2 7-2.5 9l-56 184H163L108 26q-5-17-8-21.5T89 0H54q-4 0-5.5.5t-1.5 4 1.5 9.5T54 33l203 667q6 18 11.5 25t17.5 7h23q12 0 17.5-7t11.5-25zM412 255L295 657 177 255h235zm-6 633q0-42-31.5-72.5T300 785t-74.5 30.5T194 888t31.5 72.5T300 991t74.5-30.5T406 888zm-40 0q0 27-19 48t-47 21-47-21-19-48 18.5-48 47.5-21q28 0 47 21t19 48z"/><glyph glyph-name="AE" unicode="Æ" horiz-adv-x="843" d="M793 13q0-13-21-13H434q-10 0-13.5 5.5T417 26v169q0 16-16 16H196L107 26Q95 0 79 0H56q-18 0-6 26l329 674 5.5 11.5 4.5 9.5 4 5.5 6.5 4.5 8.5 1h346q24 0 26-3 1-2 1-8v-25q0-10-40-10H496q-26 0-26-16V432q0-15 4-19t18-4h211q21 0 26-2t3-11l-6-23q0-2-1.5-3.5l-3-3-3.5-2-5-1-5-1-6-.5H500q-18 0-23-4.5t-5-18.5V70q0-16 4.5-19t17.5-3h276q13 0 18-3t5-13V13zM417 267v409L218 253h183q11 0 13.5 2.5T417 267z"/><glyph glyph-name="Ccedilla" unicode="Ç" horiz-adv-x="571" d="M514 699q6-4-7-24t-18-18l-15 8q-16 8-24 11.5t-25 9.5-35 8.5-39 2.5q-121 0-166-50.5T140 501V189q0-45 19.5-77.5T211 63t63.5-23 65.5-7q25 0 48 3t41 8.5 29.5 10 25 11T500 73q6 2 10-9.5t3.5-25T509 23Q451-9 358-13v-28q38 0 61-19.5t23-57.5q0-36-30.5-57.5T332-197q-43 0-68 19-5 5-2.5 14t8.5 16.5 9 4.5q20-17 52-17 64 0 64 40 0 26-14.5 36T335-74h-15q-10 0-10 5v57Q207-7 145.5 45T84 191v313q0 53 11.5 93.5t39.5 75 82 52.5 132 18q101 0 165-44z"/><glyph glyph-name="Egrave" unicode="È" horiz-adv-x="515" d="M465 13q0-13-21-13H106Q96 0 92.5 5.5T89 26v673q0 33 15 33h322q24 0 26-3 1-2 1-8v-25q0-10-40-10H168q-26 0-26-16V432q0-15 4-19t18-4h211q21 0 26-2t3-11l-6-23q0-2-1.5-3.5l-3-3-3.5-2-5-1-5-1-6-.5H172q-18 0-23-4.5t-5-18.5V70q0-16 4.5-19t17.5-3h276q13 0 18-3t5-13V13zM341 777h-21q-12 0-25 14L173 928q-14 16-14 20t18 4h39q4 0 6.5-.5t4.5-1 3.5-1.5 3.5-3l3-3 3-4 3-5 97-135q16-22 1-22z"/><glyph glyph-name="Eacute" unicode="É" horiz-adv-x="515" d="M465 13q0-13-21-13H106Q96 0 92.5 5.5T89 26v673q0 33 15 33h322q24 0 26-3 1-2 1-8v-25q0-10-40-10H168q-26 0-26-16V432q0-15 4-19t18-4h211q21 0 26-2t3-11l-6-23q0-2-1.5-3.5l-3-3-3.5-2-5-1-5-1-6-.5H172q-18 0-23-4.5t-5-18.5V70q0-16 4.5-19t17.5-3h276q13 0 18-3t5-13V13zm-64 915L279 791q-13-14-25-14h-21q-15 0 1 22l97 135q1 2 3.5 5.5t3.5 4.5 3.5 3 4 3 5 1.5 7.5.5h39q18 0 18-4t-14-20z"/><glyph glyph-name="Ecircumflex" unicode="Ê" horiz-adv-x="515" d="M465 13q0-13-21-13H106Q96 0 92.5 5.5T89 26v673q0 33 15 33h322q24 0 26-3 1-2 1-8v-25q0-10-40-10H168q-26 0-26-16V432q0-15 4-19t18-4h211q21 0 26-2t3-11l-6-23q0-2-1.5-3.5l-3-3-3.5-2-5-1-5-1-6-.5H172q-18 0-23-4.5t-5-18.5V70q0-16 4.5-19t17.5-3h276q13 0 18-3t5-13V13zm-63 764h-16q-14 0-22 10l-90 118-89-118q-7-10-23-10h-16q-15 0 1 22l87 135q1 2 3.5 5.5t3.5 4.5 3.5 3 4 3 5 1.5 7.5.5h26q4 0 6.5-.5t4.5-1 3.5-1.5 3.5-3l3-3 3-4 3-5 87-135q16-22 1-22z"/><glyph glyph-name="Edieresis" unicode="Ë" horiz-adv-x="515" d="M465 13q0-13-21-13H106Q96 0 92.5 5.5T89 26v673q0 33 15 33h322q24 0 26-3 1-2 1-8v-25q0-10-40-10H168q-26 0-26-16V432q0-15 4-19t18-4h211q21 0 26-2t3-11l-6-23q0-2-1.5-3.5l-3-3-3.5-2-5-1-5-1-6-.5H172q-18 0-23-4.5t-5-18.5V70q0-16 4.5-19t17.5-3h276q13 0 18-3t5-13V13zm-56 836v-8l-1-7-2.5-6.5-5.5-3.5-9-2h-30q-24 0-24 25v39q0 20 15 20h34q15 0 19-3.5t4-12.5v-41zm-201-7q0-20-15-20h-34q-15 0-19 3.5t-4 12.5v49l1 7 2.5 6.5 5.5 3.5 9 2h30q24 0 24-25v-39z"/><glyph glyph-name="Igrave" unicode="Ì" horiz-adv-x="234" d="M145 22q0-10-.5-13.5t-3.5-6-9-2.5H97q-6 0-7 4.5T89 25v690q0 11 3.5 14t15.5 3h22q11 0 13-3.5t2-20.5V22zm-3 755h-21q-12 0-25 14L-26 928q-14 16-14 20t18 4h39q4 0 6.5-.5t4.5-1 3.5-1.5 3.5-3l3-3 3-4 3-5 97-135q16-22 1-22z"/><glyph glyph-name="Iacute" unicode="Í" horiz-adv-x="234" d="M145 22q0-10-.5-13.5t-3.5-6-9-2.5H97q-6 0-7 4.5T89 25v690q0 11 3.5 14t15.5 3h22q11 0 13-3.5t2-20.5V22zm119 906L142 791q-13-14-25-14H96q-15 0 1 22l97 135q1 2 3.5 5.5t3.5 4.5 3.5 3 4 3 5 1.5 7.5.5h39q18 0 18-4t-14-20z"/><glyph glyph-name="Icircumflex" unicode="Î" horiz-adv-x="234" d="M145 22q0-10-.5-13.5t-3.5-6-9-2.5H97q-6 0-7 4.5T89 25v690q0 11 3.5 14t15.5 3h22q11 0 13-3.5t2-20.5V22zm100 755h-16q-15 0-22 10l-90 118-89-118q-7-10-23-10h-16q-15 0 1 22l87 135q1 2 3.5 5.5T84 944t3.5 3 4 3 5 1.5 7.5.5h26q4 0 6.5-.5t4.5-1 3.5-1.5 3.5-3l3-3 3-4 3-5 87-135q16-22 1-22z"/><glyph glyph-name="Idieresis" unicode="Ï" horiz-adv-x="234" d="M145 22q0-10-.5-13.5t-3.5-6-9-2.5H97q-6 0-7 4.5T89 25v690q0 11 3.5 14t15.5 3h22q11 0 13-3.5t2-20.5V22zm105 827v-8l-1-7-2.5-6.5-5.5-3.5-9-2h-30q-24 0-24 25v39q0 20 15 20h34q15 0 19-3.5t4-12.5v-41zm-201-7q0-20-15-20H0q-15 0-19 3.5t-4 12.5v49l1 7 2.5 6.5 5.5 3.5 9 2h30q24 0 24-25v-39z"/><glyph glyph-name="Eth" unicode="Ð" horiz-adv-x="631" d="M548 228q0-60-17-103t-42-66.5T425.5 21t-71-17.5T279 0H105q-9 0-12.5 7T89 35v305H39q-15 0-18 2.5T18 356v22q0 9 3.5 10.5T38 390h51v316q0 15 2.5 20.5T104 732h179q58 0 103-10.5t83-35 58.5-71T548 502V228zm-56-11v284q0 102-54 143t-155 41H164q-18 0-18-19V390h150q20 0 24.5-2t4.5-9v-26q0-9-5.5-11t-26.5-2H146V68q0-13 4-17t17-4h113q27 0 42 .5t41 3.5 40.5 9 34 18.5T467 109t17.5 45.5T492 217z"/><glyph glyph-name="Ntilde" unicode="Ñ" horiz-adv-x="693" d="M604 35q0-21-3.5-28T585 0h-41q-9 0-14 4.5T516 24L167 624q-9 16-13.5 20.5t-6.5 0-2-21.5V35q0-35-10-35h-28q-8 0-10.5.5t-5 7.5T89 30v670q0 32 13 32h37q9 0 14.5-.5t9-2.5 5-4l5-6.5 5.5-7.5 349-605q15-27 19-18 2 7 2 33v579q0 32 8 32h34q10 0 12-6.5t2-26.5V35zm-76 854q-27-42-50.5-58.5T421 814q-25 0-73 30.5T283 875q-28 0-60-45-8-11-14-6l-21 18q-5 4 0 12 46 65 98 65 22 0 72-31.5t68-31.5q38 0 65 51 6 10 13 5l23-10q7-4 1-13z"/><glyph glyph-name="Ograve" unicode="Ò" horiz-adv-x="677" d="M593 228q0-66-18.5-113.5t-43.5-71T468 6t-64-16.5-60-2.5q-44 0-84 8t-82.5 28-68 63T84 190v302q0 133 63 192t201 59q117 0 181-55t64-186V228zm-56-11v284q0 106-46.5 151T348 697q-113 0-160.5-46.5T140 493V189q0-43 18-75t48.5-49 65-24.5T345 33q33 0 56.5 2.5t51 13.5T497 79t28.5 54 11.5 84zM414 777h-21q-12 0-25 14L246 928q-14 16-14 20t18 4h39q4 0 6.5-.5t4.5-1 3.5-1.5 3.5-3l3-3 3-4 3-5 97-135q16-22 1-22z"/><glyph glyph-name="Oacute" unicode="Ó" horiz-adv-x="677" d="M593 228q0-66-18.5-113.5t-43.5-71T468 6t-64-16.5-60-2.5q-44 0-84 8t-82.5 28-68 63T84 190v302q0 133 63 192t201 59q117 0 181-55t64-186V228zm-56-11v284q0 106-46.5 151T348 697q-113 0-160.5-46.5T140 493V189q0-43 18-75t48.5-49 65-24.5T345 33q33 0 56.5 2.5t51 13.5T497 79t28.5 54 11.5 84zm-72 711L343 791q-13-14-25-14h-21q-15 0 1 22l97 135q1 2 3.5 5.5t3.5 4.5 3.5 3 4 3 5 1.5 7.5.5h39q18 0 18-4t-14-20z"/><glyph glyph-name="Ocircumflex" unicode="Ô" horiz-adv-x="677" d="M593 228q0-66-18.5-113.5t-43.5-71T468 6t-64-16.5-60-2.5q-44 0-84 8t-82.5 28-68 63T84 190v302q0 133 63 192t201 59q117 0 181-55t64-186V228zm-56-11v284q0 106-46.5 151T348 697q-113 0-160.5-46.5T140 493V189q0-43 18-75t48.5-49 65-24.5T345 33q33 0 56.5 2.5t51 13.5T497 79t28.5 54 11.5 84zm-63 560h-16q-14 0-22 10l-90 118-89-118q-7-10-23-10h-16q-15 0 1 22l87 135q1 2 3.5 5.5t3.5 4.5 3.5 3 4 3 5 1.5 7.5.5h26q4 0 6.5-.5t4.5-1 3.5-1.5 3.5-3l3-3 3-4 3-5 87-135q16-22 1-22z"/><glyph glyph-name="Otilde" unicode="Õ" horiz-adv-x="677" d="M593 228q0-66-18.5-113.5t-43.5-71T468 6t-64-16.5-60-2.5q-44 0-84 8t-82.5 28-68 63T84 190v302q0 133 63 192t201 59q117 0 181-55t64-186V228zm-56-11v284q0 106-46.5 151T348 697q-113 0-160.5-46.5T140 493V189q0-43 18-75t48.5-49 65-24.5T345 33q33 0 56.5 2.5t51 13.5T497 79t28.5 54 11.5 84zm-20 672q-27-42-50.5-58.5T410 814q-25 0-73 30.5T272 875q-27 0-60-45-8-11-14-6l-21 18q-5 4 0 12 46 65 98 65 22 0 72-31.5t68-31.5q38 0 65 51 6 10 13 5l23-10q7-4 1-13z"/><glyph glyph-name="Odieresis" unicode="Ö" horiz-adv-x="677" d="M593 228q0-66-18.5-113.5t-43.5-71T468 6t-64-16.5-60-2.5q-44 0-84 8t-82.5 28-68 63T84 190v302q0 133 63 192t201 59q117 0 181-55t64-186V228zm-56-11v284q0 106-46.5 151T348 697q-113 0-160.5-46.5T140 493V189q0-43 18-75t48.5-49 65-24.5T345 33q33 0 56.5 2.5t51 13.5T497 79t28.5 54 11.5 84zm-59 632v-8l-1-7-2.5-6.5-5.5-3.5-9-2h-30q-24 0-24 25v39q0 20 15 20h34q15 0 19-3.5t4-12.5v-41zm-201-7q0-20-15-20h-34q-15 0-19 3.5t-4 12.5v49l1 7 2.5 6.5 5.5 3.5 9 2h30q24 0 24-25v-39z"/><glyph glyph-name="multiply" unicode="×" d="M719 72H8v564h711V72zm-86 456q4 11-11 11h-31q-6 0-10-9 0-3-1-4l-82-276-83 276q-7 12-12 13h-38q-4 0-6-.5t-4-2-1.5-4.5l1.5-9 101-331q3-12 15-12h45q11 0 14 11zM363 196L263 523q-4 16-18 16h-40q-12 0-18-16L88 196q-5-16 3-16h35q7 0 9 2t4 11l22 75h119l23-75q1-5 1.5-6.5t1.5-3.5 3-2.5 5-.5h39q8 0 10 2t0 14zm-95 109h-96l49 164z"/><glyph glyph-name="Oslash" unicode="Ø" horiz-adv-x="677" d="M622 743q11 0 7-7-2-4-14-21-51-72-52-72 30-57 30-141V228q0-66-18.5-113.5t-43.5-71T468 6t-64-16.5-60-2.5q-135 0-203 62l-14-20q-14-19-19.5-24T94 0H68q-13 0-7 12l14 20 37 51q-28 44-28 107v302q0 133 63 192t201 59q129 0 188-63l26 36q1 2 4.5 6t4.5 5.5l3 4.5 3.5 3.5 3.5 2.5 3.5 2.5 4 1.5 5.5 1h28zM504 635q-43 62-156 62t-160.5-46.5T140 493V189q0-28 8-54zm33-418v284q0 50-11 89Q173 94 173 93q52-60 172-60 33 0 56.5 2.5t51 13.5T497 79t28.5 54 11.5 84z"/><glyph glyph-name="Ugrave" unicode="Ù" horiz-adv-x="640" d="M551 227q0-240-232-240-98 0-164 57.5T89 210v496q0 25 7 26h37q11 0 11-33V228q0-91 48-142.5T319 34q101 0 139 48t38 148v476q0 25 7 26h37q11 0 11-33V227zM404 777h-21q-12 0-25 14L236 928q-14 16-14 20t18 4h39q4 0 6.5-.5t4.5-1 3.5-1.5 3.5-3l3-3 3-4 3-5 97-135q16-22 1-22z"/><glyph glyph-name="Uacute" unicode="Ú" horiz-adv-x="640" d="M551 227q0-240-232-240-98 0-164 57.5T89 210v496q0 25 7 26h37q11 0 11-33V228q0-91 48-142.5T319 34q101 0 139 48t38 148v476q0 25 7 26h37q11 0 11-33V227zM438 928L316 791q-13-14-25-14h-21q-15 0 1 22l97 135q1 2 3.5 5.5t3.5 4.5 3.5 3 4 3 5 1.5 7.5.5h39q18 0 18-4t-14-20z"/><glyph glyph-name="Ucircumflex" unicode="Û" horiz-adv-x="640" d="M551 227q0-240-232-240-98 0-164 57.5T89 210v496q0 25 7 26h37q11 0 11-33V228q0-91 48-142.5T319 34q101 0 139 48t38 148v476q0 25 7 26h37q11 0 11-33V227zM448 777h-16q-14 0-22 10l-90 118-89-118q-7-10-23-10h-16q-15 0 1 22l87 135q1 2 3.5 5.5t3.5 4.5 3.5 3 4 3 5 1.5 7.5.5h26q4 0 6.5-.5t4.5-1 3.5-1.5 3.5-3l3-3 3-4 3-5 87-135q16-22 1-22z"/><glyph glyph-name="Udieresis" unicode="Ü" horiz-adv-x="640" d="M551 227q0-240-232-240-98 0-164 57.5T89 210v496q0 25 7 26h37q11 0 11-33V228q0-91 48-142.5T319 34q101 0 139 48t38 148v476q0 25 7 26h37q11 0 11-33V227zm-92 622v-8l-1-7-2.5-6.5-5.5-3.5-9-2h-30q-24 0-24 25v39q0 20 15 20h34q15 0 19-3.5t4-12.5v-41zm-201-7q0-20-15-20h-34q-15 0-19 3.5t-4 12.5v49l1 7 2.5 6.5 5.5 3.5 9 2h30q24 0 24-25v-39z"/><glyph glyph-name="Yacute" unicode="Ý" horiz-adv-x="568" d="M521 710L310 302V17q0-17-9-17h-37q-6 0-8 3.5T254 17v285L44 719q-6 13 6 13h36q8 0 16-15l182-356 184 357q7 14 19 14h29q11 0 11.5-5.5T521 710zm-73 218L326 791q-13-14-25-14h-21q-15 0 1 22l97 135q1 2 3.5 5.5t3.5 4.5 3.5 3 4 3 5 1.5 7.5.5h39q18 0 18-4t-14-20z"/><glyph glyph-name="Thorn" unicode="Þ" horiz-adv-x="581" d="M535 389q0-108-56-170.5T321 156H159q-9 0-11.5-3.5T145 138V22q0-10-.5-13.5t-3.5-6-9-2.5H97q-6 0-7 4.5T89 25v690q0 11 3.5 14t15.5 3h22q11 0 13-3.5t2-20.5v-93q0-6 .5-8.5t5-5T163 599h110q127 0 194.5-54.5T535 389zm-59-3q0 86-55.5 127T276 554H163q-18-1-18-18V221q0-13 3.5-16t16.5-3h155q74 0 115 45t41 139z"/><glyph glyph-name="germandbls" unicode="ß" horiz-adv-x="626" d="M583 125q0-69-48.5-101.5T414-9q-89 0-147 32-4 4-3.5 15t6.5 21 13 7q61-29 128-29 57 0 88 24t31 68q0 73-125 144-69 39-101 72t-32 76q0 30 22.5 59.5l45 61L362 606q0 45-27.5 70T267 701q-45 0-68-31t-23-77V20q0-20-15-20h-23q-17 0-17 17v465H61q-10 0-12 1.5t-2 9.5v18q0 11 9 11h65v76q0 57 38.5 101T267 743q68 0 107.5-36T414 606q0-28-13.5-54t-30-43-30-41-13.5-48q0-20 18-40.5t37.5-33.5 59.5-37q75-44 108-85.5t33-98.5z"/><glyph glyph-name="agrave" unicode="à" horiz-adv-x="533" d="M457 32q0-20-3.5-26T440 0h-26q-7 0-9 4.5T403 29v51q-12-36-59-62.5T246-9q-84 0-135.5 67.5T59 267q0 124 45 203.5T237 550q116 0 165-93v64q0 17 12 17h23q14 0 17-5t3-22V32zm-54 114v204q0 49-40 103t-107 54q-68 0-104-49.5T116 291v-54q0-99 37-151.5T257 33q57 0 101.5 42.5T403 146zm-59 451h-21q-12 0-25 14L176 748q-14 16-14 20t18 4h39q4 0 6.5-.5t4.5-1 3.5-1.5 3.5-3l3-3 3-4 3-5 97-135q16-22 1-22z"/><glyph glyph-name="aacute" unicode="á" horiz-adv-x="533" d="M457 32q0-20-3.5-26T440 0h-26q-7 0-9 4.5T403 29v51q-12-36-59-62.5T246-9q-84 0-135.5 67.5T59 267q0 124 45 203.5T237 550q116 0 165-93v64q0 17 12 17h23q14 0 17-5t3-22V32zm-54 114v204q0 49-40 103t-107 54q-68 0-104-49.5T116 291v-54q0-99 37-151.5T257 33q57 0 101.5 42.5T403 146zm-5 602L276 611q-13-14-25-14h-21q-15 0 1 22l97 135q1 2 3.5 5.5t3.5 4.5 3.5 3 4 3 5 1.5 7.5.5h39q18 0 18-4t-14-20z"/><glyph glyph-name="acircumflex" unicode="â" horiz-adv-x="533" d="M457 32q0-20-3.5-26T440 0h-26q-7 0-9 4.5T403 29v51q-12-36-59-62.5T246-9q-84 0-135.5 67.5T59 267q0 124 45 203.5T237 550q116 0 165-93v64q0 17 12 17h23q14 0 17-5t3-22V32zm-54 114v204q0 49-40 103t-107 54q-68 0-104-49.5T116 291v-54q0-99 37-151.5T257 33q57 0 101.5 42.5T403 146zm1 451h-16q-14 0-22 10l-90 118-89-118q-7-10-23-10h-16q-15 0 1 22l87 135q1 2 3.5 5.5t3.5 4.5 3.5 3 4 3 5 1.5 7.5.5h26q4 0 6.5-.5t4.5-1 3.5-1.5 3.5-3l3-3 3-4 3-5 87-135q16-22 1-22z"/><glyph glyph-name="atilde" unicode="ã" horiz-adv-x="533" d="M457 32q0-20-3.5-26T440 0h-26q-7 0-9 4.5T403 29v51q-12-36-59-62.5T246-9q-84 0-135.5 67.5T59 267q0 124 45 203.5T237 550q116 0 165-93v64q0 17 12 17h23q14 0 17-5t3-22V32zm-54 114v204q0 49-40 103t-107 54q-68 0-104-49.5T116 291v-54q0-99 37-151.5T257 33q57 0 101.5 42.5T403 146zm36 563q-27-42-50.5-58.5T332 634q-25 0-73 30.5T194 695q-28 0-60-45-8-11-14-6l-21 18q-5 4 0 12 46 65 98 65 22 0 72-31.5t68-31.5q38 0 65 51 6 10 13 5l23-10q7-4 1-13z"/><glyph glyph-name="adieresis" unicode="ä" horiz-adv-x="533" d="M457 32q0-20-3.5-26T440 0h-26q-7 0-9 4.5T403 29v51q-12-36-59-62.5T246-9q-84 0-135.5 67.5T59 267q0 124 45 203.5T237 550q116 0 165-93v64q0 17 12 17h23q14 0 17-5t3-22V32zm-54 114v204q0 49-40 103t-107 54q-68 0-104-49.5T116 291v-54q0-99 37-151.5T257 33q57 0 101.5 42.5T403 146zm-1 523v-8l-1-7-2.5-6.5-5.5-3.5-9-2h-30q-24 0-24 25v39q0 20 15 20h34q15 0 19-3.5t4-12.5v-41zm-201-7q0-20-15-20h-34q-15 0-19 3.5t-4 12.5v49l1 7 2.5 6.5 5.5 3.5 9 2h30q24 0 24-25v-39z"/><glyph glyph-name="aring" unicode="å" horiz-adv-x="533" d="M457 32q0-20-3.5-26T440 0h-26q-7 0-9 4.5T403 29v51q-12-36-59-62.5T246-9q-84 0-135.5 67.5T59 267q0 124 45 203.5T237 550q116 0 165-93v64q0 17 12 17h23q14 0 17-5t3-22V32zm-54 114v204q0 49-40 103t-107 54q-68 0-104-49.5T116 291v-54q0-99 37-151.5T257 33q57 0 101.5 42.5T403 146zm-21 562q0-42-31.5-72.5T276 605t-74.5 30.5T170 708t31.5 72.5T276 811t74.5-30.5T382 708zm-40 0q0 27-19 48t-47 21-47-21-19-48 18.5-48 47.5-21q28 0 47 21t19 48z"/><glyph glyph-name="ae" unicode="æ" horiz-adv-x="860" d="M803 289q0-19-6-28t-24-9H457v-66Q482 36 626 36q76 0 135 28 27 14 27-3V30.5l-.5-3L786 25l-2-2-2.5-2-3-1.5L774 18l-5-2-6.5-2.5L755 11Q703-9 633-9 509-9 457 62V32q0-20-3.5-26T440 0h-26q-7 0-9 4.5T403 29v51q-12-36-59-62.5T246-9q-84 0-135.5 67.5T59 267q0 124 45 203.5T237 550q116 0 165-93v64q0 17 12 17h23q14 0 17-5t3-22v-37q49 76 148 76 91 0 144.5-53T803 332v-43zM403 146v204q0 49-40 103t-107 54q-68 0-104-49.5T116 291v-54q0-99 37-151.5T257 33q57 0 101.5 42.5T403 146zm350 162q-2 105-37 152.5T606 508q-59 0-97.5-37.5T457 367v-75h285q7 0 9 2.5t2 13.5z"/><glyph glyph-name="ccedilla" unicode="ç" horiz-adv-x="497" d="M457 483q4-6-4-17.5T434 450t-18 2q-43 54-126 54-76 0-125-49t-49-156v-74q0-105 48.5-149T289 34q79 0 125 57 7 6 16 1.5T446 78t3-14Q393-2 303-8v-33q38 0 61-19.5t23-57.5q0-36-30.5-57.5T277-197q-43 0-68 19-5 5-2.5 14t8.5 16.5 9 4.5q20-17 52-17 64 0 64 40 0 26-14.5 36T280-74h-15q-10 0-10 5v61q-92 7-144.5 70.5T58 267q0 144 66 213.5T291 550q114 0 166-67z"/><glyph glyph-name="egrave" unicode="è" horiz-adv-x="521" d="M462 289q0-19-6-28t-24-9H111q0-216 174-216 76 0 135 28 27 14 27-3V30.5l-.5-3L445 25l-2-2-2.5-2-3-1.5L433 18l-5-2-6.5-2.5L414 11Q362-9 292-9q-53 0-92.5 12T127 43.5t-50.5 84T59 264q0 141 54 213.5T264 550q91 0 144.5-53T462 332v-43zm-50 19q-2 105-37 152.5T265 508q-72 0-112.5-55T110 309v-8.5l1-4.5 4-3.5 8-.5h278q7 0 9 2.5t2 13.5zm-83 289h-21q-12 0-25 14L161 748q-14 16-14 20t18 4h39q4 0 6.5-.5t4.5-1 3.5-1.5 3.5-3l3-3 3-4 3-5 97-135q16-22 1-22z"/><glyph glyph-name="eacute" unicode="é" horiz-adv-x="521" d="M462 289q0-19-6-28t-24-9H111q0-216 174-216 76 0 135 28 27 14 27-3V30.5l-.5-3L445 25l-2-2-2.5-2-3-1.5L433 18l-5-2-6.5-2.5L414 11Q362-9 292-9q-53 0-92.5 12T127 43.5t-50.5 84T59 264q0 141 54 213.5T264 550q91 0 144.5-53T462 332v-43zm-50 19q-2 105-37 152.5T265 508q-72 0-112.5-55T110 309v-8.5l1-4.5 4-3.5 8-.5h278q7 0 9 2.5t2 13.5zm-32 440L258 611q-13-14-25-14h-21q-15 0 1 22l97 135q1 2 3.5 5.5t3.5 4.5 3.5 3 4 3 5 1.5 7.5.5h39q18 0 18-4t-14-20z"/><glyph glyph-name="ecircumflex" unicode="ê" horiz-adv-x="521" d="M462 289q0-19-6-28t-24-9H111q0-216 174-216 76 0 135 28 27 14 27-3V30.5l-.5-3L445 25l-2-2-2.5-2-3-1.5L433 18l-5-2-6.5-2.5L414 11Q362-9 292-9q-53 0-92.5 12T127 43.5t-50.5 84T59 264q0 141 54 213.5T264 550q91 0 144.5-53T462 332v-43zm-50 19q-2 105-37 152.5T265 508q-72 0-112.5-55T110 309v-8.5l1-4.5 4-3.5 8-.5h278q7 0 9 2.5t2 13.5zm-14 289h-16q-14 0-22 10l-90 118-89-118q-7-10-23-10h-16q-15 0 1 22l87 135q1 2 3.5 5.5t3.5 4.5 3.5 3 4 3 5 1.5 7.5.5h26q4 0 6.5-.5t4.5-1 3.5-1.5 3.5-3l3-3 3-4 3-5 87-135q16-22 1-22z"/><glyph glyph-name="edieresis" unicode="ë" horiz-adv-x="521" d="M462 289q0-19-6-28t-24-9H111q0-216 174-216 76 0 135 28 27 14 27-3V30.5l-.5-3L445 25l-2-2-2.5-2-3-1.5L433 18l-5-2-6.5-2.5L414 11Q362-9 292-9q-53 0-92.5 12T127 43.5t-50.5 84T59 264q0 141 54 213.5T264 550q91 0 144.5-53T462 332v-43zm-50 19q-2 105-37 152.5T265 508q-72 0-112.5-55T110 309v-8.5l1-4.5 4-3.5 8-.5h278q7 0 9 2.5t2 13.5zm-4 361v-8l-1-7-2.5-6.5-5.5-3.5-9-2h-30q-24 0-24 25v39q0 20 15 20h34q15 0 19-3.5t4-12.5v-41zm-201-7q0-20-15-20h-34q-15 0-19 3.5t-4 12.5v49l1 7 2.5 6.5 5.5 3.5 9 2h30q24 0 24-25v-39z"/><glyph glyph-name="igrave" unicode="ì" horiz-adv-x="206" d="M130 29q0-20-2-24.5T119 0H86q-6 0-8 5t-2 24v482q0 12 1 16.5t5 7.5 14 3h22q9 0 10.5-3.5T130 518V29zm-11 568H98q-12 0-25 14L-49 748q-14 16-14 20t18 4h39q4 0 6.5-.5t4.5-1 3.5-1.5 3.5-3l3-3 3-4 3-5 97-135q16-22 1-22z"/><glyph glyph-name="iacute" unicode="í" horiz-adv-x="206" d="M130 29q0-20-2-24.5T119 0H86q-6 0-8 5t-2 24v482q0 12 1 16.5t5 7.5 14 3h22q9 0 10.5-3.5T130 518V29zm128 719L136 611q-13-14-25-14H90q-15 0 1 22l97 135q1 2 3.5 5.5t3.5 4.5 3.5 3 4 3 5 1.5 7.5.5h39q18 0 18-4t-14-20z"/><glyph glyph-name="icircumflex" unicode="î" horiz-adv-x="206" d="M130 29q0-20-2-24.5T119 0H86q-6 0-8 5t-2 24v482q0 12 1 16.5t5 7.5 14 3h22q9 0 10.5-3.5T130 518V29zm102 568h-16q-14 0-22 10l-90 118-89-118q-7-10-23-10h-16q-15 0 1 22l87 135q1 2 3.5 5.5T71 764t3.5 3 4 3 5 1.5 7.5.5h26q4 0 6.5-.5t4.5-1 3.5-1.5 3.5-3l3-3 3-4 3-5 87-135q16-22 1-22z"/><glyph glyph-name="idieresis" unicode="ï" horiz-adv-x="206" d="M130 29q0-20-2-24.5T119 0H86q-6 0-8 5t-2 24v482q0 12 1 16.5t5 7.5 14 3h22q9 0 10.5-3.5T130 518V29zm108 640v-8l-1-7-2.5-6.5-5.5-3.5-9-2h-30q-24 0-24 25v39q0 20 15 20h34q15 0 19-3.5t4-12.5v-41zm-201-7q0-20-15-20h-34q-15 0-19 3.5t-4 12.5v49l1 7 2.5 6.5 5.5 3.5 9 2h30q24 0 24-25v-39z"/><glyph glyph-name="eth" unicode="ð" horiz-adv-x="570" d="M511 229q0-117-63.5-177.5T285-9Q181-9 120 51.5T59 247q0 137 65 200t167 63q41 0 79-14.5t58-34.5q-27 76-82 145l-45-45q-10-10-14.5-11t-11.5 7l-16 16q-6 6-4.5 10t10.5 13q4 3 6 5l42 42q-20 22-51 48-21 17-6 32l15 15q3 3 6 3.5t6.5-1 5-3 6-5.5 5.5-5q27-22 50-47l37 38q15 14 19 16t10-3l18-19q6-8 4-12.5T421 680l-38-37q128-162 128-414zm-56-24v64q0 89-40.5 143T290 466q-75 0-124.5-46T116 281v-74q0-90 49-131.5T289 34q73 0 119.5 47T455 205z"/><glyph glyph-name="ntilde" unicode="ñ" horiz-adv-x="530" d="M454 41q0-27-2-34t-12-7h-27q-9 0-11 6.5T400 33v348q0 56-30 90.5T277 506q-69 0-108-47t-39-102V29q0-20-2-24.5T119 0H93Q83 0 79.5 6T76 32v479q0 12 1 16.5t5 7.5 14 3h23q8 0 10-12t2-45v-15q51 84 165 84 158 0 158-172V41zm-11 668q-27-42-50.5-58.5T336 634q-25 0-73 30.5T198 695q-28 0-60-45-8-11-14-6l-21 18q-5 4 0 12 46 65 98 65 22 0 72-31.5t68-31.5q38 0 65 51 6 10 13 5l23-10q7-4 1-13z"/><glyph glyph-name="ograve" unicode="ò" horiz-adv-x="570" d="M511 269q0-130-64-204T285-9Q179-9 119 52.5T59 267q0 144 65.5 213.5T291 550q112 0 166-67t54-214zm-56-24v64q0 93-40 145t-125 52q-76 0-125-49t-49-156v-74q0-105 48.5-149T289 34q75 0 120.5 55.5T455 245zm-89 352h-21q-12 0-25 14L198 748q-14 16-14 20t18 4h39q4 0 6.5-.5t4.5-1 3.5-1.5 3.5-3l3-3 3-4 3-5 97-135q16-22 1-22z"/><glyph glyph-name="oacute" unicode="ó" horiz-adv-x="570" d="M511 269q0-130-64-204T285-9Q179-9 119 52.5T59 267q0 144 65.5 213.5T291 550q112 0 166-67t54-214zm-56-24v64q0 93-40 145t-125 52q-76 0-125-49t-49-156v-74q0-105 48.5-149T289 34q75 0 120.5 55.5T455 245zm-47 503L286 611q-13-14-25-14h-21q-15 0 1 22l97 135q1 2 3.5 5.5t3.5 4.5 3.5 3 4 3 5 1.5 7.5.5h39q18 0 18-4t-14-20z"/><glyph glyph-name="ocircumflex" unicode="ô" horiz-adv-x="570" d="M511 269q0-130-64-204T285-9Q179-9 119 52.5T59 267q0 144 65.5 213.5T291 550q112 0 166-67t54-214zm-56-24v64q0 93-40 145t-125 52q-76 0-125-49t-49-156v-74q0-105 48.5-149T289 34q75 0 120.5 55.5T455 245zm-35 352h-16q-14 0-22 10l-90 118-89-118q-7-10-23-10h-16q-15 0 1 22l87 135q1 2 3.5 5.5t3.5 4.5 3.5 3 4 3 5 1.5 7.5.5h26q4 0 6.5-.5t4.5-1 3.5-1.5 3.5-3l3-3 3-4 3-5 87-135q16-22 1-22z"/><glyph glyph-name="otilde" unicode="õ" horiz-adv-x="570" d="M511 269q0-130-64-204T285-9Q179-9 119 52.5T59 267q0 144 65.5 213.5T291 550q112 0 166-67t54-214zm-56-24v64q0 93-40 145t-125 52q-76 0-125-49t-49-156v-74q0-105 48.5-149T289 34q75 0 120.5 55.5T455 245zm6 464q-27-42-50.5-58.5T354 634q-25 0-73 30.5T216 695q-28 0-60-45-8-11-14-6l-21 18q-5 4 0 12 46 65 98 65 22 0 72-31.5t68-31.5q38 0 65 51 6 10 13 5l23-10q7-4 1-13z"/><glyph glyph-name="odieresis" unicode="ö" horiz-adv-x="570" d="M511 269q0-130-64-204T285-9Q179-9 119 52.5T59 267q0 144 65.5 213.5T291 550q112 0 166-67t54-214zm-56-24v64q0 93-40 145t-125 52q-76 0-125-49t-49-156v-74q0-105 48.5-149T289 34q75 0 120.5 55.5T455 245zm-28 424v-8l-1-7-2.5-6.5-5.5-3.5-9-2h-30q-24 0-24 25v39q0 20 15 20h34q15 0 19-3.5t4-12.5v-41zm-201-7q0-20-15-20h-34q-15 0-19 3.5t-4 12.5v49l1 7 2.5 6.5 5.5 3.5 9 2h30q24 0 24-25v-39z"/><glyph glyph-name="divide" unicode="÷" d="M719 72H8v564h711V72zm-86 456q4 11-11 11h-31q-6 0-10-9 0-3-1-4l-82-276-83 276q-7 12-12 13h-38q-4 0-6-.5t-4-2-1.5-4.5l1.5-9 101-331q3-12 15-12h45q11 0 14 11zM363 196L263 523q-4 16-18 16h-40q-12 0-18-16L88 196q-5-16 3-16h35q7 0 9 2t4 11l22 75h119l23-75q1-5 1.5-6.5t1.5-3.5 3-2.5 5-.5h39q8 0 10 2t0 14zm-95 109h-96l49 164z"/><glyph glyph-name="oslash" unicode="ø" horiz-adv-x="570" d="M511 269q0-130-64-204T285-9q-85 0-136 35-11-17-16-21.5T120 0H94q-13 0-8 12 3 6 12 20l17 25q-56 69-56 210 0 144 65.5 213.5T291 550q80 0 128-32l4 5q10 17 15.5 22t19.5 5h22q12 0 8-8-3-5-13-20l-22-34q58-67 58-219zM392 476q-39 30-102 30-76 0-125-49t-49-156v-74q0-77 29-124zm63-231v64q0 85-32 134L176 68q44-34 113-34 75 0 120.5 55.5T455 245z"/><glyph glyph-name="ugrave" unicode="ù" horiz-adv-x="530" d="M454 27q0-12-1-16.5T448 3t-14-3h-23q-8 0-10 11.5T399 55v15Q338-9 234-9q-69 0-113.5 41.5T76 160v353q0 18 2 21.5t12 3.5h27q9 0 11-6.5t2-26.5V157q0-56 29.5-90T252 33q67 0 107.5 47.5T400 181v328q0 20 2 24.5t9 4.5h26q10 0 13.5-6t3.5-26V27zM328 597h-21q-12 0-25 14L160 748q-14 16-14 20t18 4h39q4 0 6.5-.5t4.5-1 3.5-1.5 3.5-3l3-3 3-4 3-5 97-135q16-22 1-22z"/><glyph glyph-name="uacute" unicode="ú" horiz-adv-x="530" d="M454 27q0-12-1-16.5T448 3t-14-3h-23q-8 0-10 11.5T399 55v15Q338-9 234-9q-69 0-113.5 41.5T76 160v353q0 18 2 21.5t12 3.5h27q9 0 11-6.5t2-26.5V157q0-56 29.5-90T252 33q67 0 107.5 47.5T400 181v328q0 20 2 24.5t9 4.5h26q10 0 13.5-6t3.5-26V27zm-58 721L274 611q-13-14-25-14h-21q-15 0 1 22l97 135q1 2 3.5 5.5t3.5 4.5 3.5 3 4 3 5 1.5 7.5.5h39q18 0 18-4t-14-20z"/><glyph glyph-name="ucircumflex" unicode="û" horiz-adv-x="530" d="M454 27q0-12-1-16.5T448 3t-14-3h-23q-8 0-10 11.5T399 55v15Q338-9 234-9q-69 0-113.5 41.5T76 160v353q0 18 2 21.5t12 3.5h27q9 0 11-6.5t2-26.5V157q0-56 29.5-90T252 33q67 0 107.5 47.5T400 181v328q0 20 2 24.5t9 4.5h26q10 0 13.5-6t3.5-26V27zm-62 570h-16q-14 0-22 10l-90 118-89-118q-7-10-23-10h-16q-15 0 1 22l87 135q1 2 3.5 5.5t3.5 4.5 3.5 3 4 3 5 1.5 7.5.5h26q4 0 6.5-.5t4.5-1 3.5-1.5 3.5-3l3-3 3-4 3-5 87-135q16-22 1-22z"/><glyph glyph-name="udieresis" unicode="ü" horiz-adv-x="530" d="M454 27q0-12-1-16.5T448 3t-14-3h-23q-8 0-10 11.5T399 55v15Q338-9 234-9q-69 0-113.5 41.5T76 160v353q0 18 2 21.5t12 3.5h27q9 0 11-6.5t2-26.5V157q0-56 29.5-90T252 33q67 0 107.5 47.5T400 181v328q0 20 2 24.5t9 4.5h26q10 0 13.5-6t3.5-26V27zm-54 642v-8l-1-7-2.5-6.5-5.5-3.5-9-2h-30q-24 0-24 25v39q0 20 15 20h34q15 0 19-3.5t4-12.5v-41zm-201-7q0-20-15-20h-34q-15 0-19 3.5t-4 12.5v49l1 7 2.5 6.5 5.5 3.5 9 2h30q24 0 24-25v-39z"/><glyph glyph-name="yacute" unicode="ý" horiz-adv-x="484" d="M447 517L206-183q-3-9-7-12.5t-6.5-4-11.5-.5h-22q-2 0-4 1.5t-3.5 5.5.5 10L209-7 30 522q-6 16 14 16h24q11 0 15-14 1-1 1-2L241 69l157 453q6 16 15 16h28q10 0 10.5-4t-4.5-17zm-59 231L266 611q-13-14-25-14h-21q-15 0 1 22l97 135q1 2 3.5 5.5t3.5 4.5 3.5 3 4 3 5 1.5 7.5.5h39q18 0 18-4t-14-20z"/><glyph glyph-name="thorn" unicode="þ" horiz-adv-x="536" d="M477 267q0-142-49-209T296-9Q188-9 134 58v-243q-1-14-1.5-19.5t-3-7.5-7.5-2H96q-10 0-13.5 6T79-182v898q0 12 1 16.5t5 7.5 14 3h23q12 0 12-29V465q27 45 65.5 65t99.5 20q88 0 133-79.5T477 267zm-57-30v54q0 101-38 158.5T280 507q-69 0-108-47.5T133 357V137q0-26 43.5-64.5T277 34q68 0 105.5 52T420 237z"/><glyph glyph-name="ydieresis" unicode="ÿ" horiz-adv-x="484" d="M447 517L206-183q-3-9-7-12.5t-6.5-4-11.5-.5h-22q-2 0-4 1.5t-3.5 5.5.5 10L209-7 30 522q-6 16 14 16h24q11 0 15-14 1-1 1-2L241 69l157 453q6 16 15 16h28q10 0 10.5-4t-4.5-17zm-69 152v-8l-1-7-2.5-6.5-5.5-3.5-9-2h-30q-24 0-24 25v39q0 20 15 20h34q15 0 19-3.5t4-12.5v-41zm-201-7q0-20-15-20h-34q-15 0-19 3.5t-4 12.5v49l1 7 2.5 6.5 5.5 3.5 9 2h30q24 0 24-25v-39z"/><glyph glyph-name="dotlessi" unicode="ı" horiz-adv-x="206" d="M130 29q0-20-2-24.5T119 0H86q-6 0-8 5t-2 24v482q0 12 1 16.5t5 7.5 14 3h22q9 0 10.5-3.5T130 518V29z"/><glyph glyph-name="Lslash" unicode="Ł" horiz-adv-x="486" d="M468 15q0-11-1.5-13T455 0H105q-9 0-12.5 7T89 35v256l-9-5-20-12-10-5q-13-8-17-7.5t-9 9.5l-11 19q-4 10-1.5 13T31 315l58 33v358q0 15 2.5 20.5T104 732h26q11 0 13-6t2-27V380l103 60q17 10 21 11t8-5l13-23q5-9 1.5-13T270 396l-125-72V65q0-11 5-15t18-4h285q12 0 13.5-2t1.5-14V15z"/><glyph glyph-name="lslash" unicode="ł" horiz-adv-x="206" d="M230 407q5-9 1.5-13T210 380l-80-47V29q0-20-2-24.5T119 0H93Q83 0 79.5 6T76 32v270l-56-33q-13-8-17-7.5t-9 9.5l-11 19q-4 10-1.5 13T1 315l75 44v357q0 12 1 16.5t5 7.5 14 3h22q9 0 10.5-3.5T130 723V390l58 34q17 10 21 11t8-5z"/><glyph glyph-name="OE" unicode="Œ" horiz-adv-x="961" d="M911 13q0-13-21-13H552q-10 0-13.5 5.5T535 26v36q-51-75-191-75-34 0-66 4T209.5 8.5t-63 34.5-44.5 58.5T84 189v303q0 133 63 192t201 59q64 0 115.5-18.5T535 670v29q0 33 15 33h322q24 0 26-3 1-2 1-8v-25q0-10-40-10H614q-26 0-26-16V432q0-15 4-19t18-4h211q21 0 26-2t3-11l-6-23q0-2-1.5-3.5l-3-3-3.5-2-5-1-5-1-6-.5H618q-18 0-23-4.5t-5-18.5V70q0-16 4.5-19t17.5-3h276q13 0 18-3t5-13V13zM535 177v365q-9 83-55 119t-132 36q-113 0-160.5-46.5T140 493V189q0-43 18-75t48.5-49 65-24.5T345 33q175 0 190 144z"/><glyph glyph-name="oe" unicode="œ" horiz-adv-x="915" d="M856 289q0-19-6-28t-24-9H505q0-216 174-216 76 0 135 28 27 14 27-3V30.5l-.5-3L839 25l-2-2-2.5-2-3-1.5L827 18l-5-2-6.5-2.5L808 11Q756-9 686-9q-80 0-133 29.5T476 124q-26-65-76-99T285-9Q179-9 119 52.5T59 267q0 144 65.5 213.5T291 550q76 0 122.5-30.5T482 424q46 126 176 126 91 0 144.5-53T856 332v-43zm-401-44v64q0 93-40 145t-125 52q-76 0-125-49t-49-156v-74q0-105 48.5-149T289 34q75 0 120.5 55.5T455 245zm351 63q-2 105-37 152.5T659 508q-72 0-112.5-55T504 309v-8.5l1-4.5 4-3.5 8-.5h278q7 0 9 2.5t2 13.5z"/><glyph glyph-name="Scaron" unicode="Š" horiz-adv-x="574" d="M506 184q0-100-72.5-149T248-14Q118-14 50 27q-4 5-1.5 17T58 68t13 9l10-5q10-5 12.5-6t13-6 17-7l18-5.5 22-5.5 24-4 28-3 30.5-1q91 0 147 32.5T449 172q0 66-37 105.5T271 358q-98 38-145.5 85T78 571q0 68 57 120t176 52q98 0 161-22 8-5 7-16.5t-8.5-22T456 674q-58 21-140 21-99 0-140-33.5T135 565q0-60 38.5-94.5T311 398q110-42 152.5-94T506 184zm-82 768q15 0-1-22l-87-135q-1-2-3.5-5.5T329 785t-3.5-3-4-3-5-1.5-7.5-.5h-26q-4 0-6.5.5t-4.5 1-3.5 1.5-3.5 3l-3 3-3 4-3 5-87 135q-16 22-1 22h16q15 0 22-10l90-118 89 118q7 10 23 10h16z"/><glyph glyph-name="scaron" unicode="š" horiz-adv-x="428" d="M371 125Q371-9 202-9 113-9 55 23q-4 4-3.5 15T58 59t13 7q61-29 128-29 119 0 119 92 0 41-29.5 75.5T193 274q-67 36-100 69.5T60 421q0 61 45.5 95T218 550q39 0 77-6t50-11q3-1-.5-13t-10-22-11.5-8q-48 17-100 17-111 0-111-87 0-29 30-54t88-57q80-44 110.5-84T371 125zm-34 647q15 0-1-22l-87-135q-1-2-3.5-5.5T242 605t-3.5-3-4-3-5-1.5-7.5-.5h-26q-4 0-6.5.5t-4.5 1-3.5 1.5-3.5 3l-3 3-3 4-3 5-87 135q-16 22-1 22h16q15 0 22-10l90-118 89 118q7 10 23 10h16z"/><glyph glyph-name="Ydieresis" unicode="Ÿ" horiz-adv-x="568" d="M521 710L310 302V17q0-17-9-17h-37q-6 0-8 3.5T254 17v285L44 719q-6 13 6 13h36q8 0 16-15l182-356 184 357q7 14 19 14h29q11 0 11.5-5.5T521 710zm-94 139v-8l-1-7-2.5-6.5-5.5-3.5-9-2h-30q-24 0-24 25v39q0 20 15 20h34q15 0 19-3.5t4-12.5v-41zm-201-7q0-20-15-20h-34q-15 0-19 3.5t-4 12.5v49l1 7 2.5 6.5 5.5 3.5 9 2h30q24 0 24-25v-39z"/><glyph glyph-name="Zcaron" unicode="Ž" horiz-adv-x="554" d="M511 15q0-10-4.5-12.5T484 0H56Q43 0 43 5v14q0 6 17 36l372 626H98q-21 0-28 5t-5 17l2 16q1 11 6 12 4 1 17 1h403q14 0 14-6v-13q0-4-24-47L119 50h362q21 0 25.5-2t4.5-10V15zm-87 937q15 0-1-22l-87-135q-1-2-3.5-5.5T329 785t-3.5-3-4-3-5-1.5-7.5-.5h-26q-4 0-6.5.5t-4.5 1-3.5 1.5-3.5 3l-3 3-3 4-3 5-87 135q-16 22-1 22h16q15 0 22-10l90-118 89 118q7 10 23 10h16z"/><glyph glyph-name="zcaron" unicode="ž" horiz-adv-x="436" d="M403 11q0-8-2.5-9.5T387 0H58Q32 0 29 13t12 35l279 446H58q-11 0-14 2t-3 10v22q0 10 12 10h310q25 0 29-6t-10-29L94 44h290q19 0 19-14V11zm-46 761q15 0-1-22l-87-135q-1-2-3.5-5.5T262 605t-3.5-3-4-3-5-1.5-7.5-.5h-26q-4 0-6.5.5t-4.5 1-3.5 1.5-3.5 3l-3 3-3 4-3 5-87 135q-16 22-1 22h16q15 0 22-10l90-118 89 118q7 10 23 10h16z"/><glyph glyph-name="florin" unicode="ƒ" horiz-adv-x="323" d="M278 490q0-8-19-8h-76V20q0-56-28-90t-80-34q-44 0-72 10-3 3-3 12.5t4 20 8 9.5q40-10 60-10 25 0 40.5 21T128 17v465H68q-10 0-12 1.5t-2 9.5v18q0 11 9 11h59q-23 46-23 98 0 55 25.5 89t77.5 34q44 0 72-10 3-3 3-12.5t-4-20-8-9.5q-40 10-60 10-25 0-40.5-21T149 622q0-54 28-100h79q22 0 22-8v-24z"/><glyph glyph-name="circumflex" unicode="ˆ" horiz-adv-x="460" d="M364 597h-16q-14 0-22 10l-90 118-89-118q-7-10-23-10h-16q-15 0 1 22l87 135q1 2 3.5 5.5t3.5 4.5 3.5 3 4 3 5 1.5 7.5.5h26q4 0 6.5-.5t4.5-1 3.5-1.5 3.5-3l3-3 3-4 3-5 87-135q16-22 1-22z"/><glyph glyph-name="caron" unicode="ˇ" horiz-adv-x="460" d="M367 772q15 0-1-22l-87-135q-1-2-3.5-5.5T272 605t-3.5-3-4-3-5-1.5-7.5-.5h-26q-4 0-6.5.5t-4.5 1-3.5 1.5-3.5 3l-3 3-3 4-3 5-87 135q-16 22-1 22h16q15 0 22-10l90-118 89 118q7 10 23 10h16z"/><glyph glyph-name="breve" unicode="˘" horiz-adv-x="460" d="M369 750q-20-67-50.5-100T240 617q-89 0-125 133-5 22 7 22h16q11 0 14-10 25-106 89-106 35 0 55 27.5t35 78.5q3 10 15 10h19q11 0 4-22z"/><glyph glyph-name="dotaccent" unicode="˙" horiz-adv-x="460" d="M288 675v-8l-1-7-2.5-6.5-5.5-3.5-9-2h-47q-24 0-24 25v39q0 20 15 20h51q15 0 19-3.5t4-12.5v-41z"/><glyph glyph-name="ring" unicode="˚" horiz-adv-x="460" d="M353 708q0-42-31.5-72.5T247 605t-74.5 30.5T141 708t31.5 72.5T247 811t74.5-30.5T353 708zm-40 0q0 27-19 48t-47 21-47-21-19-48 18.5-48 47.5-21q28 0 47 21t19 48z"/><glyph glyph-name="ogonek" unicode="˛" horiz-adv-x="460" d="M320-178q-25-19-68-19-110 0-110 79 0 36 27.5 64.5T256 16h48q-43-28-79-65t-36-71q0-40 64-40 32 0 52 17 3 3 9-4.5t8.5-16.5-2.5-14z"/><glyph glyph-name="tilde" unicode="˜" horiz-adv-x="460" d="M405 709q-27-42-50.5-58.5T298 634q-25 0-73 30.5T160 695q-28 0-60-45-8-11-14-6l-21 18q-5 4 0 12 46 65 98 65 22 0 72-31.5t68-31.5q38 0 65 51 6 10 13 5l23-10q7-4 1-13z"/><glyph glyph-name="hungarumlaut" unicode="˝" horiz-adv-x="460" d="M408 748L286 611q-13-14-25-14h-21q-15 0 1 22l97 135q1 2 3.5 5.5t3.5 4.5 3.5 3 4 3 5 1.5 7.5.5h39q18 0 18-4t-14-20zm-160 0L126 611q-13-14-25-14H80q-15 0 1 22l97 135q1 2 3.5 5.5t3.5 4.5 3.5 3 4 3 5 1.5 7.5.5h39q18 0 18-4t-14-20z"/><glyph glyph-name="Delta" unicode="Δ" d="M719 72H8v564h711V72zm-86 456q4 11-11 11h-31q-6 0-10-9 0-3-1-4l-82-276-83 276q-7 12-12 13h-38q-4 0-6-.5t-4-2-1.5-4.5l1.5-9 101-331q3-12 15-12h45q11 0 14 11zM363 196L263 523q-4 16-18 16h-40q-12 0-18-16L88 196q-5-16 3-16h35q7 0 9 2t4 11l22 75h119l23-75q1-5 1.5-6.5t1.5-3.5 3-2.5 5-.5h39q8 0 10 2t0 14zm-95 109h-96l49 164z"/><glyph glyph-name="Delta" unicode="∆" d="M719 72H8v564h711V72zm-86 456q4 11-11 11h-31q-6 0-10-9 0-3-1-4l-82-276-83 276q-7 12-12 13h-38q-4 0-6-.5t-4-2-1.5-4.5l1.5-9 101-331q3-12 15-12h45q11 0 14 11zM363 196L263 523q-4 16-18 16h-40q-12 0-18-16L88 196q-5-16 3-16h35q7 0 9 2t4 11l22 75h119l23-75q1-5 1.5-6.5t1.5-3.5 3-2.5 5-.5h39q8 0 10 2t0 14zm-95 109h-96l49 164z"/><glyph glyph-name="Omega" unicode="Ω" d="M719 72H8v564h711V72zm-86 456q4 11-11 11h-31q-6 0-10-9 0-3-1-4l-82-276-83 276q-7 12-12 13h-38q-4 0-6-.5t-4-2-1.5-4.5l1.5-9 101-331q3-12 15-12h45q11 0 14 11zM363 196L263 523q-4 16-18 16h-40q-12 0-18-16L88 196q-5-16 3-16h35q7 0 9 2t4 11l22 75h119l23-75q1-5 1.5-6.5t1.5-3.5 3-2.5 5-.5h39q8 0 10 2t0 14zm-95 109h-96l49 164z"/><glyph glyph-name="Omega" unicode="Ω" d="M719 72H8v564h711V72zm-86 456q4 11-11 11h-31q-6 0-10-9 0-3-1-4l-82-276-83 276q-7 12-12 13h-38q-4 0-6-.5t-4-2-1.5-4.5l1.5-9 101-331q3-12 15-12h45q11 0 14 11zM363 196L263 523q-4 16-18 16h-40q-12 0-18-16L88 196q-5-16 3-16h35q7 0 9 2t4 11l22 75h119l23-75q1-5 1.5-6.5t1.5-3.5 3-2.5 5-.5h39q8 0 10 2t0 14zm-95 109h-96l49 164z"/><glyph glyph-name="pi" unicode="π" horiz-adv-x="760" d="M735 357q0-149-103.5-253T380 0 128.5 104 25 357t103.5 253T380 714t251.5-104T735 357zm-41 0q0 135-92 227.5T380 677t-222-92.5T66 357q0-134 92-227t222-93 222 93 92 227zm-192 71q0-51-30-80t-91-29h-57q-4 0-5-1.5t-1-8.5V188q0-16-5-16h-27q-7 0-7 15v338q0 6 .5 8.5t2 3.5 6.5 1h93q61 0 91-29.5t30-80.5zm-40 0q0 77-80 77h-56q-9 1-9-9V360q0-6 1.5-7t8.5-1h68q30 0 48.5 20t18.5 56z"/><glyph glyph-name="endash" unicode="–" horiz-adv-x="639" d="M596 275q0-9-5.5-11t-26.5-2H72q-15 0-18 2.5T51 278v22q0 9 3.5 10.5T71 312h496q20 0 24.5-2t4.5-9v-26z"/><glyph glyph-name="emdash" unicode="—" horiz-adv-x="1000" d="M952 275q0-9-5.5-11t-26.5-2H72q-15 0-18 2.5T51 278v22q0 9 3.5 10.5T71 312h852q20 0 24.5-2t4.5-9v-26z"/><glyph glyph-name="quoteleft" unicode="‘" horiz-adv-x="225" d="M67 575q6 21 19 53 12 27 27 51 21 30 43 54 7 7 22 0 7-3 5-7-46-83-52-151-2-15-13-15H77q-15 0-10 15z"/><glyph glyph-name="quoteright" unicode="’" horiz-adv-x="225" d="M166 719q-6-21-19-53-12-27-27-51-21-30-43-54-7-7-22 0-7 3-5 7 46 83 52 151 2 15 13 15h41q14 0 10-15z"/><glyph glyph-name="quotesinglbase" unicode="‚" horiz-adv-x="225" d="M162 66q-6-21-19-53-12-27-27-51-21-30-43-54-7-7-22 0-7 3-5 7Q92-2 98 66q2 15 13 15h41q14 0 10-15z"/><glyph glyph-name="quotedblleft" unicode="“" horiz-adv-x="374" d="M205 575q6 21 19 53 12 27 27 51 21 30 43 54 7 7 22 0 7-3 5-7-46-83-52-151-2-15-13-15h-41q-15 0-10 15zm-151 0q6 21 19 53 12 27 27 51 21 30 43 54 7 7 22 0 7-3 5-7-46-83-52-151-2-15-13-15H64q-14 0-10 15z"/><glyph glyph-name="quotedblright" unicode="”" horiz-adv-x="374" d="M325 719q-6-21-19-53-12-27-27-51-21-30-43-54-7-7-22 0-7 3-5 7 46 83 52 151 2 15 13 15h41q14 0 10-15zm-152 0q-6-21-19-53-12-27-27-51-21-30-43-54-7-7-22 0-7 3-5 7 46 83 52 151 2 15 13 15h41q14 0 10-15z"/><glyph glyph-name="quotedblbase" unicode="„" horiz-adv-x="374" d="M315 66q-6-21-19-53-12-27-27-51-21-30-43-54-7-7-22 0-7 3-5 7 46 83 52 151 2 15 13 15h41q15 0 10-15zm-152 0q-6-21-19-53-12-27-27-51-21-30-43-54-7-7-22 0-7 3-5 7Q93-2 99 66q2 15 13 15h41q15 0 10-15z"/><glyph glyph-name="dagger" unicode="†" horiz-adv-x="511" d="M437 524q0-9-5.5-11t-26.5-2H283V223q0-20-2-24.5t-9-4.5h-26q-10 0-13.5 6t-3.5 26v285H100q-15 0-18 2.5T79 527v22q0 9 3.5 10.5T99 561h130v144q0 12 1 16.5t5 7.5 14 3h22q9 0 10.5-3.5T283 712V561h125q20 0 24.5-2t4.5-9v-26z"/><glyph glyph-name="daggerdbl" unicode="‡" horiz-adv-x="511" d="M437 524q0-9-5.5-11t-26.5-2H283v-86h129q15 0 18-2.5t3-13.5v-22q0-9-3.5-10.5T413 375H283V223q0-20-2-24.5t-9-4.5h-26q-10 0-13.5 6t-3.5 26v149H104q-20 0-24.5 2t-4.5 9v26q0 9 5.5 11t26.5 2h122v86H100q-15 0-18 2.5T79 527v22q0 9 3.5 10.5T99 561h130v144q0 12 1 16.5t5 7.5 14 3h22q9 0 10.5-3.5T283 712V561h125q20 0 24.5-2t4.5-9v-26z"/><glyph glyph-name="bullet" unicode="•" horiz-adv-x="444" d="M377 322q0-62-44.5-106T227 172t-105.5 44T77 322t44.5 106T227 472t105.5-44T377 322z"/><glyph glyph-name="ellipsis" unicode="…" horiz-adv-x="622" d="M151 27v-8l-1-7-2.5-6.5L142 2l-9-2H86Q62 0 62 25v39q0 20 15 20h51q15 0 19-3.5t4-12.5V27zm211 0v-8l-1-7-2.5-6.5L353 2l-9-2h-47q-24 0-24 25v39q0 20 15 20h51q15 0 19-3.5t4-12.5V27zm207 0v-8l-1-7-2.5-6.5L560 2l-9-2h-47q-24 0-24 25v39q0 20 15 20h51q15 0 19-3.5t4-12.5V27z"/><glyph glyph-name="perthousand" unicode="‰" horiz-adv-x="1068" d="M1012 112q0-66-41-95.5T881-13q-67 0-102.5 32.5T743 109v111q0 151 140 151 59 0 94-36t35-109V112zM587 743q9 0 9-5 0-3-11-23L217 29q-10-19-14.5-24T190 0h-26q-10 0-10 6t11 26l366 684q1 2 3 5.5t3 5 3 4 2.5 3.5 2.5 3 3 2.5l3 1.5 4 1 4.5.5 5.5.5h22zM325 485q0-66-41-95.5T194 360q-67 0-102.5 32.5T56 482v110q0 151 140 151 59 0 94-36t35-109V485zm355-373q0-66-41-95.5T549-13q-67 0-102.5 32.5T411 109v111q0 151 140 151 59 0 94-36t35-109V112zm284-7v121q0 103-81 103-92 0-92-108V108q0-35 23.5-57T881 29q40 0 61.5 22t21.5 54zM277 478v120q0 103-81 103-92 0-92-108V481q0-35 23.5-57t66.5-22q40 0 61.5 22t21.5 54zm355-373v121q0 103-81 103-92 0-92-108V108q0-35 23.5-57T549 29q40 0 61.5 22t21.5 54z"/><glyph glyph-name="guilsinglleft" unicode="‹" horiz-adv-x="349" d="M262 127q11-16-4-23l-22-12q-12-7-23 9L57 320l149 217q14 22 27 12l20-15q11-9-1-27L122 320z"/><glyph glyph-name="guilsinglright" unicode="›" horiz-adv-x="349" d="M288 320L132 101q-11-16-23-9l-22 12q-15 7-4 23l140 193L93 507q-12 18-1 27l20 15q13 10 27-12z"/><glyph glyph-name="fraction" unicode="⁄" horiz-adv-x="380" d="M372 715L68 29Q59 10 55 5T43 0H17q-5 0-8 1.5t-3 5T8 16t7 16l304 684q6 13 8 16.5t7.5 7T350 743h22q9 0 9-5 0-3-9-23z"/><glyph glyph-name="Euro" unicode="€" horiz-adv-x="595" d="M84 403H55q-15 0-18 2.5T34 419v16q0 9 3.5 10.5T54 447h30v45q0 138 50.5 194.5T321 743q104 0 168-44 6-4-7-24t-18-18q-4 2-18 9.5T422.5 678t-25.5 9.5-35.5 8T320 698q-110 0-145-44.5T140 493v-46h177q20 0 24.5-2t4.5-9v-20q0-9-4.5-11t-23.5-2H140v-82h177q20 0 24.5-2t4.5-9v-20q0-9-4.5-11t-23.5-2H140v-88q0-157 175-157 24 0 46 3t40.5 9l30 10L458 65l17 8q6 2 10-9.5t3.5-25T484 23q-64-36-170-36Q84-13 84 189v88H55q-15 0-18 2.5T34 293v16q0 9 3.5 10.5T54 321h30v82z"/><glyph glyph-name="trademark" unicode="™" horiz-adv-x="537" d="M504 471q0-15-8-15h-15q-11 0-11 18v214q0 5-.5 5t-5.5-8q-1-1-1-2l-71-135q-8-12-12-12h-14q-4 0-12 14l-68 132q-7 4-8-1V470q0-14-8-14h-14q-11 0-11 18v242q0 16 6 16h33q7 0 12-8l75-146q2-4 7-2l75 147q6 9 11 9h32q6 0 7-2.5t1-10.5V471zM206 707q0-4-9-4h-60q-8 0-9.5-2t-1.5-9V474q-2-17-7-18H99q-4 0-5 3t-1 15v218q0 6-2 8.5T81 703H15q-9 0-9 4v20q0 5 10 5h180q10 0 10-2v-23z"/><glyph glyph-name="partialdiff" unicode="∂" d="M719 72H8v564h711V72zm-86 456q4 11-11 11h-31q-6 0-10-9 0-3-1-4l-82-276-83 276q-7 12-12 13h-38q-4 0-6-.5t-4-2-1.5-4.5l1.5-9 101-331q3-12 15-12h45q11 0 14 11zM363 196L263 523q-4 16-18 16h-40q-12 0-18-16L88 196q-5-16 3-16h35q7 0 9 2t4 11l22 75h119l23-75q1-5 1.5-6.5t1.5-3.5 3-2.5 5-.5h39q8 0 10 2t0 14zm-95 109h-96l49 164z"/><glyph glyph-name="product" unicode="∏" d="M719 72H8v564h711V72zm-86 456q4 11-11 11h-31q-6 0-10-9 0-3-1-4l-82-276-83 276q-7 12-12 13h-38q-4 0-6-.5t-4-2-1.5-4.5l1.5-9 101-331q3-12 15-12h45q11 0 14 11zM363 196L263 523q-4 16-18 16h-40q-12 0-18-16L88 196q-5-16 3-16h35q7 0 9 2t4 11l22 75h119l23-75q1-5 1.5-6.5t1.5-3.5 3-2.5 5-.5h39q8 0 10 2t0 14zm-95 109h-96l49 164z"/><glyph glyph-name="summation" unicode="∑" d="M719 72H8v564h711V72zm-86 456q4 11-11 11h-31q-6 0-10-9 0-3-1-4l-82-276-83 276q-7 12-12 13h-38q-4 0-6-.5t-4-2-1.5-4.5l1.5-9 101-331q3-12 15-12h45q11 0 14 11zM363 196L263 523q-4 16-18 16h-40q-12 0-18-16L88 196q-5-16 3-16h35q7 0 9 2t4 11l22 75h119l23-75q1-5 1.5-6.5t1.5-3.5 3-2.5 5-.5h39q8 0 10 2t0 14zm-95 109h-96l49 164z"/><glyph glyph-name="minus" unicode="−" d="M719 72H8v564h711V72zm-86 456q4 11-11 11h-31q-6 0-10-9 0-3-1-4l-82-276-83 276q-7 12-12 13h-38q-4 0-6-.5t-4-2-1.5-4.5l1.5-9 101-331q3-12 15-12h45q11 0 14 11zM363 196L263 523q-4 16-18 16h-40q-12 0-18-16L88 196q-5-16 3-16h35q7 0 9 2t4 11l22 75h119l23-75q1-5 1.5-6.5t1.5-3.5 3-2.5 5-.5h39q8 0 10 2t0 14zm-95 109h-96l49 164z"/><glyph glyph-name="radical" unicode="√" horiz-adv-x="475" d="M430 686L245 17q-3-9-7-12.5t-6.5-4T220 0h-19q-17 0-22 15L62 357q-6 16 14 16h24q11 0 15-14 1-1 1-2l97-282 168 616q6 16 15 16h28q10 0 10.5-3.5T430 686z"/><glyph glyph-name="infinity" unicode="∞" horiz-adv-x="750" d="M674 29q0-20-2-24.5T663 0h-33q-6 0-8 5t-2 24v469H425V20q0-20-15-20h-23q-17 0-17 17v481H176V20q0-20-15-20h-23q-17 0-17 17v481H61q-10 0-12 1.5t-2 9.5v18q0 11 9 11h59q-23 46-23 92 0 113 103 113 44 0 72-10 3-3 3-12.5t-4-20-8-9.5q-40 10-60 10-56 0-56-69 0-48 28-94h194q-23 46-23 92 0 113 103 113 44 0 72-10 3-3 3-12.5t-4-20-8-9.5q-40 10-60 10-56 0-56-69 0-48 28-94h243q9 0 10.5-3.5T674 518V29zm0 654q0-20-2-24.5t-9-4.5h-26q-10 0-13.5 6t-3.5 26v19q0 12 1 16.5t5 7.5 14 3h22q9 0 10.5-3.5T674 712v-29z"/><glyph glyph-name="integral" unicode="∫" d="M719 72H8v564h711V72zm-86 456q4 11-11 11h-31q-6 0-10-9 0-3-1-4l-82-276-83 276q-7 12-12 13h-38q-4 0-6-.5t-4-2-1.5-4.5l1.5-9 101-331q3-12 15-12h45q11 0 14 11zM363 196L263 523q-4 16-18 16h-40q-12 0-18-16L88 196q-5-16 3-16h35q7 0 9 2t4 11l22 75h119l23-75q1-5 1.5-6.5t1.5-3.5 3-2.5 5-.5h39q8 0 10 2t0 14zm-95 109h-96l49 164z"/><glyph glyph-name="approxequal" unicode="≈" d="M719 72H8v564h711V72zm-86 456q4 11-11 11h-31q-6 0-10-9 0-3-1-4l-82-276-83 276q-7 12-12 13h-38q-4 0-6-.5t-4-2-1.5-4.5l1.5-9 101-331q3-12 15-12h45q11 0 14 11zM363 196L263 523q-4 16-18 16h-40q-12 0-18-16L88 196q-5-16 3-16h35q7 0 9 2t4 11l22 75h119l23-75q1-5 1.5-6.5t1.5-3.5 3-2.5 5-.5h39q8 0 10 2t0 14zm-95 109h-96l49 164z"/><glyph glyph-name="notequal" unicode="≠" horiz-adv-x="546" d="M520 490q0-8-19-8h-76V20q0-20-15-20h-23q-17 0-17 17v465H176V20q0-20-15-20h-23q-17 0-17 17v465H61q-10 0-12 1.5t-2 9.5v18q0 11 9 11h59q-23 46-23 98 0 55 25.5 89t77.5 34q44 0 72-10 3-3 3-12.5t-4-20-8-9.5q-40 10-60 10-25 0-40.5-21T142 622q0-54 28-100h194q-23 46-23 98 0 55 25.5 89t77.5 34q44 0 72-10 3-3 3-12.5t-4-20-8-9.5q-40 10-60 10-25 0-40.5-21T391 622q0-54 28-100h84q17 0 17-9v-23z"/><glyph glyph-name="lessequal" unicode="≤" d="M719 72H8v564h711V72zm-86 456q4 11-11 11h-31q-6 0-10-9 0-3-1-4l-82-276-83 276q-7 12-12 13h-38q-4 0-6-.5t-4-2-1.5-4.5l1.5-9 101-331q3-12 15-12h45q11 0 14 11zM363 196L263 523q-4 16-18 16h-40q-12 0-18-16L88 196q-5-16 3-16h35q7 0 9 2t4 11l22 75h119l23-75q1-5 1.5-6.5t1.5-3.5 3-2.5 5-.5h39q8 0 10 2t0 14zm-95 109h-96l49 164z"/><glyph glyph-name="greaterequal" unicode="≥" d="M719 72H8v564h711V72zm-86 456q4 11-11 11h-31q-6 0-10-9 0-3-1-4l-82-276-83 276q-7 12-12 13h-38q-4 0-6-.5t-4-2-1.5-4.5l1.5-9 101-331q3-12 15-12h45q11 0 14 11zM363 196L263 523q-4 16-18 16h-40q-12 0-18-16L88 196q-5-16 3-16h35q7 0 9 2t4 11l22 75h119l23-75q1-5 1.5-6.5t1.5-3.5 3-2.5 5-.5h39q8 0 10 2t0 14zm-95 109h-96l49 164z"/><glyph glyph-name="lozenge" unicode="◊" d="M719 72H8v564h711V72zm-86 456q4 11-11 11h-31q-6 0-10-9 0-3-1-4l-82-276-83 276q-7 12-12 13h-38q-4 0-6-.5t-4-2-1.5-4.5l1.5-9 101-331q3-12 15-12h45q11 0 14 11zM363 196L263 523q-4 16-18 16h-40q-12 0-18-16L88 196q-5-16 3-16h35q7 0 9 2t4 11l22 75h119l23-75q1-5 1.5-6.5t1.5-3.5 3-2.5 5-.5h39q8 0 10 2t0 14zm-95 109h-96l49 164z"/><glyph glyph-name="NUL" unicode="" horiz-adv-x="0"/><glyph glyph-name="apple" unicode="" d="M719 72H8v564h711V72zm-86 456q4 11-11 11h-31q-6 0-10-9 0-3-1-4l-82-276-83 276q-7 12-12 13h-38q-4 0-6-.5t-4-2-1.5-4.5l1.5-9 101-331q3-12 15-12h45q11 0 14 11zM363 196L263 523q-4 16-18 16h-40q-12 0-18-16L88 196q-5-16 3-16h35q7 0 9 2t4 11l22 75h119l23-75q1-5 1.5-6.5t1.5-3.5 3-2.5 5-.5h39q8 0 10 2t0 14zm-95 109h-96l49 164z"/><glyph glyph-name="fl" unicode="ﬂ" horiz-adv-x="500" d="M271 490q0-8-19-8h-76V20q0-20-15-20h-23q-17 0-17 17v465H61q-10 0-12 1.5t-2 9.5v18q0 11 9 11h59q-23 46-23 98 0 55 25.5 89t77.5 34q44 0 72-10 3-3 3-12.5t-4-20-8-9.5q-40 10-60 10-25 0-40.5-21T142 622q0-54 28-100h79q22 0 22-8v-24zM424 29q0-20-2-24.5T413 0h-26q-10 0-13.5 6T370 32v684q0 12 1 16.5t5 7.5 14 3h22q9 0 10.5-3.5T424 723V29z"/><glyph glyph-name="f_f_l" unicode="ﬄ" horiz-adv-x="750" d="M520 490q0-8-19-8h-76V20q0-20-15-20h-23q-17 0-17 17v465H176V20q0-20-15-20h-23q-17 0-17 17v465H61q-10 0-12 1.5t-2 9.5v18q0 11 9 11h59q-23 46-23 98 0 55 25.5 89t77.5 34q44 0 72-10 3-3 3-12.5t-4-20-8-9.5q-40 10-60 10-25 0-40.5-21T142 622q0-54 28-100h194q-23 46-23 98 0 55 25.5 89t77.5 34q44 0 72-10 3-3 3-12.5t-4-20-8-9.5q-40 10-60 10-25 0-40.5-21T391 622q0-54 28-100h84q17 0 17-9v-23zM674 29q0-20-2-24.5T663 0h-26q-10 0-13.5 6T620 32v684q0 12 1 16.5t5 7.5 14 3h22q9 0 10.5-3.5T674 723V29z"/><glyph glyph-name="zero.tab" horiz-adv-x="613" d="M531 228q0-66-15.5-113t-36-71.5-54-38-57-16T312-13Q82-13 82 189v303q0 138 50 194.5T316 743q112 0 163.5-54T531 501V228zm-56-11v284q0 111-33.5 154T316 698q-108 0-143-44.5T138 493V189q0-157 175-157 41 0 66 5.5t49.5 23 35.5 56T475 217z"/><glyph glyph-name="one.tab" horiz-adv-x="613" d="M286 68v588q0 11-10 11H167q-6 0-9.5 2.5T154 675l-1 3v17q0 7 2 9.5t10 3.5l111 21q18 3 30 3h21q11 0 13-6t2-28V68q0-13 3.5-16t19.5-3h106q11 0 11-8V7q0-7-13-7H156q-9 0-11 2t-2 8v31q0 8 12 8h108q16 0 19.5 3t3.5 16z"/><glyph glyph-name="two.tab" horiz-adv-x="613" d="M514 11q0-11-15-11H91q-5 0-7 .5t-4 5T78 19v33q0 109 54.5 185T265 359q89 53 139.5 101.5T455 560q0 67-40 102.5T302 698q-34 0-65-7t-45-12.5-37.5-18.5-24.5-14q-4-2-11.5 9t-11 21.5.5 15.5q26 16 45 24.5t62.5 17.5 97.5 9q92 0 146.5-45.5T514 567q0-37-18-72.5T442.5 427t-68-55.5T294 319Q141 226 134 73q-1-14 3-18t19-4h343q9 0 12-2.5t3-12.5V11z"/><glyph glyph-name="three.tab" horiz-adv-x="613" d="M505 186q0-93-60-146T298-13Q168-13 95 34q-4 5-3 16t8.5 21 14.5 7q36-16 57-24.5T226.5 38t68.5-7q70 0 114.5 40T454 182q0 68-53.5 112T267 343h-10.5l-8.5.5-6 4-2 10.5v17q0 4 .5 7t2 5 2.5 3 4.5 1.5 4.5.5 6 .5 7 .5q81 5 133 48t52 120q0 63-45 101.5T283 701q-83 0-151-49-5-4-13 4.5t-11 19 1 16.5q65 51 175 51 108 0 164.5-50T505 559q0-71-47.5-123.5T336 369q74-17 121.5-65T505 186z"/><glyph glyph-name="four.tab" horiz-adv-x="613" d="M513 163q0-11-9-11h-38V13q0-8-2-10.5T455 0h-32q-8 0-10.5 2.5T410 14v138H101q-15 0-15 7v21q0 15 5 24l324 500q17 28 22 28h19q5 0 7.5-1.5t2.5-3.5V196h38q6 0 7.5-1t1.5-7v-25zm-103 33v413L142 196h268z"/><glyph glyph-name="five.tab" horiz-adv-x="613" d="M510 215q0-91-64.5-158.5T282-11q-66 0-114 17T98 40q-3 5 0 16t10.5 21.5T120 86l18-10q19-10 28-13.5t29-10 41.5-9.5 47.5-3q76 0 121.5 49.5T451 209q0 122-87 168-69 36-202 39-24 0-24 22v275q0 13 3 16t10 3h338q15 0 15-11v-25q0-10-3-12.5t-12-2.5H212q-15 0-18.5-4t-3.5-18V478q0-16 22-17 107-4 183-45 115-62 115-201z"/><glyph glyph-name="six.tab" horiz-adv-x="613" d="M543 218q0-105-52-168T324-13Q94-13 94 190v302q0 138 50 194.5T328 743q100 0 141-19 4-4 .5-14.5t-11-21.5-10.5-10q-67 21-120 21-108 0-143-44.5T150 493v-62q0-22 5-23 4 0 9 3 82 42 162 42 107 0 162-64t55-171zm-56 0q0 193-163 193-83 0-160-43-14-9-14-26V189q0-160 175-160 162 0 162 189z"/><glyph glyph-name="seven.tab" horiz-adv-x="613" d="M525 697L300 17q-6-17-11-17h-40q-10 0-11 3.5t4 16.5l218 652q4 13-16 13H95q-9 0-9 15v22q0 10 12 10h397q41 0 30-35z"/><glyph glyph-name="eight.tab" horiz-adv-x="613" d="M535 179q0-87-59.5-139.5T312-13Q78-13 78 179q0 69 40.5 124.5T203 369q-46 19-78.5 63.5T92 531q0 89 58 150.5T302 743q106 0 161.5-59T519 532q0-57-40.5-105.5T394 369q66-19 103.5-70.5T535 179zm-70 352q0 85-44 127t-119 42q-68 0-111-43t-43-125q0-70 41.5-104.5T301 393q79 0 121.5 35T465 531zm14-351q0 69-48 118t-130 49q-81 0-124-50t-43-118q0-73 47.5-111T312 30q80 0 123.5 38.5T479 180z"/><glyph glyph-name="nine.tab" horiz-adv-x="613" d="M519 238q0-134-59-192.5T265-13q-43 0-91 9.5T105 16q-4 4-.5 14t11 20.5T126 60q2-1 14-5l24.5-8 29-8.5 35.5-7 36-2.5q111 0 154.5 47.5T463 237v62q0 22-5 23-4 0-9-3-82-42-162-42-107 0-162 64T70 512q0 105 52 168t167 63q230 0 230-203V238zm-56 150v153q0 160-175 160-162 0-162-189 0-193 163-193 83 0 160 43 14 9 14 26z"/><glyph glyph-name="a.salt_ts" horiz-adv-x="491" d="M350 332q0 85-26.5 130.5T223 508q-67 0-141-42-6-3-13 6.5t-8 21 6 17.5q73 41 156 41 90 0 135.5-45T404 356V99q0-32 8.5-42.5T443 46q15 0 15-15V6q0-12-16-12-42 0-65 22.5T352 78q-19-38-61.5-62.5T201-9Q35-9 35 142q0 95 76 142.5T350 332zm0-185v145q-136 0-198.5-34T89 141q0-62 28-86.5T202 30q60 0 104 42.5t44 74.5z"/><glyph glyph-name="aacute.salt_ts" horiz-adv-x="491" d="M368 748L246 611q-13-14-25-14h-21q-15 0 1 22l97 135q1 2 3.5 5.5t3.5 4.5 3.5 3 4 3 5 1.5 7.5.5h39q18 0 18-4t-14-20zm-18-416q0 85-26.5 130.5T223 508q-67 0-141-42-6-3-13 6.5t-8 21 6 17.5q73 41 156 41 90 0 135.5-45T404 356V99q0-32 8.5-42.5T443 46q15 0 15-15V6q0-12-16-12-42 0-65 22.5T352 78q-19-38-61.5-62.5T201-9Q35-9 35 142q0 95 76 142.5T350 332zm0-185v145q-136 0-198.5-34T89 141q0-62 28-86.5T202 30q60 0 104 42.5t44 74.5z"/><glyph glyph-name="agrave.salt_ts" horiz-adv-x="491" d="M357 332q0 85-26.5 130.5T232 508q-67 0-139-41-6-3-13 6.5t-8 21 6 17.5q71 40 154 40 90 0 134.5-45T411 356V99q0-32 8.5-42.5T450 46q15 0 15-15V6q0-12-16-12-42 0-65 22.5T359 78q-23-39-66-63T202-9Q46-9 46 142q0 94 74.5 142T357 332zm0-189v152q-47 0-80.5-3t-69-12-57.5-25.5-36-45-14-68.5q0-61 27-86t76-25q59 0 106.5 42.5T357 143zm-33 454h-21q-12 0-25 14L156 748q-14 16-14 20t18 4h39q4 0 6.5-.5t4.5-1 3.5-1.5 3.5-3l3-3 3-4 3-5 97-135q16-22 1-22z"/><glyph glyph-name="acircumflex.salt_ts" horiz-adv-x="491" d="M373 597h-16q-15 0-22 10l-90 118-89-118q-7-10-23-10h-16q-15 0 1 22l87 135q1 2 3.5 5.5t3.5 4.5 3.5 3 4 3 5 1.5 7.5.5h26q4 0 6.5-.5t4.5-1 3.5-1.5 3.5-3l3-3 3-4 3-5 87-135q16-22 1-22zm-23-265q0 85-26.5 130.5T223 508q-67 0-141-42-6-3-13 6.5t-8 21 6 17.5q73 41 156 41 90 0 135.5-45T404 356V99q0-32 8.5-42.5T443 46q15 0 15-15V6q0-12-16-12-42 0-65 22.5T352 78q-19-38-61.5-62.5T201-9Q35-9 35 142q0 95 76 142.5T350 332zm0-185v145q-136 0-198.5-34T89 141q0-62 28-86.5T202 30q60 0 104 42.5t44 74.5z"/><glyph glyph-name="adieresis.salt_ts" horiz-adv-x="491" d="M375 669v-8l-1-7-2.5-6.5-5.5-3.5-9-2h-30q-24 0-24 25v39q0 20 15 20h34q15 0 19-3.5t4-12.5v-41zm-201-7q0-20-15-20h-34q-15 0-19 3.5t-4 12.5v49l1 7 2.5 6.5 5.5 3.5 9 2h30q24 0 24-25v-39zm176-330q0 85-26.5 130.5T223 508q-67 0-141-42-6-3-13 6.5t-8 21 6 17.5q73 41 156 41 90 0 135.5-45T404 356V99q0-32 8.5-42.5T443 46q15 0 15-15V6q0-12-16-12-42 0-65 22.5T352 78q-19-38-61.5-62.5T201-9Q35-9 35 142q0 95 76 142.5T350 332zm0-185v145q-136 0-198.5-34T89 141q0-62 28-86.5T202 30q60 0 104 42.5t44 74.5z"/><glyph glyph-name="atilde.salt_ts" horiz-adv-x="491" d="M414 709q-27-42-50.5-58.5T307 634q-25 0-73 30.5T169 695q-27 0-60-45-8-11-14-6l-21 18q-5 4 0 12 46 65 98 65 22 0 72-31.5t68-31.5q38 0 65 51 6 10 13 5l23-10q7-4 1-13zm-64-377q0 85-26.5 130.5T223 508q-67 0-141-42-6-3-13 6.5t-8 21 6 17.5q73 41 156 41 90 0 135.5-45T404 356V99q0-32 8.5-42.5T443 46q15 0 15-15V6q0-12-16-12-42 0-65 22.5T352 78q-19-38-61.5-62.5T201-9Q35-9 35 142q0 95 76 142.5T350 332zm0-185v145q-136 0-198.5-34T89 141q0-62 28-86.5T202 30q60 0 104 42.5t44 74.5z"/><glyph glyph-name="aring.salt_ts" horiz-adv-x="491" d="M346 708q0-42-31.5-72.5T240 605t-74.5 30.5T134 708t31.5 72.5T240 811t74.5-30.5T346 708zm-40 0q0 27-19 48t-47 21-47-21-19-48 18.5-48 47.5-21q28 0 47 21t19 48zm44-376q0 85-26.5 130.5T223 508q-67 0-141-42-6-3-13 6.5t-8 21 6 17.5q73 41 156 41 90 0 135.5-45T404 356V99q0-32 8.5-42.5T443 46q15 0 15-15V6q0-12-16-12-42 0-65 22.5T352 78q-19-38-61.5-62.5T201-9Q35-9 35 142q0 95 76 142.5T350 332zm0-185v145q-136 0-198.5-34T89 141q0-62 28-86.5T202 30q60 0 104 42.5t44 74.5z"/><glyph glyph-name="ae.salt_ts" horiz-adv-x="807" d="M748 289q0-19-6-28t-24-9H397q0-216 174-216 76 0 135 28 27 14 27-3V30.5l-.5-3L731 25l-2-2-2.5-2-3-1.5L719 18l-5-2-6.5-2.5L700 11Q648-9 578-9 420-9 373 103q-15-41-64-76.5T201-9Q35-9 35 142q0 95 76 142.5T350 332q0 85-26.5 130.5T223 508q-67 0-141-42-6-3-13 6.5t-8 21 6 17.5q73 41 156 41 132 0 163-99 20 44 63.5 70.5T550 550q91 0 144.5-53T748 332v-43zM357 150q-3 11-4.5 46.5T350 262v30q-136 0-198.5-34T89 141q0-62 28-86.5T202 30q59 0 98 36.5t57 83.5zm341 158q-2 105-37 152.5T551 508q-72 0-112.5-55T396 309v-8.5l1-4.5 4-3.5 8-.5h278q7 0 9 2.5t2 13.5z"/><glyph glyph-name="g.salt_ts" horiz-adv-x="533" d="M489-53q0-69-61.5-115T263-214q-115 0-173.5 46T31-61q0 44 28.5 82T147 79q-41 14-57.5 45T88 186.5t59 45.5q-49 20-74.5 61T47 381q0 74 58 121.5T259 550q91 0 145-49 49 76 118 76 8 0 10.5-12.5t-1-25.5-10.5-13q-22 0-47.5-15.5T429 472q27-41 27-92 0-64-53-115t-147-51q-34 0-55 4-52-10-61-46-9-35 29-59 27-16 69-17 5 0 16 .5t17 .5q102 0 160-40.5T489-53zm-56-2q0 111-174 111Q88 56 88-61q0-47 41.5-79.5T264-173q85 0 127 33.5T433-55zm-34 437q0 56-35.5 91T260 508q-81 0-118.5-37T104 382q0-60 40-92t113-32q69 0 105.5 33t36.5 91z"/><glyph glyph-name="W.salt_ht" horiz-adv-x="862" d="M821 717L648 16q-2-10-5.5-13T630 0h-37q-16 0-21 20L435 638 288 16q-2-10-5.5-13T270 0h-37q-16 0-21 20L45 699q-9 33 3 33h37q10 0 13-4.5t7-21.5L252 79l150 639q3 14 16 14h35q10 0 13.5-4.5T473 706L612 79l149 627q4 17 7.5 21.5T781 732h32q13 0 8-15z"/><glyph glyph-name="w.salt_ht" horiz-adv-x="608" d="M583 517L461 17q-2-9-6-13t-6.5-4H417q-19 0-22 15l-91 421L201 17q-2-9-6-13t-6.5-4H157q-19 0-22 15L26 522q-2 10 1.5 13t12.5 3h21q12 0 16-16l96-451 105 451q3 16 14 16h27q6 0 10-16L433 71l104 451q3 16 15 16h25q8 0 9.5-2.5T584 522q0-3-1-5z"/><glyph glyph-name="M.salt_ht" horiz-adv-x="776" d="M686 27q0-11-.5-15.5t-4-8T670 0h-20q-14 0-18 6.5T628 33v590q0 10-2 14.5t-5.5 1T614 624L421 27q-7-27-17-27h-39q-12 0-20 28L160 619q-5 18-10.5 17t-5.5-19V26q0-14-3-20t-14-6h-17Q97 0 92.5 5.5T88 33v667q0 32 11 32h61q19 0 25-19L377 98q2-6 4.5-7.5t5 0T391 97l201 614q7 21 22 21h56q12 0 14-6.5t2-27.5V27z"/><glyph glyph-name="Q.salt_tail" horiz-adv-x="677" d="M593 228q0-165-111-217l51-80q12-20 2-26l-26-17q-13-9-21 6L430-5q-35-8-86-8-44 0-84 8t-82.5 28-68 63T84 190v302q0 133 63 192t201 59q117 0 181-55t64-186V228zm-202-72l66-105q80 37 80 166v284q0 106-46.5 151T348 697q-113 0-160.5-46.5T140 493V189q0-43 18-75t48.5-49 65-24.5T345 33q41 0 60 3l-53 90q-15 24-1 32l16 9q12 7 24-11z"/><glyph glyph-name="ampersand.salt_loop" horiz-adv-x="602" d="M417 147q55 80 73 203 1 7 14 8t24.5-5 9.5-15q-28-138-86-222 74-61 109-87 15-12 10-21l-15-21q-7-12-27 4-61 46-107 87Q341-9 212-9 135-9 85 33T35 137q0 68 36 117.5T171 349q-68 105-68 183 0 98 54.5 154.5T303 743q82 0 128.5-43T478 593q0-30-11.5-57.5t-26-46.5-43-42-48.5-36l-57.5-36-54.5-34q69-94 180-194zm6 444q0 47-32.5 76.5T303 697q-69 0-107.5-47T157 531q0-66 55-154l49.5 30.5 52 32.5 41 30.5 38 36.5 20.5 37.5 10 46.5zM196 313Q91 236 91 138q0-45 35-74t91-29q101 0 170 74-117 105-191 204z"/><glyph glyph-name="A.unic" horiz-adv-x="591" d="M446 407v131q0 80-43.5 119.5T283 697q-89 0-171-47-6-3-13 7.5T90.5 680t5.5 18q28 16 83 30.5T283 743q96 0 157.5-47T502 547V23q0-23-10-23h-31q-9 0-12 5.5T446 26v52q-23-39-73.5-65T263-13Q57-13 57 172q0 235 389 235zm0-228v182q-51 0-92-3.5t-88-15-79-31.5-53.5-55.5T112 171q0-138 152-138 78 0 130 47t52 99z"/><glyph glyph-name="E.unic" horiz-adv-x="642" d="M529 360H140V186q0-68 57.5-110.5T349 33q21 0 42.5 2.5T428 41t32.5 8.5 25.5 9l20.5 9L520 73q6 2 11-9.5t5-23-4-16.5q-65-37-190-37-121 0-189.5 56T84 190v307q0 110 63 178t186 68q109 0 165-62t56-181V390q0-30-25-30zM140 491v-84h358v93q0 197-165 197-193 0-193-206z"/><glyph glyph-name="M.unic" horiz-adv-x="877" d="M88 32v679q0 15 2.5 18t11.5 3h34q9 0 9-21v-59q22 42 65 65.5t90 23.5q53 0 93.5-27.5T453 639q27 51 72 76.5t96 25.5q76 0 122-41.5T789 572V25q0-18-2-21.5T775 0h-27q-9 0-11 6.5T735 33v539q0 56-30 90t-92 34q-63 0-99.5-41T468 566V25q0-18-2-21.5T454 0h-27q-9 0-11 6.5T414 33v529q0 57-30.5 95.5T292 696q-66 0-107-51.5T144 538V29q0-20-2-24.5T133 0h-28Q95 0 91.5 6T88 32z"/><glyph glyph-name="N.unic" horiz-adv-x="626" d="M88 32v679q0 15 2.5 18t11.5 3h34q9 0 9-21v-57q27 39 76 63t115 24q94 0 148-50.5T538 556V25q0-18-2-21.5T524 0h-27q-9 0-11 6.5T484 33v519q0 69-40 106.5T334 696q-82 0-136-47.5T144 538V29q0-20-2-24.5T133 0h-28Q95 0 91.5 6T88 32z"/><glyph glyph-name="U.unic" horiz-adv-x="626" d="M538 700V21q0-15-2.5-18T524 0h-34q-9 0-9 21v57q-27-39-76-63T290-9q-94 0-148 50.5T88 176v531q0 18 2 21.5t12 3.5h27q9 0 11-6.5t2-26.5V180q0-69 40-106.5T292 36q82 0 136 47.5T482 194v509q0 20 2 24.5t9 4.5h28q10 0 13.5-6t3.5-26z"/><glyph glyph-name="Aacute.unic" horiz-adv-x="591" d="M446 407v131q0 80-43.5 119.5T283 697q-89 0-171-47-6-3-13 7.5T90.5 680t5.5 18q28 16 83 30.5T283 743q96 0 157.5-47T502 547V23q0-23-10-23h-31q-9 0-12 5.5T446 26v52q-23-39-73.5-65T263-13Q57-13 57 172q0 235 389 235zm0-228v182q-51 0-92-3.5t-88-15-79-31.5-53.5-55.5T112 171q0-138 152-138 78 0 130 47t52 99zm-33 749L291 791q-13-14-25-14h-21q-15 0 1 22l97 135q1 2 3.5 5.5t3.5 4.5 3.5 3 4 3 5 1.5 7.5.5h39q18 0 18-4t-14-20z"/><glyph glyph-name="Agrave.unic" horiz-adv-x="591" d="M446 407v131q0 80-43.5 119.5T283 697q-89 0-171-47-6-3-13 7.5T90.5 680t5.5 18q28 16 83 30.5T283 743q96 0 157.5-47T502 547V23q0-23-10-23h-31q-9 0-12 5.5T446 26v52q-23-39-73.5-65T263-13Q57-13 57 172q0 235 389 235zm0-228v182q-51 0-92-3.5t-88-15-79-31.5-53.5-55.5T112 171q0-138 152-138 78 0 130 47t52 99zm-85 598h-21q-12 0-25 14L193 928q-14 16-14 20t18 4h39q4 0 6.5-.5t4.5-1 3.5-1.5 3.5-3l3-3 3-4 3-5 97-135q16-22 1-22z"/><glyph glyph-name="Acircumflex.unic" horiz-adv-x="591" d="M446 407v131q0 80-43.5 119.5T283 697q-89 0-171-47-6-3-13 7.5T90.5 680t5.5 18q28 16 83 30.5T283 743q96 0 157.5-47T502 547V23q0-23-10-23h-31q-9 0-12 5.5T446 26v52q-23-39-73.5-65T263-13Q57-13 57 172q0 235 389 235zm0-228v182q-51 0-92-3.5t-88-15-79-31.5-53.5-55.5T112 171q0-138 152-138 78 0 130 47t52 99zm-32 598h-16q-14 0-22 10l-90 118-89-118q-7-10-23-10h-16q-15 0 1 22l87 135q1 2 3.5 5.5t3.5 4.5 3.5 3 4 3 5 1.5 7.5.5h26q4 0 6.5-.5t4.5-1 3.5-1.5 3.5-3l3-3 3-4 3-5 87-135q16-22 1-22z"/><glyph glyph-name="Adieresis.unic" horiz-adv-x="591" d="M446 407v131q0 80-43.5 119.5T283 697q-89 0-171-47-6-3-13 7.5T90.5 680t5.5 18q28 16 83 30.5T283 743q96 0 157.5-47T502 547V23q0-23-10-23h-31q-9 0-12 5.5T446 26v52q-23-39-73.5-65T263-13Q57-13 57 172q0 235 389 235zm0-228v182q-51 0-92-3.5t-88-15-79-31.5-53.5-55.5T112 171q0-138 152-138 78 0 130 47t52 99zm-27 670v-8l-1-7-2.5-6.5-5.5-3.5-9-2h-30q-24 0-24 25v39q0 20 15 20h34q15 0 19-3.5t4-12.5v-41zm-201-7q0-20-15-20h-34q-15 0-19 3.5t-4 12.5v49l1 7 2.5 6.5 5.5 3.5 9 2h30q24 0 24-25v-39z"/><glyph glyph-name="Atilde.unic" horiz-adv-x="591" d="M446 407v131q0 80-43.5 119.5T283 697q-89 0-171-47-6-3-13 7.5T90.5 680t5.5 18q28 16 83 30.5T283 743q96 0 157.5-47T502 547V23q0-23-10-23h-31q-9 0-12 5.5T446 26v52q-23-39-73.5-65T263-13Q57-13 57 172q0 235 389 235zm0-228v182q-51 0-92-3.5t-88-15-79-31.5-53.5-55.5T112 171q0-138 152-138 78 0 130 47t52 99zm9 710q-27-42-50.5-58.5T348 814q-25 0-73 30.5T210 875q-28 0-60-45-8-11-14-6l-21 18q-5 4 0 12 46 65 98 65 22 0 72-31.5t68-31.5q38 0 65 51 6 10 13 5l23-10q7-4 1-13z"/><glyph glyph-name="Aring.unic" horiz-adv-x="591" d="M446 407v131q0 80-43.5 119.5T283 697q-89 0-171-47-6-3-13 7.5T90.5 680t5.5 18q28 16 83 30.5T283 743q96 0 157.5-47T502 547V23q0-23-10-23h-31q-9 0-12 5.5T446 26v52q-23-39-73.5-65T263-13Q57-13 57 172q0 235 389 235zm0-228v182q-51 0-92-3.5t-88-15-79-31.5-53.5-55.5T112 171q0-138 152-138 78 0 130 47t52 99zm-49 709q0-42-31.5-72.5T291 785t-74.5 30.5T185 888t31.5 72.5T291 991t74.5-30.5T397 888zm-40 0q0 27-19 48t-47 21-47-21-19-48 18.5-48 47.5-21q28 0 47 21t19 48z"/><glyph glyph-name="AE.unic" horiz-adv-x="1003" d="M890 360H501V186q0-68 57.5-110.5T710 33q21 0 42.5 2.5T789 41t32.5 8.5 25.5 9l20.5 9L881 73q6 2 11-9.5t5-23-4-16.5q-65-37-190-37-182 0-239 118Q399-13 263-13 57-13 57 172q0 235 389 235v131q0 80-43.5 119.5T283 697q-89 0-171-47-6-3-13 7.5T90.5 680t5.5 18q28 16 83 30.5T283 743q150 0 198-103 64 103 213 103 109 0 165-62t56-181V390q0-30-25-30zM501 491v-84h358v93q0 197-165 197-193 0-193-206zm-55-312v182q-51 0-92-3.5t-88-15-79-31.5-53.5-55.5T112 171q0-138 152-138 78 0 130 47t52 99z"/><glyph glyph-name="Eacute.unic" horiz-adv-x="642" d="M454 928L332 791q-13-14-25-14h-21q-15 0 1 22l97 135q1 2 3.5 5.5t3.5 4.5 3.5 3 4 3 5 1.5 7.5.5h39q18 0 18-4t-14-20zm75-568H140V186q0-68 57.5-110.5T349 33q21 0 42.5 2.5T428 41t32.5 8.5 25.5 9l20.5 9L520 73q6 2 11-9.5t5-23-4-16.5q-65-37-190-37-121 0-189.5 56T84 190v307q0 110 63 178t186 68q109 0 165-62t56-181V390q0-30-25-30zM140 491v-84h358v93q0 197-165 197-193 0-193-206z"/><glyph glyph-name="Egrave.unic" horiz-adv-x="642" d="M391 777h-21q-12 0-25 14L223 928q-14 16-14 20t18 4h39q4 0 6.5-.5t4.5-1 3.5-1.5 3.5-3l3-3 3-4 3-5 97-135q16-22 1-22zm138-417H140V186q0-68 57.5-110.5T349 33q21 0 42.5 2.5T428 41t32.5 8.5 25.5 9l20.5 9L520 73q6 2 11-9.5t5-23-4-16.5q-65-37-190-37-121 0-189.5 56T84 190v307q0 110 63 178t186 68q109 0 165-62t56-181V390q0-30-25-30zM140 491v-84h358v93q0 197-165 197-193 0-193-206z"/><glyph glyph-name="Ecircumflex.unic" horiz-adv-x="642" d="M461 777h-16q-15 0-22 10l-90 118-89-118q-7-10-23-10h-16q-15 0 1 22l87 135q1 2 3.5 5.5t3.5 4.5 3.5 3 4 3 5 1.5 7.5.5h26q4 0 6.5-.5t4.5-1 3.5-1.5 3.5-3l3-3 3-4 3-5 87-135q16-22 1-22zm68-417H140V186q0-68 57.5-110.5T349 33q21 0 42.5 2.5T428 41t32.5 8.5 25.5 9l20.5 9L520 73q6 2 11-9.5t5-23-4-16.5q-65-37-190-37-121 0-189.5 56T84 190v307q0 110 63 178t186 68q109 0 165-62t56-181V390q0-30-25-30zM140 491v-84h358v93q0 197-165 197-193 0-193-206z"/><glyph glyph-name="Edieresis.unic" horiz-adv-x="642" d="M463 849v-8l-1-7-2.5-6.5-5.5-3.5-9-2h-30q-24 0-24 25v39q0 20 15 20h34q15 0 19-3.5t4-12.5v-41zm-201-7q0-20-15-20h-34q-15 0-19 3.5t-4 12.5v49l1 7 2.5 6.5 5.5 3.5 9 2h30q24 0 24-25v-39zm267-482H140V186q0-68 57.5-110.5T349 33q21 0 42.5 2.5T428 41t32.5 8.5 25.5 9l20.5 9L520 73q6 2 11-9.5t5-23-4-16.5q-65-37-190-37-121 0-189.5 56T84 190v307q0 110 63 178t186 68q109 0 165-62t56-181V390q0-30-25-30zM140 491v-84h358v93q0 197-165 197-193 0-193-206z"/><glyph glyph-name="Ntilde.unic" horiz-adv-x="626" d="M503 889q-27-42-50.5-58.5T396 814q-25 0-73 30.5T258 875q-28 0-60-45-8-11-14-6l-21 18q-5 4 0 12 46 65 98 65 22 0 72-31.5t68-31.5q38 0 65 51 6 10 13 5l23-10q7-4 1-13zM88 32v679q0 15 2.5 18t11.5 3h34q9 0 9-21v-57q27 39 76 63t115 24q94 0 148-50.5T538 556V25q0-18-2-21.5T524 0h-27q-9 0-11 6.5T484 33v519q0 69-40 106.5T334 696q-82 0-136-47.5T144 538V29q0-20-2-24.5T133 0h-28Q95 0 91.5 6T88 32z"/><glyph glyph-name="OE.unic" horiz-adv-x="1092" d="M792-13Q623-13 561 91 508-13 343-13q-34 0-66 4.5T208.5 9t-63 34.5-44 59T84 190v302q0 133 62.5 192T347 743q169 0 219-113 60 113 217 113 109 0 165-62t56-181V390q0-30-25-30H590V186q0-68 57.5-110.5T799 33q21 0 42.5 2.5T878 41t32.5 8.5 25.5 9l20.5 9L970 73q6 2 11-9.5t5-23-4-16.5q-65-37-190-37zM344 33q42 0 70.5 5.5t59 22.5 46 56T535 217v284q0 106-46 151t-142 45q-113 0-160-46.5T140 493V189q0-43 18-75t48.5-49T271 40.5t73-7.5zm246 374h358v93q0 197-165 197-193 0-193-206v-84z"/><glyph glyph-name="Uacute.unic" horiz-adv-x="626" d="M433 928L311 791q-13-14-25-14h-21q-15 0 1 22l97 135q1 2 3.5 5.5t3.5 4.5 3.5 3 4 3 5 1.5 7.5.5h39q18 0 18-4t-14-20zm105-228V21q0-15-2.5-18T524 0h-34q-9 0-9 21v57q-27-39-76-63T290-9q-94 0-148 50.5T88 176v531q0 18 2 21.5t12 3.5h27q9 0 11-6.5t2-26.5V180q0-69 40-106.5T292 36q82 0 136 47.5T482 194v509q0 20 2 24.5t9 4.5h28q10 0 13.5-6t3.5-26z"/><glyph glyph-name="Ugrave.unic" horiz-adv-x="626" d="M381 777h-21q-12 0-25 14L213 928q-14 16-14 20t18 4h39q4 0 6.5-.5t4.5-1 3.5-1.5 3.5-3l3-3 3-4 3-5 97-135q16-22 1-22zm157-77V21q0-15-2.5-18T524 0h-34q-9 0-9 21v57q-27-39-76-63T290-9q-94 0-148 50.5T88 176v531q0 18 2 21.5t12 3.5h27q9 0 11-6.5t2-26.5V180q0-69 40-106.5T292 36q82 0 136 47.5T482 194v509q0 20 2 24.5t9 4.5h28q10 0 13.5-6t3.5-26z"/><glyph glyph-name="Ucircumflex.unic" horiz-adv-x="626" d="M439 777h-16q-15 0-22 10l-90 118-89-118q-7-10-23-10h-16q-15 0 1 22l87 135q1 2 3.5 5.5t3.5 4.5 3.5 3 4 3 5 1.5 7.5.5h26q4 0 6.5-.5t4.5-1 3.5-1.5 3.5-3l3-3 3-4 3-5 87-135q16-22 1-22zm99-77V21q0-15-2.5-18T524 0h-34q-9 0-9 21v57q-27-39-76-63T290-9q-94 0-148 50.5T88 176v531q0 18 2 21.5t12 3.5h27q9 0 11-6.5t2-26.5V180q0-69 40-106.5T292 36q82 0 136 47.5T482 194v509q0 20 2 24.5t9 4.5h28q10 0 13.5-6t3.5-26z"/><glyph glyph-name="Udieresis.unic" horiz-adv-x="626" d="M452 849v-8l-1-7-2.5-6.5-5.5-3.5-9-2h-30q-24 0-24 25v39q0 20 15 20h34q15 0 19-3.5t4-12.5v-41zm-201-7q0-20-15-20h-34q-15 0-19 3.5t-4 12.5v49l1 7 2.5 6.5 5.5 3.5 9 2h30q24 0 24-25v-39zm287-142V21q0-15-2.5-18T524 0h-34q-9 0-9 21v57q-27-39-76-63T290-9q-94 0-148 50.5T88 176v531q0 18 2 21.5t12 3.5h27q9 0 11-6.5t2-26.5V180q0-69 40-106.5T292 36q82 0 136 47.5T482 194v509q0 20 2 24.5t9 4.5h28q10 0 13.5-6t3.5-26z"/></font>
</defs>
</svg>
