<svg><defs><font id="HermesFB-BoldItalic" horiz-adv-x="728"><font-face font-family="HermesFB BoldItalic" font-weight="700" font-style="italic" panose-1="2 0 8 3 6 0 0 2 0 4" ascent="775" descent="-225" x-height="538" cap-height="732" bbox="-103.519 -214 1086.18 1018" underline-thickness="30" underline-position="-103" unicode-range="U+0020-U+FB04"/><glyph glyph-name="f_f" unicode="ff" horiz-adv-x="725" d="M712 445q-6-37-35-37h-53L524-155q-2-12-10-20.5t-18-8.5H378q-13 0-20 9.5t-4 25.5l99 557H286L186-155q-2-12-10-20.5t-18-8.5H40q-13 0-20 9.5T16-149l99 557H72q-18 0-23 6.5T47 439l9 51q5 32 30 32h40q-11 37-1 83 12 59 57 98.5T308 743q56 0 107-22 7-3-13.5-56.5T374 613q-20 6-35 6-40 0-48-43-6-40 19-54h154q-11 37-1 83 12 59 57 98.5T646 743q56 0 107-22 7-3-13.5-56.5T712 613q-20 6-35 6-40 0-48-43-6-40 19-54h53q17 0 20-8t-1-24z"/><glyph glyph-name="fi" unicode="fi" horiz-adv-x="671" d="M558 41q-3-17-5-23t-9.5-12T522 0H413q-20 0-25 11t0 30l67 383H288L186-155q-2-12-10-20.5t-18-8.5H40q-13 0-20 9.5T16-149l101 573H74q-18 0-23 6.5T49 455l9 51q5 32 30 32h35q-8 29 0 67 13 59 58.5 98.5T308 743q56 0 107-22 7-3-13.5-56.5T374 613q-20 6-35 6-40 0-48-43-4-24 7-38h311q24 0 29-7t2-26zm106 603q-3-17-10.5-24.5T629 612H521q-20 0-25 6.5t-1 28.5l9 53q4 20 12 26t28 6h107q20 0 23.5-12t-2.5-29z"/><glyph glyph-name="f_f_i" unicode="ffi" horiz-adv-x="1005" d="M892 41q-3-17-5-23t-9.5-12T856 0H747q-20 0-25 11t0 30l67 383H626L524-155q-2-12-10-20.5t-18-8.5H378q-13 0-20 9.5t-4 25.5l101 573H288L186-155q-2-12-10-20.5t-18-8.5H40q-13 0-20 9.5T16-149l101 573H74q-18 0-23 6.5T49 455l9 51q5 32 30 32h35q-8 29 0 67 13 59 58.5 98.5T308 743q56 0 107-22 7-3-13.5-56.5T374 613q-20 6-35 6-40 0-48-43-4-24 7-38h163q-8 27 0 67 12 59 58 98.5T646 743q56 0 107-22 7-3-13.5-56.5T712 613q-20 6-35 6-41 0-48-43-4-29 5-38h309q24 0 29-7t2-26zm106 603q-3-17-10.5-24.5T963 612H855q-20 0-25 6.5t-1 28.5l9 53q4 20 12 26t28 6h107q20 0 23.5-12t-2.5-29z"/><glyph glyph-name=".notdef" horiz-adv-x="500"/><glyph glyph-name=".notdef" horiz-adv-x="500"/><glyph glyph-name=".null" horiz-adv-x="0"/><glyph glyph-name="nonmarkingreturn" horiz-adv-x="333"/><glyph glyph-name="space" horiz-adv-x="240"/><glyph glyph-name="exclam" unicode="!" horiz-adv-x="320" d="M305 691L205 251q-7-37-31-37h-74q-11 0-16 3.5T78.5 229t1.5 19l54 438q3 25 11 35.5t29 10.5h101q40 0 30-41zM195 36q-4-20-12-28t-27-8H42Q18 0 13.5 9t.5 23l13 74q2 11 4 16.5t9.5 9.5 21.5 4h116q22 0 27.5-4.5T207 105z"/><glyph glyph-name="quotedbl" unicode="&quot;" horiz-adv-x="456" d="M464 698l-64-223q-7-28-34-28h-36q-17 0-22 6t-4 25l15 221q3 33 29 33h97q16 0 20.5-8t-1.5-26zm-207-1l-63-224q-8-26-35-26h-37q-15 0-20.5 6.5T97 480l15 220q3 32 28 32h97q17 0 21.5-8.5T257 697z"/><glyph glyph-name="numbersign" unicode="#" horiz-adv-x="682" d="M645 495l-6-42q-2-15-10.5-20.5T601 427h-64l-21-117h71q16 0 20.5-6t1.5-23l-4-32q-4-23-12-32t-27-9h-65L470 31q-4-20-11-25.5T431 0h-73q-15 0-19 7.5T338 34l31 174H254L222 27q-2-16-9-21.5T189 0h-63q-22 0-30 7t-5 26l31 175H59q-18 0-23.5 7T34 244l6 41q2 15 10 20t26 5h60l21 117H91q-15 0-19.5 6.5T69 458l7 42q3 19 9 23.5t26 4.5h61l30 173q3 19 10.5 25t30.5 6h72q15 0 18-7t1-26q-29-171-30-171h115l30 178q2 15 9.5 20.5T485 732h62q22 0 29.5-6.5T581 700l-29-172h66q20 0 25.5-6t1.5-27zm-241-68H290l-21-117h114z"/><glyph glyph-name="dollar" unicode="$" horiz-adv-x="634" d="M561 248q0-55-17.5-99.5t-48-72.5T432 31 360 4l-13-74q-3-16-9.5-21.5T314-97H195q-23 0-30.5 7T160-64l9 52Q117-9 67 8T1 40q-9 9 13 86 18 65 29 60 21-13 70-27.5T219 144q136 0 136 73 0 27-27 48t-65 38-76 39-65 62.5T95 501q0 80 59.5 148T311 731l14 77q3 18 13 24t33 6h123q18 0 20.5-8t-2.5-25l-11-64q55-3 103-31 7-10 0-43t-24.5-66.5T549 572q-2 1-13 5.5t-16.5 6.5l-17.5 6.5-21 6.5-21.5 5-26 4-27.5 1q-51 0-81-17t-30-47q0-19 19.5-37t49.5-32.5 64-36 64-44.5 49.5-61 19.5-84z"/><glyph glyph-name="percent" unicode="%" horiz-adv-x="786" d="M714 116Q692-9 549-9q-68 0-104 30t-25 97l24 136q6 33 24.5 57t44 36 50.5 17.5 51 5.5q24 0 46-5t43-16.5 31.5-34.5 4.5-55zm-30 586L234 27q-10-16-18-21.5T192 0h-63q-23 0-29 7t5 26l449 672q10 14 14.5 18.5t13 8T605 735h71q31 0 8-33zM342 485q-22-125-165-125-68 0-104 30.5T49 488l24 136q11 62 60.5 89T242 740q53 0 94.5-26t31.5-82zm273-357l19 103q3 17-5 30.5T601 275q-46 0-56-52l-16-93q-3-20 6-34t30-14q22 0 34.5 14.5T615 128zM243 497l17 101q9 47-31 47-46 0-55-50l-17-96q-3-19 6-33t30-14q22 0 34.5 14t15.5 31z"/><glyph glyph-name="ampersand" unicode="&amp;" horiz-adv-x="583" d="M477 33Q430 5 345-6l-11-66q-3-16-10-21.5T300-99H181q-22 0-30.5 7T146-66l11 62Q-2 30 28 193q11 61 52.5 105T181 363q-51 19-77 68T90 548q12 71 65 118.5T284 731l14 75q3 19 10.5 25t30.5 6h128q15 0 18.5-8t-.5-25l-12-68q58-10 91-37 9-13 2.5-45T543 591t-28-25q-60 30-125 30-55 0-89-21t-40-57q-7-38 23.5-59.5T379 435q15-1 21.5-5.5T405 412l-14-83q-5-24-27-24-65-2-107-25.5T207 212q-6-33 20-52t87-19q75 0 143 29 8 3 16-16 19-42 16-91-2-24-12-30z"/><glyph glyph-name="quotesingle" unicode="'" horiz-adv-x="259" d="M261 697l-63-224q-4-16-12-21t-23-5h-36q-16 0-21 6.5t-4 26.5l15 220q3 32 27 32h97q32 0 20-35z"/><glyph glyph-name="parenleft" unicode="(" horiz-adv-x="392" d="M399 692q-47-40-107-149.5T214 332q-17-115-3-224t42-161q6-10-25-26-53-26-104-29-21-1-26 6-22 29-37.5 88.5T41 136.5 56 333q23 131 84.5 247.5T268 761q14 14 75-12 58-25 61-46 0-6-5-11z"/><glyph glyph-name="parenright" unicode=")" horiz-adv-x="392" d="M319 325q-24-136-84.5-254T112-106q-15-14-77 15-57 28-63 51-1 7 4 12Q22 15 80.5 121T157 329q17 108 5.5 212T122 694q-7 11 27 31t74 31 48 1q39-49 55-160.5T319 325z"/><glyph glyph-name="asterisk" unicode="*" horiz-adv-x="425" d="M432 537q1-23-23-24l-105-5 56-90q13-20-4-27l-63-32q-19-7-30 15l-35 98-69-80q-17-19-28-5l-50 49q-14 16 6 33l81 66-98 40q-24 8-13 25l33 61q9 19 32 5l87-57 9 106q1 13 5.5 17.5T238 735l68-12q22-4 15-29l-27-100 103 24q22 6 25-13z"/><glyph glyph-name="plus" unicode="+" horiz-adv-x="542" d="M505 225q0-21-9.5-26.5T463 193H315V41q0-16-1-23t-7.5-12.5T286 0h-72q-21 0-27.5 10T180 42v151H22q-30 0-30 26v71q0 17 4 25t9.5 9.5T25 326h155v155q0 32 27 32h72q24 0 30-7t6-26V326h149q17 0 23-1t12-7 6-20v-73z"/><glyph glyph-name="comma" unicode="," horiz-adv-x="285" d="M191 114Q153 35 115.5-6T-15-104q-24-15-35.5-3T-52-69Q3 61 17 110q10 33 31 33h112q24 0 30.5-8t.5-21z"/><glyph glyph-name="hyphen" unicode="-" horiz-adv-x="538" d="M461 290q-5-23-14.5-30.5T411 252H82q-16 0-24 6.5T53 278l12 73q4 24 12.5 30t27.5 6h326q17 0 24.5-1t13.5-7.5 4-20.5z"/><glyph glyph-name="period" unicode="." horiz-adv-x="285" d="M176 46q-3-16-5-23T160.5 8 137 0H13Q-13 0-8 28l14 81q2 14 11 24t21 10h128q17 0 21-7t1-22z"/><glyph glyph-name="slash" unicode="/" horiz-adv-x="400" d="M444 702L108 27q-8-16-16.5-21.5T66 0h-82q-23 0-28.5 7t3.5 26l335 672q9 18 18.5 24t31.5 6h91q15 0 17-8t-8-25z"/><glyph glyph-name="zero" unicode="0" horiz-adv-x="674" d="M595 234Q571 97 491.5 41.5T281-14Q145-14 77.5 42T33 230l47 269q11 62 37 108t57.5 71 74 40 79 19.5T409 742q33 0 62-3.5t60.5-13 53.5-26 40.5-42T647 597t-3-83zm-182 15l40 225q11 60-5.5 86.5T383 587q-58 0-83.5-29.5T264 470l-40-227q-8-48 13-76t65-28q92 0 111 110z"/><glyph glyph-name="one" unicode="1" horiz-adv-x="449" d="M305 28q-2-16-8.5-22T272 0H150q-21 0-28.5 7.5T117 34l84 471q3 18-1.5 25t-21.5 7h-76q-11 0-17.5 7T77 558l-1 7 12 70q4 17 13 25t31 16l97 42q36 13 53 13h122q18 0 21-8.5t-2-25.5z"/><glyph glyph-name="two" unicode="2" horiz-adv-x="621" d="M522 130L504 24q-4-24-23-24H16Q-14 0-8 30L3 93q11 66 47.5 123.5t81.5 96 95.5 74 92 60.5 69 53 27.5 53q0 41-64 41-85 0-179-53-14-8-28.5 25t-17 67.5T137 682q98 61 237 61 107 0 167-42t60-124q0-58-24.5-105.5t-61.5-77-82.5-57.5-86.5-49-74.5-50.5T227 175q-8-22 31-22h220q26 0 36.5-5t7.5-18z"/><glyph glyph-name="three" unicode="3" horiz-adv-x="582" d="M497 186q-17-98-97.5-149T213-14Q141-14 81.5 5.5T-10 49q-8 6 6.5 41t36 65.5T63 181q67-40 139-40 112 0 126 75 7 42-29 64.5T208 306q-15 1-21 6t-3 18l13 73q2 14 7.5 19t19.5 5q69 0 108.5 25.5T380 522q5 33-21 53t-77 20q-59 0-124-40-10-7-23.5 22.5t-17.5 60 5 42.5q84 63 217 63 113 0 175-52.5T561 547q-12-69-58-116.5T406 365q114-50 91-179z"/><glyph glyph-name="four" unicode="4" horiz-adv-x="633" d="M551 174q-4-22-11-31t-22-9h-44L454 22q-2-12-8.5-17T423 0h-86q-22 0-30 6t-6 21l19 107H21q-16 0-21 5.5T-2 159l13 75q3 24 25 52l330 408q1 1 5 6t5 6.5 5.5 6 6.5 6 6.5 4.5 8 4.5 8 2.5 9.5 1h135q17 0 20.5-7.5T574 701l-76-429h49q12 0 15.5-6t1.5-22zm-207 98l45 254-202-254h157z"/><glyph glyph-name="five" unicode="5" horiz-adv-x="603" d="M520 208q-18-101-99.5-161T219-13Q138-13 82 4T0 43q-13 12 22 80.5T82 178q75-41 140-41 99 0 115 81 5 24-5.5 44.5t-27 34T256 323t-57 20-65 17q-50 13-41 71l48 271q6 30 35 30h395q19 0 15-24l-18-106q-3-13-12.5-18t-32.5-5H322q-35 0-39-22l-12-65q-1-7 4-11.5t18-7.5q44-10 75.5-21t66.5-32 54.5-47.5 29-69T520 208z"/><glyph glyph-name="six" unicode="6" horiz-adv-x="672" d="M596 245Q549-13 281-13 158-13 84 44T28 202l51 290q45 251 347 251 110 0 188-40 5-4 3-19.5t-9-38.5-15.5-43.5-17-34.5-13.5-12q-69 31-164 31-55 0-88-22t-40-61l-4-23q-4-19 12-10 46 23 112 23 109 0 168-63.5T596 245zm-179 7q9 51-11.5 77.5T339 356q-45 0-73-20t-34-49l-13-73q-7-39 13-57t71-18q95 0 114 113z"/><glyph glyph-name="seven" unicode="7" horiz-adv-x="587" d="M605 696L271 35Q254 0 226 0H104Q79 0 70 5t1 24l260 509q16 33-24 33H104q-10 0-16.5 7T80 590t-1 9l17 95q3 20 10.5 29t27.5 9h448q41 0 23-36z"/><glyph glyph-name="eight" unicode="8" horiz-adv-x="655" d="M573 179Q557 87 470.5 36.5T260-14Q134-14 70 47T23 202q10 55 44.5 97t69.5 57q-26 20-43.5 66.5T87 532q17 93 97.5 152T383 743q134 0 197.5-62.5T628 532q-12-67-49.5-112T501 356q41-20 62-68t10-109zM441 502q8 45-13 67t-62 22q-92 0-105-81-6-37 14-59.5t59-22.5q45 0 73.5 20.5T441 502zm-46-284q7 42-13.5 65.5T314 307q-93 0-107-82-7-38 15-60.5t66-22.5q94 0 107 76z"/><glyph glyph-name="nine" unicode="9" horiz-adv-x="672" d="M641 516l-49-278Q569 110 470.5 48.5T226-13Q102-13 27 30q-8 5 3 42t28.5 70.5T83 173q65-29 171-29 60 0 100.5 20.5T402 227l4 23q1 11-2.5 12.5T393 260q-44-23-112-23-106 0-166 63T76 485q21 123 102.5 190.5T391 743q123 0 196-60.5T641 516zm-201-73l12 73q7 39-12.5 57T369 591q-95 0-114-113-9-51 11-77.5t66-26.5q45 0 73.5 20t34.5 49z"/><glyph glyph-name="colon" unicode=":" horiz-adv-x="285" d="M242 441q-4-23-12.5-31.5T198 401H98q-16 0-24 6.5T68 427l12 70q4 24 12 32t25 8h99q21 0 31-6t7-26zM175 46q-3-16-5-23T159.5 8 137 0H29Q-13 0-6 40l12 69q2 14 11 24t21 10h115q25 0 31-6.5t3-22.5z"/><glyph glyph-name="semicolon" unicode=";" horiz-adv-x="285" d="M247 439q-3-14-5.5-21.5t-10.5-15-22-7.5H100q-41 0-34 38l12 69q6 36 32 36h116q24 0 30-7.5t3-24.5zm-58-325Q151 35 113.5-6T-17-104q-24-15-35.5-3T-54-69Q1 61 15 110q10 33 31 33h112q24 0 30.5-8t.5-21z"/><glyph glyph-name="less" unicode="&lt;" horiz-adv-x="542" d="M439 71q0-20-11.5-23T398 54L61 185q-40 15-40 36v75q0 21 7 29t26 16l344 136q18 9 29.5 6.5T439 461v-73q0-21-9.5-29T397 344l-232-79 232-77q17-6 23.5-9t12.5-12 6-24V71z"/><glyph glyph-name="equal" unicode="=" horiz-adv-x="542" d="M481 316q0-24-7.5-30t-26.5-6H61q-15 0-21.5 1t-12 8-5.5 21v50q0 21 9.5 26.5T63 392h385q33 0 33-24v-52zm-1-184q0-21-9-26.5t-31-5.5H55q-33 0-33 24v52q0 24 7 30.5t27 6.5h386q15 0 21.5-1t11.5-8 5-22v-50z"/><glyph glyph-name="greater" unicode="&gt;" horiz-adv-x="542" d="M475 221q0-21-40-36L98 54q-18-9-29-6T58 71v72q0 21 9 29t32 16l232 77-232 79q-23 7-32 15t-9 29v73q0 20 11 22.5t29-6.5l344-136q13-5 19-9t10-12.5 4-23.5v-75z"/><glyph glyph-name="question" unicode="?" horiz-adv-x="461" d="M467 575q-8-44-34.5-83.5t-55-64-56-56T286 311l-10-57q-5-34-35-34H135q-16 0-21.5 6.5T109 248q3 43 19 82 14 35 41 67t51.5 51.5 45 44.5 24.5 50q11 68-58 68-47 0-107-41-14-9-30 16t-19 53.5T87 683q92 60 198 60 91 0 143.5-44.5T467 575zM254 107l-13-76q-1-10-3-15T228 5.5 206 0H98Q56 0 63 40l10 62q2 14 11 24t21 10h122q32 0 27-29z"/><glyph glyph-name="at" unicode="@" horiz-adv-x="791" d="M752 333q0-104-45-153.5T585 130q-99 0-134 55-37-58-125-58-55 0-90 50t-35 152q0 106 34.5 159t94.5 53q86 0 117-55v19q0 24 18 24h77q18 0 22.5-5t4.5-19V257q0-20 11-35.5t33-15.5q59 0 59 127 0 128-77.5 213.5T394 632q-121 0-194.5-85T126 333q0-132 74-215.5T396 34q94 0 187 43 8 3 19-14t14-35-4-25q-96-47-217-47-169 0-264.5 104T35 333q0 158 102.5 267.5T395 710q157 0 257-104.5T752 333zm-316-59v114q0 26-12.5 48T382 458q-48 0-48-81v-84q0-84 51-84 25 0 38 22t13 43z"/><glyph glyph-name="A" unicode="A" horiz-adv-x="690" d="M522 700l85-667q3-22-5-27.5T570 0H451q-9 0-14 1t-7.5 5-3.5 7-2 13l-14 108H182L131 26q-7-16-13.5-21T96 0H-24q-25 0-9 33l321 667q8 18 18.5 25t31.5 7h145q22 0 29-6.5t10-25.5zM394 255l-31 261-123-261h154z"/><glyph glyph-name="B" unicode="B" horiz-adv-x="681" d="M603 188q-16-92-82.5-140T345 0H36Q19 0 14 5.5T11 26l118 671q2 14 4 20t9 10.5 19 4.5h280q109 0 168.5-51T654 547q-23-131-131-178 104-46 80-181zM466 525q8 45-16.5 65T373 610h-65q-19 0-21-18l-24-134q-2-11 1.5-15t15.5-4h85q86 0 101 86zm-44-318q8 49-19.5 70.5T324 299h-67q-12 0-16.5-4t-6.5-15l-25-139q-2-18 15-18h86q97 0 112 84z"/><glyph glyph-name="C" unicode="C" horiz-adv-x="631" d="M637 690q3-3-1-17t-11.5-32.5-16-35.5-17-28-13.5-9q-60 31-135 31-146 0-171-141l-36-205q-23-127 103-127 82 0 159 40 5 3 12-12 20-39 25-89 1-18-3-21-33-21-98-39T298-13Q145-13 82 48.5T40 227l43 248q22 121 109 194.5T449 743q120 0 188-53z"/><glyph glyph-name="D" unicode="D" horiz-adv-x="698" d="M657 489l-46-262q-10-56-33.5-99T526 61.5t-62.5-38-61.5-19T348 0H42Q29 0 19.5 9.5T13 36l115 655q8 41 35 41h229q61 0 111-12t90.5-38.5 58-75.5 5.5-117zM423 240l44 254q7 38-17 65.5T383 587h-60q-19 0-25-4.5t-8-18.5l-69-391q-2-11 3.5-18.5T248 147h63q42 0 73 22.5t39 70.5z"/><glyph glyph-name="E" unicode="E" horiz-adv-x="589" d="M502 122l-17-98q-4-24-32-24H36Q7 0 12 32l118 667q2 11 4 17.5t8.5 11T159 732h407q17 0 21-5t2-17l-19-95q-3-14-14-17.5t-36-3.5H316q-27 0-29-16l-18-105q-4-23 18-23h189q22 0 16-22l-19-93q-7-26-35-26H270q-27 0-32-23l-21-119q-2-11 3-16t10-5.5 18-.5h223q35 0 31-23z"/><glyph glyph-name="F" unicode="F" horiz-adv-x="558" d="M565 623q-3-18-12.5-24t-32.5-6H316q-25 0-29-16l-22-125q-4-23 18-23h171q19 0 24.5-6t2.5-17l-17-92q-4-17-11.5-22t-20.5-5H264q-25 0-30-24L192 24q-4-24-23-24H35Q7 0 12 32l118 667q2 11 4 17.5t8.5 11T159 732h399q16 0 20.5-5.5T581 710z"/><glyph glyph-name="G" unicode="G" horiz-adv-x="696" d="M636 379l-28-158q-7-37-16.5-66.5T560 92t-54-54.5-84.5-36T300-13Q-3-13 43 248l38 215q50 280 364 280 62 0 112-12t71-24 28-21-25-69-42-55q-72 37-134 37-76 0-122-31t-62-120l-39-226q-18-102 88-102 92 0 106 82l13 75q4 21-15 22h-50q-11 0-14.5 3.5T358 320l14 79q4 21 18 21h223q19 0 23.5-8t-.5-33z"/><glyph glyph-name="H" unicode="H" horiz-adv-x="740" d="M728 703L610 32q-4-20-10.5-26T573 0H449q-34 0-28 32l46 258q2 12-1 16t-15 4H266q-10 0-13.5-3t-5.5-14L201 32q-4-19-14-25.5T154 0H33Q17 0 13.5 7.5T13 35l118 671q2 14 9.5 20t24.5 6h120q22 0 30-7t4-26l-41-229q-2-11 2.5-15t17.5-4h180q17 0 20 17l42 238q4 26 41 26h122q20 0 24-6t1-23z"/><glyph glyph-name="I" unicode="I" horiz-adv-x="331" d="M200 25q-2-14-9-19.5T167 0H45Q23 0 16 6.5T12 31l119 673q3 17 11 22.5t30 5.5h127q16 0 19.5-7t.5-25z"/><glyph glyph-name="J" unicode="J" horiz-adv-x="402" d="M302 198q-16-92-54-137.5T125-23q-17-8-40.5-16T42-52.5 20-59Q-4-65-7-38L-21 70q-4 38 24 48 30 11 59 27 29 17 41 39t19 63l81 459q2 15 9 20.5t24 5.5h120q23 0 30.5-7t4.5-26z"/><glyph glyph-name="K" unicode="K" horiz-adv-x="721" d="M640 30q8-20 1.5-25T613 0H471q-15 0-21.5 4T435 23L281 305l-38-35-43-244q-2-15-9-20.5T167 0H47Q24 0 16.5 7T12 33l118 667q4 19 14 25.5t32 6.5h123q18 0 21-7.5t-1-24.5l-39-218 244 224q28 24 35 25 3 1 12 1h137q13 0 20-.5t12-3.5 2-9-15-16L416 410z"/><glyph glyph-name="L" unicode="L" horiz-adv-x="540" d="M454 23q-3-15-12-19t-29-4H33Q15 0 11.5 8T13 35l118 671q2 14 9.5 20t24.5 6h120q22 0 29.5-7t4.5-26l-96-542q-2-11 2.5-15t17.5-4h206q17 0 20-5t1-18z"/><glyph glyph-name="M" unicode="M" horiz-adv-x="844" d="M831 697L713 26q-2-15-9-20.5T679 0H562q-24 0-32 7t-5 26l71 401q1 10-3 10-5-1-11-9L431 219q-13-19-17.5-23t-15.5-4h-16q-4 0-7 .5t-5 .5-3.5 1.5-2.5 2-2.5 3.5-2 5-2 7-2.5 8l-68 210q-4 8-9 7t-7-9L200 26q-2-10-4-14.5t-9-8T166 0H49Q19 0 13 12q-3 8-1 21l118 667q4 19 14 25.5t31 6.5h115q12 0 16.5-.5t11-5T328 713l94-284q5-12 14-1l198 283q15 21 47 21h132q18 0 20.5-9t-2.5-26z"/><glyph glyph-name="N" unicode="N" horiz-adv-x="746" d="M613 35q-4-23-10.5-32T581-5l-95 3q-17 1-24.5 6.5T448 24L272 394q-15 38-22-1L187 35q-4-22-11-28.5T147 0H30.5l-5 .5-4.5 2L17 5l-3 3.5-2.5 5.5-.5 6.5 1 8.5 118 671q6 32 29 32h95q9 0 15-.5t9.5-1 6.5-3.5 4-3.5 3.5-5.5l3.5-7 176-381q8-23 17-7 4 8 6 22l63 355q3 13 10.5 23t19.5 9h123q14 0 18-7.5t1-25.5z"/><glyph glyph-name="O" unicode="O" horiz-adv-x="706" d="M619 227q-12-66-41.5-113T515 43 435 5.5t-78-16-72-2.5Q156-13 86 43T37 217l49 275q24 132 102.5 191.5T409 743q61 0 109.5-12t88-39.5T662 612t3-124zm-187 21l43 240q8 45-13 73.5T393 590q-58 0-87-29.5T270 493l-45-260q-7-39 18.5-64.5T304 143q110 0 128 105z"/><glyph glyph-name="P" unicode="P" horiz-adv-x="690" d="M673 477q-22-125-101-184t-222-59h-92q-13 0-18-4.5t-7-19.5L201 32q-3-19-12.5-25.5T158 0H32Q14 0 11 9t2 26l118 671q2 15 9.5 20.5T166 732h264q137 0 201-63.5T673 477zm-189 14q9 50-16 75.5T401 592h-80q-19 0-21-18l-31-174q-2-11 1.5-15t15.5-4h85q92 0 113 110z"/><glyph glyph-name="Q" unicode="Q" horiz-adv-x="706" d="M589-70l-43-87q-15-27-36-20-13 5-39 20.5t-68.5 56T333-12q-18-1-48-1-52 0-96.5 10T103 29.5 43 97t-8 107l51 288q24 132 102.5 191.5T409 743q60 0 109-13.5t87.5-42.5 55-80 4.5-119l-46-261Q596 102 505 38q19-34 76-61 27-8 8-47zM433 252l42 239q8 43-13 71t-69 28q-58 0-87-29.5T270 492l-44-254q-8-45 16-70t70-25q102 0 121 109z"/><glyph glyph-name="R" unicode="R" horiz-adv-x="712" d="M677 500q-12-68-58-116t-92-65q-13-5-13-7 0-1 2-9l74-269q6-16 2.5-25.5T571 0H425q-13 0-20 4.5t-8 8-4 16.5l-65 231q-2 8-14 8h-61q-10 0-13-15L201 32q-3-19-12.5-25.5T158 0H32Q14 0 11 9t2 26l118 671q2 15 9.5 20.5T166 732h264q132 0 198.5-64.5T677 500zm-189 5q7 42-21 65t-75 23h-71q-19 0-21-18l-25-141q-2-11 1.5-15t15.5-4h93q37 0 66 23t37 67z"/><glyph glyph-name="S" unicode="S" horiz-adv-x="640" d="M565 241q0-68-29.5-119T456 42.5 348 0 225-14Q162-14 99 2.5T-1 42q-3 2 .5 19T11 100.5t17 44 18 35T60 190q78-47 162-47 137 0 137 78 0 27-27 47.5t-65 38-76 40-65 64T99 509q0 99 92.5 166.5T406 743q64 0 120-12.5t86-28.5q7-10 0-44.5t-24.5-69T558 560q-78 40-154 40-106 0-106-69 0-25 27.5-46t67-39 78.5-41.5 66.5-65.5 27.5-98z"/><glyph glyph-name="T" unicode="T" horiz-adv-x="612" d="M641 614q-3-21-29-21H459q-14 0-19-3.5t-7-15.5L337 33q-3-19-12.5-26T293 0H183q-25 0-32 6t-3 27l96 541q2 12-2 15.5t-18 3.5H78q-11 0-16.5 3t-5.5 7.5 1 10.5l17 96q3 22 42 22h508q20 0 28-4t6-17z"/><glyph glyph-name="U" unicode="U" horiz-adv-x="697" d="M608 227q-8-47-26-85t-39.5-62.5-51-43-55-27.5T379-5.5 326-12t-47-1q-35 0-68 5.5T141.5 14 80 55.5 43.5 125 42 226l85 480q4 26 32 26h117q21 0 28.5-7t4.5-26l-80-457q-8-42 13-70.5t64-28.5q96 0 115 104l81 459q4 26 32 26h123q20 0 28.5-7t5.5-26z"/><glyph glyph-name="V" unicode="V" horiz-adv-x="690" d="M722 704L396 28q-7-16-15.5-21.5T351 1H202q-21 0-28 6t-9 22L79 699q-3 22 7.5 27.5T122 732h114q12 0 17-2.5t6.5-7T262 706l61-491 234 491q8 17 13.5 21.5T591 732h98q24 0 32.5-5t.5-23z"/><glyph glyph-name="W" unicode="W" horiz-adv-x="1029" d="M1071 704L737 27q-7-16-16-21.5T692 0H558q-21 0-28.5 6T520 28l-29 226L374 28q-7-16-15.5-21.5T329 1H208q-20 0-27.5 6T171 29L85 699q-3 22 7.5 27.5T128 732h114q17 0 21-4.5t6-21.5l60-491 128 251-29 233q-3 22 7 27.5t35 5.5h115q16 0 20-4.5t6-21.5l61-491 239 490q6 13 8.5 16.5t8 6.5 16.5 3h93q25 0 33.5-5t.5-22z"/><glyph glyph-name="X" unicode="X" horiz-adv-x="736" d="M649 33q18-33-26-33H488q-17 0-26 6.5T445 29L337 238 161 29q-15-18-24.5-23.5T111 0H-9q-24 0-28 7t11 26l285 336L88 699q-15 33 22 33h126q40 0 56-33l101-200 168 200q16 20 28.5 26.5T629 732h111q35 0 8-33L469 371z"/><glyph glyph-name="Y" unicode="Y" horiz-adv-x="694" d="M731 701l-50-66.5L585 505 477 359l-42-58-49-273q-2-16-11.5-22T343 0H221q-16 0-21 5t-3 18l49 279L79 704q-8 13-3.5 19t10.5 7.5 21 1.5h134q18 0 23-4.5t12-22.5l102-257 191 257q2 2 5 6l4.5 6 4 4.5 3.5 3.5 4 2.5 5 2 5.5 1.5 7 1H714q23 0 27-4t-10-27z"/><glyph glyph-name="Z" unicode="Z" horiz-adv-x="646" d="M548 23q-3-12-8.5-17.5T517 0H0q-21 0-18 19l8 48q4 17 29 48l368 477H125q-23 0-32.5 5T87 618l21 91q2 8 4 12t8.5 7.5T138 732h493q11 0 20-5t7-14l-8-48q-3-15-25-44L253 140h273q23 0 32-4t6-18z"/><glyph glyph-name="bracketleft" unicode="[" horiz-adv-x="382" d="M264-78q-4-22-34-22H20q-22 0-30 6t-5 23l142 805q3 17 10.5 22t29.5 5h217q16 0 20.5-6.5T407 734l-13-71q-2-11-10.5-18.5T362 637h-60q-24 0-27-22L175 49q-3-21 19-21h65q23 0 19-25z"/><glyph glyph-name="backslash" unicode="\" horiz-adv-x="400" d="M326 33q4-19-4-26t-31-7h-82q-17 0-24 5.5T175 27L77 702q-2 18 2 25.5t19 7.5h91q22 0 29.5-6t10.5-24z"/><glyph glyph-name="bracketright" unicode="]" horiz-adv-x="382" d="M243-71q-3-17-13-23t-32-6H-11q-17 0-22.5 4.5T-37-78l14 81q4 25 26 25h65q25 0 28 21l100 566q3 22-20 22h-60q-26 0-23 26l13 71q4 27 32 27h217q22 0 27.5-5t2.5-22z"/><glyph glyph-name="asciicircum" unicode="^" horiz-adv-x="542" d="M490 359q9-19 6-30t-23-11h-72q-21 0-29 9t-16 33l-87 233-87-233q-5-15-8.5-22.5T161 324t-23-6H66q-20 0-23.5 11t6.5 30l140 337q16 40 36 40h74q21 0 29-7t17-26z"/><glyph glyph-name="underscore" unicode="_" horiz-adv-x="508" d="M440-109q0-23-8-30.5t-34-7.5H-20q-35 0-35 26v65q0 24 7 30t26 6h416q17 0 24.5-1t14.5-7.5 7-20.5v-60z"/><glyph glyph-name="grave" unicode="`" horiz-adv-x="488" d="M333 748l72-121q8-13 3.5-21.5T388 597h-55q-16 0-36 22L188 740q-13 13-8 22.5t27 9.5h96q8 0 14-3.5t8.5-7.5 7.5-13z"/><glyph glyph-name="a" unicode="a" horiz-adv-x="607" d="M576 505L492 32q-3-20-8.5-26T457 0H355q-12 0-19.5 1.5T324 10t-2 20q0 2 1 8t2.5 14 1.5 10q-32-34-78-54.5T161-13Q76-13 37.5 54.5T24 264q25 146 85 218.5T251 555q106 0 150-74l5 24q6 33 30 33h107q25 0 30.5-6.5T576 505zM332 187l29 162q2 19 1.5 40t-15 37.5T306 443q-67 0-87-112l-21-117q-8-50 3.5-82.5T249 99q33 0 56 30t27 58z"/><glyph glyph-name="b" unicode="b" horiz-adv-x="608" d="M548 264q-25-143-86.5-210T314-13q-98 0-142 68l-5-27q-2-13-8.5-19.5T145 1t-20-1H24Q3 0-1 14t2 33l117 663q3 19 11 26t33 7h108q24 0 17-37-39-219-39-223 78 72 166 72 89 0 124.5-72t9.5-219zm-191-50l21 117q19 112-48 112-39 0-60.5-28T241 351l-29-169q-5-27 7-55t46-28q37 0 60.5 33t31.5 82z"/><glyph glyph-name="c" unicode="c" horiz-adv-x="540" d="M477 121q-25-63-87-98.5T253-13Q107-13 53 55.5T24 264q28 156 102 223.5T325 555q73 0 122-31.5t69-79.5q5-12-23.5-30t-60-27-33.5 0q-14 55-72 55-81 0-101-108l-21-123q-9-51 8-81.5T273 99q53 0 91 71 11 11 38.5 6t54-23 20.5-32z"/><glyph glyph-name="d" unicode="d" horiz-adv-x="607" d="M495 47q-3-18-5.5-25T479 7.5 457 0H355q-28 0-32 8-4 7-1 22 3 20 4 25-81-68-170-68-83 0-120 67.5T24 264q26 146 86.5 218.5T258 555q89 0 144-72l39 223q7 37 32 37h107q17 0 25-3.5t8.5-11T612 710zM332 182l29 169q7 36-4.5 64T306 443q-68 0-87-112l-21-117q-8-50 3.5-82.5T249 99q34 0 56 28t27 55z"/><glyph glyph-name="e" unicode="e" horiz-adv-x="591" d="M548 393q0-56-28-93.5t-82-56-112.5-25T186 212q-8-49 22-74.5t96-25.5q68 0 148 30 24 9 26-11l21-86q1-8-6-12.5T468 21q-28-11-84.5-23T271-14Q120-14 60 60T24 265q51 290 312 290 96 0 154-41.5T548 393zm-167-4q0 24-16.5 42.5T314 450q-41 0-68.5-41T207 316q92 0 133 17t41 56z"/><glyph glyph-name="f" unicode="f" horiz-adv-x="388" d="M374 445q-6-37-35-37h-53L186-155q-2-12-10-20.5t-18-8.5H40q-13 0-20 9.5T16-149l99 557H72q-18 0-23 6.5T47 439l9 51q5 32 30 32h40q-11 37-1 83 12 59 57 98.5T308 743q56 0 107-22 7-3-13.5-56.5T374 613q-20 6-35 6-40 0-48-43-6-40 19-54h53q17 0 20-8t-1-24z"/><glyph glyph-name="g" unicode="g" horiz-adv-x="607" d="M498 69q-27-156-99-219.5T216-214q-116 0-179 23-1 1-5.5 2.5T26-187t-4 1.5-3.5 2.5-2.5 3-2 4-.5 4.5 0 6T15-157l13 76q5 28 47 15 95-30 131-30 93 0 114 110 0 2 3 21t3 21q-75-69-162-69-188 0-138 289 25 141 86.5 210T277 555q75 0 125-70 4 25 10.5 36.5t13.5 14 23 2.5h100q21 0 25-14t-2-32zM331 179l29 165q2 21 2 43t-14 39-39 17q-34 0-57.5-30T222 352l-25-144q-18-108 49-108 36 0 58 25.5t27 53.5z"/><glyph glyph-name="h" unicode="h" horiz-adv-x="596" d="M484 52q-5-27-12-39.5T449 0H331q-31 0-25 39l51 286q12 73-52 73-35 0-58.5-24.5T218 319L169 42q-4-22-10.5-32T138 0H23Q-9 0-1 42l115 654q7 36 34 36h119q15 0 19-6t0-24q-35-199-38-218 83 66 165 66 65 0 104.5-42T541 378z"/><glyph glyph-name="i" unicode="i" horiz-adv-x="282" d="M275 644q-3-17-10.5-24.5T240 612H132q-20 0-25 6.5t-1 28.5l9 53q4 20 12 26t28 6h107q20 0 23.5-12t-2.5-29zM169 41q-3-17-5-23t-9.5-12T133 0H24Q4 0-1 11t0 30l82 464q5 33 32 33h107q24 0 29-7t2-26z"/><glyph glyph-name="j" unicode="j" horiz-adv-x="301" d="M283 644q-3-19-9-25.5t-26-6.5H146q-21 0-25.5 5.5T120 647l8 49q4 20 13 28t28 8h101q23 0 26-8t-3-25zm-14-144L175-33q-11-68-69-114.5T-61-208q-17-2-30 29.5t-12.5 61T-95-81Q-7-54 3 7l86 489q7 42 41 42h107q17 0 26-10t6-28z"/><glyph glyph-name="k" unicode="k" horiz-adv-x="576" d="M491 28q9-15 4.5-22T467-1H331q-19 0-40 34l-96 166-27-152q-3-18-5.5-25t-10-14.5T131 0H32Q-9 0-1 43l118 667q5 33 33 33h105q24 0 28.5-7t1.5-26l-62-350 137 146q26 32 48 32h137q24 0 25-8.5T556 507L328 275z"/><glyph glyph-name="l" unicode="l" horiz-adv-x="282" d="M169 41q-3-17-5-23t-9.5-12T133 0H25Q3 0-2 6t-1 28l121 681q5 28 32 28h107q24 0 28.5-7t1.5-26z"/><glyph glyph-name="m" unicode="m" horiz-adv-x="890" d="M836 378L776 32q-4-19-12-25.5T738 0H632q-23 0-29 9t-3 30l51 286q12 73-46 73-54 0-81-65L475 52Q465 0 435 0H324q-33 0-27 39l51 286q12 73-46 73-37 0-57.5-23T218 319L170 47q-3-18-5.5-25t-10-14.5T133 0H32Q-9 0-1 43l81 459q7 36 33 36h107q19 0 26-9.5t2-41.5q82 63 158 63 99 0 124-86 94 86 179 86 65 0 104-41.5T836 378z"/><glyph glyph-name="n" unicode="n" horiz-adv-x="596" d="M484 52Q474 0 444 0H338q-16 0-25.5 10.5T306 39l51 286q12 72-52 72-74 0-87-78L170 47q-3-18-5.5-25t-10-14.5T133 0H32Q-9 0-1 43l81 459q7 36 33 36h107q18 0 26-11t2-43q92 66 165 66 65 0 104.5-42T541 378z"/><glyph glyph-name="o" unicode="o" horiz-adv-x="600" d="M540 265q-24-137-99.5-207.5T241-13Q104-13 52 56T24 264q28 157 105 224t215 67q116 0 169-72.5T540 265zm-197-75l28 158q15 94-60 94-37 0-60.5-25.5T221 357l-29-160q-18-98 62-98 72 0 89 91z"/><glyph glyph-name="p" unicode="p" horiz-adv-x="608" d="M550 276q-27-153-89.5-221T302-13q-76 0-130 67l-39-221q-7-37-30-37H-5q-25 0-30.5 7.5T-37-170L79 492q3 16 5 23.5t10.5 15T118 538h101q18 0 27-6.5t7-20.5l-6-29q100 73 168 73 87 0 123-71t12-208zm-197-89l24 138q8 50-3.5 84T327 443q-37 0-58.5-31T240 344l-29-166q-5-31 8.5-54.5T268 100q36 0 57.5 26.5T353 187z"/><glyph glyph-name="q" unicode="q" horiz-adv-x="607" d="M456-173q-3-18-10.5-24.5T414-204H306q-25 0-21 26l41 232q-35-30-79.5-48.5T164-13Q-24-13 26 276q24 136 84.5 207.5T253 555q78 0 148-73 5 23 5 28 5 28 38 28h106q22 0 26-9t-1-27zM331 176l29 168q2 21 2 43t-14 39-39 17q-34 0-57.5-29.5T223 356l-31-176q-5-30 7-55t47-25q36 0 58 24.5t27 51.5z"/><glyph glyph-name="r" unicode="r" horiz-adv-x="419" d="M431 534l-20-98q-5-20-22-20-55 0-110-31t-62-71L170 47q-3-18-5.5-25t-10-14.5T133 0H32Q-9 0-1 43l81 459q7 36 33 36h107q37 0 33-26l-6-34q81 70 166 70 6 0 9-.5t6.5-4 2.5-9.5z"/><glyph glyph-name="s" unicode="s" horiz-adv-x="499" d="M427 178q0-55-24.5-95T339 23.5t-75.5-28T193-13Q58-13-11 29q-5 3 1.5 31.5t19 55T32 137q64-28 123-28 40 0 64 14t24 41q0 23-30 44t-65.5 36T82 291.5 52 367q0 81 71 135t179 54q91 0 152-33 6-3-1.5-31.5t-21-54T409 417q-56 30-101 30-75 0-75-47 0-18 30.5-40t66.5-41.5 66.5-57.5 30.5-83z"/><glyph glyph-name="t" unicode="t" horiz-adv-x="394" d="M376 447q-2-12-4-18t-8.5-10-18.5-4h-75q-1-6-23-130l-24-135q-7-39 33-39 16 0 32 5 6 2 9-24.5t1.5-54.5T292 7q-62-20-132-20-68 0-94.5 42T48 126l51 291H58q-24 0-17 32l9 53q3 18 10 24.5t25 6.5h42l15 83q5 26 35 32l98 18q22 4 27-3.5t1-28.5l-18-101h78q28 0 22-37z"/><glyph glyph-name="u" unicode="u" horiz-adv-x="591" d="M476 35q-7-36-34-36H335q-17 0-24.5 11T309 53q-89-65-156-65-69 0-109 41.5T20 159l58 334q9 45 40 45h101q16 0 25.5-10.5T250 499l-50-287q-6-31 5.5-51.5T251 140q35 0 59 24t29 54l48 273q7 35 16 42 8 5 20 5h102q39 0 32-43z"/><glyph glyph-name="v" unicode="v" horiz-adv-x="572" d="M585 507L334 43Q311 0 280 0H151q-32 0-42 42L36 509q-3 14 4.5 21.5T67 538h108q13 0 22-9.5t11-23.5l48-329 173 329q17 33 42 33h96q21 0 24.5-7t-6.5-24z"/><glyph glyph-name="w" unicode="w" horiz-adv-x="829" d="M845 507L602 43Q579 0 548 0H447q-34 0-42 42l-25 178L280 43q-15-25-26.5-34T226 0h-77q-34 0-42 42L35 509q-3 15 4.5 22t26.5 7h105q13 0 22-9.5t11-23.5l38-327 106 192-22 139q-3 15 4.5 22t26.5 7h106q13 0 22-9.5t11-23.5l38-327 158 327q5 13 17.5 23t24.5 10h93q21 0 24.5-7t-6.5-24z"/><glyph glyph-name="x" unicode="x" horiz-adv-x="517" d="M436 42q18-42-22-42H305q-14 0-24 7t-13.5 13.5T256 45l-43 107-83-107q-3-3-10.5-13T110 20l-8-8-9.5-7.5-10-3L69 0h-89q-43 0-7 42l180 226L50 505q-9 17-4 25t28 8h116q26 0 40-36l43-107 81 107q31 36 52 36h93q25 0 26.5-8.5T513 505L332 279z"/><glyph glyph-name="y" unicode="y" horiz-adv-x="576" d="M583 507L194-167q-19-33-46-33H56q-36 0-18 30L145 7 40 509q-3 15 4.5 22t26.5 7h116q12 0 21-9.5t11-23.5l49-278 153 278q17 33 43 33h100q21 0 25-7t-6-24z"/><glyph glyph-name="z" unicode="z" horiz-adv-x="514" d="M424 31q-3-18-11-24.5T386 0H12q-27 0-37 7.5t-7 17T-18 48l286 380H82q-15 0-20 1t-9 8 1 21l9 49q5 31 37 31h375q58 0 32-35L210 110h195q15 0 19.5-1t9-8-.5-21z"/><glyph glyph-name="braceleft" unicode="{" horiz-adv-x="431" d="M298-79q-4-21-33-21h-72q-67 0-100.5 39T74 46l33 154q8 33-14.5 61T30 294q-13 2-11 16l13 72q2 10 16 12 41 6 72.5 30t36.5 60l18 138q8 62 53.5 100.5T343 761h79q24 0 19-26-12-71-13-74-4-24-28-24h-15q-53 0-62-58l-15-122q-6-40-41-70t-76-38q38-10 61.5-45.5T267 225L238 94q-14-66 34-66h24q20 0 16-23z"/><glyph glyph-name="bar" unicode="|" horiz-adv-x="322" d="M246-168q0-16-6-21.5t-22-5.5h-99q-23 0-32 7t-9 26v924q0 19 6.5 25t29.5 6h108q15 0 19.5-7t4.5-26v-928z"/><glyph glyph-name="braceright" unicode="}" horiz-adv-x="431" d="M397 310q-2-14-17-16-41-5-72.5-33T271 200L250 46q-10-68-57.5-107T78-100H6q-16 0-21 4.5T-18-79L-4 5q4 23 23 23h25q48 0 57 66l17 131q6 43 43 78.5t78 45.5q-38 8-63 38t-17 70l29 122q6 29-5.5 43.5T147 637h-15q-11 0-16.5 7t-3.5 17l13 74q2 14 8.5 20t20.5 6h78q69 0 101-38.5T351 622l-30-138q-8-36 14.5-60t62.5-30q14-2 12-12z"/><glyph glyph-name="asciitilde" unicode="~" horiz-adv-x="542" d="M463 343q-20-56-58-99t-83-43q-24 0-68 26.5T191 254q-16 0-32.5-13.5T136 211q-5-12-19-6l-58 21q-12 3-9 15 12 47 49.5 94t80.5 47q27 0 75.5-26.5T320 329q30 0 54 45 7 11 17 7l63-20q13-4 9-18z"/><glyph glyph-name="nbspace" horiz-adv-x="120"/><glyph glyph-name="exclamdown" unicode="¡" horiz-adv-x="320" d="M22 41l100 440q7 37 31 37h74q11 0 16-3.5t5.5-11.5-1.5-19L193 46q-3-25-11-35.5T153 0H52Q12 0 22 41zm110 655q4 20 12 28t27 8h114q24 0 28.5-9t-.5-23l-13-74q-2-11-4-16.5t-9.5-9.5-21.5-4H149q-22 0-27.5 4.5T120 627z"/><glyph glyph-name="cent" unicode="¢" horiz-adv-x="576" d="M484 121q-20-49-62-81.5T326-5l-9-53q-2-16-4.5-23t-10-12.5T281-99H174q-15 0-21.5 5t-7 14.5T147-57l9 56Q70 21 40.5 86.5T31 264q23 129 78 197t144 86l11 57q7 33 33 33h107q24 0 28.5-7t1.5-26l-11-65q73-29 100-95 5-12-23.5-30t-60-27-33.5 0q-14 55-72 55-81 0-101-108l-21-123q-9-51 8-81.5T280 99q53 0 91 71 11 11 38.5 6t54-23 20.5-32z"/><glyph glyph-name="sterling" unicode="£" horiz-adv-x="618" d="M624 692q8-9-1.5-45.5t-26-66T571 558q-44 36-117 36-57 0-91.5-26.5T320 495q-3-15-4-46t-1-37h87q35 0 40-10 4-6 2-18l-10-59q-4-23-13.5-30.5T384 287h-87q-19-79-51-130-8-14 12-17 68-5 103-5 28 0 61.5 3.5t55 7T503 151q17 3 20.5-4t-.5-18L503 17q-5-31-103-31-37 0-132 8.5T159 3Q95 3 37-10q-17-3-24 6t4 30q76 138 102 261H65q-16 0-23.5 6.5T36 313l11 64q4 24 12 29.5t27 5.5h50q0 3 2.5 48.5T145 532q17 95 95 153t200 58q130 0 184-51z"/><glyph glyph-name="currency" unicode="¤" horiz-adv-x="620" d="M273 299l-12-68q-8-47 13.5-76t62.5-29q35 0 66 6t60 15.5 31 9.5q8 2 15.5-30t8-61.5T513 27Q495 14 431 .5T301-13q-49 0-91 11t-80 36-54 75.5T72 230l12 69H69q-16 0-24 6.5T39 325l11 63q3 17 8.5 25t11.5 9.5 19 1.5h17l13 75q44 243 329 243 55 0 104.5-12t75.5-31q9-6-22.5-67T565 575q-2 1-11 5t-13.5 5.5-16 4.5-22 4.5-27.5 3-37 1.5q-61 0-92.5-33.5T303 467l-8-43h132q17 0 24.5-1t13.5-7.5 4-19.5l-10-58q-4-23-13.5-31t-36.5-8H273z"/><glyph glyph-name="yen" unicode="¥" horiz-adv-x="654" d="M685 701l-45-66.5L553 505l-98-146-38-58-10-56h64q17 0 24.5-1t13.5-7.5 4-19.5l-10-58q-5-24-14-31.5t-36-7.5h-68l-17-92q-2-16-11.5-22T326 0H204q-17 0-22 5t-3 18l17 97h-71q-35 0-31 26l11 63q3 17 9 25t12 9.5 19 1.5h73l10 57L90 704q-3 10-4.5 15.5T90 728t11.5 3.5 16.5.5h140q18 0 23.5-4.5T294 705l74-257 163 257q1 2 4.5 6t4 5 3 4 3.5 3.5 3.5 2.5 4 2.5 4 1.5 5.5 1 6.5.5 7.5.5h92q22 0 26-4t-10-27z"/><glyph glyph-name="brokenbar" unicode="¦" d="M719 72H8v564h711V72zm-86 456q4 11-11 11h-31q-6 0-10-9 0-3-1-4l-82-276-83 276q-7 12-12 13h-38q-4 0-6-.5t-4-2-1.5-4.5l1.5-9 101-331q3-12 15-12h45q11 0 14 11zM363 196L263 523q-4 16-18 16h-40q-12 0-18-16L88 196q-5-16 3-16h35q7 0 9 2t4 11l22 75h119l23-75q1-5 1.5-6.5t1.5-3.5 3-2.5 5-.5h39q8 0 10 2t0 14zm-95 109h-96l49 164z"/><glyph glyph-name="section" unicode="§" horiz-adv-x="513" d="M454 338q-8-49-38-84.5T349 200q21-20 33-34.5t20.5-41.5 2.5-59Q392-7 328-44T177-81q-63 0-112.5 12.5T-6-44q-8 5 6.5 59.5T31 65q87-29 139-29 83 0 92 51 3 19-15 37t-63 45q-4 3-13 8-30 18-45 29t-35 30.5T64.5 279 63 330q8 46 41.5 81.5T182 459q-39 30-59 62t-12 78q12 69 79.5 106.5T345 743q81 0 159-34 6-3-1-30t-21-51.5-24-20.5q-69 27-124 27-68 0-75-42-3-21 13-38.5t48-38.5q35-22 52.5-35t43-37 34.5-50 4-55zm-128-16q4 24-8 43t-42 22q-35 5-58-9.5T190 334q-5-25 12-42.5t50-21.5q28-3 48.5 10t25.5 42z"/><glyph glyph-name="dieresis" unicode="¨" horiz-adv-x="488" d="M472 638q-5-28-31-28h-88q-25 0-31 8t-3 24l14 81q3 16 10.5 23t24.5 7h91q21 0 26-6.5t2-23.5zm-229 4q-3-17-10.5-24.5T207 610h-92q-19 0-24.5 5T88 636l15 88q5 29 31 29h100q17 0 21.5-7.5T257 721z"/><glyph glyph-name="copyright" unicode="©" horiz-adv-x="760" d="M734 357q0-149-103.5-253T379 0 127.5 104 24 357t103.5 253T379 714t251.5-104T734 357zm-67 0q0 124-84 209t-204 85-204-85-84-209q0-123 84-208.5T379 63t204 85.5T667 357zM497 526q2-2-2-19t-10-32-9-14q-30 10-63 10-77 0-77-68V301q0-32 14-47t46-15q20 0 36 3t29.5 8 14.5 5q3 1 8.5-15t8.5-33.5 1-19.5q-25-20-107-20-75 0-112.5 33T237 288v124q0 134 167 134 70 0 93-20z"/><glyph glyph-name="ordfeminine" unicode="ª" horiz-adv-x="474" d="M413 387q-2-11-3.5-17t-7.5-11-16-5h-73q-9 0-13.5 1t-7.5 5.5-2 13.5l5 23q-42-52-129-52-52 0-77 47.5T81 538q18 103 60 153.5T241 742q83 0 104-52 3 15 3 17 4 24 22 24h76q18 0 22-5.5t1-18.5zM299 492l19 104q4 24-5 45t-35 21q-44 0-58-76l-15-83q-5-32 2.5-55t31.5-23q23 0 39.5 21.5T299 492z"/><glyph glyph-name="guillemotleft" unicode="«" horiz-adv-x="590" d="M250 161q10-18-9-26l-86-44q-15-5-19-2t-11 16L17 320l185 219q17 22 32 12l72-42q15-9-3-31L163 320zm249 0q10-18-9-26l-86-44q-15-5-19-2t-11 16L266 320l185 219q17 22 32 12l72-42q15-9-3-31L412 320z"/><glyph glyph-name="logicalnot" unicode="¬" d="M719 72H8v564h711V72zm-86 456q4 11-11 11h-31q-6 0-10-9 0-3-1-4l-82-276-83 276q-7 12-12 13h-38q-4 0-6-.5t-4-2-1.5-4.5l1.5-9 101-331q3-12 15-12h45q11 0 14 11zM363 196L263 523q-4 16-18 16h-40q-12 0-18-16L88 196q-5-16 3-16h35q7 0 9 2t4 11l22 75h119l23-75q1-5 1.5-6.5t1.5-3.5 3-2.5 5-.5h39q8 0 10 2t0 14zm-95 109h-96l49 164z"/><glyph glyph-name="registered" unicode="®" horiz-adv-x="760" d="M730 357q0-149-103.5-253T375 0 123.5 104 20 357t103.5 253T375 714t251.5-104T730 357zm-67 0q0 124-84 209t-204 85-204-85-84-209q0-123 84-208.5T375 63t204 85.5T663 357zM534 193q3-5 3.5-9t-2-6-8.5-2h-76q-5 0-7.5 1t-5 4-2.5 3.5-3 6.5l-62 114q-2 4-7 4h-23q-5 0-5-8V194q0-16-20-16h-65q-10 0-11.5 3.5T238 197v334q0 8 3 10.5t13 2.5h135q68 0 104-32.5t36-84.5q0-62-59-93-6-3-6-4t2-4zM431 430q0 19-14 30.5T381 472h-35q-9 0-9-9v-67q0-10 10-10h44q17 0 28.5 11.5T431 430z"/><glyph glyph-name="macron" unicode="¯" horiz-adv-x="488" d="M484 672q-4-23-13-30.5t-36-7.5H148q-16 0-24 6t-6 20l7 42q3 17 8.5 25t12 9.5T165 738h285q14 0 19-.5t12.5-2.5 9.5-8.5 0-16.5z"/><glyph glyph-name="degree" unicode="°" horiz-adv-x="433" d="M410 569q-12-69-65-115.5T219 407q-66 0-105 47.5T87 569q12 68 64.5 114.5T276 730q67 0 106.5-47T410 569zm-89 0q6 32-9.5 55T262 647t-57.5-23-29.5-55 10-55 49-23q36 0 58.5 22.5T321 569z"/><glyph glyph-name="plusminus" unicode="±" horiz-adv-x="1008" d="M712 445q-6-37-35-37h-53L524-155q-2-12-10-20.5t-18-8.5H378q-13 0-20 9.5t-4 25.5l99 557H286L186-155q-2-12-10-20.5t-18-8.5H40q-13 0-20 9.5T16-149l99 557H72q-18 0-23 6.5T47 439l9 51q5 32 30 32h40q-11 37-1 83 12 59 57 98.5T308 743q56 0 107-22 7-3-13.5-56.5T374 613q-20 6-35 6-40 0-48-43-6-40 19-54h154q-11 37-1 83 12 59 57 98.5T646 743q56 0 107-22 7-3-13.5-56.5T712 613q-20 6-35 6-40 0-48-43-6-40 19-54h53q17 0 20-8t-1-24zM895 41q-3-17-5-23t-9.5-12T859 0H751q-22 0-27 6t-1 28l121 681q5 28 32 28h107q24 0 28.5-7t1.5-26z"/><glyph glyph-name="twosuperior" unicode="²" d="M719 72H8v564h711V72zm-86 456q4 11-11 11h-31q-6 0-10-9 0-3-1-4l-82-276-83 276q-7 12-12 13h-38q-4 0-6-.5t-4-2-1.5-4.5l1.5-9 101-331q3-12 15-12h45q11 0 14 11zM363 196L263 523q-4 16-18 16h-40q-12 0-18-16L88 196q-5-16 3-16h35q7 0 9 2t4 11l22 75h119l23-75q1-5 1.5-6.5t1.5-3.5 3-2.5 5-.5h39q8 0 10 2t0 14zm-95 109h-96l49 164z"/><glyph glyph-name="threesuperior" unicode="³" d="M719 72H8v564h711V72zm-86 456q4 11-11 11h-31q-6 0-10-9 0-3-1-4l-82-276-83 276q-7 12-12 13h-38q-4 0-6-.5t-4-2-1.5-4.5l1.5-9 101-331q3-12 15-12h45q11 0 14 11zM363 196L263 523q-4 16-18 16h-40q-12 0-18-16L88 196q-5-16 3-16h35q7 0 9 2t4 11l22 75h119l23-75q1-5 1.5-6.5t1.5-3.5 3-2.5 5-.5h39q8 0 10 2t0 14zm-95 109h-96l49 164z"/><glyph glyph-name="acute" unicode="´" horiz-adv-x="488" d="M430 740L286 619q-24-22-42-22h-65q-16 0-17.5 8.5T172 627l107 121q21 24 38 24h104q22 0 23.5-9T430 740z"/><glyph glyph-name="mu" unicode="µ" d="M719 72H8v564h711V72zm-86 456q4 11-11 11h-31q-6 0-10-9 0-3-1-4l-82-276-83 276q-7 12-12 13h-38q-4 0-6-.5t-4-2-1.5-4.5l1.5-9 101-331q3-12 15-12h45q11 0 14 11zM363 196L263 523q-4 16-18 16h-40q-12 0-18-16L88 196q-5-16 3-16h35q7 0 9 2t4 11l22 75h119l23-75q1-5 1.5-6.5t1.5-3.5 3-2.5 5-.5h39q8 0 10 2t0 14zm-95 109h-96l49 164z"/><glyph glyph-name="mu" unicode="μ" d="M719 72H8v564h711V72zm-86 456q4 11-11 11h-31q-6 0-10-9 0-3-1-4l-82-276-83 276q-7 12-12 13h-38q-4 0-6-.5t-4-2-1.5-4.5l1.5-9 101-331q3-12 15-12h45q11 0 14 11zM363 196L263 523q-4 16-18 16h-40q-12 0-18-16L88 196q-5-16 3-16h35q7 0 9 2t4 11l22 75h119l23-75q1-5 1.5-6.5t1.5-3.5 3-2.5 5-.5h39q8 0 10 2t0 14zm-95 109h-96l49 164z"/><glyph glyph-name="paragraph" unicode="¶" horiz-adv-x="597" d="M438-143q-2-10-2.5-13t-2.5-9-5-7.5-8-3.5-13-2h-62q-13 0-11 11l141 800q2 13-7 13h-29q-10 0-13-13L285-167q-2-11-15-11h-56q-17 0-22.5 5.5T189-151l62 353q5 27-19 27-84 0-134.5 62T69 480q45 252 359 252h129q21 0 27-5.5t4-20.5z"/><glyph glyph-name="periodcentered" unicode="·" horiz-adv-x="285" d="M220 298q-3-16-5-23t-10.5-15-23.5-8H73q-42 0-35 40l12 69q2 14 11 24t21 10h115q26 0 32-6.5t3-22.5z"/><glyph glyph-name="cedilla" unicode="¸" horiz-adv-x="488" d="M269-121q-8-44-47-67t-93-23q-85 0-97 52-2 6 10 14.5t24 12 15-1.5q2-11 16.5-18.5T130-160q49 0 56 36 6 35-34 35-12 0-21-3-5-3-7.5-2.5T122-87l18 103h69l-10-57q38 0 57.5-21t12.5-59z"/><glyph glyph-name="onesuperior" unicode="¹" d="M719 72H8v564h711V72zm-86 456q4 11-11 11h-31q-6 0-10-9 0-3-1-4l-82-276-83 276q-7 12-12 13h-38q-4 0-6-.5t-4-2-1.5-4.5l1.5-9 101-331q3-12 15-12h45q11 0 14 11zM363 196L263 523q-4 16-18 16h-40q-12 0-18-16L88 196q-5-16 3-16h35q7 0 9 2t4 11l22 75h119l23-75q1-5 1.5-6.5t1.5-3.5 3-2.5 5-.5h39q8 0 10 2t0 14zm-95 109h-96l49 164z"/><glyph glyph-name="ordmasculine" unicode="º" horiz-adv-x="467" d="M443 538q-17-99-67.5-146.5T234 344q-99 0-134.5 43.5T82 537q20 110 74 157t151 47q89 0 122-47t14-156zm-130-34l15 84q13 72-40 72-54 0-66-74l-15-86q-6-33 4.5-54.5T248 424t42.5 23.5T313 504z"/><glyph glyph-name="guillemotright" unicode="»" horiz-adv-x="590" d="M303 321L116 102q-16-20-30-11l-73 41q-16 9 1 29l143 160-83 157q-10 20 7 28l87 45q14 5 18 2t11-17zm249 0L365 102q-16-20-30-11l-73 41q-16 9 1 29l143 160-83 157q-10 20 7 28l87 45q14 5 18 2t11-17z"/><glyph glyph-name="onequarter" unicode="¼" d="M719 72H8v564h711V72zm-86 456q4 11-11 11h-31q-6 0-10-9 0-3-1-4l-82-276-83 276q-7 12-12 13h-38q-4 0-6-.5t-4-2-1.5-4.5l1.5-9 101-331q3-12 15-12h45q11 0 14 11zM363 196L263 523q-4 16-18 16h-40q-12 0-18-16L88 196q-5-16 3-16h35q7 0 9 2t4 11l22 75h119l23-75q1-5 1.5-6.5t1.5-3.5 3-2.5 5-.5h39q8 0 10 2t0 14zm-95 109h-96l49 164z"/><glyph glyph-name="onehalf" unicode="½" d="M719 72H8v564h711V72zm-86 456q4 11-11 11h-31q-6 0-10-9 0-3-1-4l-82-276-83 276q-7 12-12 13h-38q-4 0-6-.5t-4-2-1.5-4.5l1.5-9 101-331q3-12 15-12h45q11 0 14 11zM363 196L263 523q-4 16-18 16h-40q-12 0-18-16L88 196q-5-16 3-16h35q7 0 9 2t4 11l22 75h119l23-75q1-5 1.5-6.5t1.5-3.5 3-2.5 5-.5h39q8 0 10 2t0 14zm-95 109h-96l49 164z"/><glyph glyph-name="threequarters" unicode="¾" d="M719 72H8v564h711V72zm-86 456q4 11-11 11h-31q-6 0-10-9 0-3-1-4l-82-276-83 276q-7 12-12 13h-38q-4 0-6-.5t-4-2-1.5-4.5l1.5-9 101-331q3-12 15-12h45q11 0 14 11zM363 196L263 523q-4 16-18 16h-40q-12 0-18-16L88 196q-5-16 3-16h35q7 0 9 2t4 11l22 75h119l23-75q1-5 1.5-6.5t1.5-3.5 3-2.5 5-.5h39q8 0 10 2t0 14zm-95 109h-96l49 164z"/><glyph glyph-name="questiondown" unicode="¿" horiz-adv-x="461" d="M-9 157q8 44 34.5 83.5t55 64 56 56T172 421l10 57q5 34 35 34h106q16 0 21.5-6.5T349 484q-3-43-19-82-14-35-41-67t-51.5-51.5-45-44.5-24.5-50q-11-68 58-68 47 0 107 41 14 9 30-16t19-53.5T371 49q-92-60-198-60-91 0-143.5 44.5T-9 157zm213 468l13 76q1 10 3 15t10 10.5 22 5.5h108q42 0 35-40l-10-62q-2-14-11-24t-21-10H231q-32 0-27 29z"/><glyph glyph-name="Agrave" unicode="À" horiz-adv-x="690" d="M522 700l85-667q3-22-5-27.5T570 0H451q-9 0-14 1t-7.5 5-3.5 7-2 13l-14 108H182L131 26q-7-16-13.5-21T96 0H-24q-25 0-9 33l321 667q8 18 18.5 25t31.5 7h145q22 0 29-6.5t10-25.5zM394 255l-31 261-123-261h154zm38 673l72-121q8-13 3.5-21.5T487 777h-55q-16 0-36 22L287 920q-13 13-8 22.5t27 9.5h96q8 0 14-3.5t8.5-7.5 7.5-13z"/><glyph glyph-name="Aacute" unicode="Á" horiz-adv-x="690" d="M522 700l85-667q3-22-5-27.5T570 0H451q-9 0-14 1t-7.5 5-3.5 7-2 13l-14 108H182L131 26q-7-16-13.5-21T96 0H-24q-25 0-9 33l321 667q8 18 18.5 25t31.5 7h145q22 0 29-6.5t10-25.5zM394 255l-31 261-123-261h154zm219 665L469 799q-24-22-42-22h-65q-16 0-17.5 8.5T355 807l107 121q21 24 38 24h104q22 0 23.5-9T613 920z"/><glyph glyph-name="Acircumflex" unicode="Â" horiz-adv-x="690" d="M522 700l85-667q3-22-5-27.5T570 0H451q-9 0-14 1t-7.5 5-3.5 7-2 13l-14 108H182L131 26q-7-16-13.5-21T96 0H-24q-25 0-9 33l321 667q8 18 18.5 25t31.5 7h145q22 0 29-6.5t10-25.5zM394 255l-31 261-123-261h154zm103 673l74-120q8-11 4-21t-22-10h-58q-18 0-27 15l-43 71-61-71q-13-15-30-15h-63q-15 0-17.5 8.5T263 808l106 120q20 24 40 24h58q16 0 30-24z"/><glyph glyph-name="Atilde" unicode="Ã" horiz-adv-x="690" d="M632 907q-26-49-67-82.5T480 791q-23 0-59 24.5T367 840q-15 0-32.5-12.5T308 800q-8-11-18-6l-51 19q-12 5-6 15 18 41 59.5 78t82.5 37q25 0 65.5-24.5T496 894q31 0 60 40 7 12 17 7l54-17q12-4 5-17zM522 700l85-667q3-22-5-27.5T570 0H451q-9 0-14 1t-7.5 5-3.5 7-2 13l-14 108H182L131 26q-7-16-13.5-21T96 0H-24q-25 0-9 33l321 667q8 18 18.5 25t31.5 7h145q22 0 29-6.5t10-25.5zM394 255l-31 261-123-261h154z"/><glyph glyph-name="Adieresis" unicode="Ä" horiz-adv-x="690" d="M619 818q-5-28-31-28h-88q-25 0-31.5 8t-3.5 24l15 81q4 30 35 30h91q21 0 26-6.5t2-23.5zm-230 4q-2-17-9.5-24.5T354 790h-92q-19 0-24.5 5t-3.5 21l16 88q5 29 31 29h100q17 0 21-7.5t1-24.5zm133-122l85-667q3-22-5-27.5T570 0H451q-9 0-14 1t-7.5 5-3.5 7-2 13l-14 108H182L131 26q-7-16-13.5-21T96 0H-24q-25 0-9 33l321 667q8 18 18.5 25t31.5 7h145q22 0 29-6.5t10-25.5zM394 255l-31 261-123-261h154z"/><glyph glyph-name="Aring" unicode="Å" horiz-adv-x="690" d="M572 888q-10-56-53-93t-104-37q-54 0-87.5 38T304 888q10 55 53.5 92.5T461 1018q54 0 87.5-38t23.5-92zm-78 0q4 24-7.5 42T449 948q-27 0-45-17.5T382 888q-4-24 7.5-42t37.5-18q27 0 45 18t22 42zm28-188l85-667q3-22-5-27.5T570 0H451q-9 0-14 1t-7.5 5-3.5 7-2 13l-14 108H182L131 26q-7-16-13.5-21T96 0H-24q-25 0-9 33l321 667q8 18 18.5 25t31.5 7h145q22 0 29-6.5t10-25.5zM394 255l-31 261-123-261h154z"/><glyph glyph-name="AE" unicode="Æ" horiz-adv-x="938" d="M830 24q-4-24-25-24H382q-30 0-25 32l14 80q5 22-16 22H190L128 26Q113 0 91 0H-23q-27 0-11 31l397 669q12 18 21.5 25t28.5 7h498q17 0 21-5t2-17l-19-95q-3-14-14-17.5t-36-3.5H661q-25 0-29-16l-18-105q-4-23 18-23h186q24 0 19-22l-19-93q-1-6-3-10.5t-5-7.5l-5-5-7.5-2.5-7-.5H615q-27 0-32-23l-21-119q-2-11 3-16t10-5.5 19-.5h206q28 0 38.5-5t8.5-18zM401 280l51 295-190-321h114q21 0 25 26z"/><glyph glyph-name="Ccedilla" unicode="Ç" horiz-adv-x="631" d="M637 690q3-3-1-17t-11.5-32.5-16-35.5-17-28-13.5-9q-60 31-135 31-146 0-171-141l-36-205q-23-127 103-127 82 0 159 40 5 3 12-12 20-39 25-89 1-18-3-21-31-20-91.5-37.5T312-13q-1-6-2.5-16T308-41q38 0 57.5-21t12.5-59q-8-44-47-67t-93-23q-85 0-97 52-2 6 10 14.5t24 12 15-1.5q2-11 16.5-18.5T239-160q49 0 56 36 6 35-34 35-12 0-21-3-5-3-7.5-2.5T231-87q7 44 13 76Q1 9 40 227l43 248q22 121 109 194.5T449 743q120 0 188-53z"/><glyph glyph-name="Egrave" unicode="È" horiz-adv-x="589" d="M502 122l-17-98q-4-24-32-24H36Q7 0 12 32l118 667q2 11 4 17.5t8.5 11T159 732h407q17 0 21-5t2-17l-19-95q-3-14-14-17.5t-36-3.5H316q-27 0-29-16l-18-105q-4-23 18-23h189q22 0 16-22l-19-93q-7-26-35-26H270q-27 0-32-23l-21-119q-2-11 3-16t10-5.5 18-.5h223q35 0 31-23zm-96 806l72-121q8-13 3.5-21.5T461 777h-55q-16 0-36 22L261 920q-13 13-8 22.5t27 9.5h96q8 0 14-3.5t8.5-7.5 7.5-13z"/><glyph glyph-name="Eacute" unicode="É" horiz-adv-x="589" d="M502 122l-17-98q-4-24-32-24H36Q7 0 12 32l118 667q2 11 4 17.5t8.5 11T159 732h407q17 0 21-5t2-17l-19-95q-3-14-14-17.5t-36-3.5H316q-27 0-29-16l-18-105q-4-23 18-23h189q22 0 16-22l-19-93q-7-26-35-26H270q-27 0-32-23l-21-119q-2-11 3-16t10-5.5 18-.5h223q35 0 31-23zm70 798L428 799q-24-22-42-22h-65q-16 0-17.5 8.5T314 807l107 121q21 24 38 24h104q22 0 23.5-9T572 920z"/><glyph glyph-name="Ecircumflex" unicode="Ê" horiz-adv-x="589" d="M502 122l-17-98q-4-24-32-24H36Q7 0 12 32l118 667q2 11 4 17.5t8.5 11T159 732h407q17 0 21-5t2-17l-19-95q-3-14-14-17.5t-36-3.5H316q-27 0-29-16l-18-105q-4-23 18-23h189q22 0 16-22l-19-93q-7-26-35-26H270q-27 0-32-23l-21-119q-2-11 3-16t10-5.5 18-.5h223q35 0 31-23zm-43 806l74-120q8-11 4-21t-22-10h-58q-18 0-27 15l-43 71-61-71q-13-15-30-15h-63q-15 0-17.5 8.5T225 808l106 120q20 24 40 24h58q16 0 30-24z"/><glyph glyph-name="Edieresis" unicode="Ë" horiz-adv-x="589" d="M567 818q-5-28-31-28h-88q-25 0-31.5 8t-3.5 24l15 81q4 30 35 30h91q21 0 26-6.5t2-23.5zm-230 4q-2-17-9.5-24.5T302 790h-92q-19 0-24.5 5t-3.5 21l16 88q5 29 31 29h100q17 0 21-7.5t1-24.5zm165-700l-17-98q-4-24-32-24H36Q7 0 12 32l118 667q2 11 4 17.5t8.5 11T159 732h407q17 0 21-5t2-17l-19-95q-3-14-14-17.5t-36-3.5H316q-27 0-29-16l-18-105q-4-23 18-23h189q22 0 16-22l-19-93q-7-26-35-26H270q-27 0-32-23l-21-119q-2-11 3-16t10-5.5 18-.5h223q35 0 31-23z"/><glyph glyph-name="Igrave" unicode="Ì" horiz-adv-x="331" d="M200 25q-2-14-9-19.5T167 0H45Q23 0 16 6.5T12 31l119 673q3 17 11 22.5t30 5.5h127q16 0 19.5-7t.5-25zm49 903l72-121q8-13 3.5-21.5T304 777h-55q-16 0-36 22L104 920q-13 13-8 22.5t27 9.5h96q8 0 14-3.5t8.5-7.5 7.5-13z"/><glyph glyph-name="Iacute" unicode="Í" horiz-adv-x="331" d="M200 25q-2-14-9-19.5T167 0H45Q23 0 16 6.5T12 31l119 673q3 17 11 22.5t30 5.5h127q16 0 19.5-7t.5-25zm226 895L282 799q-24-22-42-22h-65q-16 0-17.5 8.5T168 807l107 121q21 24 38 24h104q22 0 23.5-9T426 920z"/><glyph glyph-name="Icircumflex" unicode="Î" horiz-adv-x="331" d="M200 25q-2-14-9-19.5T167 0H45Q23 0 16 6.5T12 31l119 673q3 17 11 22.5t30 5.5h127q16 0 19.5-7t.5-25zm124 903l74-120q8-11 4-21t-22-10h-58q-18 0-27 15l-43 71-61-71q-13-15-30-15H98q-15 0-17.5 8.5T90 808l106 120q20 24 40 24h58q16 0 30-24z"/><glyph glyph-name="Idieresis" unicode="Ï" horiz-adv-x="331" d="M200 25q-2-14-9-19.5T167 0H45Q23 0 16 6.5T12 31l119 673q3 17 11 22.5t30 5.5h127q16 0 19.5-7t.5-25zm237 793q-5-28-31-28h-88q-25 0-31.5 8t-3.5 24l15 81q4 30 35 30h91q21 0 26-6.5t2-23.5zm-230 4q-2-17-9.5-24.5T172 790H80q-19 0-24.5 5T52 816l16 88q5 29 31 29h100q17 0 21-7.5t1-24.5z"/><glyph glyph-name="Eth" unicode="Ð" horiz-adv-x="698" d="M657 489l-46-262q-10-56-33.5-99T526 61.5t-62.5-38-61.5-19T348 0H42Q29 0 19.5 9.5T13 36l48 274H49q-16 0-23.5 6.5T20 336l13 73q4 24 12 30t27 6h12l44 246q8 41 35 41h229q61 0 111-12t90.5-38.5 58-75.5 5.5-117zM423 240l44 254q7 38-17 65.5T383 587h-60q-19 0-25-4.5t-8-18.5l-21-119h42q17 0 24.5-1t13.5-7.5 4-20.5l-12-68q-4-23-13.5-30.5T291 310h-46l-24-137q-2-11 3.5-18.5T248 147h63q42 0 73 22.5t39 70.5z"/><glyph glyph-name="Ntilde" unicode="Ñ" horiz-adv-x="746" d="M661 907q-26-49-67-82.5T509 791q-23 0-59 24.5T396 840q-15 0-32.5-12.5T337 800q-7-11-18-6l-51 19q-12 5-6 15 18 41 59.5 78t82.5 37q25 0 65.5-24.5T525 894q31 0 60 40 7 12 17 7l54-17q12-4 5-17zM613 35q-4-23-10.5-32T581-5l-95 3q-17 1-24.5 6.5T448 24L272 394q-15 38-22-1L187 35q-4-22-11-28.5T147 0H30.5l-5 .5-4.5 2L17 5l-3 3.5-2.5 5.5-.5 6.5 1 8.5 118 671q6 32 29 32h95q9 0 15-.5t9.5-1 6.5-3.5 4-3.5 3.5-5.5l3.5-7 176-381q8-23 17-7 4 8 6 22l63 355q3 13 10.5 23t19.5 9h123q14 0 18-7.5t1-25.5z"/><glyph glyph-name="Ograve" unicode="Ò" horiz-adv-x="706" d="M619 227q-12-66-41.5-113T515 43 435 5.5t-78-16-72-2.5Q156-13 86 43T37 217l49 275q24 132 102.5 191.5T409 743q61 0 109.5-12t88-39.5T662 612t3-124zm-187 21l43 240q8 45-13 73.5T393 590q-58 0-87-29.5T270 493l-45-260q-7-39 18.5-64.5T304 143q110 0 128 105zm13 680l72-121q8-13 3.5-21.5T500 777h-55q-16 0-36 22L300 920q-13 13-8 22.5t27 9.5h96q8 0 14-3.5t8.5-7.5 7.5-13z"/><glyph glyph-name="Oacute" unicode="Ó" horiz-adv-x="706" d="M619 227q-12-66-41.5-113T515 43 435 5.5t-78-16-72-2.5Q156-13 86 43T37 217l49 275q24 132 102.5 191.5T409 743q61 0 109.5-12t88-39.5T662 612t3-124zm-187 21l43 240q8 45-13 73.5T393 590q-58 0-87-29.5T270 493l-45-260q-7-39 18.5-64.5T304 143q110 0 128 105zm173 672L461 799q-24-22-42-22h-65q-16 0-17.5 8.5T347 807l107 121q21 24 38 24h104q22 0 23.5-9T605 920z"/><glyph glyph-name="Ocircumflex" unicode="Ô" horiz-adv-x="706" d="M619 227q-12-66-41.5-113T515 43 435 5.5t-78-16-72-2.5Q156-13 86 43T37 217l49 275q24 132 102.5 191.5T409 743q61 0 109.5-12t88-39.5T662 612t3-124zm-187 21l43 240q8 45-13 73.5T393 590q-58 0-87-29.5T270 493l-45-260q-7-39 18.5-64.5T304 143q110 0 128 105zm81 680l74-120q8-11 4-21t-22-10h-58q-18 0-27 15l-43 71-61-71q-13-15-30-15h-63q-15 0-17.5 8.5T279 808l106 120q20 24 40 24h58q16 0 30-24z"/><glyph glyph-name="Otilde" unicode="Õ" horiz-adv-x="706" d="M639 907q-26-49-67-82.5T487 791q-23 0-59 24.5T374 840q-15 0-32.5-12.5T315 800q-7-11-18-6l-51 19q-12 5-6 15 18 41 59.5 78t82.5 37q25 0 65.5-24.5T503 894q31 0 60 40 7 12 17 7l54-17q12-4 5-17zm-20-680q-12-66-41.5-113T515 43 435 5.5t-78-16-72-2.5Q156-13 86 43T37 217l49 275q24 132 102.5 191.5T409 743q61 0 109.5-12t88-39.5T662 612t3-124zm-187 21l43 240q8 45-13 73.5T393 590q-58 0-87-29.5T270 493l-45-260q-7-39 18.5-64.5T304 143q110 0 128 105z"/><glyph glyph-name="Odieresis" unicode="Ö" horiz-adv-x="706" d="M623 818q-5-28-31-28h-88q-25 0-31.5 8t-3.5 24l15 81q4 30 35 30h91q21 0 26-6.5t2-23.5zm-230 4q-2-17-9.5-24.5T358 790h-92q-19 0-24.5 5t-3.5 21l16 88q5 29 31 29h100q17 0 21-7.5t1-24.5zm226-595q-12-66-41.5-113T515 43 435 5.5t-78-16-72-2.5Q156-13 86 43T37 217l49 275q24 132 102.5 191.5T409 743q61 0 109.5-12t88-39.5T662 612t3-124zm-187 21l43 240q8 45-13 73.5T393 590q-58 0-87-29.5T270 493l-45-260q-7-39 18.5-64.5T304 143q110 0 128 105z"/><glyph glyph-name="multiply" unicode="×" d="M719 72H8v564h711V72zm-86 456q4 11-11 11h-31q-6 0-10-9 0-3-1-4l-82-276-83 276q-7 12-12 13h-38q-4 0-6-.5t-4-2-1.5-4.5l1.5-9 101-331q3-12 15-12h45q11 0 14 11zM363 196L263 523q-4 16-18 16h-40q-12 0-18-16L88 196q-5-16 3-16h35q7 0 9 2t4 11l22 75h119l23-75q1-5 1.5-6.5t1.5-3.5 3-2.5 5-.5h39q8 0 10 2t0 14zm-95 109h-96l49 164z"/><glyph glyph-name="Oslash" unicode="Ø" horiz-adv-x="706" d="M619 227q-12-66-41.5-113T515 43 435 5.5t-78-16-72-2.5q-120 0-185 44L81 11Q59-18 38-2L-2 28q-19 14-3 30l46 49q-16 47-4 110l49 275q24 132 102.5 191.5T409 743q123 0 189-46l7 8q40 43 58 28l35-29q21-18 1-40l-41-43q20-54 7-133zM270 493l-31-176 226 240q-21 33-72 33-58 0-87-29.5T270 493zm162-245l29 165-224-237q25-33 67-33 110 0 128 105z"/><glyph glyph-name="Ugrave" unicode="Ù" horiz-adv-x="697" d="M608 227q-8-47-26-85t-39.5-62.5-51-43-55-27.5T379-5.5 326-12t-47-1q-35 0-68 5.5T141.5 14 80 55.5 43.5 125 42 226l85 480q4 26 32 26h117q21 0 28.5-7t4.5-26l-80-457q-8-42 13-70.5t64-28.5q96 0 115 104l81 459q4 26 32 26h123q20 0 28.5-7t5.5-26zM448 928l72-121q8-13 3.5-21.5T503 777h-55q-16 0-36 22L303 920q-13 13-8 22.5t27 9.5h96q8 0 14-3.5t8.5-7.5 7.5-13z"/><glyph glyph-name="Uacute" unicode="Ú" horiz-adv-x="697" d="M608 227q-8-47-26-85t-39.5-62.5-51-43-55-27.5T379-5.5 326-12t-47-1q-35 0-68 5.5T141.5 14 80 55.5 43.5 125 42 226l85 480q4 26 32 26h117q21 0 28.5-7t4.5-26l-80-457q-8-42 13-70.5t64-28.5q96 0 115 104l81 459q4 26 32 26h123q20 0 28.5-7t5.5-26zm-11 693L453 799q-24-22-42-22h-65q-16 0-17.5 8.5T339 807l107 121q21 24 38 24h104q22 0 23.5-9T597 920z"/><glyph glyph-name="Ucircumflex" unicode="Û" horiz-adv-x="697" d="M608 227q-8-47-26-85t-39.5-62.5-51-43-55-27.5T379-5.5 326-12t-47-1q-35 0-68 5.5T141.5 14 80 55.5 43.5 125 42 226l85 480q4 26 32 26h117q21 0 28.5-7t4.5-26l-80-457q-8-42 13-70.5t64-28.5q96 0 115 104l81 459q4 26 32 26h123q20 0 28.5-7t5.5-26zM503 928l74-120q8-11 4-21t-22-10h-58q-18 0-27 15l-43 71-61-71q-13-15-30-15h-63q-15 0-17.5 8.5T269 808l106 120q20 24 40 24h58q16 0 30-24z"/><glyph glyph-name="Udieresis" unicode="Ü" horiz-adv-x="697" d="M624 818q-5-28-31-28h-88q-25 0-31.5 8t-3.5 24l15 81q4 30 35 30h91q21 0 26-6.5t2-23.5zm-230 4q-2-17-9.5-24.5T359 790h-92q-19 0-24.5 5t-3.5 21l16 88q5 29 31 29h100q17 0 21-7.5t1-24.5zm214-595q-8-47-26-85t-39.5-62.5-51-43-55-27.5T379-5.5 326-12t-47-1q-35 0-68 5.5T141.5 14 80 55.5 43.5 125 42 226l85 480q4 26 32 26h117q21 0 28.5-7t4.5-26l-80-457q-8-42 13-70.5t64-28.5q96 0 115 104l81 459q4 26 32 26h123q20 0 28.5-7t5.5-26z"/><glyph glyph-name="Yacute" unicode="Ý" horiz-adv-x="694" d="M731 701l-50-66.5L585 505 477 359l-42-58-49-273q-2-16-11.5-22T343 0H221q-16 0-21 5t-3 18l49 279L79 704q-8 13-3.5 19t10.5 7.5 21 1.5h134q18 0 23-4.5t12-22.5l102-257 191 257q2 2 5 6l4.5 6 4 4.5 3.5 3.5 4 2.5 5 2 5.5 1.5 7 1H714q23 0 27-4t-10-27zm-89 219L498 799q-24-22-42-22h-65q-16 0-17.5 8.5T384 807l107 121q21 24 38 24h104q22 0 23.5-9T642 920z"/><glyph glyph-name="Thorn" unicode="Þ" horiz-adv-x="690" d="M653 363q-23-128-103-185.5T330 120h-92q-13 0-18-4.5T212 96l-12-71q-2-14-9-19.5T167 0H45Q23 0 16 6.5T12 31l119 673q3 17 11 22.5t30 5.5h127q16 0 19.5-7t.5-25l-10-57q-5-25 11-25h89q146 0 205.5-67T653 363zm-189 14q8 50-17 75.5T381 478h-80q-19 0-21-18l-31-174q-2-11 1.5-15t15.5-4h91q36 0 66.5 27t40.5 83z"/><glyph glyph-name="germandbls" unicode="ß" horiz-adv-x="798" d="M538 400q0-18 30.5-40t66.5-41.5 66.5-57.5 30.5-83q0-55-24.5-95T644 23.5t-75.5-28T498-13q-135 0-204 42-5 3 1.5 31.5t19 55T337 137q64-28 123-28 40 0 64 14t24 41q0 23-30 44t-65.5 36-65.5 47.5-30 75.5q0 38 21.5 74.5t46 67T452 558q5 30-9.5 45.5T397 619q-30 0-51-19t-27-53L231 46q-9-46-39-46H84Q67 0 57 9.5T50 35l65 373H72q-18 0-23 6.5T47 439l9 51q5 32 30 32h42l9 55q12 67 75.5 116.5T398 743q119 0 178-41.5T620 579q-9-47-45.5-98T538 400z"/><glyph glyph-name="agrave" unicode="à" horiz-adv-x="607" d="M576 505L492 32q-3-20-8.5-26T457 0H355q-12 0-19.5 1.5T324 10t-2 20q0 2 1 8t2.5 14 1.5 10q-32-34-78-54.5T161-13Q76-13 37.5 54.5T24 264q25 146 85 218.5T251 555q106 0 150-74l5 24q6 33 30 33h107q25 0 30.5-6.5T576 505zM332 187l29 162q2 19 1.5 40t-15 37.5T306 443q-67 0-87-112l-21-117q-8-50 3.5-82.5T249 99q33 0 56 30t27 58zm51 561l72-121q8-13 3.5-21.5T438 597h-55q-16 0-36 22L238 740q-13 13-8 22.5t27 9.5h96q8 0 14-3.5t8.5-7.5 7.5-13z"/><glyph glyph-name="aacute" unicode="á" horiz-adv-x="607" d="M576 505L492 32q-3-20-8.5-26T457 0H355q-12 0-19.5 1.5T324 10t-2 20q0 2 1 8t2.5 14 1.5 10q-32-34-78-54.5T161-13Q76-13 37.5 54.5T24 264q25 146 85 218.5T251 555q106 0 150-74l5 24q6 33 30 33h107q25 0 30.5-6.5T576 505zM332 187l29 162q2 19 1.5 40t-15 37.5T306 443q-67 0-87-112l-21-117q-8-50 3.5-82.5T249 99q33 0 56 30t27 58zm207 553L395 619q-24-22-42-22h-65q-16 0-17.5 8.5T281 627l107 121q21 24 38 24h104q22 0 23.5-9T539 740z"/><glyph glyph-name="acircumflex" unicode="â" horiz-adv-x="607" d="M576 505L492 32q-3-20-8.5-26T457 0H355q-12 0-19.5 1.5T324 10t-2 20q0 2 1 8t2.5 14 1.5 10q-32-34-78-54.5T161-13Q76-13 37.5 54.5T24 264q25 146 85 218.5T251 555q106 0 150-74l5 24q6 33 30 33h107q25 0 30.5-6.5T576 505zM332 187l29 162q2 19 1.5 40t-15 37.5T306 443q-67 0-87-112l-21-117q-8-50 3.5-82.5T249 99q33 0 56 30t27 58zm114 561l74-120q8-11 4-21t-22-10h-58q-18 0-27 15l-43 71-61-71q-13-15-30-15h-63q-15 0-17.5 8.5T212 628l106 120q20 24 40 24h58q16 0 30-24z"/><glyph glyph-name="atilde" unicode="ã" horiz-adv-x="607" d="M576 505L492 32q-3-20-8.5-26T457 0H355q-12 0-19.5 1.5T324 10t-2 20q0 2 1 8t2.5 14 1.5 10q-32-34-78-54.5T161-13Q76-13 37.5 54.5T24 264q25 146 85 218.5T251 555q106 0 150-74l5 24q6 33 30 33h107q25 0 30.5-6.5T576 505zM332 187l29 162q2 19 1.5 40t-15 37.5T306 443q-67 0-87-112l-21-117q-8-50 3.5-82.5T249 99q33 0 56 30t27 58zm236 540q-27-49-68-82.5T415 611q-23 0-59 24.5T302 660q-15 0-32.5-12.5T243 620q-7-11-18-6l-51 19q-11 5-5 15 17 41 58.5 78t82.5 37q25 0 65.5-24.5T431 714q31 0 60 40 8 11 18 7l54-17q11-4 5-17z"/><glyph glyph-name="adieresis" unicode="ä" horiz-adv-x="607" d="M576 505L492 32q-3-20-8.5-26T457 0H355q-12 0-19.5 1.5T324 10t-2 20q0 2 1 8t2.5 14 1.5 10q-32-34-78-54.5T161-13Q76-13 37.5 54.5T24 264q25 146 85 218.5T251 555q106 0 150-74l5 24q6 33 30 33h107q25 0 30.5-6.5T576 505zM332 187l29 162q2 19 1.5 40t-15 37.5T306 443q-67 0-87-112l-21-117q-8-50 3.5-82.5T249 99q33 0 56 30t27 58zm-7 455q-3-17-10.5-24.5T289 610h-92q-19 0-24.5 5t-2.5 21l15 88q5 29 31 29h100q17 0 21.5-7.5T339 721zm229-4q-5-28-31-28h-88q-25 0-31 8t-3 24l14 81q3 16 10.5 23t24.5 7h91q21 0 26-6.5t2-23.5z"/><glyph glyph-name="aring" unicode="å" horiz-adv-x="607" d="M576 505L492 32q-3-20-8.5-26T457 0H355q-12 0-19.5 1.5T324 10t-2 20q0 2 1 8t2.5 14 1.5 10q-32-34-78-54.5T161-13Q76-13 37.5 54.5T24 264q25 146 85 218.5T251 555q106 0 150-74l5 24q6 33 30 33h107q25 0 30.5-6.5T576 505zm-63 203q-10-56-53-93t-104-37q-54 0-87.5 38T245 708q10 55 53.5 92.5T402 838q54 0 87.5-38t23.5-92zM332 187l29 162q2 19 1.5 40t-15 37.5T306 443q-67 0-87-112l-21-117q-8-50 3.5-82.5T249 99q33 0 56 30t27 58zm103 521q4 24-7.5 42T390 768q-28 0-45.5-17.5T323 708q-4-24 7.5-42t37.5-18q27 0 45 18t22 42z"/><glyph glyph-name="ae" unicode="æ" horiz-adv-x="917" d="M874 393q0-56-28-93.5t-82-56-112.5-25T512 212q-8-49 22-74.5t96-25.5q68 0 148 30 24 9 26-11l21-86q1-8-6-12.5T794 21q-28-11-84.5-23T597-14q-171 0-228 114-40-52-88.5-82.5T161-13Q76-13 37.5 54.5T24 264q25 146 85 218.5T251 555q106 0 150-74l5 24q6 33 30 33h76q26 0 31-8 43 25 119 25 96 0 154-41.5T874 393zM332 187l29 162q2 19 1.5 40t-15 37.5T306 443q-67 0-87-112l-21-117q-8-50 3.5-82.5T249 99q33 0 56 30t27 58zm375 202q0 24-16.5 42.5T640 450q-41 0-68.5-41T533 316q92 0 133 17t41 56z"/><glyph glyph-name="ccedilla" unicode="ç" horiz-adv-x="540" d="M477 121q-25-63-87-98T254-13q-4-22-4-28 38 0 57.5-21t12.5-59q-8-44-47-67t-93-23q-85 0-97 52-2 6 10 14.5t24 12 15-1.5q2-11 16.5-18.5T181-160q49 0 56 36 6 35-34 35-12 0-21-3-5-3-7.5-2.5T173-87q7 46 13 79Q79 7 41 74.5T24 264q28 156 102 223.5T325 555q73 0 122-31.5t69-79.5q5-12-23.5-30t-60-27-33.5 0q-14 55-72 55-81 0-101-108l-21-123q-9-51 8-81.5T273 99q53 0 91 71 11 11 38.5 6t54-23 20.5-32z"/><glyph glyph-name="egrave" unicode="è" horiz-adv-x="591" d="M548 393q0-56-28-93.5t-82-56-112.5-25T186 212q-8-49 22-74.5t96-25.5q68 0 148 30 24 9 26-11l21-86q1-8-6-12.5T468 21q-28-11-84.5-23T271-14Q120-14 60 60T24 265q51 290 312 290 96 0 154-41.5T548 393zm-167-4q0 24-16.5 42.5T314 450q-41 0-68.5-41T207 316q92 0 133 17t41 56zm-9 359l72-121q8-13 3.5-21.5T427 597h-55q-16 0-36 22L227 740q-13 13-8 22.5t27 9.5h96q8 0 14-3.5t8.5-7.5 7.5-13z"/><glyph glyph-name="eacute" unicode="é" horiz-adv-x="591" d="M548 393q0-56-28-93.5t-82-56-112.5-25T186 212q-8-49 22-74.5t96-25.5q68 0 148 30 24 9 26-11l21-86q1-8-6-12.5T468 21q-28-11-84.5-23T271-14Q120-14 60 60T24 265q51 290 312 290 96 0 154-41.5T548 393zm-167-4q0 24-16.5 42.5T314 450q-41 0-68.5-41T207 316q92 0 133 17t41 56zm146 351L383 619q-24-22-42-22h-65q-16 0-17.5 8.5T269 627l107 121q21 24 38 24h104q22 0 23.5-9T527 740z"/><glyph glyph-name="ecircumflex" unicode="ê" horiz-adv-x="591" d="M548 393q0-56-28-93.5t-82-56-112.5-25T186 212q-8-49 22-74.5t96-25.5q68 0 148 30 24 9 26-11l21-86q1-8-6-12.5T468 21q-28-11-84.5-23T271-14Q120-14 60 60T24 265q51 290 312 290 96 0 154-41.5T548 393zm-167-4q0 24-16.5 42.5T314 450q-41 0-68.5-41T207 316q92 0 133 17t41 56zm51 359l74-120q8-11 4-21t-22-10h-58q-18 0-27 15l-43 71-61-71q-13-15-30-15h-63q-15 0-17.5 8.5T198 628l106 120q20 24 40 24h58q16 0 30-24z"/><glyph glyph-name="edieresis" unicode="ë" horiz-adv-x="591" d="M542 638q-5-28-31-28h-88q-25 0-31 8t-3 24l14 81q3 16 10.5 23t24.5 7h91q21 0 26-6.5t2-23.5zm-229 4q-3-17-10.5-24.5T277 610h-92q-19 0-24.5 5t-2.5 21l15 88q5 29 31 29h100q17 0 21.5-7.5T327 721zm235-249q0-56-28-93.5t-82-56-112.5-25T186 212q-8-49 22-74.5t96-25.5q68 0 148 30 24 9 26-11l21-86q1-8-6-12.5T468 21q-28-11-84.5-23T271-14Q120-14 60 60T24 265q51 290 312 290 96 0 154-41.5T548 393zm-167-4q0 24-16.5 42.5T314 450q-41 0-68.5-41T207 316q92 0 133 17t41 56z"/><glyph glyph-name="igrave" unicode="ì" horiz-adv-x="282" d="M169 41q-3-17-5-23t-9.5-12T133 0H24Q4 0-1 11t0 30l82 464q5 33 32 33h107q24 0 29-7t2-26zm7 707l72-121q8-13 3.5-21.5T231 597h-55q-16 0-36 22L31 740q-13 13-8 22.5t27 9.5h96q8 0 14-3.5t8.5-7.5 7.5-13z"/><glyph glyph-name="iacute" unicode="í" horiz-adv-x="282" d="M169 41q-3-17-5-23t-9.5-12T133 0H24Q4 0-1 11t0 30l82 464q5 33 32 33h107q24 0 29-7t2-26zm216 699L241 619q-24-22-42-22h-65q-16 0-17.5 8.5T127 627l107 121q21 24 38 24h104q22 0 23.5-9T385 740z"/><glyph glyph-name="icircumflex" unicode="î" horiz-adv-x="282" d="M169 41q-3-17-5-23t-9.5-12T133 0H24Q4 0-1 11t0 30l82 464q5 33 32 33h107q24 0 29-7t2-26zm99 707l74-120q8-11 4-21t-22-10h-58q-18 0-27 15l-43 71-61-71q-13-15-30-15H42q-15 0-17.5 8.5T34 628l106 120q20 24 40 24h58q16 0 30-24z"/><glyph glyph-name="idieresis" unicode="ï" horiz-adv-x="282" d="M169 41q-3-17-5-23t-9.5-12T133 0H24Q4 0-1 11t0 30l82 464q5 33 32 33h107q24 0 29-7t2-26zm212 597q-5-28-31-28h-88q-25 0-31 8t-3 24l14 81q3 16 10.5 23t24.5 7h91q21 0 26-6.5t2-23.5zm-229 4q-3-17-10.5-24.5T116 610H24q-19 0-24.5 5T-3 636l15 88q5 29 31 29h100q17 0 21.5-7.5T166 721z"/><glyph glyph-name="eth" unicode="ð" horiz-adv-x="600" d="M540 265Q516 130 438.5 58.5T241-13Q99-13 48 49.5T24 264q17 94 66.5 157t111 88T334 534q25 0 51.5-9.5T424 496q-11 42-52 100l-4-4-10-6-4-4q-12-10-16-11t-11 7l-31 37q-5 5-1.5 10.5T313 643l12 10q-15 17-27 27-19 16 0 32l80 68q2 2 4.5 3t5 .5 4-1 3.5-2.5l3.5-3.5 3.5-4 3-3.5 25-26 20 17q17 14 21.5 16t9.5-3l33-40q4-8 1-12t-20-20l-19-16q58-83 73.5-177T540 265zm-185-60l19 110q8 46-5 76t-54 30q-39 0-63.5-29T218 313l-20-113q-9-49 7.5-75T261 99q74 0 94 106z"/><glyph glyph-name="ntilde" unicode="ñ" horiz-adv-x="596" d="M555 727q-27-49-68-82.5T402 611q-23 0-59 24.5T289 660q-15 0-32.5-12.5T230 620q-8-11-18-6l-51 19q-11 5-5 15 17 41 58.5 78t82.5 37q25 0 65.5-24.5T418 714q31 0 60 40 8 11 18 7l54-17q11-4 5-17zM484 52Q474 0 444 0H338q-16 0-25.5 10.5T306 39l51 286q12 72-52 72-74 0-87-78L170 47q-3-18-5.5-25t-10-14.5T133 0H32Q-9 0-1 43l81 459q7 36 33 36h107q18 0 26-11t2-43q92 66 165 66 65 0 104.5-42T541 378z"/><glyph glyph-name="ograve" unicode="ò" horiz-adv-x="600" d="M540 265q-24-137-99.5-207.5T241-13Q104-13 52 56T24 264q28 157 105 224t215 67q116 0 169-72.5T540 265zm-197-75l28 158q15 94-60 94-37 0-60.5-25.5T221 357l-29-160q-18-98 62-98 72 0 89 91zm26 558l72-121q8-13 3.5-21.5T424 597h-55q-16 0-36 22L224 740q-13 13-8 22.5t27 9.5h96q8 0 14-3.5t8.5-7.5 7.5-13z"/><glyph glyph-name="oacute" unicode="ó" horiz-adv-x="600" d="M540 265q-24-137-99.5-207.5T241-13Q104-13 52 56T24 264q28 157 105 224t215 67q116 0 169-72.5T540 265zm-197-75l28 158q15 94-60 94-37 0-60.5-25.5T221 357l-29-160q-18-98 62-98 72 0 89 91zm185 550L384 619q-24-22-42-22h-65q-16 0-17.5 8.5T270 627l107 121q21 24 38 24h104q22 0 23.5-9T528 740z"/><glyph glyph-name="ocircumflex" unicode="ô" horiz-adv-x="600" d="M540 265q-24-137-99.5-207.5T241-13Q104-13 52 56T24 264q28 157 105 224t215 67q116 0 169-72.5T540 265zm-197-75l28 158q15 94-60 94-37 0-60.5-25.5T221 357l-29-160q-18-98 62-98 72 0 89 91zm92 558l74-120q8-11 4-21t-22-10h-58q-18 0-27 15l-43 71-61-71q-13-15-30-15h-63q-15 0-17.5 8.5T201 628l106 120q20 24 40 24h58q16 0 30-24z"/><glyph glyph-name="otilde" unicode="õ" horiz-adv-x="600" d="M561 727q-27-49-68-82.5T408 611q-23 0-59 24.5T295 660q-15 0-32.5-12.5T236 620q-8-11-18-6l-51 19q-11 5-5 15 17 41 58.5 78t82.5 37q25 0 65.5-24.5T424 714q31 0 60 40 8 11 18 7l54-17q11-4 5-17zm-21-462q-24-137-99.5-207.5T241-13Q104-13 52 56T24 264q28 157 105 224t215 67q116 0 169-72.5T540 265zm-197-75l28 158q15 94-60 94-37 0-60.5-25.5T221 357l-29-160q-18-98 62-98 72 0 89 91z"/><glyph glyph-name="odieresis" unicode="ö" horiz-adv-x="600" d="M547 638q-5-28-31-28h-88q-25 0-31 8t-3 24l14 81q3 16 10.5 23t24.5 7h91q21 0 26-6.5t2-23.5zm-229 4q-3-17-10.5-24.5T282 610h-92q-19 0-24.5 5t-2.5 21l15 88q5 29 31 29h100q17 0 21.5-7.5T332 721zm222-377q-24-137-99.5-207.5T241-13Q104-13 52 56T24 264q28 157 105 224t215 67q116 0 169-72.5T540 265zm-197-75l28 158q15 94-60 94-37 0-60.5-25.5T221 357l-29-160q-18-98 62-98 72 0 89 91z"/><glyph glyph-name="divide" unicode="÷" d="M719 72H8v564h711V72zm-86 456q4 11-11 11h-31q-6 0-10-9 0-3-1-4l-82-276-83 276q-7 12-12 13h-38q-4 0-6-.5t-4-2-1.5-4.5l1.5-9 101-331q3-12 15-12h45q11 0 14 11zM363 196L263 523q-4 16-18 16h-40q-12 0-18-16L88 196q-5-16 3-16h35q7 0 9 2t4 11l22 75h119l23-75q1-5 1.5-6.5t1.5-3.5 3-2.5 5-.5h39q8 0 10 2t0 14zm-95 109h-96l49 164z"/><glyph glyph-name="oslash" unicode="ø" horiz-adv-x="600" d="M540 265q-24-137-99.5-207.5T241-13Q125-13 70 36L42 12Q15-11 6 2l-30 36q-13 18 1 30l44 38 4 3q-18 62-1 155 28 157 105 224t215 67q91 0 143-45l40 35q14 13 21.5 14.5T566 553l32-32q12-11-11-33l-53-47q25-70 6-176zm-197-75l18 100-170-148q10-43 63-43 72 0 89 91zM221 357l-17-92 165 142q-14 35-58 35-37 0-60.5-25.5T221 357z"/><glyph glyph-name="ugrave" unicode="ù" horiz-adv-x="591" d="M476 35q-7-36-34-36H335q-17 0-24.5 11T309 53q-89-65-156-65-69 0-109 41.5T20 159l58 334q9 45 40 45h101q16 0 25.5-10.5T250 499l-50-287q-6-31 5.5-51.5T251 140q35 0 59 24t29 54l48 273q7 35 16 42 8 5 20 5h102q39 0 32-43zM358 748l72-121q8-13 3.5-21.5T413 597h-55q-16 0-36 22L213 740q-13 13-8 22.5t27 9.5h96q8 0 14-3.5t8.5-7.5 7.5-13z"/><glyph glyph-name="uacute" unicode="ú" horiz-adv-x="591" d="M476 35q-7-36-34-36H335q-17 0-24.5 11T309 53q-89-65-156-65-69 0-109 41.5T20 159l58 334q9 45 40 45h101q16 0 25.5-10.5T250 499l-50-287q-6-31 5.5-51.5T251 140q35 0 59 24t29 54l48 273q7 35 16 42 8 5 20 5h102q39 0 32-43zm48 705L380 619q-24-22-42-22h-65q-16 0-17.5 8.5T266 627l107 121q21 24 38 24h104q22 0 23.5-9T524 740z"/><glyph glyph-name="ucircumflex" unicode="û" horiz-adv-x="591" d="M476 35q-7-36-34-36H335q-17 0-24.5 11T309 53q-89-65-156-65-69 0-109 41.5T20 159l58 334q9 45 40 45h101q16 0 25.5-10.5T250 499l-50-287q-6-31 5.5-51.5T251 140q35 0 59 24t29 54l48 273q7 35 16 42 8 5 20 5h102q39 0 32-43zm-49 713l74-120q8-11 4-21t-22-10h-58q-18 0-27 15l-43 71-61-71q-13-15-30-15h-63q-15 0-17.5 8.5T193 628l106 120q20 24 40 24h58q16 0 30-24z"/><glyph glyph-name="udieresis" unicode="ü" horiz-adv-x="591" d="M541 638q-5-28-31-28h-88q-25 0-31 8t-3 24l14 81q3 16 10.5 23t24.5 7h91q21 0 26-6.5t2-23.5zm-229 4q-3-17-10.5-24.5T276 610h-92q-19 0-24.5 5t-2.5 21l15 88q5 29 31 29h100q17 0 21.5-7.5T326 721zM476 35q-7-36-34-36H335q-17 0-24.5 11T309 53q-89-65-156-65-69 0-109 41.5T20 159l58 334q9 45 40 45h101q16 0 25.5-10.5T250 499l-50-287q-6-31 5.5-51.5T251 140q35 0 59 24t29 54l48 273q7 35 16 42 8 5 20 5h102q39 0 32-43z"/><glyph glyph-name="yacute" unicode="ý" horiz-adv-x="576" d="M583 507L194-167q-19-33-46-33H56q-36 0-18 30L145 7 40 509q-3 15 4.5 22t26.5 7h116q12 0 21-9.5t11-23.5l49-278 153 278q17 33 43 33h100q21 0 25-7t-6-24zm-47 233L392 619q-24-22-42-22h-65q-16 0-17.5 8.5T278 627l107 121q21 24 38 24h104q22 0 23.5-9T536 740z"/><glyph glyph-name="thorn" unicode="þ" horiz-adv-x="608" d="M550 276q-27-153-89.5-221T302-13q-76 0-130 67l-39-221q-7-37-30-37H-5q-25 0-30.5 7.5T-37-170l152 867q3 16 5 23.5t10.5 15T154 743h101q18 0 27-6.5t7-20.5l-42-234q100 73 168 73 87 0 123-71t12-208zm-197-89l24 138q8 50-3.5 84T327 443q-37 0-58.5-31T240 344l-29-166q-5-31 8.5-54.5T268 100q36 0 57.5 26.5T353 187z"/><glyph glyph-name="ydieresis" unicode="ÿ" horiz-adv-x="576" d="M535 638q-5-28-31-28h-88q-25 0-31 8t-3 24l14 81q3 16 10.5 23t24.5 7h91q21 0 26-6.5t2-23.5zm-229 4q-3-17-10.5-24.5T270 610h-92q-19 0-24.5 5t-2.5 21l15 88q5 29 31 29h100q17 0 21.5-7.5T320 721zm277-135L194-167q-19-33-46-33H56q-36 0-18 30L145 7 40 509q-3 15 4.5 22t26.5 7h116q12 0 21-9.5t11-23.5l49-278 153 278q17 33 43 33h100q21 0 25-7t-6-24z"/><glyph glyph-name="dotlessi" unicode="ı" horiz-adv-x="282" d="M169 41q-3-17-5-23t-9.5-12T133 0H24Q4 0-1 11t0 30l82 464q5 33 32 33h107q24 0 29-7t2-26z"/><glyph glyph-name="Lslash" unicode="Ł" horiz-adv-x="540" d="M454 23q-3-15-12-19t-29-4H33Q15 0 11.5 8T13 35q2 13 6 34.5L31 137l13 76 5 30q-32-15-41 5l-23 64q-7 23-3.5 30.5T3 359l74 38 54 309q2 14 9.5 20t24.5 6h120q22 0 29.5-7t4.5-26l-35-195q1 1 4 2 15 7 22 10t15 .5 12-13.5l24-59q8-19 2.5-31T333 388l-76-39-9-48-16-96-9-48q-2-11 2.5-15t17.5-4h206q17 0 20-5t1-18z"/><glyph glyph-name="lslash" unicode="ł" horiz-adv-x="282" d="M299 401q7-20 .5-31.5T267 347l-48-21-50-285q-3-17-5-23t-9.5-12T133 0H25Q3 0-2 6t-1 28l38 214Q7 238 1 258l-18 67q-5 24-.5 30.5T5 371l56 24 57 320q5 28 32 28h107q24 0 28.5-7t1.5-26l-42-236q30 12 36-12z"/><glyph glyph-name="OE" unicode="Œ" horiz-adv-x="975" d="M888 122l-17-98q-4-24-32-24H462q-16 0-21 9-59-22-156-22-129 0-199 56T37 217l49 275q24 132 102.5 191.5T409 743q93 0 150-28 7 17 26 17h367q17 0 21-5t2-17l-19-95q-3-14-14-17.5t-36-3.5H702q-27 0-29-16l-18-105q-4-23 18-23h189q22 0 16-22l-19-93q-7-26-35-26H656q-27 0-32-23l-21-119q-2-11 3-16t10-5.5 18-.5h223q35 0 31-23zM432 248l43 240q8 45-13 73.5T393 590q-58 0-87-29.5T270 493l-45-260q-7-39 18.5-64.5T304 143q110 0 128 105z"/><glyph glyph-name="oe" unicode="œ" horiz-adv-x="928" d="M885 393q0-56-28-93.5t-82-56-112.5-25T523 212q-8-49 22-74.5t96-25.5q68 0 148 30 24 9 26-11l21-86q1-8-6-12.5T805 21q-28-11-84.5-23T608-14q-129 0-189 58-69-57-178-57-137 0-189 69T24 264q28 157 105 224t215 67q99 0 149-54 69 54 180 54 96 0 154-41.5T885 393zM343 190l28 158q15 94-60 94-37 0-60.5-25.5T221 357l-29-160q-18-98 62-98 72 0 89 91zm375 199q0 24-16.5 42.5T651 450q-41 0-68.5-41T544 316q92 0 133 17t41 56z"/><glyph glyph-name="Scaron" unicode="Š" horiz-adv-x="640" d="M565 241q0-68-29.5-119T456 42.5 348 0 225-14Q162-14 99 2.5T-1 42q-3 2 .5 19T11 100.5t17 44 18 35T60 190q78-47 162-47 137 0 137 78 0 27-27 47.5t-65 38-76 40-65 64T99 509q0 99 92.5 166.5T406 743q64 0 120-12.5t86-28.5q7-10 0-44.5t-24.5-69T558 560q-78 40-154 40-106 0-106-69 0-25 27.5-46t67-39 78.5-41.5 66.5-65.5 27.5-98zM350 802l-74 120q-8 11-4 21t22 10h58q18 0 27-15l43-71 61 71q13 15 30 15h63q15 0 17.5-8.5T584 922L478 802q-20-24-40-24h-58q-16 0-30 24z"/><glyph glyph-name="scaron" unicode="š" horiz-adv-x="499" d="M427 178q0-55-24.5-95T339 23.5t-75.5-28T193-13Q58-13-11 29q-5 3 1.5 31.5t19 55T32 137q64-28 123-28 40 0 64 14t24 41q0 23-30 44t-65.5 36T82 291.5 52 367q0 81 71 135t179 54q91 0 152-33 6-3-1.5-31.5t-21-54T409 417q-56 30-101 30-75 0-75-47 0-18 30.5-40t66.5-41.5 66.5-57.5 30.5-83zM239 622l-74 120q-8 11-4 21t22 10h58q18 0 27-15l43-71 61 71q13 15 30 15h63q15 0 17.5-8.5T473 742L367 622q-20-24-40-24h-58q-16 0-30 24z"/><glyph glyph-name="Ydieresis" unicode="Ÿ" horiz-adv-x="694" d="M636 818q-5-28-31-28h-88q-25 0-31.5 8t-3.5 24l15 81q4 30 35 30h91q21 0 26-6.5t2-23.5zm-230 4q-2-17-9.5-24.5T371 790h-92q-19 0-24.5 5t-3.5 21l16 88q5 29 31 29h100q17 0 21-7.5t1-24.5zm325-121l-50-66.5L585 505 477 359l-42-58-49-273q-2-16-11.5-22T343 0H221q-16 0-21 5t-3 18l49 279L79 704q-8 13-3.5 19t10.5 7.5 21 1.5h134q18 0 23-4.5t12-22.5l102-257 191 257q2 2 5 6l4.5 6 4 4.5 3.5 3.5 4 2.5 5 2 5.5 1.5 7 1H714q23 0 27-4t-10-27z"/><glyph glyph-name="Zcaron" unicode="Ž" horiz-adv-x="646" d="M548 23q-3-12-8.5-17.5T517 0H0q-21 0-18 19l8 48q4 17 29 48l368 477H125q-23 0-32.5 5T87 618l21 91q2 8 4 12t8.5 7.5T138 732h493q11 0 20-5t7-14l-8-48q-3-15-25-44L253 140h273q23 0 32-4t6-18zM356 802l-74 120q-8 11-4 21t22 10h58q18 0 27-15l43-71 61 71q13 15 30 15h63q15 0 17.5-8.5T590 922L484 802q-20-24-40-24h-58q-16 0-30 24z"/><glyph glyph-name="zcaron" unicode="ž" horiz-adv-x="514" d="M424 31q-3-18-11-24.5T386 0H12q-27 0-37 7.5t-7 17T-18 48l286 380H82q-15 0-20 1t-9 8 1 21l9 49q5 31 37 31h375q58 0 32-35L210 110h195q15 0 19.5-1t9-8-.5-21zM262 623l-74 120q-8 11-4 21t22 10h58q18 0 27-15l43-71 61 71q13 15 30 15h63q15 0 17.5-9t-9.5-22L390 623q-20-24-40-24h-58q-16 0-30 24z"/><glyph glyph-name="florin" unicode="ƒ" horiz-adv-x="434" d="M401 445q-6-37-36-37h-52L240-7Q216-146 52-146q-68 0-108 16-8 4 8.5 59.5T-20-18q14-4 37-4 17 0 31 11.5T66 21l68 387H90q-18 0-22.5 6.5T66 439l9 51q5 32 29 32h40q-10 36-1 83 11 55 57.5 96.5T331 743q70 0 107-16 7-4-11-58t-26-54q-28 4-35 4-40 0-48-43-6-39 19-52h52q17 0 20.5-8t-.5-24z"/><glyph glyph-name="circumflex" unicode="ˆ" horiz-adv-x="488" d="M377 748l74-120q8-11 4-21t-22-10h-58q-18 0-27 15l-43 71-61-71q-13-15-30-15h-63q-15 0-17.5 8.5T143 628l106 120q20 24 40 24h58q16 0 30-24z"/><glyph glyph-name="caron" unicode="ˇ" horiz-adv-x="488" d="M238 622l-74 120q-8 11-4 21t22 10h58q18 0 27-15l43-71 61 71q13 15 30 15h63q15 0 17.5-8.5T472 742L366 622q-20-24-40-24h-58q-16 0-30 24z"/><glyph glyph-name="breve" unicode="˘" horiz-adv-x="488" d="M471 744q-29-62-75.5-101.5T292 603q-116 0-135 144-2 25 24 25h54q19 0 23-16 9-63 50-63 38 0 70 63 9 16 27 16h55q5 0 8-1t5-2 3-3 1-4-1-5l-1.5-4.5-2-4.5-1.5-4z"/><glyph glyph-name="dotaccent" unicode="˙" horiz-adv-x="488" d="M368 650q-3-22-27-22h-78q-15 0-24 8t-7 21l9 49q4 23 12.5 30.5T277 744h79q20 0 23.5-4t-.5-26z"/><glyph glyph-name="ring" unicode="˚" horiz-adv-x="488" d="M448 708q-10-56-53-93t-104-37q-54 0-87.5 38T180 708q10 55 53.5 92.5T337 838q54 0 87.5-38t23.5-92zm-78 0q4 24-7.5 42T325 768q-27 0-45-17.5T258 708q-4-24 7.5-42t37.5-18q27 0 45 18t22 42z"/><glyph glyph-name="ogonek" unicode="˛" horiz-adv-x="488" d="M248-159q-33-52-103-52-111 0-95 97Q63-46 180 16h69Q145-53 134-109q-7-44 34-44 25 0 45 26 4 6 15 0t18-16 2-16z"/><glyph glyph-name="tilde" unicode="˜" horiz-adv-x="488" d="M502 727q-27-49-68-82.5T349 611q-23 0-59 24.5T236 660q-15 0-32.5-12.5T177 620q-7-11-18-6l-51 19q-11 5-5 15 17 41 58.5 78t82.5 37q25 0 65.5-24.5T365 714q31 0 60 40 8 11 18 7l54-17q11-4 5-17z"/><glyph glyph-name="hungarumlaut" unicode="˝" horiz-adv-x="488" d="M507 740L374 619q-31-22-44-22h-37q-30 0-7 30l92 121q19 24 39 24h82q45 0 8-32zm-185 0L189 619q-28-22-43-22h-38q-28 0-7 30l93 121q17 24 39 24h82q22 0 23-9t-16-23z"/><glyph glyph-name="Delta" unicode="Δ" d="M719 72H8v564h711V72zm-86 456q4 11-11 11h-31q-6 0-10-9 0-3-1-4l-82-276-83 276q-7 12-12 13h-38q-4 0-6-.5t-4-2-1.5-4.5l1.5-9 101-331q3-12 15-12h45q11 0 14 11zM363 196L263 523q-4 16-18 16h-40q-12 0-18-16L88 196q-5-16 3-16h35q7 0 9 2t4 11l22 75h119l23-75q1-5 1.5-6.5t1.5-3.5 3-2.5 5-.5h39q8 0 10 2t0 14zm-95 109h-96l49 164z"/><glyph glyph-name="Delta" unicode="∆" d="M719 72H8v564h711V72zm-86 456q4 11-11 11h-31q-6 0-10-9 0-3-1-4l-82-276-83 276q-7 12-12 13h-38q-4 0-6-.5t-4-2-1.5-4.5l1.5-9 101-331q3-12 15-12h45q11 0 14 11zM363 196L263 523q-4 16-18 16h-40q-12 0-18-16L88 196q-5-16 3-16h35q7 0 9 2t4 11l22 75h119l23-75q1-5 1.5-6.5t1.5-3.5 3-2.5 5-.5h39q8 0 10 2t0 14zm-95 109h-96l49 164z"/><glyph glyph-name="Omega" unicode="Ω" d="M719 72H8v564h711V72zm-86 456q4 11-11 11h-31q-6 0-10-9 0-3-1-4l-82-276-83 276q-7 12-12 13h-38q-4 0-6-.5t-4-2-1.5-4.5l1.5-9 101-331q3-12 15-12h45q11 0 14 11zM363 196L263 523q-4 16-18 16h-40q-12 0-18-16L88 196q-5-16 3-16h35q7 0 9 2t4 11l22 75h119l23-75q1-5 1.5-6.5t1.5-3.5 3-2.5 5-.5h39q8 0 10 2t0 14zm-95 109h-96l49 164z"/><glyph glyph-name="Omega" unicode="Ω" d="M719 72H8v564h711V72zm-86 456q4 11-11 11h-31q-6 0-10-9 0-3-1-4l-82-276-83 276q-7 12-12 13h-38q-4 0-6-.5t-4-2-1.5-4.5l1.5-9 101-331q3-12 15-12h45q11 0 14 11zM363 196L263 523q-4 16-18 16h-40q-12 0-18-16L88 196q-5-16 3-16h35q7 0 9 2t4 11l22 75h119l23-75q1-5 1.5-6.5t1.5-3.5 3-2.5 5-.5h39q8 0 10 2t0 14zm-95 109h-96l49 164z"/><glyph glyph-name="pi" unicode="π" horiz-adv-x="760" d="M732 357q0-149-103.5-253T377 0 125.5 104 22 357t103.5 253T377 714t251.5-104T732 357zm-67 0q0 124-84 209t-204 85-204-85-84-209q0-123 84-208.5T377 63t204 85.5T665 357zm-117 66q0-49-37-85.5T408 301h-48q-5 0-5-8v-99q0-16-20-16h-65q-10 0-11.5 3.5T257 197v334q0 8 3 10.5t13 2.5h135q68 0 104-33t36-88zm-98 3q0 22-13.5 34T400 472h-35q-9 0-9-9v-75q0-10 10-10h44q40 0 40 48z"/><glyph glyph-name="endash" unicode="–" horiz-adv-x="745" d="M682 290q-5-23-14-30.5t-35-7.5H67q-16 0-24.5 6.5T37 278l12 73q4 24 12.5 30t27.5 6h564q17 0 24.5-1t13-7.5T694 358z"/><glyph glyph-name="emdash" unicode="—" horiz-adv-x="1127" d="M1063 290q-5-23-14.5-30.5T1013 252H67q-16 0-24.5 6.5T37 278l12 73q4 24 12.5 30t27.5 6h944q17 0 24.5-1t13.5-7.5 4-20.5z"/><glyph glyph-name="quoteleft" unicode="‘" horiz-adv-x="275" d="M59 526q38 79 75.5 120T265 744q24 15 36 3t1-38q-55-130-69-179-10-33-31-33H90q-24 0-30.5 8t-.5 21z"/><glyph glyph-name="quoteright" unicode="’" horiz-adv-x="275" d="M304 711q-38-79-75.5-120T98 493q-24-15-35.5-3t-.5 38q58 144 68 179 10 33 31 33h112q24 0 31.5-9t-.5-20z"/><glyph glyph-name="quotesinglbase" unicode="‚" horiz-adv-x="275" d="M194 113Q157 34 119.5-7T-11-105q-25-15-36.5-3t-.5 38Q2 50 21 109q10 33 31 33h112q24 0 31-9t-1-20z"/><glyph glyph-name="quotedblleft" unicode="“" horiz-adv-x="514" d="M298 526q38 79 75.5 120T504 744q24 15 36 3t1-38q-55-130-69-179-10-33-31-33H329q-24 0-30.5 8t-.5 21zm-241 0q38 79 75.5 120T263 744q24 15 36 3t1-38q-55-130-69-179-10-33-31-33H88q-24 0-30.5 8t-.5 21z"/><glyph glyph-name="quotedblright" unicode="”" horiz-adv-x="514" d="M553 711q-38-79-75.5-120T347 493q-24-15-35.5-3t-.5 38q57 144 68 179 10 33 31 33h112q24 0 31.5-9t-.5-20zm-242 0q-38-79-75.5-120T105 493q-24-15-35.5-3t-.5 38q58 144 68 179 10 33 31 33h112q24 0 31.5-9t-.5-20z"/><glyph glyph-name="quotedblbase" unicode="„" horiz-adv-x="514" d="M435 113Q398 34 360.5-7T230-105q-25-15-36.5-3t-.5 38q50 120 69 179 10 33 31 33h112q24 0 31-9t-1-20zm-242 0Q156 34 118.5-7T-12-105q-25-15-36.5-3t-.5 38Q1 50 20 109q10 33 31 33h112q24 0 31-9t-1-20z"/><glyph glyph-name="dagger" unicode="†" horiz-adv-x="542" d="M491 495q-4-21-14.5-26.5T443 463h-85l-42-239q-4-19-10-24.5t-23-5.5h-73q-19 0-25 6t-3 25l42 238h-94q-16 0-22.5 6t-3.5 19l10 58q3 17 8 25t11.5 9.5T153 582h92l21 117q5 33 33 33h78q18 0 22-7.5t1-25.5l-21-117h86q12 0 17-.5t12.5-3 6.5-8.5 0-16z"/><glyph glyph-name="daggerdbl" unicode="‡" horiz-adv-x="542" d="M496 523q-4-21-14.5-26.5T448 491h-85l-10-55h87q15 0 21.5-1t10.5-8 2-21l-10-57q-3-21-13.5-26.5T417 317h-85l-16-93q-4-19-10-24.5t-23-5.5h-73q-19 0-25 6t-3 25l16 92h-93q-17 0-23.5 5.5T77 341l10 59q4 24 12.5 30t27.5 6h92l10 55h-94q-15 0-22 6t-5 19l11 58q3 17 8 25t11.5 9.5T158 610h92l16 89q5 33 33 33h78q18 0 22-7.5t1-25.5l-16-89h86q12 0 17-.5t12.5-3 6.5-8.5 0-16z"/><glyph glyph-name="bullet" unicode="•" horiz-adv-x="450" d="M393 322q0-73-52-125t-125-52-125 52-52 125 52 125 125 52 125-52 52-125z"/><glyph glyph-name="ellipsis" unicode="…" horiz-adv-x="836" d="M176 46q-3-16-5-23T160.5 8 137 0H29Q-13 0-6 40l12 69q2 14 11 24t21 10h115q26 0 32-6.5t3-22.5zm281 0q-3-16-5-23T441.5 8 418 0H310q-42 0-35 40l12 69q2 14 11 24t21 10h115q26 0 32-6.5t3-22.5zm277 0q-3-16-5-23T718.5 8 695 0H587q-42 0-35 40l12 69q2 14 11 24t21 10h115q26 0 32-6.5t3-22.5z"/><glyph glyph-name="perthousand" unicode="‰" horiz-adv-x="1135" d="M714 116Q692-9 549-9q-68 0-104 30t-25 97l24 136q6 33 24.5 57t44 36 50.5 17.5 51 5.5q24 0 46-5t43-16.5 31.5-34.5 4.5-55zm-30 586L234 27q-10-16-18-21.5T192 0h-63q-23 0-29 7t5 26l449 672q10 14 14.5 18.5t13 8T605 735h71q31 0 8-33zM342 485q-22-125-165-125-68 0-104 30.5T49 488l24 136q11 62 60.5 89T242 740q53 0 94.5-26t31.5-82zm273-357l19 103q3 17-5 30.5T601 275q-46 0-56-52l-16-93q-3-20 6-34t30-14q22 0 34.5 14.5T615 128zM243 497l17 101q9 47-31 47-46 0-55-50l-17-96q-3-19 6-33t30-14q22 0 34.5 14t15.5 31zm816-381Q1037-9 894-9q-68 0-104 30t-25 97l24 136q6 33 24.5 57t44 36 50.5 17.5 51 5.5q24 0 46-5t43-16.5 31.5-34.5 4.5-55zm-99 12l19 103q3 17-5 30.5T946 275q-46 0-56-52l-16-93q-3-20 6-34t30-14q22 0 34.5 14.5T960 128z"/><glyph glyph-name="guilsinglleft" unicode="‹" horiz-adv-x="349" d="M258 161q10-18-9-26l-86-44q-15-5-19-2t-11 16L25 320l185 219q17 22 32 12l72-42q15-9-3-31L171 320z"/><glyph glyph-name="guilsinglright" unicode="›" horiz-adv-x="349" d="M300 321L113 102Q97 82 83 91l-73 41q-16 9 1 29l143 160-83 157q-10 20 7 28l87 45q14 5 18 2t11-17z"/><glyph glyph-name="fraction" unicode="⁄" horiz-adv-x="374" d="M420 702L84 27Q76 11 67.5 5.5T43 0h-63q-22 0-27.5 7t2.5 26l336 672q8 18 17.5 24t32.5 6h71q15 0 16.5-8t-8.5-25z"/><glyph glyph-name="Euro" unicode="€" horiz-adv-x="620" d="M273 299l-12-68q-8-47 13.5-76t62.5-29q35 0 66 6t60 15.5 31 9.5q8 2 15.5-30t8-61.5T513 27Q495 14 431 .5T301-13q-49 0-91 11t-80 36-54 75.5T72 230l12 69H69q-16 0-24 6.5T39 325l11 63q3 17 8.5 25t11.5 9.5 19 1.5h17l13 75q44 243 329 243 55 0 104.5-12t75.5-31q9-6-22.5-67T565 575q-2 1-11 5t-13.5 5.5-16 4.5-22 4.5-27.5 3-37 1.5q-61 0-92.5-33.5T303 467l-8-43h132q17 0 24.5-1t13.5-7.5 4-19.5l-10-58q-4-23-13.5-31t-36.5-8H273z"/><glyph glyph-name="trademark" unicode="™" horiz-adv-x="706" d="M700 421q0-14-15-14h-61q-21 0-21 18v158q0 9-7-1l-50-103q-4-9-6-10.5t-8-1.5h-8q-8 0-9.5 1.5T508 481l-47 100q-4 6-7 2-1-1-1-3V420q0-13-15-13h-60q-21 0-21 18v291q0 16 20 16h57q16 0 21-8l71-129q3-8 7-2l69 130q6 9 21 9h64q9 0 11-3t2-13V421zM321 673v-4.5l-1.5-3-4-2.5-6.5-1h-55q-12 0-12-11V425q0-18-20-18h-63q-12 0-16 3t-4 15v226q0 11-11 11H60q-8 0-10 2.5t-2 8.5v49q0 7 4 8.5t15 1.5h235q19 0 19-9v-50z"/><glyph glyph-name="partialdiff" unicode="∂" d="M719 72H8v564h711V72zm-86 456q4 11-11 11h-31q-6 0-10-9 0-3-1-4l-82-276-83 276q-7 12-12 13h-38q-4 0-6-.5t-4-2-1.5-4.5l1.5-9 101-331q3-12 15-12h45q11 0 14 11zM363 196L263 523q-4 16-18 16h-40q-12 0-18-16L88 196q-5-16 3-16h35q7 0 9 2t4 11l22 75h119l23-75q1-5 1.5-6.5t1.5-3.5 3-2.5 5-.5h39q8 0 10 2t0 14zm-95 109h-96l49 164z"/><glyph glyph-name="product" unicode="∏" d="M719 72H8v564h711V72zm-86 456q4 11-11 11h-31q-6 0-10-9 0-3-1-4l-82-276-83 276q-7 12-12 13h-38q-4 0-6-.5t-4-2-1.5-4.5l1.5-9 101-331q3-12 15-12h45q11 0 14 11zM363 196L263 523q-4 16-18 16h-40q-12 0-18-16L88 196q-5-16 3-16h35q7 0 9 2t4 11l22 75h119l23-75q1-5 1.5-6.5t1.5-3.5 3-2.5 5-.5h39q8 0 10 2t0 14zm-95 109h-96l49 164z"/><glyph glyph-name="summation" unicode="∑" d="M719 72H8v564h711V72zm-86 456q4 11-11 11h-31q-6 0-10-9 0-3-1-4l-82-276-83 276q-7 12-12 13h-38q-4 0-6-.5t-4-2-1.5-4.5l1.5-9 101-331q3-12 15-12h45q11 0 14 11zM363 196L263 523q-4 16-18 16h-40q-12 0-18-16L88 196q-5-16 3-16h35q7 0 9 2t4 11l22 75h119l23-75q1-5 1.5-6.5t1.5-3.5 3-2.5 5-.5h39q8 0 10 2t0 14zm-95 109h-96l49 164z"/><glyph glyph-name="minus" unicode="−" d="M719 72H8v564h711V72zm-86 456q4 11-11 11h-31q-6 0-10-9 0-3-1-4l-82-276-83 276q-7 12-12 13h-38q-4 0-6-.5t-4-2-1.5-4.5l1.5-9 101-331q3-12 15-12h45q11 0 14 11zM363 196L263 523q-4 16-18 16h-40q-12 0-18-16L88 196q-5-16 3-16h35q7 0 9 2t4 11l22 75h119l23-75q1-5 1.5-6.5t1.5-3.5 3-2.5 5-.5h39q8 0 10 2t0 14zm-95 109h-96l49 164z"/><glyph glyph-name="radical" unicode="√" horiz-adv-x="558" d="M584 702L282 43Q259 0 228 0h-80q-32 0-42 42L55 378q-4 15 4 22t27 7h78q12 0 21-9.5t11-22.5l30-196 222 521q6 13 19 23t24 10h75q21 0 24.5-7.5T584 702z"/><glyph glyph-name="infinity" unicode="∞" horiz-adv-x="1005" d="M892 41q-3-17-5-23t-9.5-12T856 0H747q-20 0-25 11t0 30l67 383H626L524-155q-2-12-10-20.5t-18-8.5H378q-13 0-20 9.5t-4 25.5l101 573H288L186-155q-2-12-10-20.5t-18-8.5H40q-13 0-20 9.5T16-149l101 573H74q-18 0-23 6.5T49 455l9 51q5 32 30 32h35q-8 29 0 67 13 59 58.5 98.5T308 743q56 0 107-22 7-3-13.5-56.5T374 613q-20 6-35 6-40 0-48-43-4-24 7-38h163q-8 27 0 67 12 59 58 98.5T646 743q56 0 107-22 7-3-13.5-56.5T712 613q-20 6-35 6-41 0-48-43-4-29 5-38h309q24 0 29-7t2-26zm106 603q-3-17-10.5-24.5T963 612H855q-20 0-25 6.5t-1 28.5l9 53q4 20 12 26t28 6h107q20 0 23.5-12t-2.5-29z"/><glyph glyph-name="integral" unicode="∫" d="M719 72H8v564h711V72zm-86 456q4 11-11 11h-31q-6 0-10-9 0-3-1-4l-82-276-83 276q-7 12-12 13h-38q-4 0-6-.5t-4-2-1.5-4.5l1.5-9 101-331q3-12 15-12h45q11 0 14 11zM363 196L263 523q-4 16-18 16h-40q-12 0-18-16L88 196q-5-16 3-16h35q7 0 9 2t4 11l22 75h119l23-75q1-5 1.5-6.5t1.5-3.5 3-2.5 5-.5h39q8 0 10 2t0 14zm-95 109h-96l49 164z"/><glyph glyph-name="approxequal" unicode="≈" d="M719 72H8v564h711V72zm-86 456q4 11-11 11h-31q-6 0-10-9 0-3-1-4l-82-276-83 276q-7 12-12 13h-38q-4 0-6-.5t-4-2-1.5-4.5l1.5-9 101-331q3-12 15-12h45q11 0 14 11zM363 196L263 523q-4 16-18 16h-40q-12 0-18-16L88 196q-5-16 3-16h35q7 0 9 2t4 11l22 75h119l23-75q1-5 1.5-6.5t1.5-3.5 3-2.5 5-.5h39q8 0 10 2t0 14zm-95 109h-96l49 164z"/><glyph glyph-name="notequal" unicode="≠" horiz-adv-x="725" d="M712 445q-6-37-35-37h-53L524-155q-2-12-10-20.5t-18-8.5H378q-13 0-20 9.5t-4 25.5l99 557H286L186-155q-2-12-10-20.5t-18-8.5H40q-13 0-20 9.5T16-149l99 557H72q-18 0-23 6.5T47 439l9 51q5 32 30 32h40q-11 37-1 83 12 59 57 98.5T308 743q56 0 107-22 7-3-13.5-56.5T374 613q-20 6-35 6-40 0-48-43-6-40 19-54h154q-11 37-1 83 12 59 57 98.5T646 743q56 0 107-22 7-3-13.5-56.5T712 613q-20 6-35 6-40 0-48-43-6-40 19-54h53q17 0 20-8t-1-24z"/><glyph glyph-name="lessequal" unicode="≤" d="M719 72H8v564h711V72zm-86 456q4 11-11 11h-31q-6 0-10-9 0-3-1-4l-82-276-83 276q-7 12-12 13h-38q-4 0-6-.5t-4-2-1.5-4.5l1.5-9 101-331q3-12 15-12h45q11 0 14 11zM363 196L263 523q-4 16-18 16h-40q-12 0-18-16L88 196q-5-16 3-16h35q7 0 9 2t4 11l22 75h119l23-75q1-5 1.5-6.5t1.5-3.5 3-2.5 5-.5h39q8 0 10 2t0 14zm-95 109h-96l49 164z"/><glyph glyph-name="greaterequal" unicode="≥" d="M719 72H8v564h711V72zm-86 456q4 11-11 11h-31q-6 0-10-9 0-3-1-4l-82-276-83 276q-7 12-12 13h-38q-4 0-6-.5t-4-2-1.5-4.5l1.5-9 101-331q3-12 15-12h45q11 0 14 11zM363 196L263 523q-4 16-18 16h-40q-12 0-18-16L88 196q-5-16 3-16h35q7 0 9 2t4 11l22 75h119l23-75q1-5 1.5-6.5t1.5-3.5 3-2.5 5-.5h39q8 0 10 2t0 14zm-95 109h-96l49 164z"/><glyph glyph-name="lozenge" unicode="◊" d="M719 72H8v564h711V72zm-86 456q4 11-11 11h-31q-6 0-10-9 0-3-1-4l-82-276-83 276q-7 12-12 13h-38q-4 0-6-.5t-4-2-1.5-4.5l1.5-9 101-331q3-12 15-12h45q11 0 14 11zM363 196L263 523q-4 16-18 16h-40q-12 0-18-16L88 196q-5-16 3-16h35q7 0 9 2t4 11l22 75h119l23-75q1-5 1.5-6.5t1.5-3.5 3-2.5 5-.5h39q8 0 10 2t0 14zm-95 109h-96l49 164z"/><glyph glyph-name="NUL" unicode="" horiz-adv-x="0"/><glyph glyph-name="apple" unicode="" d="M719 72H8v564h711V72zm-86 456q4 11-11 11h-31q-6 0-10-9 0-3-1-4l-82-276-83 276q-7 12-12 13h-38q-4 0-6-.5t-4-2-1.5-4.5l1.5-9 101-331q3-12 15-12h45q11 0 14 11zM363 196L263 523q-4 16-18 16h-40q-12 0-18-16L88 196q-5-16 3-16h35q7 0 9 2t4 11l22 75h119l23-75q1-5 1.5-6.5t1.5-3.5 3-2.5 5-.5h39q8 0 10 2t0 14zm-95 109h-96l49 164z"/><glyph glyph-name="fl" unicode="ﬂ" horiz-adv-x="671" d="M374 445q-6-37-35-37h-53L186-155q-2-12-10-20.5t-18-8.5H40q-13 0-20 9.5T16-149l99 557H72q-18 0-23 6.5T47 439l9 51q5 32 30 32h40q-11 37-1 83 12 59 57 98.5T308 743q56 0 107-22 7-3-13.5-56.5T374 613q-20 6-35 6-40 0-48-43-6-40 19-54h53q17 0 20-8t-1-24zM558 41q-3-17-5-23t-9.5-12T522 0H414q-22 0-27 6t-1 28l121 681q5 28 32 28h107q24 0 28.5-7t1.5-26z"/><glyph glyph-name="f_f_l" unicode="ﬄ" horiz-adv-x="1008" d="M712 445q-6-37-35-37h-53L524-155q-2-12-10-20.5t-18-8.5H378q-13 0-20 9.5t-4 25.5l99 557H286L186-155q-2-12-10-20.5t-18-8.5H40q-13 0-20 9.5T16-149l99 557H72q-18 0-23 6.5T47 439l9 51q5 32 30 32h40q-11 37-1 83 12 59 57 98.5T308 743q56 0 107-22 7-3-13.5-56.5T374 613q-20 6-35 6-40 0-48-43-6-40 19-54h154q-11 37-1 83 12 59 57 98.5T646 743q56 0 107-22 7-3-13.5-56.5T712 613q-20 6-35 6-40 0-48-43-6-40 19-54h53q17 0 20-8t-1-24zM895 41q-3-17-5-23t-9.5-12T859 0H751q-22 0-27 6t-1 28l121 681q5 28 32 28h107q24 0 28.5-7t1.5-26z"/><glyph glyph-name="zero.tab" horiz-adv-x="672" d="M583 234Q559 96 483 41T279-14Q-2-14 41 230l47 269q44 243 319 243 266 0 225-228zm-182 15l37 210q12 67-.5 97.5T381 587q-58 0-78.5-30T270 455l-38-212q-8-49 8.5-76.5T300 139q48 0 70 27.5t31 82.5z"/><glyph glyph-name="one.tab" horiz-adv-x="672" d="M508 697l-95-539q-1-12 2.5-15.5T433 139h101q11 0 16.5-3t5.5-7.5-1-10.5l-17-96q-3-22-41-22H69Q49 0 40.5 4T34 21l17 97q3 21 29 21h118q14 0 19.5 3.5T224 158l62 347q3 18-1.5 25t-21.5 7h-91q-31 0-26 28l12 70q4 16 13 24t31 17l112 42q32 13 53 13h122q18 0 21-8.5t-2-25.5z"/><glyph glyph-name="two.tab" horiz-adv-x="672" d="M542 130L524 24q-4-24-23-24H36Q6 0 12 30l11 63q11 66 47.5 123.5t81.5 96 95.5 74 92 60.5 69 53 27.5 53q0 41-64 41-85 0-179-53-14-8-28.5 25t-17 67.5T157 682q98 61 237 61 107 0 167-42t60-124q0-58-24.5-105.5t-61.5-77-82.5-57.5-86.5-49-74.5-50.5T247 175q-8-22 31-22h220q26 0 36.5-5t7.5-18z"/><glyph glyph-name="three.tab" horiz-adv-x="672" d="M537 186q-17-98-97.5-149T253-14q-72 0-131.5 19.5T30 49q-8 6 6.5 41t36 65.5T103 181q67-40 139-40 112 0 126 75 7 42-29 64.5T248 306q-15 1-21 6t-3 18l13 73q2 14 7.5 19t19.5 5q69 0 108.5 25.5T420 522q5 33-21 53t-77 20q-59 0-124-40-10-7-23.5 22.5t-17.5 60 5 42.5q84 63 217 63 113 0 175-52.5T601 547q-12-69-58-116.5T446 365q114-50 91-179z"/><glyph glyph-name="four.tab" horiz-adv-x="672" d="M572 174q-4-22-11-31t-22-9h-44L475 22q-2-12-8.5-17T444 0h-86q-22 0-30 6t-6 21l19 107H42q-16 0-21 5.5T19 159l13 75q3 24 25 52l330 408q1 1 5 6t5 6.5 5.5 6 6.5 6 6.5 4.5 8 4.5 8 2.5 9.5 1h135q17 0 20.5-7.5T595 701l-76-429h49q12 0 15.5-6t1.5-22zm-207 98l45 254-202-254h157z"/><glyph glyph-name="five.tab" horiz-adv-x="672" d="M556 208q-18-101-99.5-161T255-13q-81 0-137 17T36 43q-13 12 22 80.5t60 54.5q75-41 140-41 99 0 115 81 5 24-5.5 44.5t-27 34T292 323t-57 20-65 17q-50 13-41 71l48 271q6 30 35 30h395q19 0 15-24l-18-106q-3-13-12.5-18t-32.5-5H358q-35 0-39-22l-12-65q-1-7 4-11.5t18-7.5q44-10 75.5-21t66.5-32 54.5-47.5 29-69T556 208z"/><glyph glyph-name="six.tab" horiz-adv-x="672" d="M596 245Q549-13 281-13 158-13 84 44T28 202l51 290q45 251 347 251 110 0 188-40 5-4 3-19.5t-9-38.5-15.5-43.5-17-34.5-13.5-12q-69 31-164 31-55 0-88-22t-40-61l-4-23q-4-19 12-10 46 23 112 23 109 0 168-63.5T596 245zm-179 7q9 51-11.5 77.5T339 356q-45 0-73-20t-34-49l-13-73q-7-39 13-57t71-18q95 0 114 113z"/><glyph glyph-name="seven.tab" horiz-adv-x="672" d="M664 696L330 35Q313 0 285 0H169q-25 0-34 5t1 24l260 509q16 33-24 33H143q-10 0-16.5 7t-7.5 12-1 9l17 95q3 20 10.5 29t27.5 9h468q41 0 23-36z"/><glyph glyph-name="eight.tab" horiz-adv-x="672" d="M581 179Q565 87 478.5 36.5T268-14Q143-14 77.5 44.5T29 195q10 56 42 98.5t74 62.5q-26 20-43.5 66.5T95 532q17 93 97.5 152T391 743q134 0 197.5-62.5T636 532q-12-67-50-112.5T509 356q41-20 62-68t10-109zM449 502q8 45-13 67t-62 22q-92 0-106-86-7-37 13.5-57t60.5-20q42 0 72 21t35 53zm-46-284q7 42-13.5 65.5T322 307q-94 0-109-87-7-38 15.5-58t67.5-20q94 0 107 76z"/><glyph glyph-name="nine.tab" horiz-adv-x="672" d="M641 516l-49-278Q569 110 470.5 48.5T226-13Q102-13 27 30q-8 5 3 42t28.5 70.5T83 173q65-29 171-29 60 0 100.5 20.5T402 227l4 23q1 11-2.5 12.5T393 260q-44-23-112-23-106 0-166 63T76 485q21 123 102.5 190.5T391 743q123 0 196-60.5T641 516zm-201-73l12 73q7 39-12.5 57T369 591q-95 0-114-113-9-51 11-77.5t66-26.5q45 0 73.5 20t34.5 49z"/><glyph glyph-name="a.salt_ts" horiz-adv-x="602" d="M339 344q16 95-88 95-65 0-129-31-19-10-34 25-17 40-2 66 5 7 12 11 90 45 228 45 42 0 77.5-10t66-31 44-60.5T518 361l-32-180q-6-39-2-53.5t19-14.5q14 0 17.5-5t.5-19l-8-53q-5-31-11.5-38T473-9Q405-9 368.5 7.5T320 68q-76-81-188-81-66 0-104.5 40T3 142q19 103 98 152.5T339 344zm-27-153l12 65q-57 0-99-22t-50-70q-4-23 8.5-36.5T222 114q33 0 59 23t31 54z"/><glyph glyph-name="aacute.salt_ts" horiz-adv-x="602" d="M339 344q16 95-88 95-65 0-129-31-19-10-34 25-17 40-2 66 5 7 12 11 90 45 228 45 42 0 77.5-10t66-31 44-60.5T518 361l-32-180q-6-39-2-53.5t19-14.5q14 0 17.5-5t.5-19l-8-53q-5-31-11.5-38T473-9Q405-9 368.5 7.5T320 68q-76-81-188-81-66 0-104.5 40T3 142q19 103 98 152.5T339 344zm-27-153l12 65q-57 0-99-22t-50-70q-4-23 8.5-36.5T222 114q33 0 59 23t31 54zm207 549L375 619q-24-22-42-22h-65q-16 0-17.5 8.5T261 627l107 121q21 24 38 24h104q22 0 23.5-9T519 740z"/><glyph glyph-name="agrave.salt_ts" horiz-adv-x="602" d="M339 344q16 95-88 95-65 0-129-31-19-10-34 25-17 40-2 66 5 7 12 11 90 45 228 45 42 0 77.5-10t66-31 44-60.5T518 361l-32-180q-6-39-2-53.5t19-14.5q14 0 17.5-5t.5-19l-8-53q-5-31-11.5-38T473-9Q405-9 368.5 7.5T320 68q-76-81-188-81-66 0-104.5 40T3 142q19 103 98 152.5T339 344zm-27-153l12 65q-57 0-99-22t-50-70q-4-23 8.5-36.5T222 114q33 0 59 23t31 54zm41 557l72-121q8-13 3.5-21.5T408 597h-55q-16 0-36 22L208 740q-13 13-8 22.5t27 9.5h96q8 0 14-3.5t8.5-7.5 7.5-13z"/><glyph glyph-name="acircumflex.salt_ts" horiz-adv-x="602" d="M339 344q16 95-88 95-65 0-129-31-19-10-34 25-17 40-2 66 5 7 12 11 90 45 228 45 42 0 77.5-10t66-31 44-60.5T518 361l-32-180q-6-39-2-53.5t19-14.5q14 0 17.5-5t.5-19l-8-53q-5-31-11.5-38T473-9Q405-9 368.5 7.5T320 68q-76-81-188-81-66 0-104.5 40T3 142q19 103 98 152.5T339 344zm-27-153l12 65q-57 0-99-22t-50-70q-4-23 8.5-36.5T222 114q33 0 59 23t31 54zm100 557l74-120q8-11 4-21t-22-10h-58q-18 0-27 15l-43 71-61-71q-13-15-30-15h-63q-15 0-17.5 8.5T178 628l106 120q20 24 40 24h58q16 0 30-24z"/><glyph glyph-name="adieresis.salt_ts" horiz-adv-x="602" d="M339 344q16 95-88 95-65 0-129-31-19-10-34 25-17 40-2 66 5 7 12 11 90 45 228 45 42 0 77.5-10t66-31 44-60.5T518 361l-32-180q-6-39-2-53.5t19-14.5q14 0 17.5-5t.5-19l-8-53q-5-31-11.5-38T473-9Q405-9 368.5 7.5T320 68q-76-81-188-81-66 0-104.5 40T3 142q19 103 98 152.5T339 344zm-27-153l12 65q-57 0-99-22t-50-70q-4-23 8.5-36.5T222 114q33 0 59 23t31 54zm215 447q-5-28-31-28h-88q-25 0-31 8t-3 24l14 81q3 16 10.5 23t24.5 7h91q21 0 26-6.5t2-23.5zm-229 4q-3-17-10.5-24.5T262 610h-92q-19 0-24.5 5t-2.5 21l15 88q5 29 31 29h100q17 0 21.5-7.5T312 721z"/><glyph glyph-name="atilde.salt_ts" horiz-adv-x="602" d="M339 344q16 95-88 95-65 0-129-31-19-10-34 25-17 40-2 66 5 7 12 11 90 45 228 45 42 0 77.5-10t66-31 44-60.5T518 361l-32-180q-6-39-2-53.5t19-14.5q14 0 17.5-5t.5-19l-8-53q-5-31-11.5-38T473-9Q405-9 368.5 7.5T320 68q-76-81-188-81-66 0-104.5 40T3 142q19 103 98 152.5T339 344zm-27-153l12 65q-57 0-99-22t-50-70q-4-23 8.5-36.5T222 114q33 0 59 23t31 54zm236 536q-27-49-68-82.5T395 611q-23 0-59 24.5T282 660q-15 0-32.5-12.5T223 620q-7-11-18-6l-51 19q-11 5-5 15 17 41 58.5 78t82.5 37q25 0 65.5-24.5T411 714q31 0 60 40 8 11 18 7l54-17q11-4 5-17z"/><glyph glyph-name="aring.salt_ts" horiz-adv-x="602" d="M339 344q16 95-88 95-65 0-129-31-19-10-34 25-17 40-2 66 5 7 12 11 90 45 228 45 42 0 77.5-10t66-31 44-60.5T518 361l-32-180q-6-39-2-53.5t19-14.5q14 0 17.5-5t.5-19l-8-53q-5-31-11.5-38T473-9Q405-9 368.5 7.5T320 68q-76-81-188-81-66 0-104.5 40T3 142q19 103 98 152.5T339 344zm-27-153l12 65q-57 0-99-22t-50-70q-4-23 8.5-36.5T222 114q33 0 59 23t31 54zm167 517q-10-56-53-93t-104-37q-54 0-87.5 38T211 708q10 55 53.5 92.5T368 838q54 0 87.5-38t23.5-92zm-78 0q4 24-7.5 42T356 768q-28 0-45.5-17.5T289 708q-4-24 7.5-42t37.5-18q27 0 45 18t22 42z"/><glyph glyph-name="ae.salt_ts" horiz-adv-x="887" d="M844 393q0-56-27.5-93.5t-80.5-56-111-25-139-6.5q-8-49 20.5-74.5T600 112q68 0 148 30 24 9 26-11l21-86q1-8-6-12.5T764 21q-28-11-84.5-23T567-14Q391-14 343 93 264-13 132-13 66-13 27.5 27T3 142q19 103 98 152.5T339 344q16 95-88 95-65 0-129-31-19-10-34 25-17 40-2 66 5 7 12 11 90 45 228 45 104 0 143-52 68 52 163 52 96 0 154-41.5T844 393zm-167-4q0 24-16.5 42.5T610 450q-41 0-66.5-40T507 316q92 0 131 16.5t39 56.5zM317 186q0 35 7 70-57 0-99-22t-50-70q-4-23 8.5-36.5T222 114q34 0 59 22.5t36 49.5z"/><glyph glyph-name="g.salt_ts" horiz-adv-x="596" d="M482-50q-13-79-88.5-121.5T203-214Q67-214 4.5-167.5T-47-60Q-35 2 37 49 2 72-4.5 109.5t18.5 75T90 243q-57 52-42 135 14 77 86.5 127T308 555q120 0 167-49 62 77 138 77 7-6 3.5-42t-14-78.5T584 420q-47 0-77-24-1-4-2.5-14t-2.5-14q-5-31-20.5-59.5t-43-55.5-75.5-43-110-16h-26q-50-9-61-38-10-27 29-43 27-10 70-9 100 0 165-40t52-114zm-181-3q5 29-10 44T236 6q-77 0-88-62-4-22 15.5-37.5T215-109q76 0 86 56zm40 429q13 84-39 84-26 0-44-21.5T233 380q-16-88 41-88 52 0 67 84z"/><glyph glyph-name="W.salt_ht" horiz-adv-x="1029" d="M1068 704L772 27q-7-16-16-21.5T727 0H585q-21 0-28.5 6T547 28l-24 417L339 27q-6-16-15-21.5T294 0H165q-20 0-27.5 6T127 28L82 699q-1 19 10 26t33 7h122q17 0 21-4.5t6-21.5l10-472 211 465q8 19 15.5 26t26.5 7h121q16 0 20-4.5t6-21.5l23-472 204 471q6 13 8.5 16.5t8 6.5 16.5 3h90q25 0 33.5-5t.5-22z"/><glyph glyph-name="w.salt_ht" horiz-adv-x="829" d="M845 507L621 43Q599 0 567 0h-98q-36 0-42 42l-29 297L262 43Q242 0 208 0h-89Q83 0 77 42L35 509q-2 15 5 22t26 7h105q13 0 22-10t11-23l13-315 140 310q14 38 37 38h107q13 0 22-10t11-23l24-315 141 315q16 33 42 33h86q21 0 24-7t-6-24z"/><glyph glyph-name="M.salt_ht" horiz-adv-x="885" d="M753 26q-2-15-9-20.5T719 0H602q-24 0-32 7t-5 26l59 330q1 10-4 10t-10-9L436 27q-9-18-14.5-22.5T404 0h-46q-16 0-20.5 4.5T330 28l-54 338q-2 9-8.5 7.5T260 364L200 26q-2-10-4-14.5t-9-8T166 0H49Q19 0 13 12q-3 8-1 21l118 667q4 19 14 25.5t31 6.5h120q34 0 38-19l86-431q1-6 6.5-6t7.5 5l232 430q11 21 47 21h141q18 0 20.5-9t-2.5-26z"/><glyph glyph-name="Q.salt_tail" horiz-adv-x="706" d="M619 227q-12-65-44-114t-67-74l52-72q15-21 12.5-29T545-87l-117-77q-18-13-27-10.5T382-151L314-13h-29q-34 0-66.5 4t-72 18-66 36.5T40 109t-5 95l51 288q24 132 102.5 191.5T409 743q56 0 103.5-12t88.5-39.5 59-79.5 5-124zm-186 26l39 221q22 116-79 116-58 0-87.5-30T269 488l-42-245q-9-51 14.5-75.5T312 143q102 0 121 110z"/><glyph glyph-name="ampersand.salt_loop" horiz-adv-x="727" d="M469 245q43 56 77 128 4 6 19.5 4.5t37-9.5 41.5-17 32.5-18.5T686 317q-47-93-107-160l62-43q16-11 18-19t-9-19L578-7q-12-12-23-12T527-5l-71 59Q346-13 223-13 109-13 49.5 39T5 176q12 66 54 108.5T169 361q-62 101-48 178 17 101 91 152.5T397 743q107 0 158-57.5T594 560q-14-78-69.5-129T379 335q32-37 90-90zm-56 304q5 28-6.5 48T370 617q-27 0-49-21t-28-55q-9-51 21-110 86 48 99 118zM242 262q-55-37-63-78-5-24 16-40.5t65-16.5q48 0 93 20-65 62-111 115z"/><glyph glyph-name="A.unic" horiz-adv-x="678" d="M637 538L548 31q-3-19-8-25t-18-6H378q-8 0-11.5 3t-4 12 .5 20.5 5 32.5q-33-43-84-62t-96-19Q98-13 54 41.5T26 186q24 141 127.5 199.5T432 444l13 76q7 37-25.5 57T342 597q-66 0-156-45-15-8-31.5 22T136 635.5t15 46.5q113 61 258 61 44 0 85-10t79-31.5 56-64 8-99.5zM391 212l19 116q-32 0-56.5-3.5t-55-15-51-39.5-27.5-70q-12-75 60-75 39 0 71.5 25.5T391 212z"/><glyph glyph-name="E.unic" horiz-adv-x="684" d="M560 287H242l-6-34q-12-65 15-93.5t89-28.5q98 0 187 25 8 2 14-30t5.5-66-7.5-37q-85-36-241-36-148 0-212.5 69T40 227l43 248q10 59 31.5 104.5t60 84 101 59T423 743q57 0 101.5-15t69.5-40 41.5-57 17.5-66-3-67l-28-163q-5-28-16-38t-46-10zM272 458q-4-20 1-27t21-7h124q18 0 25 14t12 42q20 119-63 119-55 0-80.5-31.5T272 458z"/><glyph glyph-name="M.unic" horiz-adv-x="1029" d="M13 37l116 655q6 40 27 40h144q17 0 19-13t-6-60q69 85 180 85 55 0 89-30.5t41-80.5q39 49 100 80t123 31q89 0 122-65.5T983 507L899 32q-4-20-13-26t-31-6H744q-40 0-33 35l77 436q19 115-57 115-38 0-65.5-28.5T630 486L550 32q-4-20-13-26t-31-6H395q-40 0-33 35l77 436q10 59-1 87t-56 28q-83 0-103-115L201 31q-6-31-41-31H39Q17 0 12.5 9t.5 28z"/><glyph glyph-name="N.unic" horiz-adv-x="740" d="M13 37l116 655q6 40 27 40h144q17 0 19-13t-6-60q38 38 92.5 61.5T517 744q100 0 147.5-67.5T694 507L610 32q-4-20-13-26t-31-6H455q-40 0-33 35l77 436q19 115-87 115-48 0-86.5-34.5T279 471L201 31q-6-31-41-31H39Q17 0 12.5 9t.5 28z"/><glyph glyph-name="U.unic" horiz-adv-x="740" d="M727 695L612 40q-3-14-4.5-20T600 7t-15-7H441q-17 0-19.5 13t5.5 60q-38-38-92.5-61.5T223-12Q122-12 75 54T46 225l84 475q4 20 13.5 26t31.5 6h111q39 0 32-35l-76-435q-21-115 86-115 48 0 87 34.5t47 80.5l77 439q6 31 42 31h121q22 0 26-9t-1-28z"/><glyph glyph-name="Aacute.unic" horiz-adv-x="678" d="M637 538L548 31q-3-19-8-25t-18-6H378q-8 0-11.5 3t-4 12 .5 20.5 5 32.5q-33-43-84-62t-96-19Q98-13 54 41.5T26 186q24 141 127.5 199.5T432 444l13 76q7 37-25.5 57T342 597q-66 0-156-45-15-8-31.5 22T136 635.5t15 46.5q113 61 258 61 44 0 85-10t79-31.5 56-64 8-99.5zM391 212l19 116q-32 0-56.5-3.5t-55-15-51-39.5-27.5-70q-12-75 60-75 39 0 71.5 25.5T391 212zm202 708L449 799q-24-22-42-22h-65q-16 0-17.5 8.5T335 807l107 121q21 24 38 24h104q22 0 23.5-9T593 920z"/><glyph glyph-name="Agrave.unic" horiz-adv-x="678" d="M637 538L548 31q-3-19-8-25t-18-6H378q-8 0-11.5 3t-4 12 .5 20.5 5 32.5q-33-43-84-62t-96-19Q98-13 54 41.5T26 186q24 141 127.5 199.5T432 444l13 76q7 37-25.5 57T342 597q-66 0-156-45-15-8-31.5 22T136 635.5t15 46.5q113 61 258 61 44 0 85-10t79-31.5 56-64 8-99.5zM391 212l19 116q-32 0-56.5-3.5t-55-15-51-39.5-27.5-70q-12-75 60-75 39 0 71.5 25.5T391 212zm61 716l72-121q8-13 3.5-21.5T507 777h-55q-16 0-36 22L307 920q-13 13-8 22.5t27 9.5h96q8 0 14-3.5t8.5-7.5 7.5-13z"/><glyph glyph-name="Acircumflex.unic" horiz-adv-x="678" d="M637 538L548 31q-3-19-8-25t-18-6H378q-8 0-11.5 3t-4 12 .5 20.5 5 32.5q-33-43-84-62t-96-19Q98-13 54 41.5T26 186q24 141 127.5 199.5T432 444l13 76q7 37-25.5 57T342 597q-66 0-156-45-15-8-31.5 22T136 635.5t15 46.5q113 61 258 61 44 0 85-10t79-31.5 56-64 8-99.5zM391 212l19 116q-32 0-56.5-3.5t-55-15-51-39.5-27.5-70q-12-75 60-75 39 0 71.5 25.5T391 212zm113 716l74-120q8-11 4-21t-22-10h-58q-18 0-27 15l-43 71-61-71q-13-15-30-15h-63q-15 0-17.5 8.5T270 808l106 120q20 24 40 24h58q16 0 30-24z"/><glyph glyph-name="Adieresis.unic" horiz-adv-x="678" d="M637 538L548 31q-3-19-8-25t-18-6H378q-8 0-11.5 3t-4 12 .5 20.5 5 32.5q-33-43-84-62t-96-19Q98-13 54 41.5T26 186q24 141 127.5 199.5T432 444l13 76q7 37-25.5 57T342 597q-66 0-156-45-15-8-31.5 22T136 635.5t15 46.5q113 61 258 61 44 0 85-10t79-31.5 56-64 8-99.5zM391 212l19 116q-32 0-56.5-3.5t-55-15-51-39.5-27.5-70q-12-75 60-75 39 0 71.5 25.5T391 212zm229 606q-5-28-31-28h-88q-25 0-31.5 8t-3.5 24l15 81q4 30 35 30h91q21 0 26-6.5t2-23.5zm-230 4q-2-17-9.5-24.5T355 790h-92q-19 0-24.5 5t-3.5 21l16 88q5 29 31 29h100q17 0 21-7.5t1-24.5z"/><glyph glyph-name="Atilde.unic" horiz-adv-x="678" d="M637 538L548 31q-3-19-8-25t-18-6H378q-8 0-11.5 3t-4 12 .5 20.5 5 32.5q-33-43-84-62t-96-19Q98-13 54 41.5T26 186q24 141 127.5 199.5T432 444l13 76q7 37-25.5 57T342 597q-66 0-156-45-15-8-31.5 22T136 635.5t15 46.5q113 61 258 61 44 0 85-10t79-31.5 56-64 8-99.5zM391 212l19 116q-32 0-56.5-3.5t-55-15-51-39.5-27.5-70q-12-75 60-75 39 0 71.5 25.5T391 212zm241 695q-26-49-67-82.5T480 791q-23 0-59 24.5T367 840q-15 0-32.5-12.5T308 800q-8-11-18-6l-51 19q-12 5-6 15 18 41 59.5 78t82.5 37q25 0 65.5-24.5T496 894q31 0 60 40 7 12 17 7l54-17q12-4 5-17z"/><glyph glyph-name="Aring.unic" horiz-adv-x="678" d="M637 538L548 31q-3-19-8-25t-18-6H378q-8 0-11.5 3t-4 12 .5 20.5 5 32.5q-33-43-84-62t-96-19Q98-13 54 41.5T26 186q24 141 127.5 199.5T432 444l13 76q7 37-25.5 57T342 597q-66 0-156-45-15-8-31.5 22T136 635.5t15 46.5q113 61 258 61 44 0 85-10t79-31.5 56-64 8-99.5zM391 212l19 116q-32 0-56.5-3.5t-55-15-51-39.5-27.5-70q-12-75 60-75 39 0 71.5 25.5T391 212zm186 676q-10-56-53-93t-104-37q-54 0-87.5 38T309 888q10 55 53.5 92.5T466 1018q54 0 87.5-38t23.5-92zm-78 0q4 24-7.5 42T454 948q-28 0-45.5-17.5T387 888q-4-24 7.5-42t37.5-18q27 0 45 18t22 42z"/><glyph glyph-name="AE.unic" horiz-adv-x="1033" d="M909 287H595l-6-34q-12-65 13-93.5t87-28.5q98 0 187 25 8 2 14-30t5.5-66-7.5-37q-85-36-241-36-107 0-165 35.5T407 107q-43-57-93.5-88.5T188-13Q98-13 54 41.5T26 186q24 141 126.5 199.5T429 444l13 76q7 38-24 57.5T342 597q-66 0-156-45-15-8-31.5 22T136 635.5t15 46.5q113 61 255 61 116 0 168-54 37 29 77 41.5T772 743q57 0 101.5-15t69.5-40 41.5-57 17.5-66-3-67l-28-163q-5-28-16-38t-46-10zm-519-79l17 120q-25 0-44-1.5t-44.5-9T275 297t-33.5-38-21.5-59q-12-75 60-75 76 0 110 83zm235 250q-4-20 1-27t21-7h120q18 0 25 14t12 42q20 119-63 119-54 0-78-31t-38-110z"/><glyph glyph-name="Eacute.unic" horiz-adv-x="684" d="M560 287H242l-6-34q-12-65 15-93.5t89-28.5q98 0 187 25 8 2 14-30t5.5-66-7.5-37q-85-36-241-36-148 0-212.5 69T40 227l43 248q10 59 31.5 104.5t60 84 101 59T423 743q57 0 101.5-15t69.5-40 41.5-57 17.5-66-3-67l-28-163q-5-28-16-38t-46-10zM272 458q-4-20 1-27t21-7h124q18 0 25 14t12 42q20 119-63 119-55 0-80.5-31.5T272 458zm331 462L459 799q-24-22-42-22h-65q-16 0-17.5 8.5T345 807l107 121q21 24 38 24h104q22 0 23.5-9T603 920z"/><glyph glyph-name="Egrave.unic" horiz-adv-x="684" d="M560 287H242l-6-34q-12-65 15-93.5t89-28.5q98 0 187 25 8 2 14-30t5.5-66-7.5-37q-85-36-241-36-148 0-212.5 69T40 227l43 248q10 59 31.5 104.5t60 84 101 59T423 743q57 0 101.5-15t69.5-40 41.5-57 17.5-66-3-67l-28-163q-5-28-16-38t-46-10zM272 458q-4-20 1-27t21-7h124q18 0 25 14t12 42q20 119-63 119-55 0-80.5-31.5T272 458zm174 470l72-121q8-13 3.5-21.5T501 777h-55q-16 0-36 22L301 920q-13 13-8 22.5t27 9.5h96q8 0 14-3.5t8.5-7.5 7.5-13z"/><glyph glyph-name="Ecircumflex.unic" horiz-adv-x="684" d="M560 287H242l-6-34q-12-65 15-93.5t89-28.5q98 0 187 25 8 2 14-30t5.5-66-7.5-37q-85-36-241-36-148 0-212.5 69T40 227l43 248q10 59 31.5 104.5t60 84 101 59T423 743q57 0 101.5-15t69.5-40 41.5-57 17.5-66-3-67l-28-163q-5-28-16-38t-46-10zM272 458q-4-20 1-27t21-7h124q18 0 25 14t12 42q20 119-63 119-55 0-80.5-31.5T272 458zm242 470l74-120q8-11 4-21t-22-10h-58q-18 0-27 15l-43 71-61-71q-13-15-30-15h-63q-15 0-17.5 8.5T280 808l106 120q20 24 40 24h58q16 0 30-24z"/><glyph glyph-name="Edieresis.unic" horiz-adv-x="684" d="M560 287H242l-6-34q-12-65 15-93.5t89-28.5q98 0 187 25 8 2 14-30t5.5-66-7.5-37q-85-36-241-36-148 0-212.5 69T40 227l43 248q10 59 31.5 104.5t60 84 101 59T423 743q57 0 101.5-15t69.5-40 41.5-57 17.5-66-3-67l-28-163q-5-28-16-38t-46-10zM272 458q-4-20 1-27t21-7h124q18 0 25 14t12 42q20 119-63 119-55 0-80.5-31.5T272 458zm348 360q-5-28-31-28h-88q-25 0-31.5 8t-3.5 24l15 81q4 30 35 30h91q21 0 26-6.5t2-23.5zm-230 4q-2-17-9.5-24.5T355 790h-92q-19 0-24.5 5t-3.5 21l16 88q5 29 31 29h100q17 0 21-7.5t1-24.5z"/><glyph glyph-name="Ntilde.unic" horiz-adv-x="740" d="M13 37l116 655q6 40 27 40h144q17 0 19-13t-6-60q38 38 92.5 61.5T517 744q100 0 147.5-67.5T694 507L610 32q-4-20-13-26t-31-6H455q-40 0-33 35l77 436q19 115-87 115-48 0-86.5-34.5T279 471L201 31q-6-31-41-31H39Q17 0 12.5 9t.5 28zm653 870q-26-49-67-82.5T514 791q-23 0-59 24.5T401 840q-15 0-32.5-12.5T342 800q-8-11-18-6l-51 19q-12 5-6 15 18 41 59.5 78t82.5 37q25 0 65.5-24.5T530 894q31 0 60 40 7 12 17 7l54-17q12-4 5-17z"/><glyph glyph-name="OE.unic" horiz-adv-x="1063" d="M939 287H621l-6-34q-12-65 15-93.5t89-28.5q98 0 187 25 8 2 14-30t5.5-66-7.5-37q-85-36-241-36-122 0-179 64-69-64-213-64-129 0-199 56T37 217l49 275q24 132 102.5 191.5T409 743q130 0 185-67 77 67 208 67 57 0 101.5-15t69.5-40 41.5-57 17.5-66-3-67l-28-163q-5-28-16-38t-46-10zm-507-39l43 240q8 45-13 73.5T393 590q-58 0-87-29.5T270 493l-45-260q-7-39 18.5-64.5T304 143q110 0 128 105zm219 210q-4-20 1-27t21-7h124q18 0 25 14t12 42q20 119-63 119-55 0-80.5-31.5T651 458z"/><glyph glyph-name="Uacute.unic" horiz-adv-x="740" d="M727 695L612 40q-3-14-4.5-20T600 7t-15-7H441q-17 0-19.5 13t5.5 60q-38-38-92.5-61.5T223-12Q122-12 75 54T46 225l84 475q4 20 13.5 26t31.5 6h111q39 0 32-35l-76-435q-21-115 86-115 48 0 87 34.5t47 80.5l77 439q6 31 42 31h121q22 0 26-9t-1-28zM613 920L469 799q-24-22-42-22h-65q-16 0-17.5 8.5T355 807l107 121q21 24 38 24h104q22 0 23.5-9T613 920z"/><glyph glyph-name="Ugrave.unic" horiz-adv-x="740" d="M727 695L612 40q-3-14-4.5-20T600 7t-15-7H441q-17 0-19.5 13t5.5 60q-38-38-92.5-61.5T223-12Q122-12 75 54T46 225l84 475q4 20 13.5 26t31.5 6h111q39 0 32-35l-76-435q-21-115 86-115 48 0 87 34.5t47 80.5l77 439q6 31 42 31h121q22 0 26-9t-1-28zM456 928l72-121q8-13 3.5-21.5T511 777h-55q-16 0-36 22L311 920q-13 13-8 22.5t27 9.5h96q8 0 14-3.5t8.5-7.5 7.5-13z"/><glyph glyph-name="Ucircumflex.unic" horiz-adv-x="740" d="M727 695L612 40q-3-14-4.5-20T600 7t-15-7H441q-17 0-19.5 13t5.5 60q-38-38-92.5-61.5T223-12Q122-12 75 54T46 225l84 475q4 20 13.5 26t31.5 6h111q39 0 32-35l-76-435q-21-115 86-115 48 0 87 34.5t47 80.5l77 439q6 31 42 31h121q22 0 26-9t-1-28zM524 928l74-120q8-11 4-21t-22-10h-58q-18 0-27 15l-43 71-61-71q-13-15-30-15h-63q-15 0-17.5 8.5T290 808l106 120q20 24 40 24h58q16 0 30-24z"/><glyph glyph-name="Udieresis.unic" horiz-adv-x="740" d="M727 695L612 40q-3-14-4.5-20T600 7t-15-7H441q-17 0-19.5 13t5.5 60q-38-38-92.5-61.5T223-12Q122-12 75 54T46 225l84 475q4 20 13.5 26t31.5 6h111q39 0 32-35l-76-435q-21-115 86-115 48 0 87 34.5t47 80.5l77 439q6 31 42 31h121q22 0 26-9t-1-28zm-82 123q-5-28-31-28h-88q-25 0-31.5 8t-3.5 24l15 81q4 30 35 30h91q21 0 26-6.5t2-23.5zm-230 4q-2-17-9.5-24.5T380 790h-92q-19 0-24.5 5t-3.5 21l16 88q5 29 31 29h100q17 0 21-7.5t1-24.5z"/></font>
</defs>
</svg>
