<svg width="17" height="17" viewBox="0 0 17 17" fill="none" xmlns="http://www.w3.org/2000/svg">
<path d="M8.42852 0.857178C12.6891 0.857178 16.1428 4.31086 16.1428 8.57146C16.1428 12.8321 12.6891 16.2857 8.42852 16.2857C7.06524 16.2879 5.72595 15.9272 4.54824 15.2405L0.71733 16.2857L1.7603 12.4533C1.07303 11.2752 0.711967 9.93534 0.714244 8.57146C0.714244 4.31086 4.16793 0.857178 8.42852 0.857178ZM5.7995 4.94575L5.64521 4.95192C5.54533 4.958 5.44771 4.98424 5.35824 5.02906C5.27456 5.07645 5.19817 5.13569 5.13144 5.20495C5.03887 5.29212 4.98641 5.36772 4.9301 5.441C4.64476 5.81199 4.49113 6.26744 4.49347 6.73546C4.49501 7.11346 4.59376 7.48143 4.74804 7.82549C5.06356 8.52132 5.58273 9.25803 6.26775 9.94074C6.43284 10.1051 6.59484 10.2701 6.76918 10.4237C7.62037 11.1731 8.63469 11.7135 9.73147 12.002L10.1696 12.0691C10.3124 12.0768 10.4551 12.066 10.5986 12.0591C10.8232 12.0475 11.0426 11.9867 11.2412 11.8809C11.3422 11.8288 11.4408 11.7722 11.5366 11.7112C11.5366 11.7112 11.5698 11.6896 11.633 11.6417C11.7372 11.5646 11.8012 11.5098 11.8876 11.4196C11.9516 11.3532 12.0072 11.2753 12.0496 11.1866C12.1098 11.0609 12.17 10.8209 12.1946 10.6211C12.2132 10.4684 12.2078 10.3851 12.2054 10.3334C12.2023 10.2509 12.1337 10.1652 12.0589 10.129L11.6099 9.92763C11.6099 9.92763 10.9388 9.63526 10.5284 9.44857C10.4854 9.42982 10.4394 9.4191 10.3926 9.41694C10.3398 9.41152 10.2865 9.41746 10.2362 9.43436C10.1859 9.45126 10.1398 9.47872 10.101 9.51491C10.0971 9.51337 10.0454 9.55734 9.48769 10.2331C9.45568 10.2761 9.41159 10.3086 9.36103 10.3265C9.31047 10.3444 9.25574 10.3468 9.20381 10.3334C9.15356 10.3199 9.10432 10.3029 9.05647 10.2825C8.96081 10.2424 8.92764 10.2269 8.86207 10.1992C8.41932 10.006 8.0094 9.74492 7.64707 9.42543C7.54987 9.34057 7.45961 9.248 7.36704 9.15851C7.06355 8.86786 6.79906 8.53906 6.58018 8.18034L6.53467 8.10706C6.50198 8.05781 6.47555 8.00469 6.45598 7.94892C6.42667 7.83552 6.50304 7.74449 6.50304 7.74449C6.50304 7.74449 6.6905 7.53929 6.77767 7.4282C6.86253 7.3202 6.93427 7.21529 6.98055 7.14046C7.07158 6.99389 7.10013 6.84346 7.0523 6.72697C6.8363 6.19932 6.61258 5.67397 6.3827 5.15249C6.33718 5.04912 6.20218 4.97506 6.07953 4.9604C6.03787 4.95577 5.99621 4.95115 5.95455 4.94806C5.85096 4.94291 5.74714 4.94394 5.64367 4.95115L5.7995 4.94575Z" fill="#4EB747"/>
</svg>
