<svg width="16" height="15" viewBox="0 0 16 15" fill="none" xmlns="http://www.w3.org/2000/svg">
<path d="M3.77225 2.23872C3.77204 2.64284 3.61076 3.03032 3.32387 3.31593C3.03698 3.60154 2.64799 3.76189 2.24248 3.76168C1.83696 3.76148 1.44813 3.60075 1.16153 3.31486C0.874928 3.02896 0.714031 2.64131 0.714234 2.2372C0.714436 1.83308 0.875722 1.44559 1.16261 1.15998C1.4495 0.874372 1.83849 0.714032 2.244 0.714234C2.64952 0.714436 3.03835 0.875164 3.32495 1.16106C3.61155 1.44696 3.77245 1.8346 3.77225 2.23872ZM3.81812 4.89H0.760104V14.4285H3.81812V4.89ZM8.64978 4.89H5.60705V14.4285H8.61919V9.42308C8.61919 6.63467 12.2659 6.37563 12.2659 9.42308V14.4285H15.2857V8.38695C15.2857 3.68626 9.88827 3.86149 8.61919 6.16993L8.64978 4.89Z" fill="#125EA9"/>
</svg>
